<svg width="227" height="270" viewBox="0 0 227 270" fill="none" xmlns="http://www.w3.org/2000/svg">
<g clip-path="url(#clip0_186_666)">
<path d="M225.111 270H222.182C221.646 270 221.213 269.566 221.213 269.029C221.213 268.492 221.646 268.058 222.182 268.058H224.121V266.117C224.121 265.58 224.554 265.146 225.091 265.146C225.627 265.146 226.06 265.58 226.06 266.117V269.05C226.06 269.587 225.627 270.021 225.091 270.021L225.111 270Z" fill="#470F4C"/>
<path d="M216.283 270H210.384C209.847 270 209.414 269.566 209.414 269.029C209.414 268.492 209.847 268.058 210.384 268.058H216.283C216.819 268.058 217.252 268.492 217.252 269.029C217.252 269.566 216.819 270 216.283 270ZM204.485 270H198.586C198.049 270 197.616 269.566 197.616 269.029C197.616 268.492 198.049 268.058 198.586 268.058H204.485C205.021 268.058 205.454 268.492 205.454 269.029C205.454 269.566 205.021 270 204.485 270ZM192.687 270H186.788C186.251 270 185.818 269.566 185.818 269.029C185.818 268.492 186.251 268.058 186.788 268.058H192.687C193.223 268.058 193.656 268.492 193.656 269.029C193.656 269.566 193.223 270 192.687 270ZM180.889 270H174.99C174.453 270 174.02 269.566 174.02 269.029C174.02 268.492 174.453 268.058 174.99 268.058H180.889C181.425 268.058 181.858 268.492 181.858 269.029C181.858 269.566 181.425 270 180.889 270ZM169.091 270H163.192C162.655 270 162.222 269.566 162.222 269.029C162.222 268.492 162.655 268.058 163.192 268.058H169.091C169.627 268.058 170.06 268.492 170.06 269.029C170.06 269.566 169.627 270 169.091 270ZM157.293 270H151.394C150.857 270 150.424 269.566 150.424 269.029C150.424 268.492 150.857 268.058 151.394 268.058H157.293C157.829 268.058 158.262 268.492 158.262 269.029C158.262 269.566 157.829 270 157.293 270ZM145.495 270H139.595C139.059 270 138.626 269.566 138.626 269.029C138.626 268.492 139.059 268.058 139.595 268.058H145.495C146.031 268.058 146.464 268.492 146.464 269.029C146.464 269.566 146.031 270 145.495 270ZM133.696 270H127.797C127.261 270 126.828 269.566 126.828 269.029C126.828 268.492 127.261 268.058 127.797 268.058H133.696C134.233 268.058 134.666 268.492 134.666 269.029C134.666 269.566 134.233 270 133.696 270ZM121.898 270H115.999C115.463 270 115.03 269.566 115.03 269.029C115.03 268.492 115.463 268.058 115.999 268.058H121.898C122.435 268.058 122.868 268.492 122.868 269.029C122.868 269.566 122.435 270 121.898 270ZM110.1 270H104.201C103.665 270 103.232 269.566 103.232 269.029C103.232 268.492 103.665 268.058 104.201 268.058H110.1C110.637 268.058 111.07 268.492 111.07 269.029C111.07 269.566 110.637 270 110.1 270ZM98.3024 270H92.4033C91.8671 270 91.4339 269.566 91.4339 269.029C91.4339 268.492 91.8671 268.058 92.4033 268.058H98.3024C98.8386 268.058 99.2718 268.492 99.2718 269.029C99.2718 269.566 98.8386 270 98.3024 270ZM86.5043 270H80.6053C80.069 270 79.6359 269.566 79.6359 269.029C79.6359 268.492 80.069 268.058 80.6053 268.058H86.5043C87.0406 268.058 87.4737 268.492 87.4737 269.029C87.4737 269.566 87.0406 270 86.5043 270ZM74.7063 270H68.8073C68.271 270 67.8378 269.566 67.8378 269.029C67.8378 268.492 68.271 268.058 68.8073 268.058H74.7063C75.2426 268.058 75.6757 268.492 75.6757 269.029C75.6757 269.566 75.2426 270 74.7063 270ZM62.9082 270H57.0092C56.473 270 56.0398 269.566 56.0398 269.029C56.0398 268.492 56.473 268.058 57.0092 268.058H62.9082C63.4445 268.058 63.8777 268.492 63.8777 269.029C63.8777 269.566 63.4445 270 62.9082 270ZM51.1102 270H45.2112C44.6749 270 44.2418 269.566 44.2418 269.029C44.2418 268.492 44.6749 268.058 45.2112 268.058H51.1102C51.6465 268.058 52.0796 268.492 52.0796 269.029C52.0796 269.566 51.6465 270 51.1102 270ZM39.3122 270H33.4132C32.8769 270 32.4437 269.566 32.4437 269.029C32.4437 268.492 32.8769 268.058 33.4132 268.058H39.3122C39.8484 268.058 40.2816 268.492 40.2816 269.029C40.2816 269.566 39.8484 270 39.3122 270ZM27.5141 270H21.6151C21.0788 270 20.6457 269.566 20.6457 269.029C20.6457 268.492 21.0788 268.058 21.6151 268.058H27.5141C28.0504 268.058 28.4836 268.492 28.4836 269.029C28.4836 269.566 28.0504 270 27.5141 270ZM15.7161 270H9.81708C9.2808 270 8.84766 269.566 8.84766 269.029C8.84766 268.492 9.2808 268.058 9.81708 268.058H15.7161C16.2524 268.058 16.6855 268.492 16.6855 269.029C16.6855 269.566 16.2524 270 15.7161 270Z" fill="#470F4C"/>
<path d="M3.8983 270H0.969419C0.433145 270 0 269.566 0 269.029V266.096C0 265.559 0.433145 265.125 0.969419 265.125C1.50569 265.125 1.93884 265.559 1.93884 266.096V268.038H3.87768C4.41395 268.038 4.8471 268.472 4.8471 269.009C4.8471 269.546 4.41395 269.979 3.87768 269.979L3.8983 270Z" fill="#470F4C"/>
<path d="M0.969419 261.242C0.433145 261.242 0 260.809 0 260.272V254.447C0 253.91 0.433145 253.476 0.969419 253.476C1.50569 253.476 1.93884 253.91 1.93884 254.447V260.272C1.93884 260.809 1.50569 261.242 0.969419 261.242ZM0.969419 249.593C0.433145 249.593 0 249.159 0 248.622V242.798C0 242.26 0.433145 241.827 0.969419 241.827C1.50569 241.827 1.93884 242.26 1.93884 242.798V248.622C1.93884 249.159 1.50569 249.593 0.969419 249.593ZM0.969419 237.944C0.433145 237.944 0 237.51 0 236.973V231.148C0 230.611 0.433145 230.177 0.969419 230.177C1.50569 230.177 1.93884 230.611 1.93884 231.148V236.973C1.93884 237.51 1.50569 237.944 0.969419 237.944ZM0.969419 226.294C0.433145 226.294 0 225.861 0 225.324V219.499C0 218.962 0.433145 218.528 0.969419 218.528C1.50569 218.528 1.93884 218.962 1.93884 219.499V225.324C1.93884 225.861 1.50569 226.294 0.969419 226.294ZM0.969419 214.645C0.433145 214.645 0 214.211 0 213.674V207.85C0 207.313 0.433145 206.879 0.969419 206.879C1.50569 206.879 1.93884 207.313 1.93884 207.85V213.674C1.93884 214.211 1.50569 214.645 0.969419 214.645ZM0.969419 202.996C0.433145 202.996 0 202.562 0 202.025V196.2C0 195.663 0.433145 195.229 0.969419 195.229C1.50569 195.229 1.93884 195.663 1.93884 196.2V202.025C1.93884 202.562 1.50569 202.996 0.969419 202.996ZM0.969419 191.346C0.433145 191.346 0 190.913 0 190.376V184.551C0 184.014 0.433145 183.58 0.969419 183.58C1.50569 183.58 1.93884 184.014 1.93884 184.551V190.376C1.93884 190.913 1.50569 191.346 0.969419 191.346ZM0.969419 179.697C0.433145 179.697 0 179.263 0 178.726V172.902C0 172.365 0.433145 171.931 0.969419 171.931C1.50569 171.931 1.93884 172.365 1.93884 172.902V178.726C1.93884 179.263 1.50569 179.697 0.969419 179.697ZM0.969419 168.048C0.433145 168.048 0 167.614 0 167.077V161.252C0 160.715 0.433145 160.281 0.969419 160.281C1.50569 160.281 1.93884 160.715 1.93884 161.252V167.077C1.93884 167.614 1.50569 168.048 0.969419 168.048ZM0.969419 156.398C0.433145 156.398 0 155.965 0 155.428V149.603C0 149.066 0.433145 148.632 0.969419 148.632C1.50569 148.632 1.93884 149.066 1.93884 149.603V155.428C1.93884 155.965 1.50569 156.398 0.969419 156.398ZM0.969419 144.749C0.433145 144.749 0 144.315 0 143.778V137.954C0 137.417 0.433145 136.983 0.969419 136.983C1.50569 136.983 1.93884 137.417 1.93884 137.954V143.778C1.93884 144.315 1.50569 144.749 0.969419 144.749ZM0.969419 133.1C0.433145 133.1 0 132.666 0 132.129V126.304C0 125.767 0.433145 125.333 0.969419 125.333C1.50569 125.333 1.93884 125.767 1.93884 126.304V132.129C1.93884 132.666 1.50569 133.1 0.969419 133.1ZM0.969419 121.45C0.433145 121.45 0 121.017 0 120.48V114.655C0 114.118 0.433145 113.684 0.969419 113.684C1.50569 113.684 1.93884 114.118 1.93884 114.655V120.48C1.93884 121.017 1.50569 121.45 0.969419 121.45ZM0.969419 109.801C0.433145 109.801 0 109.367 0 108.83V103.006C0 102.469 0.433145 102.035 0.969419 102.035C1.50569 102.035 1.93884 102.469 1.93884 103.006V108.83C1.93884 109.367 1.50569 109.801 0.969419 109.801ZM0.969419 98.1517C0.433145 98.1517 0 97.7179 0 97.1809V91.3563C0 90.8192 0.433145 90.3855 0.969419 90.3855C1.50569 90.3855 1.93884 90.8192 1.93884 91.3563V97.1809C1.93884 97.7179 1.50569 98.1517 0.969419 98.1517ZM0.969419 86.5024C0.433145 86.5024 0 86.0686 0 85.5316V79.7069C0 79.1699 0.433145 78.7361 0.969419 78.7361C1.50569 78.7361 1.93884 79.1699 1.93884 79.7069V85.5316C1.93884 86.0686 1.50569 86.5024 0.969419 86.5024ZM0.969419 74.853C0.433145 74.853 0 74.4193 0 73.8823V68.0576C0 67.5206 0.433145 67.0868 0.969419 67.0868C1.50569 67.0868 1.93884 67.5206 1.93884 68.0576V73.8823C1.93884 74.4193 1.50569 74.853 0.969419 74.853ZM0.969419 63.2037C0.433145 63.2037 0 62.77 0 62.2329V56.4083C0 55.8712 0.433145 55.4375 0.969419 55.4375C1.50569 55.4375 1.93884 55.8712 1.93884 56.4083V62.2329C1.93884 62.77 1.50569 63.2037 0.969419 63.2037ZM0.969419 51.5544C0.433145 51.5544 0 51.1206 0 50.5836V44.7589C0 44.2219 0.433145 43.7882 0.969419 43.7882C1.50569 43.7882 1.93884 44.2219 1.93884 44.7589V50.5836C1.93884 51.1206 1.50569 51.5544 0.969419 51.5544ZM0.969419 39.9051C0.433145 39.9051 0 39.4713 0 38.9343V33.1096C0 32.5726 0.433145 32.1388 0.969419 32.1388C1.50569 32.1388 1.93884 32.5726 1.93884 33.1096V38.9343C1.93884 39.4713 1.50569 39.9051 0.969419 39.9051ZM0.969419 28.1938C0.433145 28.1938 0 27.76 0 27.223V21.3983C0 20.8613 0.433145 20.4276 0.969419 20.4276C1.50569 20.4276 1.93884 20.8613 1.93884 21.3983V27.223C1.93884 27.76 1.50569 28.1938 0.969419 28.1938ZM0.969419 16.5238C0.433145 16.5238 0 16.09 0 15.553V9.72835C0 9.19132 0.433145 8.75757 0.969419 8.75757C1.50569 8.75757 1.93884 9.19132 1.93884 9.72835V15.553C1.93884 16.09 1.50569 16.5238 0.969419 16.5238V16.5238Z" fill="#470F4C"/>
<path d="M0.969419 4.87454C0.433145 4.87454 0 4.44079 0 3.90376V0.970777C0 0.433752 0.433145 0 0.969419 0H3.8983C4.43458 0 4.86772 0.433752 4.86772 0.970777C4.86772 1.5078 4.43458 1.94155 3.8983 1.94155H1.93884V3.88311C1.93884 4.42013 1.50569 4.85389 0.969419 4.85389V4.87454Z" fill="#470F4C"/>
<path d="M216.284 1.94155H210.385C209.849 1.94155 209.415 1.5078 209.415 0.970777C209.415 0.433752 209.849 0 210.385 0H216.284C216.82 0 217.253 0.433752 217.253 0.970777C217.253 1.5078 216.82 1.94155 216.284 1.94155ZM204.486 1.94155H198.587C198.051 1.94155 197.617 1.5078 197.617 0.970777C197.617 0.433752 198.051 0 198.587 0H204.486C205.022 0 205.455 0.433752 205.455 0.970777C205.455 1.5078 205.022 1.94155 204.486 1.94155ZM192.688 1.94155H186.789C186.252 1.94155 185.819 1.5078 185.819 0.970777C185.819 0.433752 186.252 0 186.789 0H192.688C193.224 0 193.657 0.433752 193.657 0.970777C193.657 1.5078 193.224 1.94155 192.688 1.94155ZM180.89 1.94155H174.991C174.454 1.94155 174.021 1.5078 174.021 0.970777C174.021 0.433752 174.454 0 174.991 0H180.89C181.426 0 181.859 0.433752 181.859 0.970777C181.859 1.5078 181.426 1.94155 180.89 1.94155ZM169.092 1.94155H163.193C162.656 1.94155 162.223 1.5078 162.223 0.970777C162.223 0.433752 162.656 0 163.193 0H169.092C169.628 0 170.061 0.433752 170.061 0.970777C170.061 1.5078 169.628 1.94155 169.092 1.94155ZM157.294 1.94155H151.395C150.858 1.94155 150.425 1.5078 150.425 0.970777C150.425 0.433752 150.858 0 151.395 0H157.294C157.83 0 158.263 0.433752 158.263 0.970777C158.263 1.5078 157.83 1.94155 157.294 1.94155ZM145.496 1.94155H139.597C139.06 1.94155 138.627 1.5078 138.627 0.970777C138.627 0.433752 139.06 0 139.597 0H145.496C146.032 0 146.465 0.433752 146.465 0.970777C146.465 1.5078 146.032 1.94155 145.496 1.94155ZM133.698 1.94155H127.799C127.262 1.94155 126.829 1.5078 126.829 0.970777C126.829 0.433752 127.262 0 127.799 0H133.698C134.234 0 134.667 0.433752 134.667 0.970777C134.667 1.5078 134.234 1.94155 133.698 1.94155ZM121.9 1.94155H116.001C115.464 1.94155 115.031 1.5078 115.031 0.970777C115.031 0.433752 115.464 0 116.001 0H121.9C122.436 0 122.869 0.433752 122.869 0.970777C122.869 1.5078 122.436 1.94155 121.9 1.94155ZM110.102 1.94155H104.202C103.666 1.94155 103.233 1.5078 103.233 0.970777C103.233 0.433752 103.666 0 104.202 0H110.102C110.638 0 111.071 0.433752 111.071 0.970777C111.071 1.5078 110.638 1.94155 110.102 1.94155ZM98.3035 1.94155H92.4044C91.8682 1.94155 91.435 1.5078 91.435 0.970777C91.435 0.433752 91.8682 0 92.4044 0H98.3035C98.8397 0 99.2729 0.433752 99.2729 0.970777C99.2729 1.5078 98.8397 1.94155 98.3035 1.94155ZM86.5054 1.94155H80.6064C80.0701 1.94155 79.637 1.5078 79.637 0.970777C79.637 0.433752 80.0701 0 80.6064 0H86.5054C87.0417 0 87.4748 0.433752 87.4748 0.970777C87.4748 1.5078 87.0417 1.94155 86.5054 1.94155ZM74.7074 1.94155H68.8084C68.2721 1.94155 67.8389 1.5078 67.8389 0.970777C67.8389 0.433752 68.2721 0 68.8084 0H74.7074C75.2437 0 75.6768 0.433752 75.6768 0.970777C75.6768 1.5078 75.2437 1.94155 74.7074 1.94155ZM62.9093 1.94155H57.0103C56.474 1.94155 56.0409 1.5078 56.0409 0.970777C56.0409 0.433752 56.474 0 57.0103 0H62.9093C63.4456 0 63.8788 0.433752 63.8788 0.970777C63.8788 1.5078 63.4456 1.94155 62.9093 1.94155ZM51.1113 1.94155H45.2123C44.676 1.94155 44.2429 1.5078 44.2429 0.970777C44.2429 0.433752 44.676 0 45.2123 0H51.1113C51.6476 0 52.0807 0.433752 52.0807 0.970777C52.0807 1.5078 51.6476 1.94155 51.1113 1.94155ZM39.3133 1.94155H33.4142C32.878 1.94155 32.4448 1.5078 32.4448 0.970777C32.4448 0.433752 32.878 0 33.4142 0H39.3133C39.8495 0 40.2827 0.433752 40.2827 0.970777C40.2827 1.5078 39.8495 1.94155 39.3133 1.94155ZM27.5152 1.94155H21.6162C21.0799 1.94155 20.6468 1.5078 20.6468 0.970777C20.6468 0.433752 21.0799 0 21.6162 0H27.5152C28.0515 0 28.4846 0.433752 28.4846 0.970777C28.4846 1.5078 28.0515 1.94155 27.5152 1.94155ZM15.6966 1.94155H9.79754C9.26127 1.94155 8.82812 1.5078 8.82812 0.970777C8.82812 0.433752 9.26127 0 9.79754 0H15.6966C16.2328 0 16.666 0.433752 16.666 0.970777C16.666 1.5078 16.2328 1.94155 15.6966 1.94155Z" fill="#470F4C"/>
<path d="M225.112 4.87454C224.576 4.87454 224.143 4.44079 224.143 3.90376V1.94155H222.204C221.668 1.94155 221.234 1.5078 221.234 0.970777C221.234 0.433752 221.668 0 222.204 0H225.133C225.669 0 226.102 0.433752 226.102 0.970777V3.90376C226.102 4.44079 225.669 4.87454 225.133 4.87454H225.112Z" fill="#470F4C"/>
<path d="M225.112 261.242C224.576 261.242 224.143 260.809 224.143 260.272V254.447C224.143 253.91 224.576 253.476 225.112 253.476C225.648 253.476 226.081 253.91 226.081 254.447V260.272C226.081 260.809 225.648 261.242 225.112 261.242ZM225.112 249.593C224.576 249.593 224.143 249.159 224.143 248.622V242.798C224.143 242.261 224.576 241.827 225.112 241.827C225.648 241.827 226.081 242.261 226.081 242.798V248.622C226.081 249.159 225.648 249.593 225.112 249.593ZM225.112 237.944C224.576 237.944 224.143 237.51 224.143 236.973V231.148C224.143 230.611 224.576 230.178 225.112 230.178C225.648 230.178 226.081 230.611 226.081 231.148V236.973C226.081 237.51 225.648 237.944 225.112 237.944ZM225.112 226.294C224.576 226.294 224.143 225.861 224.143 225.324V219.499C224.143 218.962 224.576 218.528 225.112 218.528C225.648 218.528 226.081 218.962 226.081 219.499V225.324C226.081 225.861 225.648 226.294 225.112 226.294ZM225.112 214.645C224.576 214.645 224.143 214.211 224.143 213.674V207.85C224.143 207.313 224.576 206.879 225.112 206.879C225.648 206.879 226.081 207.313 226.081 207.85V213.674C226.081 214.211 225.648 214.645 225.112 214.645ZM225.112 202.996C224.576 202.996 224.143 202.562 224.143 202.025V196.2C224.143 195.663 224.576 195.23 225.112 195.23C225.648 195.23 226.081 195.663 226.081 196.2V202.025C226.081 202.562 225.648 202.996 225.112 202.996ZM225.112 191.346C224.576 191.346 224.143 190.913 224.143 190.376V184.551C224.143 184.014 224.576 183.58 225.112 183.58C225.648 183.58 226.081 184.014 226.081 184.551V190.376C226.081 190.913 225.648 191.346 225.112 191.346ZM225.112 179.697C224.576 179.697 224.143 179.263 224.143 178.726V172.902C224.143 172.365 224.576 171.931 225.112 171.931C225.648 171.931 226.081 172.365 226.081 172.902V178.726C226.081 179.263 225.648 179.697 225.112 179.697ZM225.112 168.048C224.576 168.048 224.143 167.614 224.143 167.077V161.252C224.143 160.715 224.576 160.282 225.112 160.282C225.648 160.282 226.081 160.715 226.081 161.252V167.077C226.081 167.614 225.648 168.048 225.112 168.048ZM225.112 156.398C224.576 156.398 224.143 155.965 224.143 155.428V149.603C224.143 149.066 224.576 148.632 225.112 148.632C225.648 148.632 226.081 149.066 226.081 149.603V155.428C226.081 155.965 225.648 156.398 225.112 156.398ZM225.112 144.749C224.576 144.749 224.143 144.315 224.143 143.778V137.954C224.143 137.417 224.576 136.983 225.112 136.983C225.648 136.983 226.081 137.417 226.081 137.954V143.778C226.081 144.315 225.648 144.749 225.112 144.749ZM225.112 133.1C224.576 133.1 224.143 132.666 224.143 132.129V126.304C224.143 125.767 224.576 125.334 225.112 125.334C225.648 125.334 226.081 125.767 226.081 126.304V132.129C226.081 132.666 225.648 133.1 225.112 133.1ZM225.112 121.45C224.576 121.45 224.143 121.017 224.143 120.48V114.655C224.143 114.118 224.576 113.684 225.112 113.684C225.648 113.684 226.081 114.118 226.081 114.655V120.48C226.081 121.017 225.648 121.45 225.112 121.45ZM225.112 109.801C224.576 109.801 224.143 109.367 224.143 108.83V103.006C224.143 102.469 224.576 102.035 225.112 102.035C225.648 102.035 226.081 102.469 226.081 103.006V108.83C226.081 109.367 225.648 109.801 225.112 109.801ZM225.112 98.1518C224.576 98.1518 224.143 97.7181 224.143 97.1811V91.3564C224.143 90.8194 224.576 90.3856 225.112 90.3856C225.648 90.3856 226.081 90.8194 226.081 91.3564V97.1811C226.081 97.7181 225.648 98.1518 225.112 98.1518ZM225.112 86.5025C224.576 86.5025 224.143 86.0688 224.143 85.5317V79.7071C224.143 79.17 224.576 78.7363 225.112 78.7363C225.648 78.7363 226.081 79.17 226.081 79.7071V85.5317C226.081 86.0688 225.648 86.5025 225.112 86.5025ZM225.112 74.8532C224.576 74.8532 224.143 74.4194 224.143 73.8824V68.0577C224.143 67.5207 224.576 67.087 225.112 67.087C225.648 67.087 226.081 67.5207 226.081 68.0577V73.8824C226.081 74.4194 225.648 74.8532 225.112 74.8532ZM225.112 63.2039C224.576 63.2039 224.143 62.7701 224.143 62.2331V56.4084C224.143 55.8714 224.576 55.4376 225.112 55.4376C225.648 55.4376 226.081 55.8714 226.081 56.4084V62.2331C226.081 62.7701 225.648 63.2039 225.112 63.2039ZM225.112 51.5545C224.576 51.5545 224.143 51.1208 224.143 50.5837V44.7591C224.143 44.2221 224.576 43.7883 225.112 43.7883C225.648 43.7883 226.081 44.2221 226.081 44.7591V50.5837C226.081 51.1208 225.648 51.5545 225.112 51.5545ZM225.112 39.9052C224.576 39.9052 224.143 39.4714 224.143 38.9344V33.1098C224.143 32.5727 224.576 32.139 225.112 32.139C225.648 32.139 226.081 32.5727 226.081 33.1098V38.9344C226.081 39.4714 225.648 39.9052 225.112 39.9052ZM225.112 28.2559C224.576 28.2559 224.143 27.8221 224.143 27.2851V21.4604C224.143 20.9234 224.576 20.4897 225.112 20.4897C225.648 20.4897 226.081 20.9234 226.081 21.4604V27.2851C226.081 27.8221 225.648 28.2559 225.112 28.2559ZM225.112 16.6065C224.576 16.6065 224.143 16.1728 224.143 15.6358V9.81111C224.143 9.27408 224.576 8.84033 225.112 8.84033C225.648 8.84033 226.081 9.27408 226.081 9.81111V15.6358C226.081 16.1728 225.648 16.6065 225.112 16.6065V16.6065Z" fill="#470F4C"/>
<path d="M108.78 45.2961C108.78 45.2961 101.065 31.2715 74.8499 31.2715C39.167 31.2715 32.9173 73.5313 29.5965 89.5594C26.0283 106.786 19.9023 115.068 19.9023 115.068C29.5965 132.687 55.3377 133.761 55.3377 133.761C52.7388 118.352 57.8541 86.1307 57.8541 86.1307C62.6393 87.3287 72.4366 89.0431 83.6571 86.7297C92.3819 84.9328 101.994 80.6985 110.78 71.8996C110.78 71.8996 110.038 51.3893 108.8 45.2755L108.78 45.2961ZM55.6265 102.2C54.9458 108.046 54.4508 115.006 54.5333 122.401C52.6151 123.103 50.4906 123.433 48.2836 123.289C40.5695 122.752 34.7324 116.659 35.2274 109.677C35.7224 102.696 42.364 97.4909 50.0575 98.0279C52.2026 98.1725 54.1827 98.7715 55.9565 99.6803C55.8534 100.506 55.7502 101.333 55.6471 102.2H55.6265Z" fill="#EBE7E7"/>
<path d="M55.3176 134.732C55.3176 134.732 55.297 134.732 55.2763 134.732C54.2038 134.69 28.8751 133.43 19.0159 115.543C18.8303 115.213 18.8509 114.8 19.0778 114.49C19.1397 114.407 25.1212 106.125 28.607 89.3528C28.7926 88.444 28.9989 87.432 29.2051 86.3579C32.8353 68.161 40.3844 30.28 74.8091 30.28C101.293 30.28 109.275 44.222 109.584 44.821C109.626 44.9037 109.667 45.0069 109.688 45.0895C110.925 51.2034 111.668 71.032 111.688 71.8582C111.688 72.1267 111.585 72.3952 111.4 72.5811C103.541 80.4506 94.2594 85.5111 83.7814 87.6798C73.1384 89.8692 63.7742 88.506 58.5765 87.308C57.7308 92.9674 53.9356 120.046 56.2251 133.575C56.2664 133.864 56.1839 134.153 55.9982 134.38C55.8126 134.587 55.5445 134.711 55.2763 134.711L55.3176 134.732ZM21.0373 115.109C29.3701 129.465 49.1298 132.212 54.1832 132.687C53.8119 130.022 53.6469 126.945 53.6263 123.681C51.8731 124.177 50.058 124.342 48.2016 124.218C44.2415 123.95 40.5907 122.277 37.9712 119.53C35.3104 116.762 33.9904 113.23 34.2379 109.574C34.4854 105.918 36.3005 102.613 39.3119 100.238C42.3026 97.8833 46.139 96.7473 50.0992 97.0365C51.8731 97.1604 53.6056 97.5735 55.2351 98.2551C56.0189 91.4596 56.782 86.4818 56.8645 85.9655C56.9058 85.6969 57.0708 85.4491 57.2977 85.3045C57.5246 85.1599 57.8133 85.098 58.0815 85.1806C62.8254 86.3786 72.4371 88.0516 83.4514 85.7796C93.4137 83.7347 102.262 78.9222 109.791 71.5071C109.667 68.5741 108.966 51.286 107.872 45.6266C107.047 44.3047 98.8589 32.2216 74.871 32.2216C42.0345 32.2216 34.6916 69.0285 31.1852 86.7297C30.9583 87.8037 30.7727 88.8158 30.5665 89.7453C27.4519 104.761 22.4605 113.023 21.0579 115.109H21.0373ZM48.9235 98.9367C45.809 98.9367 42.8595 99.9281 40.5082 101.766C37.9299 103.791 36.383 106.62 36.1767 109.698C35.9498 112.796 37.0843 115.812 39.3737 118.166C41.6632 120.562 44.8602 122.008 48.346 122.256C50.1198 122.38 51.8731 122.173 53.5644 121.657C53.5231 115.295 53.8944 108.706 54.6576 102.035C54.7401 101.415 54.8019 100.796 54.8844 100.197C53.3375 99.4944 51.6874 99.0606 49.9755 98.9574C49.6248 98.9367 49.2742 98.916 48.9442 98.916L48.9235 98.9367Z" fill="#470F4C"/>
<path d="M182.971 76.9393C178.495 56.7182 164.655 31.9738 141.657 31.2508C118.659 30.5279 108.779 45.2755 108.779 45.2755L110.759 71.8996C116.184 81.9998 127.013 86.7297 137.779 88.8159C146.484 90.5096 155.126 90.4683 160.839 90.1584C160.839 90.1584 161.045 95.033 161.417 99.7423C163.149 98.8541 165.109 98.2758 167.213 98.1312C174.927 97.5942 181.568 102.799 182.043 109.781C182.538 116.762 176.68 122.855 168.986 123.392C166.779 123.557 164.655 123.206 162.737 122.504C162.799 116.431 162.469 110.71 161.974 105.608C162.489 112.197 162.696 126.903 162.819 132.79L162.592 133.74C190.706 131.22 192.665 121.079 192.665 121.079C185.487 119.55 186.89 94.6818 182.971 76.9187V76.9393Z" fill="#EBE7E7"/>
<path d="M162.593 134.732C162.304 134.732 162.036 134.608 161.851 134.401C161.644 134.174 161.562 133.843 161.644 133.534L161.851 132.687L161.789 129.63C161.665 122.752 161.459 111.247 161.005 105.691C160.964 105.154 161.355 104.679 161.892 104.638C162.449 104.576 162.902 104.989 162.944 105.526C163.48 111.123 163.727 116.597 163.707 121.822C165.378 122.339 167.131 122.545 168.925 122.421C176.082 121.926 181.528 116.287 181.095 109.863C180.641 103.44 174.474 98.627 167.296 99.1227C165.398 99.2673 163.562 99.763 161.871 100.631C161.582 100.775 161.232 100.775 160.964 100.631C160.675 100.465 160.489 100.176 160.469 99.8663C160.2 96.4582 160.015 92.9056 159.932 91.2325C154.178 91.5011 145.927 91.4391 137.615 89.828C124.023 87.1842 114.7 81.3182 109.914 72.416C109.853 72.2921 109.811 72.1681 109.791 72.0235L107.811 45.3995C107.811 45.1723 107.852 44.9657 107.976 44.7798C108.388 44.1602 118.412 29.5779 141.699 30.3214C163.934 31.0237 178.929 54.1571 183.92 76.7742C185.323 83.1565 186.045 90.3031 186.725 97.2018C187.819 108.087 188.932 119.344 192.851 120.191C193.367 120.294 193.718 120.81 193.614 121.327C193.532 121.76 191.201 132.212 162.676 134.773C162.655 134.773 162.614 134.773 162.593 134.773V134.732ZM163.624 123.805C163.666 125.912 163.707 127.895 163.727 129.589L163.789 132.666C185.178 130.497 190.273 123.929 191.407 121.678C186.994 119.447 186.003 109.595 184.787 97.3464C184.106 90.5096 183.405 83.425 182.002 77.1459C177.176 55.2725 162.799 32.9033 141.616 32.2217C121.094 31.5607 111.234 43.6231 109.77 45.5647L111.709 71.6104C116.226 79.893 125.074 85.3459 137.966 87.8658C146.567 89.5389 155.106 89.5182 160.778 89.1877C161.046 89.1877 161.294 89.2703 161.479 89.4356C161.665 89.6215 161.789 89.8487 161.789 90.1172C161.789 90.1585 161.954 94.1036 162.263 98.2758C163.81 97.6562 165.46 97.2638 167.131 97.1605C175.361 96.5615 182.476 102.221 183.013 109.719C183.528 117.216 177.279 123.785 169.049 124.363C167.193 124.487 165.378 124.301 163.604 123.826L163.624 123.805Z" fill="#470F4C"/>
<path d="M107.812 190.81C84.7316 190.81 68.7672 180.358 60.3311 159.724C57.9385 153.879 56.1853 147.207 55.0922 139.875C53.8958 131.861 53.504 123.165 53.9165 113.974C54.3084 104.947 56.6185 87.4321 56.6391 87.2462C56.701 86.7091 57.196 86.3374 57.7323 86.3993C58.2685 86.4613 58.6398 86.957 58.5779 87.494C58.5573 87.6593 56.2678 105.113 55.8553 114.035C55.4428 123.082 55.8553 131.675 57.0104 139.544C58.0829 146.711 59.7949 153.259 62.1256 158.939C70.2316 178.768 85.5979 188.827 107.812 188.827C108.369 188.827 108.946 188.827 109.524 188.827C134.791 188.248 151.065 176.991 157.912 155.366C162.409 141.114 162.1 125.127 161.481 114.325C161.398 113.106 161.336 111.908 161.254 110.751C161.027 107.715 160.779 104.865 160.573 102.283C160.14 97.3464 159.81 93.4426 159.893 90.8401C159.913 90.3031 160.305 89.8693 160.903 89.9106C161.44 89.9106 161.852 90.3857 161.831 90.9227C161.749 93.4013 162.079 97.2638 162.491 102.138C162.718 104.741 162.966 107.591 163.193 110.648C163.275 111.825 163.358 113.023 163.42 114.263C164.059 125.21 164.368 141.444 159.769 156.006C152.653 178.52 135.76 190.231 109.565 190.83C108.967 190.83 108.369 190.83 107.791 190.83L107.812 190.81Z" fill="#470F4C"/>
<path d="M88.5882 116.824C88.5882 118.91 86.8968 120.604 84.8136 120.604C82.7304 120.604 81.0391 118.91 81.0391 116.824C81.0391 114.738 82.7304 113.044 84.8136 113.044C86.8968 113.044 88.5882 114.738 88.5882 116.824Z" fill="#470F4C"/>
<path d="M84.8143 121.574C82.1948 121.574 80.0703 119.447 80.0703 116.824C80.0703 114.201 82.1948 112.073 84.8143 112.073C87.4338 112.073 89.5582 114.201 89.5582 116.824C89.5582 119.447 87.4338 121.574 84.8143 121.574ZM84.8143 114.015C83.2673 114.015 82.0091 115.275 82.0091 116.824C82.0091 118.373 83.2673 119.633 84.8143 119.633C86.3612 119.633 87.6194 118.373 87.6194 116.824C87.6194 115.275 86.3612 114.015 84.8143 114.015Z" fill="#470F4C"/>
<path d="M155.312 198.885C155.312 198.885 152.445 228.98 110.41 228.98C68.3738 228.98 66.2287 198.885 66.2287 198.885C66.2287 198.885 1.56641 204.276 1.56641 269.029H57.0089C57.0089 269.029 56.1633 256.43 61.196 253.745C61.196 253.745 84.5446 256.079 104.655 253.208C124.765 250.337 167.151 254.282 167.151 254.282C167.151 254.282 169.482 264.361 168.76 269.029H225.688C225.688 269.029 227.833 198.885 155.292 198.885H155.312Z" fill="#470F4C"/>
<path d="M225.709 270H168.782C168.493 270 168.225 269.876 168.039 269.67C167.853 269.463 167.771 269.174 167.812 268.885C168.39 265.126 166.863 257.525 166.368 255.191C160.737 254.695 123.178 251.535 104.8 254.179C86.0716 256.864 64.3112 255.025 61.4236 254.757C57.979 256.988 57.7728 265.725 57.979 268.988C57.979 269.257 57.8965 269.525 57.7109 269.711C57.5253 269.897 57.2777 270.021 56.989 270.021H1.56708C1.0308 270.021 0.597656 269.587 0.597656 269.05C0.597656 204.153 65.4869 197.997 66.1469 197.935C66.415 197.915 66.6625 197.997 66.8688 198.163C67.0751 198.328 67.1988 198.576 67.2194 198.824C67.3019 200.022 69.8596 228.009 110.431 228.009C151.002 228.009 154.24 200.001 154.364 198.803C154.405 198.307 154.838 197.915 155.333 197.915C177.444 197.915 194.915 204.38 207.249 217.124C227.421 237.944 226.72 268.74 226.699 269.05C226.699 269.587 226.245 270 225.73 270H225.709ZM169.854 268.059H224.74C224.678 262.792 223.461 236.684 205.826 218.466C194.007 206.28 177.3 200.022 156.159 199.856C155.251 204.917 148.754 229.95 110.431 229.95C72.1078 229.95 66.2913 205.309 65.4044 199.96C57.6078 200.951 3.1759 210.039 2.57775 268.038H55.9989C55.9164 264.836 56.0814 255.377 60.7429 252.857C60.9079 252.774 61.1142 252.733 61.2998 252.753C61.5267 252.774 84.7515 255.046 104.532 252.216C124.518 249.345 166.822 253.249 167.255 253.29C167.668 253.332 168.018 253.642 168.122 254.034C168.204 254.426 170.164 262.957 169.875 268.017L169.854 268.059Z" fill="#470F4C"/>
<path d="M155.313 199.856C154.777 199.856 154.344 199.422 154.344 198.885V164.433C154.344 163.896 154.777 163.462 155.313 163.462C155.849 163.462 156.283 163.896 156.283 164.433V198.885C156.283 199.422 155.849 199.856 155.313 199.856Z" fill="#470F4C"/>
<path d="M66.2292 199.856C65.6929 199.856 65.2598 199.422 65.2598 198.885V168.998C65.2598 168.461 65.6929 168.027 66.2292 168.027C66.7655 168.027 67.1986 168.461 67.1986 168.998V198.885C67.1986 199.422 66.7655 199.856 66.2292 199.856Z" fill="#470F4C"/>
<path d="M49.3572 124.28C48.9653 124.28 48.5941 124.28 48.2022 124.239C44.242 123.97 40.5912 122.297 37.9717 119.55C35.311 116.783 33.9909 113.251 34.2384 109.595C34.4859 105.939 36.301 102.634 39.3124 100.259C42.3031 97.904 46.1396 96.768 50.0998 97.0572C52.3067 97.2017 54.4106 97.8007 56.37 98.8128C56.7413 98.9987 56.9476 99.3912 56.8857 99.8043C56.7826 100.61 56.6794 101.457 56.5763 102.303C55.7925 109.14 55.4212 115.894 55.4831 122.38C55.4831 122.793 55.2356 123.165 54.8437 123.309C53.0699 123.95 51.2136 124.28 49.3366 124.28H49.3572ZM48.9447 98.9574C45.8302 98.9574 42.8807 99.9488 40.5293 101.787C37.9511 103.811 36.4041 106.641 36.1979 109.719C35.971 112.817 37.1054 115.832 39.3949 118.187C41.6844 120.583 44.8814 122.029 48.3672 122.277C50.141 122.401 51.8942 122.194 53.5855 121.678C53.5443 115.316 53.9156 108.727 54.6787 102.056C54.7612 101.436 54.8231 100.816 54.9056 100.217C53.3587 99.5151 51.7086 99.0813 49.9966 98.9781C49.646 98.9574 49.2953 98.9368 48.9653 98.9368L48.9447 98.9574Z" fill="#470F4C"/>
<path d="M50.2652 119.075C49.9764 119.075 49.7083 119.075 49.4195 119.055C43.9124 118.662 39.7047 114.614 40.0141 110.008C40.3441 105.402 45.0468 101.973 50.5952 102.366C52.4721 102.489 54.2872 103.068 55.8342 104.039C56.1436 104.245 56.3292 104.596 56.2879 104.968C55.8754 109.058 55.6279 113.189 55.5248 117.237C55.5248 117.609 55.2979 117.939 54.9473 118.105C53.5034 118.765 51.8946 119.096 50.2445 119.096L50.2652 119.075ZM49.7495 104.266C45.6243 104.266 42.2004 106.786 41.9735 110.132C41.726 113.664 45.1293 116.783 49.5639 117.092C50.9664 117.196 52.3484 116.989 53.6066 116.514C53.7097 112.817 53.9366 109.078 54.3078 105.361C53.1528 104.741 51.8327 104.369 50.4714 104.266C50.2239 104.266 49.997 104.245 49.7495 104.245V104.266Z" fill="#470F4C"/>
<path d="M167.915 124.404C166.038 124.404 164.181 124.074 162.408 123.433C162.016 123.289 161.768 122.917 161.768 122.504C161.83 115.998 161.459 109.243 160.675 102.427C160.572 101.56 160.469 100.734 160.366 99.928C160.304 99.5149 160.531 99.1225 160.881 98.9366C162.841 97.9245 164.945 97.3255 167.152 97.1809C175.381 96.582 182.497 102.241 183.034 109.739C183.549 117.237 177.3 123.805 169.07 124.383C168.678 124.404 168.307 124.425 167.915 124.425V124.404ZM163.728 121.822C165.398 122.339 167.152 122.545 168.946 122.421C176.103 121.925 181.548 116.287 181.115 109.863C180.662 103.439 174.494 98.6268 167.317 99.1225C165.605 99.2464 163.955 99.6595 162.408 100.362C162.49 100.961 162.552 101.58 162.634 102.2C163.398 108.851 163.769 115.44 163.748 121.822H163.728Z" fill="#470F4C"/>
<path d="M166.987 119.199C165.337 119.199 163.728 118.869 162.284 118.208C161.933 118.063 161.727 117.712 161.706 117.34C161.603 113.292 161.356 109.161 160.943 105.071C160.902 104.699 161.088 104.348 161.397 104.142C162.944 103.171 164.759 102.593 166.636 102.469C172.122 102.076 176.887 105.505 177.217 110.111C177.382 112.383 176.454 114.572 174.639 116.287C172.865 117.96 170.452 118.972 167.812 119.158C167.523 119.158 167.255 119.178 166.966 119.178L166.987 119.199ZM163.645 116.658C164.903 117.134 166.285 117.319 167.688 117.216C169.874 117.072 171.875 116.225 173.319 114.861C174.701 113.56 175.402 111.908 175.299 110.235C175.051 106.703 171.236 104.1 166.801 104.389C165.44 104.493 164.12 104.865 162.965 105.484C163.315 109.202 163.563 112.941 163.666 116.638L163.645 116.658Z" fill="#470F4C"/>
<path d="M154.715 91.3151C149.661 91.3151 143.659 90.964 137.616 89.7867C124.023 87.1428 114.7 81.2769 109.915 72.3746C109.668 71.8996 109.833 71.3006 110.307 71.0527C110.781 70.8049 111.38 70.9701 111.627 71.4452C116.124 79.831 124.993 85.3459 137.987 87.8658C146.588 89.5388 155.127 89.4975 160.799 89.1877C164.801 88.9605 167.358 88.5887 167.379 88.5887C167.895 88.5061 168.41 88.8778 168.493 89.4149C168.575 89.9519 168.204 90.4476 167.668 90.5302C167.565 90.5302 164.986 90.9227 160.902 91.1499C159.108 91.2532 157.004 91.3151 154.715 91.3151Z" fill="#470F4C"/>
<path d="M45.5421 98.9574C45.5421 98.9574 45.3977 98.9574 45.3358 98.9368C44.8202 98.8129 44.4696 98.2965 44.5933 97.7801C44.6552 97.5116 50.8636 70.1026 71.077 56.8009C91.4348 43.4166 109.049 52.1742 109.214 52.2775C109.689 52.5254 109.874 53.1037 109.648 53.5788C109.4 54.0538 108.822 54.2604 108.327 54.0125C108.162 53.9299 91.5173 45.7093 72.1496 58.4327C52.6168 71.28 46.5528 97.9247 46.4909 98.1932C46.3878 98.6476 45.9959 98.9574 45.5421 98.9574Z" fill="#470F4C"/>
<path d="M37.7248 130.724C37.6217 130.724 37.4979 130.724 37.3948 130.662C36.8791 130.477 36.6316 129.919 36.8173 129.403L40.0762 120.459C40.2618 119.963 40.8187 119.695 41.3343 119.881C41.85 120.067 42.0975 120.624 41.9119 121.141L38.653 130.084C38.5086 130.477 38.1373 130.724 37.7454 130.724H37.7248Z" fill="#470F4C"/>
<path d="M59.8979 87.5765C59.7329 87.5765 59.5679 87.5352 59.4235 87.4526C58.9491 87.1841 58.7841 86.6057 59.0523 86.1307C78.1106 51.6578 109.71 60.4567 110.019 60.5393C110.535 60.6839 110.823 61.2416 110.679 61.758C110.535 62.2743 109.978 62.5635 109.462 62.4189C108.225 62.0678 79.0388 53.9918 60.7436 87.0808C60.558 87.4113 60.2279 87.5765 59.8979 87.5765Z" fill="#470F4C"/>
<path d="M48.1621 133.781C48.1621 133.781 47.997 133.781 47.8939 133.74C47.3783 133.596 47.0689 133.058 47.2133 132.542L49.8328 123.041C49.9771 122.525 50.5134 122.215 51.0291 122.359C51.5447 122.504 51.8541 123.041 51.7097 123.557L49.0902 133.058C48.9665 133.492 48.5746 133.781 48.1621 133.781Z" fill="#470F4C"/>
<path d="M71.2423 88.8364C71.0773 88.8364 70.933 88.7951 70.7679 88.7125C70.2936 88.4646 70.1285 87.8656 70.3761 87.3906C70.4998 87.1634 82.9579 64.8768 109.792 67.0456C110.329 67.0869 110.72 67.5619 110.679 68.099C110.638 68.636 110.163 69.0284 109.627 68.9871C83.9686 66.8803 72.1911 88.0928 72.0674 88.2994C71.8817 88.6299 71.5517 88.8158 71.2011 88.8158L71.2423 88.8364Z" fill="#470F4C"/>
<path d="M143.804 90.5302C143.412 90.5302 143.02 90.2824 142.876 89.8693C142.567 89.0018 135.059 68.3676 110.741 68.3676C110.205 68.3676 109.771 67.9338 109.771 67.3968C109.771 66.8598 110.205 66.426 110.741 66.426C136.461 66.426 144.629 89.0018 144.712 89.229C144.897 89.7453 144.629 90.303 144.114 90.4683C144.011 90.5096 143.907 90.5302 143.784 90.5302H143.804Z" fill="#470F4C"/>
<path d="M159.253 90.5303C158.779 90.5303 158.366 90.1791 158.284 89.7041C158.077 88.3202 152.632 55.7888 110.328 61.345C109.792 61.407 109.297 61.0352 109.235 60.4981C109.173 59.9611 109.545 59.4654 110.081 59.4034C154.344 53.5788 160.161 89.0431 160.223 89.3943C160.305 89.9313 159.934 90.427 159.398 90.5096C159.356 90.5096 159.294 90.5096 159.253 90.5096V90.5303Z" fill="#470F4C"/>
<path d="M174.434 100.383C173.939 100.383 173.526 100.011 173.464 99.5151C173.258 97.6355 167.978 53.207 143.639 48.9521C122.869 45.3168 110.988 55.9747 110.864 56.078C110.473 56.4498 109.854 56.4085 109.483 56.0161C109.111 55.6236 109.132 55.004 109.544 54.6322C110.06 54.1571 122.209 43.2101 143.969 47.0105C164.533 50.6045 173.402 81.5661 175.403 99.2673C175.465 99.8043 175.073 100.279 174.537 100.341C174.496 100.341 174.454 100.341 174.434 100.341V100.383Z" fill="#470F4C"/>
<path d="M176.27 132.501C175.775 132.501 175.362 132.129 175.3 131.633L174.29 121.636C174.228 121.099 174.62 120.624 175.156 120.562C175.672 120.521 176.167 120.893 176.228 121.43L177.239 131.427C177.301 131.964 176.909 132.439 176.373 132.501C176.332 132.501 176.311 132.501 176.27 132.501Z" fill="#470F4C"/>
<path d="M166.122 134.36C165.585 134.36 165.152 133.926 165.152 133.389V123.309C165.152 122.772 165.585 122.339 166.122 122.339C166.658 122.339 167.091 122.772 167.091 123.309V133.389C167.091 133.926 166.658 134.36 166.122 134.36Z" fill="#470F4C"/>
<path d="M185.612 129.031C185.097 129.031 184.664 128.638 184.643 128.122C184.602 127.399 179.817 54.7354 154.9 43.3132C130.046 31.9118 109.606 48.5802 109.4 48.7455C109.09 48.9933 108.657 49.0346 108.306 48.8487C108.038 48.7041 81.039 34.2458 62.9294 46.1016C48.9862 55.2311 42.3034 78.2199 36.425 98.5029C33.5374 108.397 30.8354 117.753 27.5971 123.764C27.329 124.239 26.7515 124.404 26.2771 124.156C25.8027 123.908 25.6171 123.309 25.8852 122.834C29.0203 117.01 31.7017 107.756 34.5481 97.9453C40.5296 77.3317 47.3155 53.9918 61.8568 44.4492C79.6776 32.7793 104.511 44.6558 108.678 46.8039C112.102 44.222 131.964 30.6105 155.705 41.4956C166.678 46.5354 175.196 62.6462 181.054 89.4355C185.386 109.223 186.561 127.791 186.582 127.977C186.623 128.514 186.211 128.969 185.674 129.01C185.654 129.01 185.633 129.01 185.612 129.01V129.031Z" fill="#470F4C"/>
<path d="M104.017 140.866C103.501 140.866 103.068 140.474 103.048 139.937C103.027 139.4 103.419 138.945 103.976 138.904C106.657 138.759 111.195 138.284 113.072 137.582C113.216 134.236 113.732 117.216 110.555 105.195C110.411 104.679 110.721 104.142 111.257 103.997C111.793 103.853 112.309 104.162 112.453 104.699C116.042 118.311 115.031 137.479 114.99 138.284C114.99 138.615 114.784 138.924 114.495 139.069C112.206 140.37 104.904 140.804 104.079 140.845C104.079 140.845 104.038 140.845 104.017 140.845V140.866Z" fill="#470F4C"/>
<path d="M68.3752 105.939C68.2102 105.939 68.0246 105.897 67.8802 105.794C67.4264 105.526 67.2614 104.927 67.5295 104.452C67.7152 104.142 72.3354 96.706 87.4336 97.1191C87.9698 97.1191 88.403 97.5942 88.3824 98.1312C88.3824 98.6682 87.908 99.0607 87.3717 99.0813C73.4492 98.6682 69.2415 105.402 69.2002 105.464C69.0146 105.774 68.6846 105.939 68.3546 105.939H68.3752Z" fill="#470F4C"/>
<path d="M134.027 120.604C136.111 120.604 137.801 118.911 137.801 116.824C137.801 114.736 136.111 113.044 134.027 113.044C131.942 113.044 130.252 114.736 130.252 116.824C130.252 118.911 131.942 120.604 134.027 120.604Z" fill="#470F4C"/>
<path d="M134.027 121.574C131.408 121.574 129.283 119.447 129.283 116.824C129.283 114.201 131.408 112.073 134.027 112.073C136.647 112.073 138.771 114.201 138.771 116.824C138.771 119.447 136.647 121.574 134.027 121.574ZM134.027 114.015C132.48 114.015 131.222 115.275 131.222 116.824C131.222 118.373 132.48 119.633 134.027 119.633C135.574 119.633 136.832 118.373 136.832 116.824C136.832 115.275 135.574 114.015 134.027 114.015Z" fill="#470F4C"/>
<path d="M150.446 105.939C150.116 105.939 149.786 105.773 149.6 105.464C149.538 105.34 145.248 98.6475 131.429 99.0812C130.913 99.0606 130.439 98.6681 130.418 98.1311C130.418 97.5941 130.83 97.1397 131.367 97.119C146.527 96.6853 151.085 104.142 151.271 104.452C151.539 104.906 151.395 105.505 150.92 105.794C150.755 105.877 150.59 105.939 150.425 105.939H150.446Z" fill="#470F4C"/>
<path d="M111.481 139.895C111.481 139.895 81.1197 139.627 75.7363 155.262C75.7363 155.262 82.1922 161.789 98.0949 158.113C113.997 154.436 111.481 139.875 111.481 139.875V139.895Z" fill="#EBE7E7"/>
<path d="M88.9378 160.22C79.4293 160.22 75.2835 156.171 75.0566 155.944C74.7884 155.676 74.7059 155.283 74.8297 154.932C80.3781 138.801 110.224 138.904 111.503 138.904C111.977 138.904 112.369 139.255 112.451 139.709C112.472 139.854 114.927 155.221 98.3226 159.063C94.7544 159.889 91.6192 160.22 88.9378 160.22ZM76.9129 154.953C78.6042 156.233 85.0808 160.116 97.8895 157.163C110.719 154.209 110.863 143.902 110.636 140.866C105.81 140.969 82.0488 142.167 76.9129 154.953Z" fill="#470F4C"/>
<path d="M77.4086 152.949C76.9342 152.949 76.5217 152.598 76.4392 152.102C76.3567 151.565 76.728 151.07 77.2642 151.008C77.5118 150.966 101.727 147.538 109.503 139.255C109.874 138.863 110.493 138.842 110.885 139.214C111.276 139.585 111.297 140.205 110.926 140.598C102.696 149.397 78.5637 152.805 77.5324 152.949C77.4911 152.949 77.4499 152.949 77.388 152.949H77.4086Z" fill="#470F4C"/>
<path d="M79.946 158.671C79.4097 158.671 78.9766 158.237 78.9766 157.72C78.9766 157.183 79.3891 156.729 79.946 156.729C80.1729 156.729 102.593 156.171 110.245 140.453C110.493 139.957 111.071 139.771 111.545 139.999C112.019 140.226 112.226 140.825 111.999 141.3C103.81 158.092 80.936 158.65 79.9666 158.671H79.946Z" fill="#470F4C"/>
<path d="M110.761 139.895C110.761 139.895 141.122 139.627 146.505 155.262C146.505 155.262 140.049 161.789 124.147 158.113C108.244 154.457 110.761 139.875 110.761 139.875V139.895Z" fill="#EBE7E7"/>
<path d="M133.305 160.22C130.624 160.22 127.488 159.889 123.92 159.063C107.316 155.242 109.771 139.875 109.791 139.709C109.874 139.234 110.266 138.904 110.74 138.904C112.04 138.904 141.865 138.821 147.413 154.932C147.537 155.283 147.454 155.676 147.186 155.944C146.959 156.171 142.813 160.22 133.305 160.22ZM111.606 140.866C111.359 143.882 111.503 154.209 124.353 157.163C137.141 160.116 143.639 156.233 145.33 154.953C140.194 142.167 116.433 140.969 111.606 140.866Z" fill="#470F4C"/>
<path d="M144.855 152.949C144.855 152.949 144.772 152.949 144.71 152.949C143.679 152.805 119.567 149.397 111.317 140.598C110.946 140.205 110.966 139.585 111.358 139.214C111.75 138.842 112.369 138.863 112.74 139.255C120.495 147.558 144.731 150.987 144.978 151.008C145.515 151.09 145.886 151.565 145.803 152.102C145.742 152.598 145.308 152.949 144.834 152.949H144.855Z" fill="#470F4C"/>
<path d="M142.298 158.671C141.328 158.671 118.454 158.092 110.266 141.3C110.039 140.825 110.225 140.226 110.72 139.999C111.215 139.771 111.792 139.957 112.019 140.453C119.692 156.192 142.112 156.729 142.318 156.729C142.855 156.729 143.288 157.183 143.288 157.72C143.288 158.257 142.834 158.691 142.318 158.691L142.298 158.671Z" fill="#470F4C"/>
<path d="M112.679 161.335C109.111 161.335 107.193 160.158 107.049 160.075C106.595 159.786 106.45 159.187 106.739 158.732C107.028 158.278 107.626 158.154 108.08 158.423C108.142 158.464 113.071 161.355 122.126 156.832C122.601 156.584 123.199 156.791 123.426 157.266C123.673 157.741 123.467 158.34 122.992 158.567C118.723 160.695 115.278 161.314 112.679 161.314V161.335Z" fill="#470F4C"/>
<path d="M168.782 270H57.0104C56.4948 270 56.0823 269.608 56.041 269.091C55.9998 268.554 55.216 255.831 60.7437 252.877C60.9087 252.795 61.115 252.753 61.3006 252.774C61.5275 252.795 84.7523 255.067 104.533 252.237C124.519 249.366 166.823 253.27 167.256 253.311C167.669 253.352 168.019 253.662 168.122 254.054C168.226 254.468 170.494 264.361 169.752 269.174C169.669 269.649 169.277 270 168.782 270ZM57.9386 268.058H167.896C168.184 264.113 166.823 257.359 166.349 255.191C160.718 254.695 123.158 251.535 104.78 254.178C86.0518 256.864 64.2914 255.025 61.4038 254.757C58.248 256.802 57.8149 264.32 57.918 268.058H57.9386Z" fill="#470F4C"/>
<path d="M109.566 189.818C87.6402 190.314 74.2746 181.391 66.2305 168.977V186.389C66.2305 186.389 123.199 215.802 155.314 171.414V164.392C148.136 178.602 134.564 189.26 109.586 189.818H109.566Z" fill="#470F4C"/>
<path d="M106.616 196.779C84.6905 196.779 66.1065 187.401 65.7765 187.236C65.4465 187.071 65.2402 186.74 65.2402 186.368V168.956C65.2402 168.523 65.529 168.151 65.9415 168.027C66.354 167.903 66.8078 168.068 67.0347 168.44C76.0895 182.403 90.342 189.281 109.545 188.847C131.223 188.351 146.341 179.986 154.427 163.958C154.633 163.566 155.087 163.338 155.52 163.442C155.953 163.545 156.263 163.937 156.263 164.392V171.414C156.263 171.621 156.201 171.827 156.077 171.993C142.113 191.305 123.364 196.799 106.595 196.799L106.616 196.779ZM67.1997 185.77C72.9956 188.537 124.684 211.671 154.324 171.084V168.151C145.537 182.692 130.501 190.314 109.586 190.789C90.8989 191.202 76.6876 184.923 67.1997 172.096V185.79V185.77Z" fill="#470F4C"/>
</g>
<defs>
<clipPath id="clip0_186_666">
<rect width="226.679" height="270" fill="white"/>
</clipPath>
</defs>
</svg>
