<svg width="227" height="270" viewBox="0 0 227 270" fill="none" xmlns="http://www.w3.org/2000/svg">
<g clip-path="url(#clip0_186_495)">
<path d="M224.879 270H221.953C221.417 270 220.984 269.566 220.984 269.029C220.984 268.492 221.417 268.058 221.953 268.058H223.89V266.117C223.89 265.58 224.322 265.146 224.858 265.146C225.394 265.146 225.826 265.58 225.826 266.117V269.05C225.826 269.587 225.394 270.021 224.858 270.021L224.879 270Z" fill="#470F4C"/>
<path d="M216.06 270H210.167C209.631 270 209.198 269.566 209.198 269.029C209.198 268.492 209.631 268.058 210.167 268.058H216.06C216.595 268.058 217.028 268.492 217.028 269.029C217.028 269.566 216.595 270 216.06 270ZM204.274 270H198.381C197.845 270 197.412 269.566 197.412 269.029C197.412 268.492 197.845 268.058 198.381 268.058H204.274C204.809 268.058 205.242 268.492 205.242 269.029C205.242 269.566 204.809 270 204.274 270ZM192.488 270H186.595C186.059 270 185.627 269.566 185.627 269.029C185.627 268.492 186.059 268.058 186.595 268.058H192.488C193.024 268.058 193.456 268.492 193.456 269.029C193.456 269.566 193.024 270 192.488 270ZM180.702 270H174.809C174.274 270 173.841 269.566 173.841 269.029C173.841 268.492 174.274 268.058 174.809 268.058H180.702C181.238 268.058 181.671 268.492 181.671 269.029C181.671 269.566 181.238 270 180.702 270ZM168.916 270H163.023C162.488 270 162.055 269.566 162.055 269.029C162.055 268.492 162.488 268.058 163.023 268.058H168.916C169.452 268.058 169.885 268.492 169.885 269.029C169.885 269.566 169.452 270 168.916 270ZM157.131 270H151.238C150.702 270 150.269 269.566 150.269 269.029C150.269 268.492 150.702 268.058 151.238 268.058H157.131C157.666 268.058 158.099 268.492 158.099 269.029C158.099 269.566 157.666 270 157.131 270ZM145.345 270H139.452C138.916 270 138.483 269.566 138.483 269.029C138.483 268.492 138.916 268.058 139.452 268.058H145.345C145.881 268.058 146.313 268.492 146.313 269.029C146.313 269.566 145.881 270 145.345 270ZM133.559 270H127.666C127.13 270 126.698 269.566 126.698 269.029C126.698 268.492 127.13 268.058 127.666 268.058H133.559C134.095 268.058 134.527 268.492 134.527 269.029C134.527 269.566 134.095 270 133.559 270ZM121.773 270H115.88C115.345 270 114.912 269.566 114.912 269.029C114.912 268.492 115.345 268.058 115.88 268.058H121.773C122.309 268.058 122.742 268.492 122.742 269.029C122.742 269.566 122.309 270 121.773 270ZM109.987 270H104.095C103.559 270 103.126 269.566 103.126 269.029C103.126 268.492 103.559 268.058 104.095 268.058H109.987C110.523 268.058 110.956 268.492 110.956 269.029C110.956 269.566 110.523 270 109.987 270ZM98.2017 270H92.3088C91.773 270 91.3404 269.566 91.3404 269.029C91.3404 268.492 91.773 268.058 92.3088 268.058H98.2017C98.7374 268.058 99.1701 268.492 99.1701 269.029C99.1701 269.566 98.7374 270 98.2017 270ZM86.4159 270H80.523C79.9873 270 79.5546 269.566 79.5546 269.029C79.5546 268.492 79.9873 268.058 80.523 268.058H86.4159C86.9516 268.058 87.3843 268.492 87.3843 269.029C87.3843 269.566 86.9516 270 86.4159 270ZM74.6301 270H68.7372C68.2015 270 67.7688 269.566 67.7688 269.029C67.7688 268.492 68.2015 268.058 68.7372 268.058H74.6301C75.1658 268.058 75.5985 268.492 75.5985 269.029C75.5985 269.566 75.1658 270 74.6301 270ZM62.8443 270H56.9514C56.4157 270 55.983 269.566 55.983 269.029C55.983 268.492 56.4157 268.058 56.9514 268.058H62.8443C63.38 268.058 63.8127 268.492 63.8127 269.029C63.8127 269.566 63.38 270 62.8443 270ZM51.0585 270H45.1656C44.6299 270 44.1972 269.566 44.1972 269.029C44.1972 268.492 44.6299 268.058 45.1656 268.058H51.0585C51.5942 268.058 52.0269 268.492 52.0269 269.029C52.0269 269.566 51.5942 270 51.0585 270ZM39.2727 270H33.3798C32.8441 270 32.4114 269.566 32.4114 269.029C32.4114 268.492 32.8441 268.058 33.3798 268.058H39.2727C39.8084 268.058 40.2411 268.492 40.2411 269.029C40.2411 269.566 39.8084 270 39.2727 270ZM27.4869 270H21.594C21.0583 270 20.6256 269.566 20.6256 269.029C20.6256 268.492 21.0583 268.058 21.594 268.058H27.4869C28.0227 268.058 28.4553 268.492 28.4553 269.029C28.4553 269.566 28.0227 270 27.4869 270ZM15.7011 270H9.80826C9.27254 270 8.83984 269.566 8.83984 269.029C8.83984 268.492 9.27254 268.058 9.80826 268.058H15.7011C16.2369 268.058 16.6696 268.492 16.6696 269.029C16.6696 269.566 16.2369 270 15.7011 270Z" fill="#470F4C"/>
<path d="M3.89425 270H0.968412C0.432695 270 0 269.566 0 269.029V266.096C0 265.559 0.432695 265.125 0.968412 265.125C1.50413 265.125 1.93682 265.559 1.93682 266.096V268.038H3.89425C4.42997 268.038 4.86267 268.472 4.86267 269.009C4.86267 269.546 4.42997 269.979 3.89425 269.979V270Z" fill="#470F4C"/>
<path d="M0.968413 261.242C0.432695 261.242 0 260.809 0 260.272V254.447C0 253.91 0.432695 253.476 0.968413 253.476C1.50413 253.476 1.93683 253.91 1.93683 254.447V260.272C1.93683 260.809 1.50413 261.242 0.968413 261.242ZM0.968413 249.593C0.432695 249.593 0 249.159 0 248.622V242.798C0 242.26 0.432695 241.827 0.968413 241.827C1.50413 241.827 1.93683 242.26 1.93683 242.798V248.622C1.93683 249.159 1.50413 249.593 0.968413 249.593ZM0.968413 237.944C0.432695 237.944 0 237.51 0 236.973V231.148C0 230.611 0.432695 230.177 0.968413 230.177C1.50413 230.177 1.93683 230.611 1.93683 231.148V236.973C1.93683 237.51 1.50413 237.944 0.968413 237.944ZM0.968413 226.294C0.432695 226.294 0 225.861 0 225.324V219.499C0 218.962 0.432695 218.528 0.968413 218.528C1.50413 218.528 1.93683 218.962 1.93683 219.499V225.324C1.93683 225.861 1.50413 226.294 0.968413 226.294ZM0.968413 214.645C0.432695 214.645 0 214.211 0 213.674V207.85C0 207.312 0.432695 206.879 0.968413 206.879C1.50413 206.879 1.93683 207.312 1.93683 207.85V213.674C1.93683 214.211 1.50413 214.645 0.968413 214.645ZM0.968413 202.996C0.432695 202.996 0 202.562 0 202.025V196.2C0 195.663 0.432695 195.229 0.968413 195.229C1.50413 195.229 1.93683 195.663 1.93683 196.2V202.025C1.93683 202.562 1.50413 202.996 0.968413 202.996ZM0.968413 191.346C0.432695 191.346 0 190.913 0 190.376V184.551C0 184.014 0.432695 183.58 0.968413 183.58C1.50413 183.58 1.93683 184.014 1.93683 184.551V190.376C1.93683 190.913 1.50413 191.346 0.968413 191.346ZM0.968413 179.697C0.432695 179.697 0 179.263 0 178.726V172.902C0 172.365 0.432695 171.931 0.968413 171.931C1.50413 171.931 1.93683 172.365 1.93683 172.902V178.726C1.93683 179.263 1.50413 179.697 0.968413 179.697ZM0.968413 168.048C0.432695 168.048 0 167.614 0 167.077V161.252C0 160.715 0.432695 160.281 0.968413 160.281C1.50413 160.281 1.93683 160.715 1.93683 161.252V167.077C1.93683 167.614 1.50413 168.048 0.968413 168.048ZM0.968413 156.398C0.432695 156.398 0 155.965 0 155.428V149.603C0 149.066 0.432695 148.632 0.968413 148.632C1.50413 148.632 1.93683 149.066 1.93683 149.603V155.428C1.93683 155.965 1.50413 156.398 0.968413 156.398ZM0.968413 144.749C0.432695 144.749 0 144.315 0 143.778V137.954C0 137.417 0.432695 136.983 0.968413 136.983C1.50413 136.983 1.93683 137.417 1.93683 137.954V143.778C1.93683 144.315 1.50413 144.749 0.968413 144.749ZM0.968413 133.1C0.432695 133.1 0 132.666 0 132.129V126.304C0 125.767 0.432695 125.333 0.968413 125.333C1.50413 125.333 1.93683 125.767 1.93683 126.304V132.129C1.93683 132.666 1.50413 133.1 0.968413 133.1ZM0.968413 121.45C0.432695 121.45 0 121.017 0 120.48V114.655C0 114.118 0.432695 113.684 0.968413 113.684C1.50413 113.684 1.93683 114.118 1.93683 114.655V120.48C1.93683 121.017 1.50413 121.45 0.968413 121.45ZM0.968413 109.801C0.432695 109.801 0 109.367 0 108.83V103.006C0 102.469 0.432695 102.035 0.968413 102.035C1.50413 102.035 1.93683 102.469 1.93683 103.006V108.83C1.93683 109.367 1.50413 109.801 0.968413 109.801ZM0.968413 98.1517C0.432695 98.1517 0 97.7179 0 97.1809V91.3563C0 90.8192 0.432695 90.3855 0.968413 90.3855C1.50413 90.3855 1.93683 90.8192 1.93683 91.3563V97.1809C1.93683 97.7179 1.50413 98.1517 0.968413 98.1517ZM0.968413 86.5024C0.432695 86.5024 0 86.0686 0 85.5316V79.7069C0 79.1699 0.432695 78.7361 0.968413 78.7361C1.50413 78.7361 1.93683 79.1699 1.93683 79.7069V85.5316C1.93683 86.0686 1.50413 86.5024 0.968413 86.5024ZM0.968413 74.853C0.432695 74.853 0 74.4193 0 73.8823V68.0576C0 67.5206 0.432695 67.0868 0.968413 67.0868C1.50413 67.0868 1.93683 67.5206 1.93683 68.0576V73.8823C1.93683 74.4193 1.50413 74.853 0.968413 74.853ZM0.968413 63.2037C0.432695 63.2037 0 62.77 0 62.2329V56.4083C0 55.8712 0.432695 55.4375 0.968413 55.4375C1.50413 55.4375 1.93683 55.8712 1.93683 56.4083V62.2329C1.93683 62.77 1.50413 63.2037 0.968413 63.2037ZM0.968413 51.5544C0.432695 51.5544 0 51.1206 0 50.5836V44.7589C0 44.2219 0.432695 43.7882 0.968413 43.7882C1.50413 43.7882 1.93683 44.2219 1.93683 44.7589V50.5836C1.93683 51.1206 1.50413 51.5544 0.968413 51.5544ZM0.968413 39.9051C0.432695 39.9051 0 39.4713 0 38.9343V33.1096C0 32.5726 0.432695 32.1388 0.968413 32.1388C1.50413 32.1388 1.93683 32.5726 1.93683 33.1096V38.9343C1.93683 39.4713 1.50413 39.9051 0.968413 39.9051ZM0.968413 28.1938C0.432695 28.1938 0 27.76 0 27.223V21.3983C0 20.8613 0.432695 20.4276 0.968413 20.4276C1.50413 20.4276 1.93683 20.8613 1.93683 21.3983V27.223C1.93683 27.76 1.50413 28.1938 0.968413 28.1938ZM0.968413 16.5238C0.432695 16.5238 0 16.09 0 15.553V9.72835C0 9.19132 0.432695 8.75757 0.968413 8.75757C1.50413 8.75757 1.93683 9.19132 1.93683 9.72835V15.553C1.93683 16.09 1.50413 16.5238 0.968413 16.5238Z" fill="#470F4C"/>
<path d="M0.968412 4.87454C0.432695 4.87454 0 4.44079 0 3.90376V0.970777C0 0.433752 0.432695 0 0.968412 0H3.89425C4.42997 0 4.86267 0.433752 4.86267 0.970777C4.86267 1.5078 4.42997 1.94155 3.89425 1.94155H1.93682V3.88311C1.93682 4.42014 1.50413 4.85389 0.968412 4.85389V4.87454Z" fill="#470F4C"/>
<path d="M216.059 1.94155H210.166C209.63 1.94155 209.197 1.5078 209.197 0.970777C209.197 0.433752 209.63 0 210.166 0H216.059C216.594 0 217.027 0.433752 217.027 0.970777C217.027 1.5078 216.594 1.94155 216.059 1.94155ZM204.273 1.94155H198.38C197.844 1.94155 197.412 1.5078 197.412 0.970777C197.412 0.433752 197.844 0 198.38 0H204.273C204.809 0 205.241 0.433752 205.241 0.970777C205.241 1.5078 204.809 1.94155 204.273 1.94155ZM192.487 1.94155H186.594C186.058 1.94155 185.626 1.5078 185.626 0.970777C185.626 0.433752 186.058 0 186.594 0H192.487C193.023 0 193.455 0.433752 193.455 0.970777C193.455 1.5078 193.023 1.94155 192.487 1.94155ZM180.701 1.94155H174.808C174.273 1.94155 173.84 1.5078 173.84 0.970777C173.84 0.433752 174.273 0 174.808 0H180.701C181.237 0 181.67 0.433752 181.67 0.970777C181.67 1.5078 181.237 1.94155 180.701 1.94155ZM168.916 1.94155H163.023C162.487 1.94155 162.054 1.5078 162.054 0.970777C162.054 0.433752 162.487 0 163.023 0H168.916C169.451 0 169.884 0.433752 169.884 0.970777C169.884 1.5078 169.451 1.94155 168.916 1.94155ZM157.13 1.94155H151.237C150.701 1.94155 150.268 1.5078 150.268 0.970777C150.268 0.433752 150.701 0 151.237 0H157.13C157.665 0 158.098 0.433752 158.098 0.970777C158.098 1.5078 157.665 1.94155 157.13 1.94155ZM145.344 1.94155H139.451C138.915 1.94155 138.483 1.5078 138.483 0.970777C138.483 0.433752 138.915 0 139.451 0H145.344C145.88 0 146.312 0.433752 146.312 0.970777C146.312 1.5078 145.88 1.94155 145.344 1.94155ZM133.558 1.94155H127.665C127.13 1.94155 126.697 1.5078 126.697 0.970777C126.697 0.433752 127.13 0 127.665 0H133.558C134.094 0 134.527 0.433752 134.527 0.970777C134.527 1.5078 134.094 1.94155 133.558 1.94155ZM121.772 1.94155H115.879C115.344 1.94155 114.911 1.5078 114.911 0.970777C114.911 0.433752 115.344 0 115.879 0H121.772C122.308 0 122.741 0.433752 122.741 0.970777C122.741 1.5078 122.308 1.94155 121.772 1.94155ZM109.987 1.94155H104.094C103.558 1.94155 103.125 1.5078 103.125 0.970777C103.125 0.433752 103.558 0 104.094 0H109.987C110.522 0 110.955 0.433752 110.955 0.970777C110.955 1.5078 110.522 1.94155 109.987 1.94155ZM98.2008 1.94155H92.3079C91.7722 1.94155 91.3395 1.5078 91.3395 0.970777C91.3395 0.433752 91.7722 0 92.3079 0H98.2008C98.7365 0 99.1692 0.433752 99.1692 0.970777C99.1692 1.5078 98.7365 1.94155 98.2008 1.94155ZM86.415 1.94155H80.5221C79.9864 1.94155 79.5537 1.5078 79.5537 0.970777C79.5537 0.433752 79.9864 0 80.5221 0H86.415C86.9507 0 87.3834 0.433752 87.3834 0.970777C87.3834 1.5078 86.9507 1.94155 86.415 1.94155ZM74.6292 1.94155H68.7363C68.2006 1.94155 67.7679 1.5078 67.7679 0.970777C67.7679 0.433752 68.2006 0 68.7363 0H74.6292C75.1649 0 75.5976 0.433752 75.5976 0.970777C75.5976 1.5078 75.1649 1.94155 74.6292 1.94155ZM62.8434 1.94155H56.9505C56.4148 1.94155 55.9821 1.5078 55.9821 0.970777C55.9821 0.433752 56.4148 0 56.9505 0H62.8434C63.3791 0 63.8118 0.433752 63.8118 0.970777C63.8118 1.5078 63.3791 1.94155 62.8434 1.94155ZM51.0576 1.94155H45.1647C44.629 1.94155 44.1963 1.5078 44.1963 0.970777C44.1963 0.433752 44.629 0 45.1647 0H51.0576C51.5933 0 52.026 0.433752 52.026 0.970777C52.026 1.5078 51.5933 1.94155 51.0576 1.94155ZM39.2718 1.94155H33.379C32.8432 1.94155 32.4105 1.5078 32.4105 0.970777C32.4105 0.433752 32.8432 0 33.379 0H39.2718C39.8076 0 40.2403 0.433752 40.2403 0.970777C40.2403 1.5078 39.8076 1.94155 39.2718 1.94155ZM27.4861 1.94155H21.5932C21.0574 1.94155 20.6248 1.5078 20.6248 0.970777C20.6248 0.433752 21.0574 0 21.5932 0H27.4861C28.0218 0 28.4545 0.433752 28.4545 0.970777C28.4545 1.5078 28.0218 1.94155 27.4861 1.94155ZM15.6797 1.94155H9.78677C9.25105 1.94155 8.81836 1.5078 8.81836 0.970777C8.81836 0.433752 9.25105 0 9.78677 0H15.6797C16.2154 0 16.6481 0.433752 16.6481 0.970777C16.6481 1.5078 16.2154 1.94155 15.6797 1.94155Z" fill="#470F4C"/>
<path d="M224.878 4.87454C224.342 4.87454 223.909 4.44079 223.909 3.90376V1.94155H221.972C221.437 1.94155 221.004 1.5078 221.004 0.970777C221.004 0.433752 221.437 0 221.972 0H224.898C225.434 0 225.867 0.433752 225.867 0.970777V3.90376C225.867 4.44079 225.434 4.87454 224.898 4.87454H224.878Z" fill="#470F4C"/>
<path d="M224.879 261.242C224.343 261.242 223.91 260.809 223.91 260.272V254.447C223.91 253.91 224.343 253.476 224.879 253.476C225.414 253.476 225.847 253.91 225.847 254.447V260.272C225.847 260.809 225.414 261.242 224.879 261.242ZM224.879 249.593C224.343 249.593 223.91 249.159 223.91 248.622V242.798C223.91 242.261 224.343 241.827 224.879 241.827C225.414 241.827 225.847 242.261 225.847 242.798V248.622C225.847 249.159 225.414 249.593 224.879 249.593ZM224.879 237.944C224.343 237.944 223.91 237.51 223.91 236.973V231.148C223.91 230.611 224.343 230.178 224.879 230.178C225.414 230.178 225.847 230.611 225.847 231.148V236.973C225.847 237.51 225.414 237.944 224.879 237.944ZM224.879 226.294C224.343 226.294 223.91 225.861 223.91 225.324V219.499C223.91 218.962 224.343 218.528 224.879 218.528C225.414 218.528 225.847 218.962 225.847 219.499V225.324C225.847 225.861 225.414 226.294 224.879 226.294ZM224.879 214.645C224.343 214.645 223.91 214.211 223.91 213.674V207.85C223.91 207.313 224.343 206.879 224.879 206.879C225.414 206.879 225.847 207.313 225.847 207.85V213.674C225.847 214.211 225.414 214.645 224.879 214.645ZM224.879 202.996C224.343 202.996 223.91 202.562 223.91 202.025V196.2C223.91 195.663 224.343 195.23 224.879 195.23C225.414 195.23 225.847 195.663 225.847 196.2V202.025C225.847 202.562 225.414 202.996 224.879 202.996ZM224.879 191.346C224.343 191.346 223.91 190.913 223.91 190.376V184.551C223.91 184.014 224.343 183.58 224.879 183.58C225.414 183.58 225.847 184.014 225.847 184.551V190.376C225.847 190.913 225.414 191.346 224.879 191.346ZM224.879 179.697C224.343 179.697 223.91 179.263 223.91 178.726V172.902C223.91 172.365 224.343 171.931 224.879 171.931C225.414 171.931 225.847 172.365 225.847 172.902V178.726C225.847 179.263 225.414 179.697 224.879 179.697ZM224.879 168.048C224.343 168.048 223.91 167.614 223.91 167.077V161.252C223.91 160.715 224.343 160.282 224.879 160.282C225.414 160.282 225.847 160.715 225.847 161.252V167.077C225.847 167.614 225.414 168.048 224.879 168.048ZM224.879 156.398C224.343 156.398 223.91 155.965 223.91 155.428V149.603C223.91 149.066 224.343 148.632 224.879 148.632C225.414 148.632 225.847 149.066 225.847 149.603V155.428C225.847 155.965 225.414 156.398 224.879 156.398ZM224.879 144.749C224.343 144.749 223.91 144.315 223.91 143.778V137.954C223.91 137.417 224.343 136.983 224.879 136.983C225.414 136.983 225.847 137.417 225.847 137.954V143.778C225.847 144.315 225.414 144.749 224.879 144.749ZM224.879 133.1C224.343 133.1 223.91 132.666 223.91 132.129V126.304C223.91 125.767 224.343 125.334 224.879 125.334C225.414 125.334 225.847 125.767 225.847 126.304V132.129C225.847 132.666 225.414 133.1 224.879 133.1ZM224.879 121.45C224.343 121.45 223.91 121.017 223.91 120.48V114.655C223.91 114.118 224.343 113.684 224.879 113.684C225.414 113.684 225.847 114.118 225.847 114.655V120.48C225.847 121.017 225.414 121.45 224.879 121.45ZM224.879 109.801C224.343 109.801 223.91 109.367 223.91 108.83V103.006C223.91 102.469 224.343 102.035 224.879 102.035C225.414 102.035 225.847 102.469 225.847 103.006V108.83C225.847 109.367 225.414 109.801 224.879 109.801ZM224.879 98.1518C224.343 98.1518 223.91 97.7181 223.91 97.1811V91.3564C223.91 90.8194 224.343 90.3856 224.879 90.3856C225.414 90.3856 225.847 90.8194 225.847 91.3564V97.1811C225.847 97.7181 225.414 98.1518 224.879 98.1518ZM224.879 86.5025C224.343 86.5025 223.91 86.0688 223.91 85.5317V79.7071C223.91 79.17 224.343 78.7363 224.879 78.7363C225.414 78.7363 225.847 79.17 225.847 79.7071V85.5317C225.847 86.0688 225.414 86.5025 224.879 86.5025ZM224.879 74.8532C224.343 74.8532 223.91 74.4194 223.91 73.8824V68.0577C223.91 67.5207 224.343 67.087 224.879 67.087C225.414 67.087 225.847 67.5207 225.847 68.0577V73.8824C225.847 74.4194 225.414 74.8532 224.879 74.8532ZM224.879 63.2039C224.343 63.2039 223.91 62.7701 223.91 62.2331V56.4084C223.91 55.8714 224.343 55.4376 224.879 55.4376C225.414 55.4376 225.847 55.8714 225.847 56.4084V62.2331C225.847 62.7701 225.414 63.2039 224.879 63.2039ZM224.879 51.5545C224.343 51.5545 223.91 51.1208 223.91 50.5837V44.7591C223.91 44.2221 224.343 43.7883 224.879 43.7883C225.414 43.7883 225.847 44.2221 225.847 44.7591V50.5837C225.847 51.1208 225.414 51.5545 224.879 51.5545ZM224.879 39.9052C224.343 39.9052 223.91 39.4714 223.91 38.9344V33.1098C223.91 32.5727 224.343 32.139 224.879 32.139C225.414 32.139 225.847 32.5727 225.847 33.1098V38.9344C225.847 39.4714 225.414 39.9052 224.879 39.9052ZM224.879 28.2559C224.343 28.2559 223.91 27.8221 223.91 27.2851V21.4604C223.91 20.9234 224.343 20.4897 224.879 20.4897C225.414 20.4897 225.847 20.9234 225.847 21.4604V27.2851C225.847 27.8221 225.414 28.2559 224.879 28.2559ZM224.879 16.6065C224.343 16.6065 223.91 16.1728 223.91 15.6358V9.81111C223.91 9.27408 224.343 8.84033 224.879 8.84033C225.414 8.84033 225.847 9.27408 225.847 9.81111V15.6358C225.847 16.1728 225.414 16.6065 224.879 16.6065Z" fill="#470F4C"/>
<path d="M168.153 110.4C168.132 109.719 168.091 109.058 168.07 108.397C168.112 109.058 168.132 109.739 168.153 110.4Z" fill="#470F4C"/>
<path d="M168.153 111.371C167.638 111.371 167.205 110.958 167.185 110.421L167.102 108.417C167.082 107.88 167.494 107.426 168.03 107.405C168.565 107.405 169.019 107.798 169.039 108.335C169.08 109.016 169.101 109.677 169.122 110.359C169.122 110.896 168.73 111.35 168.194 111.371C168.194 111.371 168.174 111.371 168.153 111.371Z" fill="#470F4C"/>
<path d="M167.781 103.026C169.409 102.345 171.222 101.932 173.138 101.932C174.54 101.932 175.899 102.138 177.156 102.531C177.733 93.9177 177.713 83.7555 176.703 71.8376L165.494 78.8603L166.318 81.6074C166.174 85.759 167.143 93.5459 167.781 103.026Z" fill="#470F4C"/>
<path d="M167.781 104.018C167.596 104.018 167.431 103.976 167.266 103.873C166.998 103.708 166.834 103.419 166.813 103.109C166.566 99.577 166.298 96.2929 166.03 93.3392C165.597 88.3614 165.247 84.4164 165.329 81.7519L164.546 79.17C164.423 78.7569 164.588 78.3025 164.959 78.0547L176.167 71.032C176.456 70.8461 176.827 70.8255 177.115 70.9907C177.424 71.1353 177.63 71.4451 177.651 71.7756C178.578 82.8053 178.722 93.174 178.104 102.613C178.104 102.902 177.939 103.192 177.692 103.357C177.445 103.522 177.136 103.584 176.847 103.481C173.963 102.593 170.872 102.778 168.132 103.935C168.008 103.976 167.884 104.018 167.761 104.018H167.781ZM166.648 79.3146L167.246 81.3388C167.246 81.3388 167.287 81.5453 167.287 81.6486C167.184 84.1891 167.534 88.1549 167.967 93.1533C168.193 95.7559 168.441 98.6062 168.647 101.663C171.078 100.878 173.695 100.754 176.229 101.312C176.744 92.7402 176.6 83.4249 175.838 73.5312L166.628 79.3146H166.648Z" fill="#470F4C"/>
<path d="M167.968 106.352C167.968 106.125 167.968 105.877 167.927 105.65C167.885 104.823 167.824 104.018 167.762 103.233C167.824 104.266 167.885 105.298 167.947 106.352H167.968Z" fill="#470F4C"/>
<path d="M167.967 107.323C167.452 107.323 167.019 106.93 166.999 106.393C166.937 105.34 166.875 104.286 166.813 103.274C166.772 102.737 167.184 102.262 167.72 102.241C168.297 102.241 168.73 102.613 168.75 103.15V103.419C168.791 104.142 168.853 104.844 168.894 105.588L168.936 106.29C168.956 106.827 168.544 107.281 168.008 107.323C168.008 107.323 167.967 107.323 167.947 107.323H167.967Z" fill="#470F4C"/>
<path d="M173.117 124.879C171.345 124.879 169.656 124.549 168.131 123.95C167.843 130.353 167.101 136.88 165.576 143.179L165.638 144.068C165.638 144.068 170.295 138.594 173.777 124.838C173.55 124.838 173.344 124.859 173.117 124.859V124.879Z" fill="#470F4C"/>
<path d="M165.659 145.038C165.659 145.038 165.453 145.038 165.35 144.997C164.979 144.873 164.711 144.543 164.691 144.15L164.629 143.262C164.629 143.262 164.629 143.056 164.65 142.973C166.03 137.272 166.854 131.034 167.163 123.929C167.163 123.619 167.349 123.33 167.596 123.165C167.864 123 168.193 122.958 168.482 123.082C170.068 123.702 171.799 124.012 173.509 123.929H173.736C174.066 123.909 174.334 124.032 174.54 124.28C174.725 124.528 174.808 124.838 174.725 125.148C171.222 138.966 166.586 144.543 166.401 144.77C166.215 144.997 165.948 145.121 165.659 145.121V145.038ZM169.038 125.272C168.75 130.415 168.214 135.083 167.369 139.462C168.873 136.632 170.81 132.191 172.5 125.829C171.305 125.788 170.151 125.602 169.018 125.272H169.038Z" fill="#470F4C"/>
<path d="M226.011 269.959H2.10122C1.56551 269.959 1.13281 269.525 1.13281 268.988C1.13281 268.554 1.21523 258.185 7.66445 236.828C11.8472 223.01 35.2127 216.483 54.0658 213.447C61.8543 212.187 68.2623 211.65 70.57 211.485V165.549C70.57 165.012 71.0027 164.578 71.5385 164.578C72.0742 164.578 72.5069 165.012 72.5069 165.549V212.394C72.5069 212.91 72.0948 213.344 71.5797 213.364C71.4973 213.364 64.0178 213.819 54.3543 215.368C39.3542 217.785 13.5779 223.857 9.49825 237.386C4.2441 254.798 3.27568 264.96 3.09024 267.997H224.98C224.836 265.931 224.403 260.974 223.538 255.191C222.57 248.788 221.354 243.231 219.912 238.708C214.678 222.246 185.997 212.063 162.425 212.063C161.91 212.063 161.477 211.65 161.457 211.134L158.778 158.774C158.757 158.237 159.169 157.782 159.705 157.741C160.179 157.7 160.694 158.133 160.735 158.67L163.373 210.101C191.313 210.37 216.862 222.577 221.787 238.109C223.25 242.736 224.506 248.395 225.475 254.901C226.629 262.626 227.02 268.864 227.02 268.926C227.02 269.194 226.938 269.463 226.752 269.649C226.567 269.855 226.32 269.959 226.052 269.959H226.011Z" fill="#470F4C"/>
<path d="M224.486 255.046C225.661 262.812 226.011 268.988 226.011 268.988H2.10156C2.10156 268.988 2.10156 258.578 8.59199 237.118C12.7129 223.465 37.0468 217.186 54.231 214.418C54.231 214.418 63.6061 244.45 126.883 253.228C180.228 260.623 224.486 255.067 224.486 255.067V255.046Z" fill="#EBE7E7"/>
<path d="M226.011 269.959H2.10122C1.56551 269.959 1.13281 269.525 1.13281 268.988C1.13281 268.554 1.21523 258.185 7.66445 236.828C11.8472 223.01 35.2127 216.483 54.0658 213.447C54.5397 213.385 54.993 213.654 55.1579 214.108C55.2609 214.397 65.2129 243.665 127.006 252.237C179.609 259.528 223.909 254.137 224.362 254.075C224.898 254.013 225.372 254.385 225.454 254.901C226.608 262.626 227 268.864 227 268.926C227 269.194 226.917 269.463 226.732 269.649C226.546 269.855 226.299 269.959 226.031 269.959H226.011ZM3.11085 268.017H224.98C224.836 266.055 224.445 261.532 223.662 256.141C216.945 256.884 175.365 260.933 126.759 254.199C68.592 246.123 55.6112 220.49 53.6125 215.513C38.5094 218.012 13.5573 224.105 9.53946 237.407C4.2853 254.819 3.31689 264.981 3.13145 268.017H3.11085Z" fill="#470F4C"/>
<path d="M158.778 160.405C151.01 173.273 137.349 182.568 113.757 183.105C93.5848 183.56 80.4803 176.227 72.0325 165.507H71.5586V172.695C71.5586 172.695 111.14 203.306 160.797 179.222L159.828 160.344L158.778 160.405Z" fill="#470F4C"/>
<path d="M121.998 189.364C91.9979 189.364 71.2492 173.687 70.9607 173.459C70.7135 173.274 70.5898 172.984 70.5898 172.695V165.549C70.5898 165.032 71.0019 164.598 71.4964 164.578H71.9704C72.3 164.537 72.5885 164.66 72.7945 164.929C82.1078 176.764 95.851 182.527 113.715 182.155C134.443 181.68 149.32 174.203 157.932 159.91C158.097 159.641 158.386 159.455 158.715 159.435L159.766 159.373C160.034 159.373 160.281 159.455 160.467 159.621C160.652 159.786 160.776 160.034 160.796 160.302L161.765 179.181C161.765 179.573 161.559 179.945 161.209 180.11C147.156 186.926 133.846 189.384 121.998 189.384V189.364ZM72.5267 172.199C76.6682 175.174 114.065 200.435 159.787 178.623L158.942 161.996C149.876 176.186 134.691 183.622 113.777 184.097C96.0982 184.468 82.2108 178.974 72.5473 167.676V172.22L72.5267 172.199Z" fill="#470F4C"/>
<path d="M111.943 184.097C88.31 184.097 71.95 173.377 63.3167 152.226C60.8647 146.236 59.0721 139.379 57.9389 131.861C56.7232 123.64 56.3111 114.717 56.7232 105.299C57.1353 96.0245 58.248 89.6215 58.248 89.5595C58.2686 89.3943 58.351 89.2497 58.4334 89.1258L81.1396 60.1677C81.325 59.9198 81.6547 59.8166 81.9225 59.7959L160.446 61.0972C160.879 61.0972 161.25 61.3863 161.353 61.7994L167.184 81.3182C167.184 81.3182 167.225 81.5248 167.225 81.6281C167.122 84.1686 167.473 88.1343 167.905 93.1328C168.132 95.7973 168.4 98.7303 168.606 101.849C168.688 103.047 168.771 104.286 168.853 105.546C169.512 116.762 169.821 133.41 165.103 148.343C157.809 171.435 140.522 183.436 113.695 184.055C113.077 184.055 112.479 184.076 111.882 184.076L111.943 184.097ZM60.1436 90.1585C59.9375 91.3978 59.0515 97.2638 58.6806 105.402C58.2686 114.676 58.6806 123.495 59.8757 131.571C60.9677 138.925 62.7397 145.637 65.1299 151.483C73.6601 172.365 89.9995 182.651 113.736 182.114C139.636 181.535 156.325 169.969 163.331 147.765C167.946 133.141 167.637 116.741 166.978 105.67C166.896 104.41 166.834 103.192 166.731 101.994C166.504 98.8748 166.257 95.9625 166.03 93.298C165.598 88.3202 165.247 84.3752 165.33 81.7107L159.746 63.0387L82.4171 61.7581L60.1642 90.1378L60.1436 90.1585Z" fill="#470F4C"/>
<path d="M173.118 125.85C171.264 125.85 169.471 125.519 167.761 124.858C167.37 124.714 167.122 124.321 167.143 123.908C167.39 118.29 167.329 112.176 166.958 105.691C166.916 104.906 166.855 104.142 166.813 103.377V103.109C166.772 102.696 166.999 102.303 167.39 102.138C169.204 101.374 171.14 100.981 173.118 100.981C180.639 100.981 186.738 106.558 186.738 113.416C186.738 120.273 180.618 125.85 173.118 125.85ZM169.121 123.268C170.399 123.681 171.738 123.908 173.118 123.908C179.568 123.908 184.801 119.199 184.801 113.416C184.801 107.632 179.568 102.923 173.118 102.923C171.635 102.923 170.172 103.171 168.791 103.687C168.833 104.307 168.874 104.947 168.915 105.587C169.286 111.846 169.348 117.794 169.142 123.289L169.121 123.268Z" fill="#470F4C"/>
<path d="M172.335 121.079C170.769 121.079 169.265 120.728 167.844 120.067C167.493 119.901 167.287 119.55 167.287 119.178C167.328 115.543 167.246 111.701 167.061 107.777C167.061 107.385 167.246 107.033 167.596 106.868C169.039 106.125 170.687 105.732 172.335 105.732C177.383 105.732 181.484 109.182 181.484 113.416C181.484 117.65 177.383 121.099 172.335 121.099V121.079ZM169.245 118.538C170.234 118.931 171.264 119.117 172.335 119.117C176.312 119.117 179.547 116.555 179.547 113.395C179.547 110.235 176.312 107.674 172.335 107.674C171.202 107.674 170.069 107.901 169.039 108.335C169.203 111.846 169.265 115.275 169.245 118.538Z" fill="#470F4C"/>
<path d="M181.401 119.757C181.401 123.124 178.681 125.85 175.322 125.85C171.964 125.85 169.244 123.124 169.244 119.757C169.244 116.39 171.964 113.664 175.322 113.664C178.681 113.664 181.401 116.39 181.401 119.757Z" fill="#470F4C"/>
<path d="M175.323 126.821C171.429 126.821 168.256 123.64 168.256 119.736C168.256 115.832 171.429 112.652 175.323 112.652C179.217 112.652 182.391 115.832 182.391 119.736C182.391 123.64 179.217 126.821 175.323 126.821ZM175.323 114.614C172.5 114.614 170.213 116.907 170.213 119.736C170.213 122.566 172.5 124.859 175.323 124.859C178.146 124.859 180.433 122.566 180.433 119.736C180.433 116.907 178.146 114.614 175.323 114.614Z" fill="#470F4C"/>
<path d="M52.4184 125.85C44.8978 125.85 38.7988 120.273 38.7988 113.416C38.7988 106.558 44.9184 100.981 52.4184 100.981C54.4377 100.981 56.3745 101.395 58.2289 102.179C58.5998 102.345 58.847 102.716 58.8058 103.13C58.7646 103.873 58.7234 104.617 58.6822 105.422C58.4143 111.639 58.4968 117.774 58.9707 123.619C59.0119 124.032 58.7646 124.425 58.3937 124.59C56.4981 125.437 54.4789 125.871 52.3978 125.871L52.4184 125.85ZM52.4184 102.923C45.9692 102.923 40.7357 107.632 40.7357 113.416C40.7357 119.199 45.9692 123.908 52.4184 123.908C54.005 123.908 55.5297 123.619 56.9926 123.061C56.5599 117.34 56.4775 111.371 56.7454 105.319C56.766 104.761 56.8072 104.245 56.8278 103.708C55.4061 103.192 53.9432 102.923 52.4184 102.923Z" fill="#470F4C"/>
<path d="M53.2011 121.079C48.153 121.079 44.0527 117.629 44.0527 113.395C44.0527 109.161 48.153 105.711 53.2011 105.711C54.9319 105.711 56.6215 106.125 58.0844 106.909C58.4141 107.075 58.6201 107.426 58.5995 107.798C58.4965 111.515 58.5171 115.254 58.6819 118.931C58.6819 119.302 58.4965 119.653 58.1668 119.839C56.6833 120.645 54.9525 121.079 53.1805 121.079H53.2011ZM53.2011 107.674C49.2245 107.674 45.9896 110.235 45.9896 113.395C45.9896 116.555 49.2245 119.116 53.2011 119.116C54.4374 119.116 55.6325 118.869 56.7245 118.373C56.5803 115.068 56.5597 111.701 56.6421 108.376C55.5707 107.901 54.3962 107.674 53.2011 107.674Z" fill="#470F4C"/>
<path d="M44.1328 119.757C44.1328 123.124 46.8526 125.85 50.2111 125.85C53.5697 125.85 56.2895 123.124 56.2895 119.757C56.2895 116.39 53.5697 113.664 50.2111 113.664C46.8526 113.664 44.1328 116.39 44.1328 119.757Z" fill="#470F4C"/>
<path d="M50.2119 126.821C46.3176 126.821 43.1445 123.64 43.1445 119.736C43.1445 115.832 46.3176 112.652 50.2119 112.652C54.1061 112.652 57.2792 115.832 57.2792 119.736C57.2792 123.64 54.1061 126.821 50.2119 126.821ZM50.2119 114.614C47.3891 114.614 45.102 116.907 45.102 119.736C45.102 122.566 47.3891 124.859 50.2119 124.859C53.0347 124.859 55.3218 122.566 55.3218 119.736C55.3218 116.907 53.0347 114.614 50.2119 114.614Z" fill="#470F4C"/>
<path d="M176.538 159.042C176.023 159.042 175.591 158.629 175.57 158.092L174.602 124.425C174.602 123.888 175.014 123.433 175.549 123.413C176.085 123.392 176.538 123.826 176.559 124.363L177.527 158.03C177.527 158.567 177.115 159.022 176.58 159.042H176.559H176.538Z" fill="#470F4C"/>
<path d="M171.655 149.273C171.14 149.273 170.707 148.88 170.686 148.364C170.645 147.827 171.057 147.372 171.593 147.331L179.382 146.835C179.938 146.794 180.371 147.207 180.412 147.744C180.453 148.281 180.041 148.736 179.505 148.777L171.717 149.273C171.717 149.273 171.675 149.273 171.655 149.273Z" fill="#470F4C"/>
<path d="M112.768 153.507C112.768 153.507 133.207 157.08 146.847 143.427C146.847 143.427 140.027 141.961 137.122 141.961C134.217 141.961 133.228 147.806 133.228 147.806C133.228 147.806 126.408 142.436 123.976 145.369C121.545 148.302 116.188 152.515 112.788 153.507H112.768Z" fill="#470F4C"/>
<path d="M119.031 154.932C115.343 154.932 112.87 154.519 112.582 154.478C112.129 154.395 111.799 154.023 111.778 153.569C111.758 153.114 112.046 152.701 112.479 152.577C115.59 151.689 120.803 147.641 123.193 144.749C125.522 141.94 130.281 144.604 132.568 146.154C133.125 144.171 134.423 140.969 137.081 140.969C140.068 140.969 146.744 142.394 147.012 142.456C147.362 142.539 147.63 142.787 147.733 143.138C147.836 143.489 147.733 143.861 147.486 144.109C138.296 153.321 126.284 154.932 119.011 154.932H119.031ZM116.414 152.887C122.452 153.197 135.123 152.619 144.787 144.006C142.582 143.572 138.956 142.931 137.081 142.931C135.494 142.931 134.423 146.319 134.155 147.971C134.093 148.302 133.866 148.591 133.537 148.715C133.207 148.839 132.857 148.777 132.589 148.57C130.611 147.021 126.057 144.336 124.697 145.988C122.822 148.24 119.464 151.069 116.414 152.866V152.887Z" fill="#470F4C"/>
<path d="M109.287 133.802C108.194 133.802 107.288 133.761 106.732 133.658C103.888 133.079 103.929 130.89 103.971 126.883C103.971 126.139 103.991 125.334 103.991 124.404C103.991 118.642 102.549 97.8421 102.528 97.6356C102.487 97.0985 102.899 96.6235 103.435 96.6028C103.95 96.5822 104.444 96.9746 104.465 97.5116C104.527 98.3791 105.928 118.6 105.928 124.425C105.928 125.354 105.928 126.181 105.907 126.924C105.846 131.076 105.949 131.53 107.102 131.757C108.977 132.129 117.034 131.53 119.96 131.262C120.516 131.22 120.969 131.613 121.01 132.15C121.052 132.687 120.66 133.162 120.124 133.203C119.259 133.286 113.098 133.823 109.245 133.823L109.287 133.802Z" fill="#470F4C"/>
<path d="M140.276 107.55C140.276 109.429 138.751 110.958 136.876 110.958C135.001 110.958 133.477 109.429 133.477 107.55C133.477 105.67 135.001 104.142 136.876 104.142C138.751 104.142 140.276 105.67 140.276 107.55Z" fill="#470F4C"/>
<path d="M136.856 111.949C134.445 111.949 132.467 109.987 132.467 107.55C132.467 105.113 134.424 103.15 136.856 103.15C139.287 103.15 141.244 105.113 141.244 107.55C141.244 109.987 139.287 111.949 136.856 111.949ZM136.856 105.113C135.516 105.113 134.424 106.207 134.424 107.55C134.424 108.892 135.516 109.987 136.856 109.987C138.195 109.987 139.287 108.892 139.287 107.55C139.287 106.207 138.195 105.113 136.856 105.113Z" fill="#470F4C"/>
<path d="M88.9069 107.798C88.9069 109.677 87.3822 111.206 85.5072 111.206C83.6322 111.206 82.1074 109.677 82.1074 107.798C82.1074 105.918 83.6322 104.39 85.5072 104.39C87.3822 104.39 88.9069 105.918 88.9069 107.798Z" fill="#470F4C"/>
<path d="M85.5079 112.197C83.0972 112.197 81.1191 110.235 81.1191 107.798C81.1191 105.36 83.0766 103.398 85.5079 103.398C87.9392 103.398 89.8967 105.36 89.8967 107.798C89.8967 110.235 87.9392 112.197 85.5079 112.197ZM85.5079 105.36C84.1686 105.36 83.0766 106.455 83.0766 107.798C83.0766 109.14 84.1686 110.235 85.5079 110.235C86.8472 110.235 87.9392 109.14 87.9392 107.798C87.9392 106.455 86.8472 105.36 85.5079 105.36Z" fill="#470F4C"/>
<path d="M150.722 93.1534C150.537 93.1534 150.351 93.0915 150.166 92.9882C141.347 86.9363 128.119 88.7333 127.975 88.754C127.459 88.8159 126.944 88.4648 126.883 87.9278C126.8 87.3907 127.171 86.895 127.707 86.8331C128.284 86.7504 141.821 84.8915 151.278 91.3771C151.732 91.6869 151.835 92.2859 151.526 92.7403C151.34 93.0088 151.031 93.1741 150.722 93.1741V93.1534Z" fill="#470F4C"/>
<path d="M89.4031 82.4336C89.4031 82.4336 95.2342 105.36 114.232 102.448C133.208 99.5151 131.745 77.559 131.745 77.559C131.745 77.559 144.397 86.3373 153.153 72.1888C153.153 72.1888 166.773 88.7746 178.456 75.1218C190.139 61.4689 171.162 55.6029 171.162 55.6029C171.162 55.6029 182.845 52.1949 176.025 39.4922C169.204 26.8101 153.153 41.4337 153.153 41.4337C153.153 41.4337 151.196 25.323 133.682 22.4106C116.168 19.4983 111.285 33.1511 111.285 33.1511C111.285 33.1511 112.254 10.6993 92.3083 12.6616C72.3425 14.6031 80.1311 35.1134 80.1311 35.1134C80.1311 35.1134 57.26 7.78701 40.2201 33.6469C23.1802 59.5067 55.3026 62.4397 55.3026 62.4397C55.3026 62.4397 40.2201 67.81 43.1253 85.3666C46.0512 102.923 63.0911 93.1741 63.0911 93.1741C63.0911 93.1741 62.5966 107.818 75.7423 105.381C88.888 102.944 89.3619 82.4542 89.3619 82.4542L89.4031 82.4336Z" fill="#470F4C"/>
<path d="M72.9608 106.62C70.3234 106.62 68.0981 105.856 66.3467 104.348C63.153 101.601 62.37 97.1191 62.1846 94.7438C59.506 95.9831 53.5101 98.1725 48.6268 95.8385C45.2271 94.2068 43.043 90.7574 42.1776 85.5317C39.9729 72.2507 47.7408 65.5998 52.1502 62.9353C47.4524 62.0059 38.7366 59.424 35.5017 52.6699C32.988 47.4442 34.3067 40.8553 39.4166 33.1098C44.2174 25.8393 49.9455 21.9562 56.4565 21.5844C65.6874 21.0473 74.0528 27.6775 78.1737 31.6639C77.4525 28.0906 77.0817 22.6584 79.7808 18.3003C82.1298 14.5204 86.3125 12.2897 92.2054 11.7114C97.9952 11.133 102.693 12.5169 106.113 15.7804C110.399 19.8494 111.697 25.8599 112.089 29.6604C114.85 25.6121 121.237 19.395 133.826 21.4811C148.435 23.9184 152.659 35.3405 153.751 39.678C156.595 37.406 163.579 32.4695 169.761 33.5229C172.769 34.0392 175.159 35.8982 176.869 39.0584C179.218 43.4372 179.733 47.279 178.394 50.5011C177.323 53.083 175.283 54.6528 173.676 55.5616C176.622 56.8628 181.526 59.6719 182.865 64.3192C183.895 67.8512 182.639 71.7136 179.177 75.7826C175.922 79.5831 172.192 81.5247 168.112 81.5247H167.989C161.189 81.4627 155.399 76.0925 153.257 73.8204C150.537 77.7655 147.219 80.1821 143.408 80.967C138.895 81.9171 134.836 80.3474 132.714 79.2733C132.57 84.6849 130.756 100.899 114.355 103.439C99.9527 105.65 92.7617 93.5871 89.9389 86.9156C88.9911 93.298 85.9004 104.514 75.9278 106.372C74.877 106.558 73.888 106.662 72.9401 106.662L72.9608 106.62ZM63.1118 92.2032C63.2766 92.2032 63.4621 92.2446 63.6063 92.3478C63.9154 92.5337 64.0802 92.8642 64.0802 93.2153C64.0802 93.2773 63.9154 99.701 67.6242 102.882C69.5404 104.534 72.219 105.051 75.5981 104.431C87.8166 102.159 88.4347 82.6401 88.4347 82.4335C88.4347 81.9378 88.8056 81.5454 89.3001 81.4834C89.774 81.4214 90.2273 81.7312 90.351 82.2063C90.351 82.2683 91.8345 87.8657 95.5227 93.0294C100.365 99.8042 106.629 102.655 114.087 101.498C131.951 98.7508 130.839 78.5091 130.777 77.6416C130.756 77.2698 130.942 76.9187 131.272 76.7328C131.601 76.5469 131.993 76.5675 132.302 76.7741C132.343 76.8154 137.391 80.2234 143.057 79.0461C146.663 78.2819 149.795 75.824 152.35 71.693C152.515 71.4245 152.803 71.2592 153.112 71.2386C153.421 71.1973 153.73 71.3419 153.937 71.5897C153.998 71.6723 160.53 79.4799 168.071 79.5625C171.595 79.5625 174.871 77.8894 177.776 74.5021C180.784 70.9701 181.897 67.7273 181.073 64.8562C179.445 59.2381 171.018 56.5737 170.935 56.553C170.523 56.4291 170.255 56.0366 170.255 55.6235C170.255 55.1898 170.544 54.818 170.956 54.6941C170.997 54.6941 175.159 53.4135 176.684 49.7369C177.776 47.0931 177.281 43.8296 175.242 39.9878C173.82 37.344 171.945 35.8569 169.514 35.4438C162.673 34.2664 153.957 42.1153 153.875 42.1979C153.607 42.4458 153.215 42.5077 152.886 42.3838C152.535 42.2599 152.309 41.95 152.268 41.5782C152.185 40.9586 150.166 26.1697 133.6 23.402C117.137 20.6549 112.48 32.9858 112.295 33.5022C112.13 33.9566 111.656 34.2251 111.182 34.1219C110.708 34.0392 110.379 33.6055 110.399 33.1304C110.399 33.0271 110.77 22.7824 104.857 17.1849C101.848 14.3345 97.6862 13.1572 92.4732 13.6529C87.1985 14.1693 83.5103 16.0695 81.5116 19.3123C77.6792 25.5088 81.0789 34.6795 81.1201 34.7828C81.285 35.2372 81.1201 35.7329 80.708 35.9808C80.296 36.2286 79.7808 36.1254 79.4718 35.7742C79.3688 35.6503 68.469 22.8856 56.642 23.5672C50.7697 23.8977 45.5567 27.4917 41.1268 34.2251C36.4289 41.351 35.1515 47.279 37.3561 51.8437C41.3122 60.1056 55.3645 61.4895 55.5087 61.4895C55.962 61.5308 56.3329 61.882 56.3947 62.3364C56.4565 62.7908 56.1887 63.2245 55.756 63.3691C55.1791 63.5756 41.477 68.698 44.2174 85.2219C44.9798 89.766 46.7724 92.7403 49.5746 94.0828C55.0142 96.6853 62.6585 92.3891 62.7409 92.3478C62.8851 92.2652 63.05 92.2239 63.2148 92.2239L63.1118 92.2032Z" fill="#470F4C"/>
</g>
<defs>
<clipPath id="clip0_186_495">
<rect width="227" height="270" fill="white"/>
</clipPath>
</defs>
</svg>
