<svg width="228" height="270" viewBox="0 0 228 270" fill="none" xmlns="http://www.w3.org/2000/svg">
<g clip-path="url(#clip0_186_843)">
<path d="M225.427 270H222.494C221.957 270 221.523 269.566 221.523 269.029C221.523 268.492 221.957 268.058 222.494 268.058H224.436V266.117C224.436 265.58 224.87 265.146 225.407 265.146C225.944 265.146 226.377 265.58 226.377 266.117V269.05C226.377 269.587 225.944 270.021 225.407 270.021L225.427 270Z" fill="#470F4C"/>
<path d="M216.587 270H210.68C210.143 270 209.709 269.566 209.709 269.029C209.709 268.492 210.143 268.058 210.68 268.058H216.587C217.124 268.058 217.558 268.492 217.558 269.029C217.558 269.566 217.124 270 216.587 270ZM204.772 270H198.865C198.328 270 197.894 269.566 197.894 269.029C197.894 268.492 198.328 268.058 198.865 268.058H204.772C205.309 268.058 205.743 268.492 205.743 269.029C205.743 269.566 205.309 270 204.772 270ZM192.958 270H187.051C186.514 270 186.08 269.566 186.08 269.029C186.08 268.492 186.514 268.058 187.051 268.058H192.958C193.495 268.058 193.929 268.492 193.929 269.029C193.929 269.566 193.495 270 192.958 270ZM181.143 270H175.236C174.699 270 174.265 269.566 174.265 269.029C174.265 268.492 174.699 268.058 175.236 268.058H181.143C181.68 268.058 182.114 268.492 182.114 269.029C182.114 269.566 181.68 270 181.143 270ZM169.329 270H163.421C162.884 270 162.451 269.566 162.451 269.029C162.451 268.492 162.884 268.058 163.421 268.058H169.329C169.866 268.058 170.3 268.492 170.3 269.029C170.3 269.566 169.866 270 169.329 270ZM157.514 270H151.607C151.07 270 150.636 269.566 150.636 269.029C150.636 268.492 151.07 268.058 151.607 268.058H157.514C158.051 268.058 158.485 268.492 158.485 269.029C158.485 269.566 158.051 270 157.514 270ZM145.7 270H139.792C139.255 270 138.822 269.566 138.822 269.029C138.822 268.492 139.255 268.058 139.792 268.058H145.7C146.237 268.058 146.67 268.492 146.67 269.029C146.67 269.566 146.237 270 145.7 270ZM133.885 270H127.978C127.441 270 127.007 269.566 127.007 269.029C127.007 268.492 127.441 268.058 127.978 268.058H133.885C134.422 268.058 134.856 268.492 134.856 269.029C134.856 269.566 134.422 270 133.885 270ZM122.07 270H116.163C115.626 270 115.192 269.566 115.192 269.029C115.192 268.492 115.626 268.058 116.163 268.058H122.07C122.608 268.058 123.041 268.492 123.041 269.029C123.041 269.566 122.608 270 122.07 270ZM110.256 270H104.349C103.812 270 103.378 269.566 103.378 269.029C103.378 268.492 103.812 268.058 104.349 268.058H110.256C110.793 268.058 111.227 268.492 111.227 269.029C111.227 269.566 110.793 270 110.256 270ZM98.4413 270H92.5341C91.997 270 91.5633 269.566 91.5633 269.029C91.5633 268.492 91.997 268.058 92.5341 268.058H98.4413C98.9784 268.058 99.4121 268.492 99.4121 269.029C99.4121 269.566 98.9784 270 98.4413 270ZM86.6268 270H80.7195C80.1825 270 79.7487 269.566 79.7487 269.029C79.7487 268.492 80.1825 268.058 80.7195 268.058H86.6268C87.1638 268.058 87.5976 268.492 87.5976 269.029C87.5976 269.566 87.1638 270 86.6268 270ZM74.8122 270H68.9049C68.3679 270 67.9342 269.566 67.9342 269.029C67.9342 268.492 68.3679 268.058 68.9049 268.058H74.8122C75.3492 268.058 75.783 268.492 75.783 269.029C75.783 269.566 75.3492 270 74.8122 270ZM62.9977 270H57.0904C56.5533 270 56.1196 269.566 56.1196 269.029C56.1196 268.492 56.5533 268.058 57.0904 268.058H62.9977C63.5347 268.058 63.9684 268.492 63.9684 269.029C63.9684 269.566 63.5347 270 62.9977 270ZM51.1831 270H45.2758C44.7388 270 44.305 269.566 44.305 269.029C44.305 268.492 44.7388 268.058 45.2758 268.058H51.1831C51.7201 268.058 52.1539 268.492 52.1539 269.029C52.1539 269.566 51.7201 270 51.1831 270ZM39.3685 270H33.4612C32.9242 270 32.4905 269.566 32.4905 269.029C32.4905 268.492 32.9242 268.058 33.4612 268.058H39.3685C39.9055 268.058 40.3393 268.492 40.3393 269.029C40.3393 269.566 39.9055 270 39.3685 270ZM27.554 270H21.6467C21.1096 270 20.6759 269.566 20.6759 269.029C20.6759 268.492 21.1096 268.058 21.6467 268.058H27.554C28.091 268.058 28.5247 268.492 28.5247 269.029C28.5247 269.566 28.091 270 27.554 270ZM15.7394 270H9.83211C9.29508 270 8.86133 269.566 8.86133 269.029C8.86133 268.492 9.29508 268.058 9.83211 268.058H15.7394C16.2764 268.058 16.7102 268.492 16.7102 269.029C16.7102 269.566 16.2764 270 15.7394 270Z" fill="#470F4C"/>
<path d="M3.90376 270H0.970777C0.433752 270 0 269.566 0 269.029V266.096C0 265.559 0.433752 265.125 0.970777 265.125C1.5078 265.125 1.94155 265.559 1.94155 266.096V268.038H3.88311C4.42014 268.038 4.85389 268.472 4.85389 269.009C4.85389 269.546 4.42014 269.979 3.88311 269.979L3.90376 270Z" fill="#470F4C"/>
<path d="M0.970777 261.242C0.433752 261.242 0 260.809 0 260.272V254.447C0 253.91 0.433752 253.476 0.970777 253.476C1.5078 253.476 1.94155 253.91 1.94155 254.447V260.272C1.94155 260.809 1.5078 261.242 0.970777 261.242ZM0.970777 249.593C0.433752 249.593 0 249.159 0 248.622V242.798C0 242.26 0.433752 241.827 0.970777 241.827C1.5078 241.827 1.94155 242.26 1.94155 242.798V248.622C1.94155 249.159 1.5078 249.593 0.970777 249.593ZM0.970777 237.944C0.433752 237.944 0 237.51 0 236.973V231.148C0 230.611 0.433752 230.177 0.970777 230.177C1.5078 230.177 1.94155 230.611 1.94155 231.148V236.973C1.94155 237.51 1.5078 237.944 0.970777 237.944ZM0.970777 226.294C0.433752 226.294 0 225.861 0 225.324V219.499C0 218.962 0.433752 218.528 0.970777 218.528C1.5078 218.528 1.94155 218.962 1.94155 219.499V225.324C1.94155 225.861 1.5078 226.294 0.970777 226.294ZM0.970777 214.645C0.433752 214.645 0 214.211 0 213.674V207.85C0 207.312 0.433752 206.879 0.970777 206.879C1.5078 206.879 1.94155 207.312 1.94155 207.85V213.674C1.94155 214.211 1.5078 214.645 0.970777 214.645ZM0.970777 202.996C0.433752 202.996 0 202.562 0 202.025V196.2C0 195.663 0.433752 195.229 0.970777 195.229C1.5078 195.229 1.94155 195.663 1.94155 196.2V202.025C1.94155 202.562 1.5078 202.996 0.970777 202.996ZM0.970777 191.346C0.433752 191.346 0 190.913 0 190.376V184.551C0 184.014 0.433752 183.58 0.970777 183.58C1.5078 183.58 1.94155 184.014 1.94155 184.551V190.376C1.94155 190.913 1.5078 191.346 0.970777 191.346ZM0.970777 179.697C0.433752 179.697 0 179.263 0 178.726V172.902C0 172.365 0.433752 171.931 0.970777 171.931C1.5078 171.931 1.94155 172.365 1.94155 172.902V178.726C1.94155 179.263 1.5078 179.697 0.970777 179.697ZM0.970777 168.048C0.433752 168.048 0 167.614 0 167.077V161.252C0 160.715 0.433752 160.281 0.970777 160.281C1.5078 160.281 1.94155 160.715 1.94155 161.252V167.077C1.94155 167.614 1.5078 168.048 0.970777 168.048ZM0.970777 156.398C0.433752 156.398 0 155.965 0 155.428V149.603C0 149.066 0.433752 148.632 0.970777 148.632C1.5078 148.632 1.94155 149.066 1.94155 149.603V155.428C1.94155 155.965 1.5078 156.398 0.970777 156.398ZM0.970777 144.749C0.433752 144.749 0 144.315 0 143.778V137.954C0 137.417 0.433752 136.983 0.970777 136.983C1.5078 136.983 1.94155 137.417 1.94155 137.954V143.778C1.94155 144.315 1.5078 144.749 0.970777 144.749ZM0.970777 133.1C0.433752 133.1 0 132.666 0 132.129V126.304C0 125.767 0.433752 125.333 0.970777 125.333C1.5078 125.333 1.94155 125.767 1.94155 126.304V132.129C1.94155 132.666 1.5078 133.1 0.970777 133.1ZM0.970777 121.45C0.433752 121.45 0 121.017 0 120.48V114.655C0 114.118 0.433752 113.684 0.970777 113.684C1.5078 113.684 1.94155 114.118 1.94155 114.655V120.48C1.94155 121.017 1.5078 121.45 0.970777 121.45ZM0.970777 109.801C0.433752 109.801 0 109.367 0 108.83V103.006C0 102.469 0.433752 102.035 0.970777 102.035C1.5078 102.035 1.94155 102.469 1.94155 103.006V108.83C1.94155 109.367 1.5078 109.801 0.970777 109.801ZM0.970777 98.1517C0.433752 98.1517 0 97.7179 0 97.1809V91.3563C0 90.8192 0.433752 90.3855 0.970777 90.3855C1.5078 90.3855 1.94155 90.8192 1.94155 91.3563V97.1809C1.94155 97.7179 1.5078 98.1517 0.970777 98.1517ZM0.970777 86.5024C0.433752 86.5024 0 86.0686 0 85.5316V79.7069C0 79.1699 0.433752 78.7361 0.970777 78.7361C1.5078 78.7361 1.94155 79.1699 1.94155 79.7069V85.5316C1.94155 86.0686 1.5078 86.5024 0.970777 86.5024ZM0.970777 74.853C0.433752 74.853 0 74.4193 0 73.8823V68.0576C0 67.5206 0.433752 67.0868 0.970777 67.0868C1.5078 67.0868 1.94155 67.5206 1.94155 68.0576V73.8823C1.94155 74.4193 1.5078 74.853 0.970777 74.853ZM0.970777 63.2037C0.433752 63.2037 0 62.77 0 62.2329V56.4083C0 55.8712 0.433752 55.4375 0.970777 55.4375C1.5078 55.4375 1.94155 55.8712 1.94155 56.4083V62.2329C1.94155 62.77 1.5078 63.2037 0.970777 63.2037ZM0.970777 51.5544C0.433752 51.5544 0 51.1206 0 50.5836V44.7589C0 44.2219 0.433752 43.7882 0.970777 43.7882C1.5078 43.7882 1.94155 44.2219 1.94155 44.7589V50.5836C1.94155 51.1206 1.5078 51.5544 0.970777 51.5544ZM0.970777 39.9051C0.433752 39.9051 0 39.4713 0 38.9343V33.1096C0 32.5726 0.433752 32.1388 0.970777 32.1388C1.5078 32.1388 1.94155 32.5726 1.94155 33.1096V38.9343C1.94155 39.4713 1.5078 39.9051 0.970777 39.9051ZM0.970777 28.1938C0.433752 28.1938 0 27.76 0 27.223V21.3983C0 20.8613 0.433752 20.4276 0.970777 20.4276C1.5078 20.4276 1.94155 20.8613 1.94155 21.3983V27.223C1.94155 27.76 1.5078 28.1938 0.970777 28.1938ZM0.970777 16.5238C0.433752 16.5238 0 16.09 0 15.553V9.72835C0 9.19132 0.433752 8.75757 0.970777 8.75757C1.5078 8.75757 1.94155 9.19132 1.94155 9.72835V15.553C1.94155 16.09 1.5078 16.5238 0.970777 16.5238Z" fill="#470F4C"/>
<path d="M0.970777 4.87454C0.433752 4.87454 0 4.44079 0 3.90376V0.970777C0 0.433752 0.433752 0 0.970777 0H3.90376C4.44079 0 4.87454 0.433752 4.87454 0.970777C4.87454 1.5078 4.44079 1.94155 3.90376 1.94155H1.94155V3.88311C1.94155 4.42014 1.5078 4.85389 0.970777 4.85389V4.87454Z" fill="#470F4C"/>
<path d="M216.586 1.94155H210.679C210.142 1.94155 209.708 1.5078 209.708 0.970777C209.708 0.433752 210.142 0 210.679 0H216.586C217.123 0 217.557 0.433752 217.557 0.970777C217.557 1.5078 217.123 1.94155 216.586 1.94155ZM204.772 1.94155H198.864C198.327 1.94155 197.894 1.5078 197.894 0.970777C197.894 0.433752 198.327 0 198.864 0H204.772C205.309 0 205.742 0.433752 205.742 0.970777C205.742 1.5078 205.309 1.94155 204.772 1.94155ZM192.957 1.94155H187.05C186.513 1.94155 186.079 1.5078 186.079 0.970777C186.079 0.433752 186.513 0 187.05 0H192.957C193.494 0 193.928 0.433752 193.928 0.970777C193.928 1.5078 193.494 1.94155 192.957 1.94155ZM181.142 1.94155H175.235C174.698 1.94155 174.264 1.5078 174.264 0.970777C174.264 0.433752 174.698 0 175.235 0H181.142C181.68 0 182.113 0.433752 182.113 0.970777C182.113 1.5078 181.68 1.94155 181.142 1.94155ZM169.328 1.94155H163.421C162.884 1.94155 162.45 1.5078 162.45 0.970777C162.45 0.433752 162.884 0 163.421 0H169.328C169.865 0 170.299 0.433752 170.299 0.970777C170.299 1.5078 169.865 1.94155 169.328 1.94155ZM157.513 1.94155H151.606C151.069 1.94155 150.635 1.5078 150.635 0.970777C150.635 0.433752 151.069 0 151.606 0H157.513C158.05 0 158.484 0.433752 158.484 0.970777C158.484 1.5078 158.05 1.94155 157.513 1.94155ZM145.699 1.94155H139.792C139.254 1.94155 138.821 1.5078 138.821 0.970777C138.821 0.433752 139.254 0 139.792 0H145.699C146.236 0 146.67 0.433752 146.67 0.970777C146.67 1.5078 146.236 1.94155 145.699 1.94155ZM133.884 1.94155H127.977C127.44 1.94155 127.006 1.5078 127.006 0.970777C127.006 0.433752 127.44 0 127.977 0H133.884C134.421 0 134.855 0.433752 134.855 0.970777C134.855 1.5078 134.421 1.94155 133.884 1.94155ZM122.07 1.94155H116.162C115.625 1.94155 115.192 1.5078 115.192 0.970777C115.192 0.433752 115.625 0 116.162 0H122.07C122.607 0 123.04 0.433752 123.04 0.970777C123.04 1.5078 122.607 1.94155 122.07 1.94155ZM110.255 1.94155H104.348C103.811 1.94155 103.377 1.5078 103.377 0.970777C103.377 0.433752 103.811 0 104.348 0H110.255C110.792 0 111.226 0.433752 111.226 0.970777C111.226 1.5078 110.792 1.94155 110.255 1.94155ZM98.4405 1.94155H92.5332C91.9962 1.94155 91.5625 1.5078 91.5625 0.970777C91.5625 0.433752 91.9962 0 92.5332 0H98.4405C98.9775 0 99.4113 0.433752 99.4113 0.970777C99.4113 1.5078 98.9775 1.94155 98.4405 1.94155ZM86.626 1.94155H80.7187C80.1817 1.94155 79.7479 1.5078 79.7479 0.970777C79.7479 0.433752 80.1817 0 80.7187 0H86.626C87.163 0 87.5967 0.433752 87.5967 0.970777C87.5967 1.5078 87.163 1.94155 86.626 1.94155ZM74.8114 1.94155H68.9041C68.3671 1.94155 67.9333 1.5078 67.9333 0.970777C67.9333 0.433752 68.3671 0 68.9041 0H74.8114C75.3484 0 75.7822 0.433752 75.7822 0.970777C75.7822 1.5078 75.3484 1.94155 74.8114 1.94155ZM62.9968 1.94155H57.0895C56.5525 1.94155 56.1188 1.5078 56.1188 0.970777C56.1188 0.433752 56.5525 0 57.0895 0H62.9968C63.5338 0 63.9676 0.433752 63.9676 0.970777C63.9676 1.5078 63.5338 1.94155 62.9968 1.94155ZM51.1823 1.94155H45.275C44.7379 1.94155 44.3042 1.5078 44.3042 0.970777C44.3042 0.433752 44.7379 0 45.275 0H51.1823C51.7193 0 52.153 0.433752 52.153 0.970777C52.153 1.5078 51.7193 1.94155 51.1823 1.94155ZM39.3677 1.94155H33.4604C32.9234 1.94155 32.4896 1.5078 32.4896 0.970777C32.4896 0.433752 32.9234 0 33.4604 0H39.3677C39.9047 0 40.3385 0.433752 40.3385 0.970777C40.3385 1.5078 39.9047 1.94155 39.3677 1.94155ZM27.5531 1.94155H21.6458C21.1088 1.94155 20.6751 1.5078 20.6751 0.970777C20.6751 0.433752 21.1088 0 21.6458 0H27.5531C28.0901 0 28.5239 0.433752 28.5239 0.970777C28.5239 1.5078 28.0901 1.94155 27.5531 1.94155ZM15.7179 1.94155H9.81062C9.27359 1.94155 8.83984 1.5078 8.83984 0.970777C8.83984 0.433752 9.27359 0 9.81062 0H15.7179C16.2549 0 16.6887 0.433752 16.6887 0.970777C16.6887 1.5078 16.2549 1.94155 15.7179 1.94155Z" fill="#470F4C"/>
<path d="M225.426 4.87454C224.889 4.87454 224.455 4.44079 224.455 3.90376V1.94155H222.514C221.977 1.94155 221.543 1.5078 221.543 0.970777C221.543 0.433752 221.977 0 222.514 0H225.447C225.984 0 226.418 0.433752 226.418 0.970777V3.90376C226.418 4.44079 225.984 4.87454 225.447 4.87454H225.426Z" fill="#470F4C"/>
<path d="M225.428 261.242C224.891 261.242 224.457 260.809 224.457 260.272V254.447C224.457 253.91 224.891 253.476 225.428 253.476C225.965 253.476 226.399 253.91 226.399 254.447V260.272C226.399 260.809 225.965 261.242 225.428 261.242ZM225.428 249.593C224.891 249.593 224.457 249.159 224.457 248.622V242.798C224.457 242.261 224.891 241.827 225.428 241.827C225.965 241.827 226.399 242.261 226.399 242.798V248.622C226.399 249.159 225.965 249.593 225.428 249.593ZM225.428 237.944C224.891 237.944 224.457 237.51 224.457 236.973V231.148C224.457 230.611 224.891 230.178 225.428 230.178C225.965 230.178 226.399 230.611 226.399 231.148V236.973C226.399 237.51 225.965 237.944 225.428 237.944ZM225.428 226.294C224.891 226.294 224.457 225.861 224.457 225.324V219.499C224.457 218.962 224.891 218.528 225.428 218.528C225.965 218.528 226.399 218.962 226.399 219.499V225.324C226.399 225.861 225.965 226.294 225.428 226.294ZM225.428 214.645C224.891 214.645 224.457 214.211 224.457 213.674V207.85C224.457 207.313 224.891 206.879 225.428 206.879C225.965 206.879 226.399 207.313 226.399 207.85V213.674C226.399 214.211 225.965 214.645 225.428 214.645ZM225.428 202.996C224.891 202.996 224.457 202.562 224.457 202.025V196.2C224.457 195.663 224.891 195.23 225.428 195.23C225.965 195.23 226.399 195.663 226.399 196.2V202.025C226.399 202.562 225.965 202.996 225.428 202.996ZM225.428 191.346C224.891 191.346 224.457 190.913 224.457 190.376V184.551C224.457 184.014 224.891 183.58 225.428 183.58C225.965 183.58 226.399 184.014 226.399 184.551V190.376C226.399 190.913 225.965 191.346 225.428 191.346ZM225.428 179.697C224.891 179.697 224.457 179.263 224.457 178.726V172.902C224.457 172.365 224.891 171.931 225.428 171.931C225.965 171.931 226.399 172.365 226.399 172.902V178.726C226.399 179.263 225.965 179.697 225.428 179.697ZM225.428 168.048C224.891 168.048 224.457 167.614 224.457 167.077V161.252C224.457 160.715 224.891 160.282 225.428 160.282C225.965 160.282 226.399 160.715 226.399 161.252V167.077C226.399 167.614 225.965 168.048 225.428 168.048ZM225.428 156.398C224.891 156.398 224.457 155.965 224.457 155.428V149.603C224.457 149.066 224.891 148.632 225.428 148.632C225.965 148.632 226.399 149.066 226.399 149.603V155.428C226.399 155.965 225.965 156.398 225.428 156.398ZM225.428 144.749C224.891 144.749 224.457 144.315 224.457 143.778V137.954C224.457 137.417 224.891 136.983 225.428 136.983C225.965 136.983 226.399 137.417 226.399 137.954V143.778C226.399 144.315 225.965 144.749 225.428 144.749ZM225.428 133.1C224.891 133.1 224.457 132.666 224.457 132.129V126.304C224.457 125.767 224.891 125.334 225.428 125.334C225.965 125.334 226.399 125.767 226.399 126.304V132.129C226.399 132.666 225.965 133.1 225.428 133.1ZM225.428 121.45C224.891 121.45 224.457 121.017 224.457 120.48V114.655C224.457 114.118 224.891 113.684 225.428 113.684C225.965 113.684 226.399 114.118 226.399 114.655V120.48C226.399 121.017 225.965 121.45 225.428 121.45ZM225.428 109.801C224.891 109.801 224.457 109.367 224.457 108.83V103.006C224.457 102.469 224.891 102.035 225.428 102.035C225.965 102.035 226.399 102.469 226.399 103.006V108.83C226.399 109.367 225.965 109.801 225.428 109.801ZM225.428 98.1518C224.891 98.1518 224.457 97.7181 224.457 97.1811V91.3564C224.457 90.8194 224.891 90.3856 225.428 90.3856C225.965 90.3856 226.399 90.8194 226.399 91.3564V97.1811C226.399 97.7181 225.965 98.1518 225.428 98.1518ZM225.428 86.5025C224.891 86.5025 224.457 86.0688 224.457 85.5317V79.7071C224.457 79.17 224.891 78.7363 225.428 78.7363C225.965 78.7363 226.399 79.17 226.399 79.7071V85.5317C226.399 86.0688 225.965 86.5025 225.428 86.5025ZM225.428 74.8532C224.891 74.8532 224.457 74.4194 224.457 73.8824V68.0577C224.457 67.5207 224.891 67.087 225.428 67.087C225.965 67.087 226.399 67.5207 226.399 68.0577V73.8824C226.399 74.4194 225.965 74.8532 225.428 74.8532ZM225.428 63.2039C224.891 63.2039 224.457 62.7701 224.457 62.2331V56.4084C224.457 55.8714 224.891 55.4376 225.428 55.4376C225.965 55.4376 226.399 55.8714 226.399 56.4084V62.2331C226.399 62.7701 225.965 63.2039 225.428 63.2039ZM225.428 51.5545C224.891 51.5545 224.457 51.1208 224.457 50.5837V44.7591C224.457 44.2221 224.891 43.7883 225.428 43.7883C225.965 43.7883 226.399 44.2221 226.399 44.7591V50.5837C226.399 51.1208 225.965 51.5545 225.428 51.5545ZM225.428 39.9052C224.891 39.9052 224.457 39.4714 224.457 38.9344V33.1098C224.457 32.5727 224.891 32.139 225.428 32.139C225.965 32.139 226.399 32.5727 226.399 33.1098V38.9344C226.399 39.4714 225.965 39.9052 225.428 39.9052ZM225.428 28.2559C224.891 28.2559 224.457 27.8221 224.457 27.2851V21.4604C224.457 20.9234 224.891 20.4897 225.428 20.4897C225.965 20.4897 226.399 20.9234 226.399 21.4604V27.2851C226.399 27.8221 225.965 28.2559 225.428 28.2559ZM225.428 16.6065C224.891 16.6065 224.457 16.1728 224.457 15.6358V9.81111C224.457 9.27408 224.891 8.84033 225.428 8.84033C225.965 8.84033 226.399 9.27408 226.399 9.81111V15.6358C226.399 16.1728 225.965 16.6065 225.428 16.6065Z" fill="#470F4C"/>
<path d="M168.336 84.4784C168.336 60.0437 160.694 25.1577 112.238 23.8771C63.7815 22.5965 56.3457 60.7873 54.5694 84.4784C52.9996 105.443 59.1341 115.481 60.5593 117.526C58.7623 92.0587 64.2152 68.0578 64.2152 68.0578C64.2152 61.82 72.1673 51.2861 72.1673 51.2861C72.1673 51.2861 82.1023 77.084 112.238 77.084C142.373 77.084 152.287 53.1657 152.287 53.1657C152.287 53.1657 159.641 62.3984 161.52 74.4401L162.326 77.1046C163.833 88.5887 165.073 104.431 163.586 120.108C169.039 117.051 168.316 108.954 168.316 84.499L168.336 84.4784Z" fill="#470F4C"/>
<path d="M163.628 121.058C163.359 121.058 163.091 120.934 162.905 120.748C162.719 120.542 162.615 120.273 162.657 120.005C164.185 104.018 162.822 87.9071 161.418 77.2285L160.653 74.7293C159.207 65.5379 154.539 57.9782 152.515 55.0659C151.359 57.2553 148.777 61.5309 144.295 65.8477C138.47 71.4245 128.184 78.0754 112.3 78.0754C86.2546 78.0754 74.8531 58.949 72.044 53.2483C69.9579 56.2432 65.2692 63.5137 65.2692 68.0784C65.2692 68.1404 65.2692 68.223 65.2486 68.285C65.1866 68.5329 59.8577 92.4512 61.6133 117.485C61.634 117.919 61.3861 118.332 60.973 118.476C60.5599 118.621 60.1055 118.476 59.8577 118.125C58.5358 116.266 52.0708 105.877 53.6819 84.4577C54.8592 68.9046 58.4531 21.4811 112.362 22.9683C149.686 23.9391 169.411 45.2342 169.411 84.5403C169.411 87.3081 169.411 89.8486 169.411 92.224C169.473 110.979 169.514 118.001 164.165 120.996C164.02 121.079 163.855 121.12 163.69 121.12L163.628 121.058ZM152.329 52.1742C152.619 52.1742 152.908 52.2982 153.094 52.546C153.403 52.9385 160.612 62.1298 162.533 74.2749L163.318 76.7948C164.702 87.2255 166.003 102.469 164.805 117.857C167.49 114.593 167.469 107.447 167.407 92.162C167.407 89.8073 167.407 87.2461 167.407 84.4784C167.407 45.8745 148.859 25.8187 112.259 24.8685C77.1664 23.9184 58.6597 43.4785 55.5821 84.561C54.4668 99.3292 57.2552 108.583 59.4033 113.333C58.4945 90.4683 62.9352 69.6276 63.2864 67.9545C63.369 61.4689 71.0939 51.1621 71.4244 50.7077C71.6309 50.4186 71.9821 50.2946 72.3332 50.3359C72.6843 50.3773 72.9735 50.6251 73.1181 50.9556C73.2214 51.2034 83.1976 76.1338 112.28 76.1338C141.362 76.1338 151.338 53.0417 151.441 52.8145C151.565 52.5047 151.854 52.2775 152.205 52.2155C152.247 52.2155 152.288 52.2155 152.35 52.2155L152.329 52.1742Z" fill="#470F4C"/>
<path d="M81.3389 107.55C83.3124 107.55 84.9122 105.95 84.9122 103.976C84.9122 102.003 83.3124 100.403 81.3389 100.403C79.3654 100.403 77.7656 102.003 77.7656 103.976C77.7656 105.95 79.3654 107.55 81.3389 107.55Z" fill="#470F4C"/>
<path d="M81.339 108.521C78.8398 108.521 76.7949 106.476 76.7949 103.976C76.7949 101.477 78.8398 99.4324 81.339 99.4324C83.8382 99.4324 85.8831 101.477 85.8831 103.976C85.8831 106.476 83.8382 108.521 81.339 108.521ZM81.339 101.395C79.9138 101.395 78.7571 102.551 78.7571 103.976C78.7571 105.402 79.9138 106.558 81.339 106.558C82.7642 106.558 83.9208 105.402 83.9208 103.976C83.9208 102.551 82.7642 101.395 81.339 101.395Z" fill="#470F4C"/>
<path d="M110.937 208.944C103.914 208.944 97.6561 207.829 92.4097 206.342C75.9478 201.633 65.9096 192.421 65.4758 192.028C65.2693 191.842 65.166 191.574 65.166 191.305V144.667C65.166 144.13 65.5998 143.696 66.1368 143.696C66.6738 143.696 67.1076 144.13 67.1076 144.667V190.871C70.9494 194.176 109.347 225.303 156.047 190.83V149.335C156.047 148.798 156.481 148.364 157.018 148.364C157.555 148.364 157.989 148.798 157.989 149.335V191.326C157.989 191.636 157.844 191.925 157.596 192.111C140.329 204.979 124.218 208.965 110.896 208.965L110.937 208.944Z" fill="#470F4C"/>
<path d="M112.776 177.033C86.5652 177.033 72.9123 163.091 66.1582 145.204C66.1995 152.681 66.3028 172.055 66.3028 172.447C66.3028 172.447 127.544 203.078 157.039 152.619V148.178C149.955 164.743 136.632 177.033 112.776 177.033Z" fill="#470F4C"/>
<path d="M106.208 182.486C84.665 182.486 66.1996 173.48 65.8691 173.315C65.5386 173.15 65.3321 172.819 65.3321 172.447C65.3321 172.076 65.2288 152.681 65.1875 145.224C65.1875 144.749 65.518 144.336 65.993 144.254C66.4474 144.171 66.9225 144.419 67.0877 144.873C74.8953 165.59 90.2831 176.083 112.797 176.083C133.555 176.083 148.137 166.581 156.151 147.806C156.337 147.372 156.771 147.145 157.246 147.228C157.701 147.331 158.031 147.724 158.031 148.178V152.619C158.031 152.784 157.99 152.97 157.907 153.114C144.419 176.186 124.24 182.486 106.229 182.486H106.208ZM67.2736 171.807C72.0036 173.997 106.828 189.116 134.856 173.604C128.474 176.516 121.1 178.004 112.776 178.004C91.068 178.004 75.7421 168.626 67.1497 150.099C67.191 157.886 67.253 169.06 67.2736 171.807Z" fill="#470F4C"/>
<path d="M52.3594 114.82C45.9358 114.82 40.6895 109.368 40.6895 102.655C40.6895 95.9419 45.9151 90.489 52.3594 90.489C53.0824 90.489 53.8053 90.551 54.5075 90.6956C55.0446 90.7988 55.375 91.3152 55.2718 91.8316C55.1685 92.3686 54.6521 92.6991 54.1357 92.5958C53.5574 92.4925 52.9584 92.4306 52.3594 92.4306C47.0098 92.4306 42.6517 97.0159 42.6517 102.655C42.6517 108.293 47.0098 112.879 52.3594 112.879C54.1151 112.879 55.8294 112.383 57.3372 111.433C57.7917 111.144 58.3906 111.288 58.6798 111.743C58.969 112.197 58.8244 112.796 58.37 113.085C56.5524 114.221 54.4869 114.82 52.3594 114.82Z" fill="#470F4C"/>
<path d="M53.5584 108.934C49.5721 108.934 46.3086 106.104 46.3086 102.634C46.3086 99.1639 49.5514 96.3342 53.5584 96.3342C53.9509 96.3342 54.3227 96.3549 54.7151 96.4168C55.2521 96.4995 55.6239 96.9745 55.5413 97.5116C55.4793 98.0486 54.9836 98.4204 54.4466 98.3377C54.1574 98.2964 53.8683 98.2758 53.5584 98.2758C50.6461 98.2758 48.2708 100.217 48.2708 102.634C48.2708 105.051 50.6461 106.992 53.5584 106.992C54.3846 106.992 55.1695 106.848 55.9131 106.538C56.4088 106.331 56.9871 106.579 57.1937 107.075C57.4002 107.57 57.1524 108.149 56.6567 108.355C55.6859 108.748 54.6325 108.954 53.5584 108.954V108.934Z" fill="#470F4C"/>
<path d="M169.536 115.771C168.73 115.771 167.945 115.688 167.16 115.523C166.623 115.399 166.293 114.882 166.417 114.366C166.52 113.85 167.057 113.498 167.573 113.622C168.214 113.767 168.875 113.829 169.536 113.829C174.885 113.829 179.243 109.244 179.243 103.605C179.243 97.966 174.885 93.3807 169.536 93.3807C169.164 93.3807 168.813 93.4013 168.461 93.4426C167.924 93.5046 167.449 93.1122 167.387 92.5751C167.325 92.0381 167.718 91.563 168.255 91.5011C168.689 91.4598 169.122 91.4185 169.556 91.4185C175.98 91.4185 181.226 96.8713 181.226 103.584C181.226 110.297 176 115.75 169.556 115.75L169.536 115.771Z" fill="#470F4C"/>
<path d="M168.338 109.904C167.801 109.904 167.367 109.471 167.367 108.934C167.367 108.397 167.801 107.963 168.338 107.963C171.25 107.963 173.626 106.021 173.626 103.605C173.626 101.188 171.25 99.2465 168.338 99.2465C167.801 99.2465 167.367 98.8127 167.367 98.2757C167.367 97.7387 167.801 97.3049 168.338 97.3049C172.324 97.3049 175.588 100.135 175.588 103.605C175.588 107.075 172.345 109.904 168.338 109.904Z" fill="#470F4C"/>
<path d="M72.189 93.0914C71.8999 93.0914 71.6314 92.9675 71.4248 92.7403C71.0943 92.3272 71.1563 91.7075 71.5694 91.3771C71.8379 91.1499 78.3442 85.9448 90.324 83.5489C90.8197 83.4456 91.3567 83.7761 91.4806 84.3131C91.5839 84.8501 91.2534 85.3458 90.7164 85.4698C79.253 87.7625 72.8706 92.8642 72.8087 92.9055C72.6228 93.0501 72.4162 93.1327 72.189 93.1327V93.0914Z" fill="#470F4C"/>
<path d="M80.3062 124.817C68.6982 124.817 59.2383 117.113 59.2383 107.633C59.2383 98.152 68.6775 90.4478 80.3062 90.4478C91.9349 90.4478 101.374 98.152 101.374 107.633C101.374 117.113 91.9349 124.817 80.3062 124.817ZM80.3062 92.41C69.7722 92.41 61.2005 99.2467 61.2005 107.633C61.2005 116.018 69.7722 122.855 80.3062 122.855C90.8402 122.855 99.4119 116.018 99.4119 107.633C99.4119 99.2467 90.8402 92.41 80.3062 92.41Z" fill="#470F4C"/>
<path d="M143.159 107.55C145.133 107.55 146.733 105.95 146.733 103.976C146.733 102.003 145.133 100.403 143.159 100.403C141.186 100.403 139.586 102.003 139.586 103.976C139.586 105.95 141.186 107.55 143.159 107.55Z" fill="#470F4C"/>
<path d="M143.159 108.521C140.66 108.521 138.615 106.476 138.615 103.976C138.615 101.477 140.66 99.4324 143.159 99.4324C145.659 99.4324 147.703 101.477 147.703 103.976C147.703 106.476 145.659 108.521 143.159 108.521ZM143.159 101.395C141.734 101.395 140.577 102.551 140.577 103.976C140.577 105.402 141.734 106.558 143.159 106.558C144.584 106.558 145.741 105.402 145.741 103.976C145.741 102.551 144.584 101.395 143.159 101.395Z" fill="#470F4C"/>
<path d="M152.33 93.0915C152.103 93.0915 151.896 93.0295 151.71 92.8643C151.648 92.8229 145.287 87.7212 133.803 85.4285C133.266 85.3252 132.935 84.8089 133.038 84.2718C133.142 83.7348 133.679 83.4043 134.195 83.5076C146.175 85.9036 152.681 91.1292 152.95 91.3358C153.363 91.6663 153.425 92.2859 153.094 92.699C152.908 92.9262 152.619 93.0501 152.33 93.0501V93.0915Z" fill="#470F4C"/>
<path d="M144.212 124.817C132.604 124.817 123.145 117.113 123.145 107.633C123.145 98.152 132.584 90.4478 144.212 90.4478C155.841 90.4478 165.28 98.152 165.28 107.633C165.28 117.113 155.841 124.817 144.212 124.817ZM144.212 92.41C133.678 92.41 125.107 99.2467 125.107 107.633C125.107 116.018 133.678 122.855 144.212 122.855C154.746 122.855 163.318 116.018 163.318 107.633C163.318 99.2467 154.746 92.41 144.212 92.41Z" fill="#470F4C"/>
<path d="M107.53 148.798C91.6258 148.798 87.0198 141.383 86.8339 141.073C86.5654 140.618 86.71 140.019 87.1644 139.73C87.6188 139.462 88.2178 139.606 88.5069 140.061C88.5069 140.061 92.8445 146.835 107.53 146.835C108.067 146.835 108.501 147.269 108.501 147.806C108.501 148.343 108.067 148.777 107.53 148.777V148.798Z" fill="#470F4C"/>
<path d="M112.776 178.004C95.9428 178.004 82.827 172.282 73.8008 160.984C61.0361 144.997 58.8467 120.48 59.2804 102.737C59.7142 84.4165 62.9364 69.3385 63.2462 67.9339C63.3288 61.4483 71.0537 51.1416 71.3842 50.6872C71.5907 50.398 71.9419 50.2741 72.293 50.3154C72.6441 50.3567 72.9333 50.6045 73.0779 50.935C73.1812 51.1829 83.1574 76.1132 112.239 76.1132C141.321 76.1132 151.298 53.0211 151.401 52.7939C151.525 52.4841 151.814 52.2569 152.165 52.195C152.496 52.133 152.847 52.2776 153.074 52.5461C153.384 52.9385 160.572 62.0886 162.493 74.213L163.278 76.8155C166.293 99.6391 168.4 140.949 149.046 163.029C140.33 172.984 128.123 178.024 112.776 178.024V178.004ZM72.0038 53.207C69.9177 56.202 65.229 63.4725 65.229 68.0372C65.229 68.0992 65.229 68.1818 65.2084 68.2438C65.1671 68.3883 61.7177 83.8588 61.2633 102.799C60.8502 120.211 62.957 144.212 75.3706 159.745C84.0043 170.547 96.6037 176.021 112.818 176.021C127.565 176.021 139.277 171.208 147.621 161.686C166.479 140.185 164.372 99.4945 161.419 77.1666L160.654 74.6674C160.654 74.6674 160.634 74.5848 160.634 74.5435C159.209 65.4554 154.541 57.9163 152.537 55.0247C151.38 57.2141 148.799 61.4896 144.316 65.8065C138.492 71.3833 128.206 78.0341 112.322 78.0341C86.2763 78.0341 74.8748 58.9078 72.0658 53.207H72.0038Z" fill="#470F4C"/>
<path d="M107.736 133.203C107.22 133.203 106.786 132.79 106.766 132.253C106.766 131.716 107.158 131.262 107.716 131.241C112.384 131.076 119.406 130.208 121.183 128.804C121.389 126.242 122.608 110.421 121.286 97.4082C121.224 96.8712 121.616 96.3961 122.153 96.3342C122.691 96.2929 123.166 96.6647 123.228 97.2017C124.694 111.515 123.124 129.155 123.104 129.32C123.104 129.527 123 129.712 122.876 129.878C120.501 132.604 109.905 133.12 107.819 133.182C107.819 133.182 107.798 133.182 107.778 133.182L107.736 133.203Z" fill="#470F4C"/>
<path d="M100.383 108.603C99.9905 108.603 99.5981 108.355 99.4535 107.942C99.2676 107.426 99.5361 106.868 100.052 106.703C100.28 106.62 105.795 104.699 112.796 104.617C119.86 104.576 124.343 106.662 124.528 106.744C125.004 106.971 125.21 107.57 124.983 108.046C124.756 108.521 124.157 108.727 123.682 108.5C123.64 108.5 119.406 106.476 112.817 106.558C106.166 106.641 100.755 108.521 100.713 108.541C100.61 108.583 100.507 108.603 100.383 108.603Z" fill="#470F4C"/>
<path d="M75.3696 218.446C63.8855 218.446 52.7319 216.236 45.0689 212.27C38.9964 209.13 35.7949 205.227 35.7949 200.93C35.7949 184.51 64.6704 176.806 65.9097 176.496C66.426 176.351 66.9631 176.682 67.1077 177.198C67.2522 177.714 66.9424 178.251 66.4054 178.396C66.1162 178.479 37.7571 186.038 37.7571 200.951C37.7571 205.371 42.2186 208.614 45.9778 210.556C62.0885 218.88 93.9176 219.231 110.793 207.23C111.226 206.92 111.846 207.024 112.156 207.457C112.466 207.891 112.362 208.511 111.929 208.821C102.551 215.471 88.7333 218.466 75.3902 218.466L75.3696 218.446Z" fill="#470F4C"/>
<path d="M226.439 270H1.98316C1.69399 270 1.42547 269.876 1.23958 269.67C1.05369 269.463 0.971069 269.174 1.01238 268.905C1.38417 266.055 10.431 199.98 36.043 199.98C36.2908 199.98 36.5593 199.98 36.8072 200.001C37.3442 200.022 37.7573 200.497 37.7367 201.034C37.716 201.571 37.3029 202.046 36.7039 201.963C14.0662 200.765 4.42043 259.26 3.09852 268.079H225.345C224.312 259.445 216.298 201.963 188.806 201.963C188.269 201.963 187.835 201.529 187.835 200.992C187.835 200.455 188.269 200.022 188.806 200.022C201.86 200.022 212.683 212.022 220.098 234.722C225.634 251.638 227.389 268.802 227.41 268.967C227.431 269.236 227.348 269.504 227.162 269.711C226.976 269.918 226.708 270.041 226.439 270.041V270Z" fill="#470F4C"/>
<path d="M100.403 246.784C100.403 246.784 100.362 246.784 100.341 246.784C99.8043 246.743 99.3912 246.288 99.4325 245.751C99.5152 244.533 101.477 215.988 107.013 209.626C107.364 209.213 107.984 209.172 108.397 209.523C108.81 209.874 108.851 210.493 108.5 210.907C103.398 216.773 101.415 245.586 101.395 245.875C101.353 246.392 100.94 246.784 100.424 246.784H100.403Z" fill="#470F4C"/>
<path d="M150.202 218.446C136.839 218.446 123.021 215.471 113.664 208.8C113.23 208.49 113.127 207.87 113.437 207.437C113.747 207.003 114.366 206.9 114.8 207.209C131.675 219.21 163.504 218.859 179.615 210.535C183.374 208.593 187.835 205.371 187.835 200.93C187.835 185.997 157.101 177.343 156.791 177.26C156.275 177.115 155.965 176.578 156.11 176.062C156.254 175.546 156.791 175.236 157.308 175.38C158.63 175.752 189.777 184.53 189.777 200.93C189.777 205.206 186.575 209.13 180.503 212.27C172.819 216.236 161.686 218.446 150.202 218.446Z" fill="#470F4C"/>
<path d="M125.169 246.784C124.653 246.784 124.24 246.392 124.198 245.875C124.198 245.586 122.195 216.773 117.093 210.907C116.742 210.493 116.783 209.874 117.196 209.523C117.609 209.172 118.229 209.213 118.58 209.626C124.116 215.988 126.078 244.533 126.16 245.751C126.202 246.288 125.789 246.763 125.252 246.784C125.231 246.784 125.21 246.784 125.19 246.784H125.169Z" fill="#470F4C"/>
</g>
<defs>
<clipPath id="clip0_186_843">
<rect width="227.41" height="270" fill="white"/>
</clipPath>
</defs>
</svg>
