<svg width="227" height="270" viewBox="0 0 227 270" fill="none" xmlns="http://www.w3.org/2000/svg">
<g clip-path="url(#clip0_186_884)">
<path d="M225.427 270H222.494C221.957 270 221.523 269.566 221.523 269.029C221.523 268.492 221.957 268.058 222.494 268.058H224.436V266.117C224.436 265.58 224.87 265.146 225.407 265.146C225.944 265.146 226.377 265.58 226.377 266.117V269.05C226.377 269.587 225.944 270.021 225.407 270.021L225.427 270Z" fill="#470F4C"/>
<path d="M216.587 270H210.68C210.143 270 209.709 269.566 209.709 269.029C209.709 268.492 210.143 268.058 210.68 268.058H216.587C217.124 268.058 217.558 268.492 217.558 269.029C217.558 269.566 217.124 270 216.587 270ZM204.772 270H198.865C198.328 270 197.894 269.566 197.894 269.029C197.894 268.492 198.328 268.058 198.865 268.058H204.772C205.309 268.058 205.743 268.492 205.743 269.029C205.743 269.566 205.309 270 204.772 270ZM192.958 270H187.051C186.514 270 186.08 269.566 186.08 269.029C186.08 268.492 186.514 268.058 187.051 268.058H192.958C193.495 268.058 193.929 268.492 193.929 269.029C193.929 269.566 193.495 270 192.958 270ZM181.143 270H175.236C174.699 270 174.265 269.566 174.265 269.029C174.265 268.492 174.699 268.058 175.236 268.058H181.143C181.68 268.058 182.114 268.492 182.114 269.029C182.114 269.566 181.68 270 181.143 270ZM169.329 270H163.421C162.884 270 162.451 269.566 162.451 269.029C162.451 268.492 162.884 268.058 163.421 268.058H169.329C169.866 268.058 170.3 268.492 170.3 269.029C170.3 269.566 169.866 270 169.329 270ZM157.514 270H151.607C151.07 270 150.636 269.566 150.636 269.029C150.636 268.492 151.07 268.058 151.607 268.058H157.514C158.051 268.058 158.485 268.492 158.485 269.029C158.485 269.566 158.051 270 157.514 270ZM145.7 270H139.792C139.255 270 138.822 269.566 138.822 269.029C138.822 268.492 139.255 268.058 139.792 268.058H145.7C146.237 268.058 146.67 268.492 146.67 269.029C146.67 269.566 146.237 270 145.7 270ZM133.885 270H127.978C127.441 270 127.007 269.566 127.007 269.029C127.007 268.492 127.441 268.058 127.978 268.058H133.885C134.422 268.058 134.856 268.492 134.856 269.029C134.856 269.566 134.422 270 133.885 270ZM122.07 270H116.163C115.626 270 115.192 269.566 115.192 269.029C115.192 268.492 115.626 268.058 116.163 268.058H122.07C122.608 268.058 123.041 268.492 123.041 269.029C123.041 269.566 122.608 270 122.07 270ZM110.256 270H104.349C103.812 270 103.378 269.566 103.378 269.029C103.378 268.492 103.812 268.058 104.349 268.058H110.256C110.793 268.058 111.227 268.492 111.227 269.029C111.227 269.566 110.793 270 110.256 270ZM98.4413 270H92.5341C91.997 270 91.5633 269.566 91.5633 269.029C91.5633 268.492 91.997 268.058 92.5341 268.058H98.4413C98.9784 268.058 99.4121 268.492 99.4121 269.029C99.4121 269.566 98.9784 270 98.4413 270ZM86.6268 270H80.7195C80.1825 270 79.7487 269.566 79.7487 269.029C79.7487 268.492 80.1825 268.058 80.7195 268.058H86.6268C87.1638 268.058 87.5976 268.492 87.5976 269.029C87.5976 269.566 87.1638 270 86.6268 270ZM74.8122 270H68.9049C68.3679 270 67.9342 269.566 67.9342 269.029C67.9342 268.492 68.3679 268.058 68.9049 268.058H74.8122C75.3492 268.058 75.783 268.492 75.783 269.029C75.783 269.566 75.3492 270 74.8122 270ZM62.9977 270H57.0904C56.5533 270 56.1196 269.566 56.1196 269.029C56.1196 268.492 56.5533 268.058 57.0904 268.058H62.9977C63.5347 268.058 63.9684 268.492 63.9684 269.029C63.9684 269.566 63.5347 270 62.9977 270ZM51.1831 270H45.2758C44.7388 270 44.305 269.566 44.305 269.029C44.305 268.492 44.7388 268.058 45.2758 268.058H51.1831C51.7201 268.058 52.1539 268.492 52.1539 269.029C52.1539 269.566 51.7201 270 51.1831 270ZM39.3685 270H33.4612C32.9242 270 32.4905 269.566 32.4905 269.029C32.4905 268.492 32.9242 268.058 33.4612 268.058H39.3685C39.9055 268.058 40.3393 268.492 40.3393 269.029C40.3393 269.566 39.9055 270 39.3685 270ZM27.554 270H21.6467C21.1096 270 20.6759 269.566 20.6759 269.029C20.6759 268.492 21.1096 268.058 21.6467 268.058H27.554C28.091 268.058 28.5247 268.492 28.5247 269.029C28.5247 269.566 28.091 270 27.554 270ZM15.7394 270H9.83211C9.29508 270 8.86133 269.566 8.86133 269.029C8.86133 268.492 9.29508 268.058 9.83211 268.058H15.7394C16.2764 268.058 16.7102 268.492 16.7102 269.029C16.7102 269.566 16.2764 270 15.7394 270Z" fill="#470F4C"/>
<path d="M3.90376 270H0.970777C0.433752 270 0 269.566 0 269.029V266.096C0 265.559 0.433752 265.125 0.970777 265.125C1.5078 265.125 1.94155 265.559 1.94155 266.096V268.038H3.88311C4.42013 268.038 4.85389 268.472 4.85389 269.009C4.85389 269.546 4.42013 269.979 3.88311 269.979L3.90376 270Z" fill="#470F4C"/>
<path d="M0.970777 261.242C0.433752 261.242 0 260.809 0 260.272V254.447C0 253.91 0.433752 253.476 0.970777 253.476C1.5078 253.476 1.94155 253.91 1.94155 254.447V260.272C1.94155 260.809 1.5078 261.242 0.970777 261.242ZM0.970777 249.593C0.433752 249.593 0 249.159 0 248.622V242.798C0 242.26 0.433752 241.827 0.970777 241.827C1.5078 241.827 1.94155 242.26 1.94155 242.798V248.622C1.94155 249.159 1.5078 249.593 0.970777 249.593ZM0.970777 237.944C0.433752 237.944 0 237.51 0 236.973V231.148C0 230.611 0.433752 230.177 0.970777 230.177C1.5078 230.177 1.94155 230.611 1.94155 231.148V236.973C1.94155 237.51 1.5078 237.944 0.970777 237.944ZM0.970777 226.294C0.433752 226.294 0 225.861 0 225.324V219.499C0 218.962 0.433752 218.528 0.970777 218.528C1.5078 218.528 1.94155 218.962 1.94155 219.499V225.324C1.94155 225.861 1.5078 226.294 0.970777 226.294ZM0.970777 214.645C0.433752 214.645 0 214.211 0 213.674V207.85C0 207.313 0.433752 206.879 0.970777 206.879C1.5078 206.879 1.94155 207.313 1.94155 207.85V213.674C1.94155 214.211 1.5078 214.645 0.970777 214.645ZM0.970777 202.996C0.433752 202.996 0 202.562 0 202.025V196.2C0 195.663 0.433752 195.229 0.970777 195.229C1.5078 195.229 1.94155 195.663 1.94155 196.2V202.025C1.94155 202.562 1.5078 202.996 0.970777 202.996ZM0.970777 191.346C0.433752 191.346 0 190.913 0 190.376V184.551C0 184.014 0.433752 183.58 0.970777 183.58C1.5078 183.58 1.94155 184.014 1.94155 184.551V190.376C1.94155 190.913 1.5078 191.346 0.970777 191.346ZM0.970777 179.697C0.433752 179.697 0 179.263 0 178.726V172.902C0 172.365 0.433752 171.931 0.970777 171.931C1.5078 171.931 1.94155 172.365 1.94155 172.902V178.726C1.94155 179.263 1.5078 179.697 0.970777 179.697ZM0.970777 168.048C0.433752 168.048 0 167.614 0 167.077V161.252C0 160.715 0.433752 160.281 0.970777 160.281C1.5078 160.281 1.94155 160.715 1.94155 161.252V167.077C1.94155 167.614 1.5078 168.048 0.970777 168.048ZM0.970777 156.398C0.433752 156.398 0 155.965 0 155.428V149.603C0 149.066 0.433752 148.632 0.970777 148.632C1.5078 148.632 1.94155 149.066 1.94155 149.603V155.428C1.94155 155.965 1.5078 156.398 0.970777 156.398ZM0.970777 144.749C0.433752 144.749 0 144.315 0 143.778V137.954C0 137.417 0.433752 136.983 0.970777 136.983C1.5078 136.983 1.94155 137.417 1.94155 137.954V143.778C1.94155 144.315 1.5078 144.749 0.970777 144.749ZM0.970777 133.1C0.433752 133.1 0 132.666 0 132.129V126.304C0 125.767 0.433752 125.333 0.970777 125.333C1.5078 125.333 1.94155 125.767 1.94155 126.304V132.129C1.94155 132.666 1.5078 133.1 0.970777 133.1ZM0.970777 121.45C0.433752 121.45 0 121.017 0 120.48V114.655C0 114.118 0.433752 113.684 0.970777 113.684C1.5078 113.684 1.94155 114.118 1.94155 114.655V120.48C1.94155 121.017 1.5078 121.45 0.970777 121.45ZM0.970777 109.801C0.433752 109.801 0 109.367 0 108.83V103.006C0 102.469 0.433752 102.035 0.970777 102.035C1.5078 102.035 1.94155 102.469 1.94155 103.006V108.83C1.94155 109.367 1.5078 109.801 0.970777 109.801ZM0.970777 98.1517C0.433752 98.1517 0 97.7179 0 97.1809V91.3563C0 90.8192 0.433752 90.3855 0.970777 90.3855C1.5078 90.3855 1.94155 90.8192 1.94155 91.3563V97.1809C1.94155 97.7179 1.5078 98.1517 0.970777 98.1517ZM0.970777 86.5024C0.433752 86.5024 0 86.0686 0 85.5316V79.7069C0 79.1699 0.433752 78.7361 0.970777 78.7361C1.5078 78.7361 1.94155 79.1699 1.94155 79.7069V85.5316C1.94155 86.0686 1.5078 86.5024 0.970777 86.5024ZM0.970777 74.853C0.433752 74.853 0 74.4193 0 73.8823V68.0576C0 67.5206 0.433752 67.0868 0.970777 67.0868C1.5078 67.0868 1.94155 67.5206 1.94155 68.0576V73.8823C1.94155 74.4193 1.5078 74.853 0.970777 74.853ZM0.970777 63.2037C0.433752 63.2037 0 62.77 0 62.2329V56.4083C0 55.8712 0.433752 55.4375 0.970777 55.4375C1.5078 55.4375 1.94155 55.8712 1.94155 56.4083V62.2329C1.94155 62.77 1.5078 63.2037 0.970777 63.2037ZM0.970777 51.5544C0.433752 51.5544 0 51.1206 0 50.5836V44.7589C0 44.2219 0.433752 43.7882 0.970777 43.7882C1.5078 43.7882 1.94155 44.2219 1.94155 44.7589V50.5836C1.94155 51.1206 1.5078 51.5544 0.970777 51.5544ZM0.970777 39.9051C0.433752 39.9051 0 39.4713 0 38.9343V33.1096C0 32.5726 0.433752 32.1388 0.970777 32.1388C1.5078 32.1388 1.94155 32.5726 1.94155 33.1096V38.9343C1.94155 39.4713 1.5078 39.9051 0.970777 39.9051ZM0.970777 28.1938C0.433752 28.1938 0 27.76 0 27.223V21.3983C0 20.8613 0.433752 20.4276 0.970777 20.4276C1.5078 20.4276 1.94155 20.8613 1.94155 21.3983V27.223C1.94155 27.76 1.5078 28.1938 0.970777 28.1938ZM0.970777 16.5238C0.433752 16.5238 0 16.09 0 15.553V9.72835C0 9.19132 0.433752 8.75757 0.970777 8.75757C1.5078 8.75757 1.94155 9.19132 1.94155 9.72835V15.553C1.94155 16.09 1.5078 16.5238 0.970777 16.5238V16.5238Z" fill="#470F4C"/>
<path d="M0.970777 4.87454C0.433752 4.87454 0 4.44079 0 3.90376V0.970777C0 0.433752 0.433752 0 0.970777 0H3.90376C4.44079 0 4.87454 0.433752 4.87454 0.970777C4.87454 1.5078 4.44079 1.94155 3.90376 1.94155H1.94155V3.88311C1.94155 4.42013 1.5078 4.85389 0.970777 4.85389V4.87454Z" fill="#470F4C"/>
<path d="M216.586 1.94155H210.679C210.142 1.94155 209.708 1.5078 209.708 0.970777C209.708 0.433752 210.142 0 210.679 0H216.586C217.123 0 217.557 0.433752 217.557 0.970777C217.557 1.5078 217.123 1.94155 216.586 1.94155ZM204.772 1.94155H198.864C198.327 1.94155 197.894 1.5078 197.894 0.970777C197.894 0.433752 198.327 0 198.864 0H204.772C205.309 0 205.742 0.433752 205.742 0.970777C205.742 1.5078 205.309 1.94155 204.772 1.94155ZM192.957 1.94155H187.05C186.513 1.94155 186.079 1.5078 186.079 0.970777C186.079 0.433752 186.513 0 187.05 0H192.957C193.494 0 193.928 0.433752 193.928 0.970777C193.928 1.5078 193.494 1.94155 192.957 1.94155ZM181.142 1.94155H175.235C174.698 1.94155 174.264 1.5078 174.264 0.970777C174.264 0.433752 174.698 0 175.235 0H181.142C181.68 0 182.113 0.433752 182.113 0.970777C182.113 1.5078 181.68 1.94155 181.142 1.94155ZM169.328 1.94155H163.421C162.884 1.94155 162.45 1.5078 162.45 0.970777C162.45 0.433752 162.884 0 163.421 0H169.328C169.865 0 170.299 0.433752 170.299 0.970777C170.299 1.5078 169.865 1.94155 169.328 1.94155ZM157.513 1.94155H151.606C151.069 1.94155 150.635 1.5078 150.635 0.970777C150.635 0.433752 151.069 0 151.606 0H157.513C158.05 0 158.484 0.433752 158.484 0.970777C158.484 1.5078 158.05 1.94155 157.513 1.94155ZM145.699 1.94155H139.792C139.254 1.94155 138.821 1.5078 138.821 0.970777C138.821 0.433752 139.254 0 139.792 0H145.699C146.236 0 146.67 0.433752 146.67 0.970777C146.67 1.5078 146.236 1.94155 145.699 1.94155ZM133.884 1.94155H127.977C127.44 1.94155 127.006 1.5078 127.006 0.970777C127.006 0.433752 127.44 0 127.977 0H133.884C134.421 0 134.855 0.433752 134.855 0.970777C134.855 1.5078 134.421 1.94155 133.884 1.94155ZM122.07 1.94155H116.162C115.625 1.94155 115.192 1.5078 115.192 0.970777C115.192 0.433752 115.625 0 116.162 0H122.07C122.607 0 123.04 0.433752 123.04 0.970777C123.04 1.5078 122.607 1.94155 122.07 1.94155ZM110.255 1.94155H104.348C103.811 1.94155 103.377 1.5078 103.377 0.970777C103.377 0.433752 103.811 0 104.348 0H110.255C110.792 0 111.226 0.433752 111.226 0.970777C111.226 1.5078 110.792 1.94155 110.255 1.94155ZM98.4405 1.94155H92.5332C91.9962 1.94155 91.5625 1.5078 91.5625 0.970777C91.5625 0.433752 91.9962 0 92.5332 0H98.4405C98.9775 0 99.4113 0.433752 99.4113 0.970777C99.4113 1.5078 98.9775 1.94155 98.4405 1.94155ZM86.626 1.94155H80.7187C80.1817 1.94155 79.7479 1.5078 79.7479 0.970777C79.7479 0.433752 80.1817 0 80.7187 0H86.626C87.163 0 87.5967 0.433752 87.5967 0.970777C87.5967 1.5078 87.163 1.94155 86.626 1.94155ZM74.8114 1.94155H68.9041C68.3671 1.94155 67.9333 1.5078 67.9333 0.970777C67.9333 0.433752 68.3671 0 68.9041 0H74.8114C75.3484 0 75.7822 0.433752 75.7822 0.970777C75.7822 1.5078 75.3484 1.94155 74.8114 1.94155ZM62.9968 1.94155H57.0895C56.5525 1.94155 56.1188 1.5078 56.1188 0.970777C56.1188 0.433752 56.5525 0 57.0895 0H62.9968C63.5338 0 63.9676 0.433752 63.9676 0.970777C63.9676 1.5078 63.5338 1.94155 62.9968 1.94155ZM51.1823 1.94155H45.275C44.7379 1.94155 44.3042 1.5078 44.3042 0.970777C44.3042 0.433752 44.7379 0 45.275 0H51.1823C51.7193 0 52.153 0.433752 52.153 0.970777C52.153 1.5078 51.7193 1.94155 51.1823 1.94155ZM39.3677 1.94155H33.4604C32.9234 1.94155 32.4896 1.5078 32.4896 0.970777C32.4896 0.433752 32.9234 0 33.4604 0H39.3677C39.9047 0 40.3385 0.433752 40.3385 0.970777C40.3385 1.5078 39.9047 1.94155 39.3677 1.94155ZM27.5531 1.94155H21.6458C21.1088 1.94155 20.6751 1.5078 20.6751 0.970777C20.6751 0.433752 21.1088 0 21.6458 0H27.5531C28.0901 0 28.5239 0.433752 28.5239 0.970777C28.5239 1.5078 28.0901 1.94155 27.5531 1.94155ZM15.7179 1.94155H9.81062C9.27359 1.94155 8.83984 1.5078 8.83984 0.970777C8.83984 0.433752 9.27359 0 9.81062 0H15.7179C16.2549 0 16.6887 0.433752 16.6887 0.970777C16.6887 1.5078 16.2549 1.94155 15.7179 1.94155Z" fill="#470F4C"/>
<path d="M225.426 4.87454C224.889 4.87454 224.455 4.44079 224.455 3.90376V1.94155H222.514C221.977 1.94155 221.543 1.5078 221.543 0.970777C221.543 0.433752 221.977 0 222.514 0H225.447C225.984 0 226.418 0.433752 226.418 0.970777V3.90376C226.418 4.44079 225.984 4.87454 225.447 4.87454H225.426Z" fill="#470F4C"/>
<path d="M225.428 261.242C224.891 261.242 224.457 260.809 224.457 260.272V254.447C224.457 253.91 224.891 253.476 225.428 253.476C225.965 253.476 226.399 253.91 226.399 254.447V260.272C226.399 260.809 225.965 261.242 225.428 261.242ZM225.428 249.593C224.891 249.593 224.457 249.159 224.457 248.622V242.798C224.457 242.261 224.891 241.827 225.428 241.827C225.965 241.827 226.399 242.261 226.399 242.798V248.622C226.399 249.159 225.965 249.593 225.428 249.593ZM225.428 237.944C224.891 237.944 224.457 237.51 224.457 236.973V231.148C224.457 230.611 224.891 230.178 225.428 230.178C225.965 230.178 226.399 230.611 226.399 231.148V236.973C226.399 237.51 225.965 237.944 225.428 237.944ZM225.428 226.294C224.891 226.294 224.457 225.861 224.457 225.324V219.499C224.457 218.962 224.891 218.528 225.428 218.528C225.965 218.528 226.399 218.962 226.399 219.499V225.324C226.399 225.861 225.965 226.294 225.428 226.294ZM225.428 214.645C224.891 214.645 224.457 214.211 224.457 213.674V207.85C224.457 207.313 224.891 206.879 225.428 206.879C225.965 206.879 226.399 207.313 226.399 207.85V213.674C226.399 214.211 225.965 214.645 225.428 214.645ZM225.428 202.996C224.891 202.996 224.457 202.562 224.457 202.025V196.2C224.457 195.663 224.891 195.23 225.428 195.23C225.965 195.23 226.399 195.663 226.399 196.2V202.025C226.399 202.562 225.965 202.996 225.428 202.996ZM225.428 191.346C224.891 191.346 224.457 190.913 224.457 190.376V184.551C224.457 184.014 224.891 183.58 225.428 183.58C225.965 183.58 226.399 184.014 226.399 184.551V190.376C226.399 190.913 225.965 191.346 225.428 191.346ZM225.428 179.697C224.891 179.697 224.457 179.263 224.457 178.726V172.902C224.457 172.365 224.891 171.931 225.428 171.931C225.965 171.931 226.399 172.365 226.399 172.902V178.726C226.399 179.263 225.965 179.697 225.428 179.697ZM225.428 168.048C224.891 168.048 224.457 167.614 224.457 167.077V161.252C224.457 160.715 224.891 160.282 225.428 160.282C225.965 160.282 226.399 160.715 226.399 161.252V167.077C226.399 167.614 225.965 168.048 225.428 168.048ZM225.428 156.398C224.891 156.398 224.457 155.965 224.457 155.428V149.603C224.457 149.066 224.891 148.632 225.428 148.632C225.965 148.632 226.399 149.066 226.399 149.603V155.428C226.399 155.965 225.965 156.398 225.428 156.398ZM225.428 144.749C224.891 144.749 224.457 144.315 224.457 143.778V137.954C224.457 137.417 224.891 136.983 225.428 136.983C225.965 136.983 226.399 137.417 226.399 137.954V143.778C226.399 144.315 225.965 144.749 225.428 144.749ZM225.428 133.1C224.891 133.1 224.457 132.666 224.457 132.129V126.304C224.457 125.767 224.891 125.334 225.428 125.334C225.965 125.334 226.399 125.767 226.399 126.304V132.129C226.399 132.666 225.965 133.1 225.428 133.1ZM225.428 121.45C224.891 121.45 224.457 121.017 224.457 120.48V114.655C224.457 114.118 224.891 113.684 225.428 113.684C225.965 113.684 226.399 114.118 226.399 114.655V120.48C226.399 121.017 225.965 121.45 225.428 121.45ZM225.428 109.801C224.891 109.801 224.457 109.367 224.457 108.83V103.006C224.457 102.469 224.891 102.035 225.428 102.035C225.965 102.035 226.399 102.469 226.399 103.006V108.83C226.399 109.367 225.965 109.801 225.428 109.801ZM225.428 98.1518C224.891 98.1518 224.457 97.7181 224.457 97.1811V91.3564C224.457 90.8194 224.891 90.3856 225.428 90.3856C225.965 90.3856 226.399 90.8194 226.399 91.3564V97.1811C226.399 97.7181 225.965 98.1518 225.428 98.1518ZM225.428 86.5025C224.891 86.5025 224.457 86.0688 224.457 85.5317V79.7071C224.457 79.17 224.891 78.7363 225.428 78.7363C225.965 78.7363 226.399 79.17 226.399 79.7071V85.5317C226.399 86.0688 225.965 86.5025 225.428 86.5025ZM225.428 74.8532C224.891 74.8532 224.457 74.4194 224.457 73.8824V68.0577C224.457 67.5207 224.891 67.087 225.428 67.087C225.965 67.087 226.399 67.5207 226.399 68.0577V73.8824C226.399 74.4194 225.965 74.8532 225.428 74.8532ZM225.428 63.2039C224.891 63.2039 224.457 62.7701 224.457 62.2331V56.4084C224.457 55.8714 224.891 55.4376 225.428 55.4376C225.965 55.4376 226.399 55.8714 226.399 56.4084V62.2331C226.399 62.7701 225.965 63.2039 225.428 63.2039ZM225.428 51.5545C224.891 51.5545 224.457 51.1208 224.457 50.5837V44.7591C224.457 44.2221 224.891 43.7883 225.428 43.7883C225.965 43.7883 226.399 44.2221 226.399 44.7591V50.5837C226.399 51.1208 225.965 51.5545 225.428 51.5545ZM225.428 39.9052C224.891 39.9052 224.457 39.4714 224.457 38.9344V33.1098C224.457 32.5727 224.891 32.139 225.428 32.139C225.965 32.139 226.399 32.5727 226.399 33.1098V38.9344C226.399 39.4714 225.965 39.9052 225.428 39.9052ZM225.428 28.2559C224.891 28.2559 224.457 27.8221 224.457 27.2851V21.4604C224.457 20.9234 224.891 20.4897 225.428 20.4897C225.965 20.4897 226.399 20.9234 226.399 21.4604V27.2851C226.399 27.8221 225.965 28.2559 225.428 28.2559ZM225.428 16.6065C224.891 16.6065 224.457 16.1728 224.457 15.6358V9.81111C224.457 9.27408 224.891 8.84033 225.428 8.84033C225.965 8.84033 226.399 9.27408 226.399 9.81111V15.6358C226.399 16.1728 225.965 16.6065 225.428 16.6065V16.6065Z" fill="#470F4C"/>
<path d="M114.571 175.091C114.034 175.091 113.497 175.091 112.96 175.091C89.2274 174.554 73.9222 163.937 67.4572 143.551C63.285 130.373 63.5741 115.708 64.1525 105.815C64.2144 104.699 64.297 103.625 64.359 102.551C64.5656 99.804 64.7721 97.2222 64.9786 94.8882C65.3711 90.468 65.6603 86.998 65.5776 84.7466C65.5776 84.6434 65.5776 84.5401 65.619 84.4368L70.7827 67.252C70.9066 66.8389 71.2784 66.5704 71.6915 66.5497L141.03 65.3931C141.257 65.3931 141.629 65.517 141.815 65.7649L161.87 91.2736C161.974 91.3975 162.036 91.5421 162.056 91.7073C162.056 91.7693 163.048 97.4081 163.399 105.587C163.771 113.891 163.399 121.76 162.325 129.01C161.333 135.64 159.743 141.671 157.574 146.98C149.932 165.672 135.453 175.132 114.53 175.132L114.571 175.091ZM67.5399 84.8293C67.6018 87.1839 67.3126 90.6746 66.9202 95.0327C66.7137 97.3667 66.4865 99.9279 66.3006 102.675C66.2179 103.728 66.156 104.802 66.094 105.918C65.5363 115.667 65.2472 130.105 69.3162 142.952C75.492 162.45 90.1982 172.612 113.001 173.129C133.863 173.604 148.3 164.536 155.798 146.215C157.905 141.072 159.454 135.186 160.425 128.7C161.478 121.595 161.829 113.829 161.478 105.67C161.168 98.5647 160.383 93.4217 160.197 92.2857L140.596 67.3553L72.4557 68.4913L67.5399 84.8499V84.8293Z" fill="#470F4C"/>
<path d="M113.848 148.013C113.848 148.013 95.7957 151.173 83.7539 139.131C83.7539 139.131 89.7645 137.85 92.3463 137.85C94.9282 137.85 95.775 143.014 95.775 143.014C95.775 143.014 101.786 138.284 103.934 140.866C106.082 143.448 110.812 147.166 113.827 148.033L113.848 148.013Z" fill="#470F4C"/>
<path d="M108.313 149.396C101.869 149.396 91.2108 147.971 83.0728 139.833C82.8249 139.585 82.7216 139.214 82.8249 138.863C82.9282 138.511 83.1967 138.264 83.5478 138.181C83.7957 138.119 89.703 136.88 92.3468 136.88C94.7014 136.88 95.8788 139.585 96.3951 141.382C98.5019 139.999 102.633 137.768 104.698 140.246C106.805 142.766 111.37 146.319 114.096 147.104C114.53 147.228 114.819 147.641 114.799 148.095C114.778 148.55 114.447 148.921 113.993 149.004C113.745 149.045 111.556 149.417 108.292 149.417L108.313 149.396ZM85.8199 139.73C94.0818 146.939 104.781 147.6 110.213 147.372C107.59 145.782 104.822 143.407 103.232 141.486C102.075 140.102 98.0682 142.477 96.4158 143.778C96.1473 143.985 95.7755 144.047 95.4657 143.923C95.1352 143.799 94.908 143.51 94.846 143.179C94.6188 141.816 93.6687 138.842 92.3675 138.842C90.7977 138.842 87.7821 139.358 85.8199 139.73V139.73Z" fill="#470F4C"/>
<path d="M116.925 130.786C113.517 130.786 108.085 130.311 107.321 130.229C106.784 130.188 106.391 129.712 106.433 129.175C106.474 128.638 106.99 128.246 107.486 128.287C111.225 128.638 117.338 129.031 118.805 128.742C119.693 128.556 119.817 128.287 119.755 124.611C119.755 123.95 119.734 123.227 119.734 122.401C119.734 117.258 120.974 99.4531 121.036 98.6889C121.077 98.1519 121.552 97.7594 122.068 97.7801C122.605 97.8214 123.019 98.2758 122.977 98.8128C122.977 98.9987 121.697 117.32 121.697 122.38C121.697 123.186 121.697 123.908 121.717 124.569C121.759 128.163 121.8 130.126 119.197 130.642C118.702 130.745 117.896 130.786 116.925 130.786Z" fill="#470F4C"/>
<path d="M89.5586 107.55C89.5586 109.202 90.9012 110.565 92.5742 110.565C94.2472 110.565 95.5898 109.223 95.5898 107.55C95.5898 105.876 94.2472 104.534 92.5742 104.534C90.9012 104.534 89.5586 105.876 89.5586 107.55Z" fill="#470F4C"/>
<path d="M92.5743 111.536C90.3849 111.536 88.5879 109.739 88.5879 107.55C88.5879 105.36 90.3849 103.563 92.5743 103.563C94.7637 103.563 96.5607 105.36 96.5607 107.55C96.5607 109.739 94.7637 111.536 92.5743 111.536ZM92.5743 105.525C91.4589 105.525 90.5501 106.434 90.5501 107.55C90.5501 108.665 91.4589 109.574 92.5743 109.574C93.6896 109.574 94.5984 108.665 94.5984 107.55C94.5984 106.434 93.6896 105.525 92.5743 105.525Z" fill="#470F4C"/>
<path d="M134.896 107.756C134.896 109.408 136.239 110.772 137.912 110.772C139.585 110.772 140.928 109.429 140.928 107.756C140.928 106.083 139.585 104.74 137.912 104.74C136.239 104.74 134.896 106.083 134.896 107.756Z" fill="#470F4C"/>
<path d="M137.912 111.743C135.723 111.743 133.926 109.946 133.926 107.756C133.926 105.567 135.723 103.77 137.912 103.77C140.102 103.77 141.899 105.567 141.899 107.756C141.899 109.946 140.102 111.743 137.912 111.743ZM137.912 105.732C136.797 105.732 135.888 106.641 135.888 107.756C135.888 108.872 136.797 109.78 137.912 109.78C139.028 109.78 139.936 108.872 139.936 107.756C139.936 106.641 139.028 105.732 137.912 105.732Z" fill="#470F4C"/>
<path d="M80.3253 94.9915C80.0155 94.9915 79.7057 94.8469 79.5198 94.5578C79.2099 94.1034 79.3339 93.5044 79.7676 93.1945C88.1535 87.4525 100.154 89.0842 100.65 89.1668C101.187 89.2495 101.558 89.7452 101.476 90.2616C101.393 90.7986 100.898 91.1704 100.381 91.0877C100.257 91.0877 88.6285 89.4973 80.8623 94.785C80.6971 94.9089 80.5112 94.9502 80.3046 94.9502L80.3253 94.9915Z" fill="#470F4C"/>
<path d="M225.922 270H1.46557C1.19706 270 0.9492 269.897 0.763307 269.69C0.577413 269.484 0.474139 269.236 0.494794 268.967C0.536103 268.182 5.72047 191.305 79.3343 190.624V163.876C79.3343 163.339 79.7681 162.905 80.3051 162.905C80.8421 162.905 81.2759 163.339 81.2759 163.876V191.594C81.2759 192.131 80.8421 192.565 80.3051 192.565C12.2474 192.565 3.42778 258.908 2.53962 268.038H224.951C224.311 197.543 155.447 192.606 154.745 192.565C154.229 192.544 153.836 192.111 153.836 191.594V164.97C153.836 164.433 154.27 163.999 154.807 163.999C155.344 163.999 155.778 164.433 155.778 164.97V190.706C164.164 191.574 226.892 200.331 226.892 269.029C226.892 269.566 226.459 270 225.922 270Z" fill="#470F4C"/>
<path d="M117.876 189.095C95.7548 189.095 80.181 183.022 79.9538 182.919C79.4581 182.713 79.2103 182.155 79.4168 181.659C79.6233 181.163 80.181 180.916 80.6767 181.122C81.0279 181.267 115.377 194.651 154.476 181.122C154.993 180.957 155.53 181.225 155.716 181.721C155.881 182.237 155.612 182.795 155.117 182.96C141.794 187.566 128.988 189.116 117.876 189.116V189.095Z" fill="#470F4C"/>
<path d="M112.982 174.1C96.3961 173.728 85.3664 168.44 78.0959 160.571L72.9941 163.855L80.306 168.647C80.306 168.647 112.342 189.384 154.787 170.836V150.677C147.93 164.206 135.392 174.595 112.961 174.079L112.982 174.1Z" fill="#470F4C"/>
<path d="M119.24 179.49C95.6319 179.49 80.0169 169.638 79.7897 169.494L72.4572 164.681C72.1887 164.495 72.0234 164.185 72.0234 163.855C72.0234 163.524 72.1887 163.214 72.4778 163.029L77.5796 159.744C77.972 159.497 78.5091 159.559 78.8189 159.91C86.6264 168.337 98.1312 172.778 113.003 173.129C132.232 173.542 146.009 165.879 153.941 150.264C154.147 149.871 154.581 149.665 155.035 149.748C155.469 149.851 155.779 150.243 155.779 150.698V170.857C155.779 171.249 155.552 171.6 155.2 171.745C142.043 177.487 129.836 179.47 119.24 179.47V179.49ZM74.7912 163.875L80.8637 167.862C81.1735 168.068 112.672 187.897 153.837 170.237V154.498C145.348 168.585 131.571 175.463 112.961 175.091C97.8833 174.74 86.0894 170.299 77.9514 161.851L74.7912 163.896V163.875Z" fill="#470F4C"/>
<path d="M65.6404 98.7301C65.6404 98.7301 80.4913 92.3684 81.1935 77.7448C81.1935 77.7448 79.3759 97.78 95.5899 95.7352C111.804 93.6903 112.134 73.5106 112.134 73.5106C112.134 73.5106 108.871 95.8384 128.08 95.7352C147.268 95.6319 151.998 84.6642 151.998 84.6642C151.998 84.6642 145.12 115.192 162.47 118.104C162.47 118.104 146.38 133.203 157.72 144.026C157.72 144.026 146.298 163.297 160.281 169.803C174.264 176.31 182.072 167.531 182.072 167.531C182.072 167.531 185.005 187.05 199.628 177.28C214.273 167.531 215.574 151.297 204.833 142.002C204.833 142.002 218.486 138.511 217.185 122.772C215.884 107.013 203.842 105.939 203.842 105.939C203.842 105.939 213.922 90.0964 206.114 74.8118C198.306 59.5272 183.993 63.1005 183.993 63.1005C183.993 63.1005 197.646 41.6402 178.457 30.8996C159.269 20.1591 150.656 41.9293 150.656 41.9293C150.656 41.9293 149.086 23.3606 132.211 21.7495C115.336 20.1385 110.358 35.0926 110.358 35.0926C110.358 35.0926 96.8086 15.1193 83.796 21.6256C70.7835 28.1319 74.9971 45.8331 74.9971 45.8331C74.9971 45.8331 63.9674 35.7742 48.6828 47.1756C33.3982 58.5565 45.44 75.8033 45.44 75.8033C45.44 75.8033 24.9711 73.6345 22.5131 91.9553C20.0552 110.276 31.2708 112.879 31.2708 112.879C31.2708 112.879 9.66584 114.82 12.2683 135C14.8709 155.159 31.2708 149.644 31.2708 149.644C31.2708 149.644 24.6406 163.628 35.5257 171.435C46.4108 179.243 56.511 174.575 56.511 174.575C56.511 174.575 64.8142 186.658 73.0142 180.028C81.2348 173.397 83.5482 158.505 69.2137 145.617C69.2137 145.617 65.909 135.041 65.4339 128.205C65.4339 128.205 72.188 108.686 65.6611 98.7508L65.6404 98.7301Z" fill="#470F4C"/>
<path d="M67.768 182.981C67.3342 182.981 66.9005 182.94 66.4667 182.878C61.4889 182.155 57.4819 177.466 56.1393 175.752C53.5162 176.702 44.5726 179.139 34.9268 172.22C25.9006 165.734 28.2553 155.2 29.6598 151.007C27.2019 151.462 22.7404 151.73 18.7334 149.231C14.6438 146.67 12.1445 141.94 11.2564 135.124C10.4921 129.134 11.7108 124.074 14.871 120.128C18.7334 115.295 24.5581 113.271 28.0901 112.445C24.7027 110.214 19.7868 104.679 21.5218 91.8314C23.608 76.1957 38.2935 74.7705 43.6018 74.7705H43.6431C41.0613 70.0818 34.9888 56.1605 48.0839 46.4114C60.0431 37.5092 69.6682 41.3303 73.6546 43.7263C73.0143 38.5212 72.7458 26.087 83.3624 20.7787C95.0117 14.9541 106.661 28.5863 110.152 33.1716C112.093 29.1853 118.31 19.4568 132.314 20.7994C145.533 22.0593 149.788 33.3369 151.11 38.8517C152.969 35.5263 156.811 30.0734 162.925 27.9047C167.841 26.149 173.232 26.8719 178.953 30.0734C184.385 33.1097 187.793 37.282 189.094 42.4457C191.098 50.3565 187.649 58.4118 185.831 61.8819C190.251 61.5101 200.723 62.1091 207.002 74.3987C213.818 87.7211 207.601 101.229 205.391 105.278C208.799 106.166 217.102 109.656 218.176 122.71C219.251 135.764 210.41 140.845 206.692 142.394C211.051 146.732 213.24 152.309 212.868 158.299C212.393 165.838 207.787 173.067 200.207 178.107C195.89 180.998 192.048 181.742 188.805 180.296C184.179 178.251 182.196 172.323 181.473 169.39C178.561 171.662 171.042 175.897 159.889 170.712C156.357 169.08 154.043 166.519 153.01 163.153C150.738 155.799 155.159 146.753 156.522 144.233C153.981 141.589 152.701 138.491 152.701 135.021C152.721 127.998 158.071 121.409 160.57 118.703C157.617 117.836 155.221 116.059 153.444 113.416C148.735 106.393 149.479 94.9709 150.325 88.7951C147.145 92.1825 140.597 96.7059 128.101 96.7679H127.977C122.607 96.7679 118.414 95.0742 115.501 91.7281C113.167 89.043 112.011 85.7175 111.453 82.6193C109.449 88.6092 105.133 95.5699 95.7553 96.7679C91.2525 97.3462 87.5966 96.3341 84.9322 93.7729C82.4536 91.377 81.2556 88.0515 80.6773 85.0153C77.3931 93.3392 69.8335 97.8213 67.0657 99.2051C72.5806 109.181 67.1483 126.222 66.4461 128.37C66.9211 134.442 69.6063 143.489 70.102 145.121C77.0627 151.441 80.7805 158.98 80.574 166.375C80.4294 172.137 77.8889 177.404 73.6546 180.833C71.837 182.3 69.8748 183.043 67.8093 183.043L67.768 182.981ZM56.4904 173.583C56.8003 173.583 57.1101 173.728 57.296 173.996C57.3373 174.058 61.6128 180.193 66.7559 180.936C68.7594 181.225 70.5977 180.668 72.374 179.243C76.1745 176.165 78.4465 171.435 78.5705 166.251C78.7564 159.373 75.1831 152.288 68.5322 146.319C68.4083 146.195 68.305 146.05 68.2431 145.885C68.0985 145.451 64.897 135.124 64.4219 128.246C64.4219 128.122 64.4219 127.977 64.4632 127.853C64.5252 127.668 70.9901 108.665 64.7937 99.2671C64.6285 99.0193 64.5871 98.7301 64.6698 98.4409C64.7524 98.1724 64.9589 97.9452 65.2274 97.8213C65.372 97.7593 79.0868 91.7074 80.1402 78.3231C80.1402 77.9307 80.1815 77.6828 80.1815 77.6415C80.2229 77.1045 80.6566 76.7533 81.2143 76.7533C81.7513 76.7947 82.1437 77.2491 82.1231 77.7654C82.1231 77.9513 82.1231 78.1579 82.0818 78.3438C81.9992 80.4299 81.9785 88.1961 86.2128 92.2858C88.4228 94.4132 91.521 95.2394 95.4248 94.7437C107.487 93.2152 110.276 80.8223 110.916 75.6793C110.978 74.3367 111.102 73.4692 111.122 73.3453C111.205 72.8289 111.618 72.4778 112.176 72.5191C112.692 72.5604 113.085 72.9942 113.064 73.5105C113.064 73.5518 113.043 74.3574 112.899 75.6173C112.754 78.9841 113.002 85.8621 116.906 90.3649C119.426 93.2566 123.123 94.7437 127.915 94.7437H128.039C146.298 94.6404 150.883 84.6848 151.069 84.2717C151.275 83.8173 151.792 83.5694 152.267 83.7347C152.742 83.8999 153.031 84.375 152.907 84.8707C152.866 85.0566 148.88 103.192 154.993 112.259C156.79 114.944 159.352 116.576 162.574 117.113C162.945 117.175 163.235 117.443 163.338 117.794C163.441 118.146 163.338 118.538 163.069 118.786C162.987 118.869 154.601 126.841 154.58 134.959C154.58 138.098 155.82 140.907 158.319 143.283C158.649 143.592 158.711 144.088 158.484 144.481C158.422 144.584 152.411 154.87 154.787 162.512C155.675 165.342 157.637 167.49 160.632 168.874C173.748 174.988 180.977 167.16 181.287 166.829C181.535 166.54 181.927 166.437 182.299 166.54C182.671 166.643 182.939 166.953 182.981 167.325C182.981 167.407 184.385 176.165 189.528 178.437C192.11 179.573 195.312 178.891 199.05 176.413C206.114 171.704 210.41 165.032 210.844 158.092C211.216 152.205 208.84 146.732 204.152 142.684C203.883 142.456 203.759 142.085 203.842 141.713C203.925 141.362 204.193 141.072 204.544 140.99C205.061 140.845 217.392 137.499 216.173 122.772C214.954 108.066 204.173 106.889 203.718 106.827C203.388 106.785 203.078 106.579 202.933 106.29C202.789 105.98 202.809 105.629 202.975 105.34C203.078 105.195 212.662 89.7659 205.205 75.1836C197.831 60.7459 184.323 63.9473 184.199 63.968C183.807 64.0713 183.414 63.9267 183.167 63.5962C182.919 63.2657 182.919 62.832 183.125 62.5015C183.187 62.3982 189.528 52.2567 187.153 42.8175C185.976 38.1908 182.877 34.4316 177.941 31.6845C172.736 28.7722 167.882 28.0906 163.524 29.6397C155.448 32.5107 151.565 42.1152 151.523 42.2185C151.358 42.6316 150.924 42.9001 150.47 42.8175C150.016 42.7555 149.685 42.3837 149.644 41.9293C149.582 41.2064 147.929 24.1455 132.066 22.6377C116.183 21.1299 111.432 34.7414 111.226 35.3197C111.102 35.6709 110.792 35.9187 110.441 35.9807C110.069 36.022 109.697 35.8774 109.491 35.5676C109.367 35.3817 96.2717 16.3586 84.1679 22.4105C71.9816 28.5037 75.8234 45.358 75.8647 45.5232C75.968 45.9363 75.7821 46.3701 75.4103 46.5973C75.0385 46.8245 74.5841 46.7625 74.2536 46.4734C73.8199 46.0809 63.5957 37.1167 49.1786 47.8779C34.8442 58.5564 45.6673 74.4813 46.1424 75.1629C46.3696 75.4727 46.3696 75.8858 46.1837 76.2163C45.9978 76.5468 45.6054 76.7327 45.2336 76.6914C44.4487 76.6088 25.6941 74.8531 23.3807 92.0173C21.0674 109.264 31.2916 111.846 31.3948 111.867C31.8699 111.97 32.1797 112.404 32.1384 112.879C32.0971 113.354 31.7253 113.746 31.2502 113.787C31.147 113.787 21.5631 114.758 16.3168 121.285C13.4871 124.817 12.413 129.361 13.1153 134.814C13.9208 141.031 16.1309 145.286 19.6835 147.517C24.7027 150.656 30.7752 148.673 30.8371 148.653C31.2089 148.529 31.622 148.653 31.8699 148.921C32.1384 149.21 32.1797 149.624 32.0145 149.995C31.7666 150.532 25.8593 163.359 35.9595 170.588C46.225 177.941 55.561 173.81 55.9534 173.645C56.0774 173.583 56.2219 173.563 56.3665 173.563L56.4904 173.583Z" fill="#470F4C"/>
</g>
<defs>
<clipPath id="clip0_186_884">
<rect width="226.914" height="270" fill="white"/>
</clipPath>
</defs>
</svg>
