<svg width="227" height="270" viewBox="0 0 227 270" fill="none" xmlns="http://www.w3.org/2000/svg">
<g clip-path="url(#clip0_186_731)">
<path d="M225.427 270H222.494C221.957 270 221.523 269.566 221.523 269.029C221.523 268.492 221.957 268.058 222.494 268.058H224.436V266.117C224.436 265.58 224.87 265.146 225.407 265.146C225.944 265.146 226.377 265.58 226.377 266.117V269.05C226.377 269.587 225.944 270.021 225.407 270.021L225.427 270Z" fill="#470F4C"/>
<path d="M216.587 270H210.68C210.143 270 209.709 269.566 209.709 269.029C209.709 268.492 210.143 268.058 210.68 268.058H216.587C217.124 268.058 217.558 268.492 217.558 269.029C217.558 269.566 217.124 270 216.587 270ZM204.772 270H198.865C198.328 270 197.894 269.566 197.894 269.029C197.894 268.492 198.328 268.058 198.865 268.058H204.772C205.309 268.058 205.743 268.492 205.743 269.029C205.743 269.566 205.309 270 204.772 270ZM192.958 270H187.051C186.514 270 186.08 269.566 186.08 269.029C186.08 268.492 186.514 268.058 187.051 268.058H192.958C193.495 268.058 193.929 268.492 193.929 269.029C193.929 269.566 193.495 270 192.958 270ZM181.143 270H175.236C174.699 270 174.265 269.566 174.265 269.029C174.265 268.492 174.699 268.058 175.236 268.058H181.143C181.68 268.058 182.114 268.492 182.114 269.029C182.114 269.566 181.68 270 181.143 270ZM169.329 270H163.421C162.884 270 162.451 269.566 162.451 269.029C162.451 268.492 162.884 268.058 163.421 268.058H169.329C169.866 268.058 170.3 268.492 170.3 269.029C170.3 269.566 169.866 270 169.329 270ZM157.514 270H151.607C151.07 270 150.636 269.566 150.636 269.029C150.636 268.492 151.07 268.058 151.607 268.058H157.514C158.051 268.058 158.485 268.492 158.485 269.029C158.485 269.566 158.051 270 157.514 270ZM145.7 270H139.792C139.255 270 138.822 269.566 138.822 269.029C138.822 268.492 139.255 268.058 139.792 268.058H145.7C146.237 268.058 146.67 268.492 146.67 269.029C146.67 269.566 146.237 270 145.7 270ZM133.885 270H127.978C127.441 270 127.007 269.566 127.007 269.029C127.007 268.492 127.441 268.058 127.978 268.058H133.885C134.422 268.058 134.856 268.492 134.856 269.029C134.856 269.566 134.422 270 133.885 270ZM122.07 270H116.163C115.626 270 115.192 269.566 115.192 269.029C115.192 268.492 115.626 268.058 116.163 268.058H122.07C122.608 268.058 123.041 268.492 123.041 269.029C123.041 269.566 122.608 270 122.07 270ZM110.256 270H104.349C103.812 270 103.378 269.566 103.378 269.029C103.378 268.492 103.812 268.058 104.349 268.058H110.256C110.793 268.058 111.227 268.492 111.227 269.029C111.227 269.566 110.793 270 110.256 270ZM98.4413 270H92.5341C91.997 270 91.5633 269.566 91.5633 269.029C91.5633 268.492 91.997 268.058 92.5341 268.058H98.4413C98.9784 268.058 99.4121 268.492 99.4121 269.029C99.4121 269.566 98.9784 270 98.4413 270ZM86.6268 270H80.7195C80.1825 270 79.7487 269.566 79.7487 269.029C79.7487 268.492 80.1825 268.058 80.7195 268.058H86.6268C87.1638 268.058 87.5976 268.492 87.5976 269.029C87.5976 269.566 87.1638 270 86.6268 270ZM74.8122 270H68.9049C68.3679 270 67.9342 269.566 67.9342 269.029C67.9342 268.492 68.3679 268.058 68.9049 268.058H74.8122C75.3492 268.058 75.783 268.492 75.783 269.029C75.783 269.566 75.3492 270 74.8122 270ZM62.9977 270H57.0904C56.5533 270 56.1196 269.566 56.1196 269.029C56.1196 268.492 56.5533 268.058 57.0904 268.058H62.9977C63.5347 268.058 63.9684 268.492 63.9684 269.029C63.9684 269.566 63.5347 270 62.9977 270ZM51.1831 270H45.2758C44.7388 270 44.305 269.566 44.305 269.029C44.305 268.492 44.7388 268.058 45.2758 268.058H51.1831C51.7201 268.058 52.1539 268.492 52.1539 269.029C52.1539 269.566 51.7201 270 51.1831 270ZM39.3685 270H33.4612C32.9242 270 32.4905 269.566 32.4905 269.029C32.4905 268.492 32.9242 268.058 33.4612 268.058H39.3685C39.9055 268.058 40.3393 268.492 40.3393 269.029C40.3393 269.566 39.9055 270 39.3685 270ZM27.554 270H21.6467C21.1096 270 20.6759 269.566 20.6759 269.029C20.6759 268.492 21.1096 268.058 21.6467 268.058H27.554C28.091 268.058 28.5247 268.492 28.5247 269.029C28.5247 269.566 28.091 270 27.554 270ZM15.7394 270H9.83211C9.29508 270 8.86133 269.566 8.86133 269.029C8.86133 268.492 9.29508 268.058 9.83211 268.058H15.7394C16.2764 268.058 16.7102 268.492 16.7102 269.029C16.7102 269.566 16.2764 270 15.7394 270Z" fill="#470F4C"/>
<path d="M3.90376 270H0.970777C0.433752 270 0 269.566 0 269.029V266.096C0 265.559 0.433752 265.125 0.970777 265.125C1.5078 265.125 1.94155 265.559 1.94155 266.096V268.038H3.88311C4.42013 268.038 4.85389 268.472 4.85389 269.009C4.85389 269.546 4.42013 269.979 3.88311 269.979L3.90376 270Z" fill="#470F4C"/>
<path d="M0.970777 261.242C0.433752 261.242 0 260.809 0 260.272V254.447C0 253.91 0.433752 253.476 0.970777 253.476C1.5078 253.476 1.94155 253.91 1.94155 254.447V260.272C1.94155 260.809 1.5078 261.242 0.970777 261.242ZM0.970777 249.593C0.433752 249.593 0 249.159 0 248.622V242.798C0 242.26 0.433752 241.827 0.970777 241.827C1.5078 241.827 1.94155 242.26 1.94155 242.798V248.622C1.94155 249.159 1.5078 249.593 0.970777 249.593ZM0.970777 237.944C0.433752 237.944 0 237.51 0 236.973V231.148C0 230.611 0.433752 230.177 0.970777 230.177C1.5078 230.177 1.94155 230.611 1.94155 231.148V236.973C1.94155 237.51 1.5078 237.944 0.970777 237.944ZM0.970777 226.294C0.433752 226.294 0 225.861 0 225.324V219.499C0 218.962 0.433752 218.528 0.970777 218.528C1.5078 218.528 1.94155 218.962 1.94155 219.499V225.324C1.94155 225.861 1.5078 226.294 0.970777 226.294ZM0.970777 214.645C0.433752 214.645 0 214.211 0 213.674V207.85C0 207.313 0.433752 206.879 0.970777 206.879C1.5078 206.879 1.94155 207.313 1.94155 207.85V213.674C1.94155 214.211 1.5078 214.645 0.970777 214.645ZM0.970777 202.996C0.433752 202.996 0 202.562 0 202.025V196.2C0 195.663 0.433752 195.229 0.970777 195.229C1.5078 195.229 1.94155 195.663 1.94155 196.2V202.025C1.94155 202.562 1.5078 202.996 0.970777 202.996ZM0.970777 191.346C0.433752 191.346 0 190.913 0 190.376V184.551C0 184.014 0.433752 183.58 0.970777 183.58C1.5078 183.58 1.94155 184.014 1.94155 184.551V190.376C1.94155 190.913 1.5078 191.346 0.970777 191.346ZM0.970777 179.697C0.433752 179.697 0 179.263 0 178.726V172.902C0 172.365 0.433752 171.931 0.970777 171.931C1.5078 171.931 1.94155 172.365 1.94155 172.902V178.726C1.94155 179.263 1.5078 179.697 0.970777 179.697ZM0.970777 168.048C0.433752 168.048 0 167.614 0 167.077V161.252C0 160.715 0.433752 160.281 0.970777 160.281C1.5078 160.281 1.94155 160.715 1.94155 161.252V167.077C1.94155 167.614 1.5078 168.048 0.970777 168.048ZM0.970777 156.398C0.433752 156.398 0 155.965 0 155.428V149.603C0 149.066 0.433752 148.632 0.970777 148.632C1.5078 148.632 1.94155 149.066 1.94155 149.603V155.428C1.94155 155.965 1.5078 156.398 0.970777 156.398ZM0.970777 144.749C0.433752 144.749 0 144.315 0 143.778V137.954C0 137.417 0.433752 136.983 0.970777 136.983C1.5078 136.983 1.94155 137.417 1.94155 137.954V143.778C1.94155 144.315 1.5078 144.749 0.970777 144.749ZM0.970777 133.1C0.433752 133.1 0 132.666 0 132.129V126.304C0 125.767 0.433752 125.333 0.970777 125.333C1.5078 125.333 1.94155 125.767 1.94155 126.304V132.129C1.94155 132.666 1.5078 133.1 0.970777 133.1ZM0.970777 121.45C0.433752 121.45 0 121.017 0 120.48V114.655C0 114.118 0.433752 113.684 0.970777 113.684C1.5078 113.684 1.94155 114.118 1.94155 114.655V120.48C1.94155 121.017 1.5078 121.45 0.970777 121.45ZM0.970777 109.801C0.433752 109.801 0 109.367 0 108.83V103.006C0 102.469 0.433752 102.035 0.970777 102.035C1.5078 102.035 1.94155 102.469 1.94155 103.006V108.83C1.94155 109.367 1.5078 109.801 0.970777 109.801ZM0.970777 98.1517C0.433752 98.1517 0 97.7179 0 97.1809V91.3563C0 90.8192 0.433752 90.3855 0.970777 90.3855C1.5078 90.3855 1.94155 90.8192 1.94155 91.3563V97.1809C1.94155 97.7179 1.5078 98.1517 0.970777 98.1517ZM0.970777 86.5024C0.433752 86.5024 0 86.0686 0 85.5316V79.7069C0 79.1699 0.433752 78.7361 0.970777 78.7361C1.5078 78.7361 1.94155 79.1699 1.94155 79.7069V85.5316C1.94155 86.0686 1.5078 86.5024 0.970777 86.5024ZM0.970777 74.853C0.433752 74.853 0 74.4193 0 73.8823V68.0576C0 67.5206 0.433752 67.0868 0.970777 67.0868C1.5078 67.0868 1.94155 67.5206 1.94155 68.0576V73.8823C1.94155 74.4193 1.5078 74.853 0.970777 74.853ZM0.970777 63.2037C0.433752 63.2037 0 62.77 0 62.2329V56.4083C0 55.8712 0.433752 55.4375 0.970777 55.4375C1.5078 55.4375 1.94155 55.8712 1.94155 56.4083V62.2329C1.94155 62.77 1.5078 63.2037 0.970777 63.2037ZM0.970777 51.5544C0.433752 51.5544 0 51.1206 0 50.5836V44.7589C0 44.2219 0.433752 43.7882 0.970777 43.7882C1.5078 43.7882 1.94155 44.2219 1.94155 44.7589V50.5836C1.94155 51.1206 1.5078 51.5544 0.970777 51.5544ZM0.970777 39.9051C0.433752 39.9051 0 39.4713 0 38.9343V33.1096C0 32.5726 0.433752 32.1388 0.970777 32.1388C1.5078 32.1388 1.94155 32.5726 1.94155 33.1096V38.9343C1.94155 39.4713 1.5078 39.9051 0.970777 39.9051ZM0.970777 28.1938C0.433752 28.1938 0 27.76 0 27.223V21.3983C0 20.8613 0.433752 20.4276 0.970777 20.4276C1.5078 20.4276 1.94155 20.8613 1.94155 21.3983V27.223C1.94155 27.76 1.5078 28.1938 0.970777 28.1938ZM0.970777 16.5238C0.433752 16.5238 0 16.09 0 15.553V9.72835C0 9.19132 0.433752 8.75757 0.970777 8.75757C1.5078 8.75757 1.94155 9.19132 1.94155 9.72835V15.553C1.94155 16.09 1.5078 16.5238 0.970777 16.5238V16.5238Z" fill="#470F4C"/>
<path d="M0.970777 4.87454C0.433752 4.87454 0 4.44079 0 3.90376V0.970777C0 0.433752 0.433752 0 0.970777 0H3.90376C4.44079 0 4.87454 0.433752 4.87454 0.970777C4.87454 1.5078 4.44079 1.94155 3.90376 1.94155H1.96221V3.88311C1.96221 4.42013 1.52846 4.85389 0.991432 4.85389L0.970777 4.87454Z" fill="#470F4C"/>
<path d="M216.586 1.94155H210.679C210.142 1.94155 209.708 1.5078 209.708 0.970777C209.708 0.433752 210.142 0 210.679 0H216.586C217.123 0 217.557 0.433752 217.557 0.970777C217.557 1.5078 217.123 1.94155 216.586 1.94155ZM204.772 1.94155H198.864C198.327 1.94155 197.894 1.5078 197.894 0.970777C197.894 0.433752 198.327 0 198.864 0H204.772C205.309 0 205.742 0.433752 205.742 0.970777C205.742 1.5078 205.309 1.94155 204.772 1.94155ZM192.957 1.94155H187.05C186.513 1.94155 186.079 1.5078 186.079 0.970777C186.079 0.433752 186.513 0 187.05 0H192.957C193.494 0 193.928 0.433752 193.928 0.970777C193.928 1.5078 193.494 1.94155 192.957 1.94155ZM181.142 1.94155H175.235C174.698 1.94155 174.264 1.5078 174.264 0.970777C174.264 0.433752 174.698 0 175.235 0H181.142C181.68 0 182.113 0.433752 182.113 0.970777C182.113 1.5078 181.68 1.94155 181.142 1.94155ZM169.328 1.94155H163.421C162.884 1.94155 162.45 1.5078 162.45 0.970777C162.45 0.433752 162.884 0 163.421 0H169.328C169.865 0 170.299 0.433752 170.299 0.970777C170.299 1.5078 169.865 1.94155 169.328 1.94155ZM157.513 1.94155H151.606C151.069 1.94155 150.635 1.5078 150.635 0.970777C150.635 0.433752 151.069 0 151.606 0H157.513C158.05 0 158.484 0.433752 158.484 0.970777C158.484 1.5078 158.05 1.94155 157.513 1.94155ZM145.699 1.94155H139.792C139.254 1.94155 138.821 1.5078 138.821 0.970777C138.821 0.433752 139.254 0 139.792 0H145.699C146.236 0 146.67 0.433752 146.67 0.970777C146.67 1.5078 146.236 1.94155 145.699 1.94155ZM133.884 1.94155H127.977C127.44 1.94155 127.006 1.5078 127.006 0.970777C127.006 0.433752 127.44 0 127.977 0H133.884C134.421 0 134.855 0.433752 134.855 0.970777C134.855 1.5078 134.421 1.94155 133.884 1.94155ZM122.07 1.94155H116.162C115.625 1.94155 115.192 1.5078 115.192 0.970777C115.192 0.433752 115.625 0 116.162 0H122.07C122.607 0 123.04 0.433752 123.04 0.970777C123.04 1.5078 122.607 1.94155 122.07 1.94155ZM110.255 1.94155H104.348C103.811 1.94155 103.377 1.5078 103.377 0.970777C103.377 0.433752 103.811 0 104.348 0H110.255C110.792 0 111.226 0.433752 111.226 0.970777C111.226 1.5078 110.792 1.94155 110.255 1.94155ZM98.4405 1.94155H92.5332C91.9962 1.94155 91.5625 1.5078 91.5625 0.970777C91.5625 0.433752 91.9962 0 92.5332 0H98.4405C98.9775 0 99.4113 0.433752 99.4113 0.970777C99.4113 1.5078 98.9775 1.94155 98.4405 1.94155ZM86.626 1.94155H80.7187C80.1817 1.94155 79.7479 1.5078 79.7479 0.970777C79.7479 0.433752 80.1817 0 80.7187 0H86.626C87.163 0 87.5967 0.433752 87.5967 0.970777C87.5967 1.5078 87.163 1.94155 86.626 1.94155ZM74.8114 1.94155H68.9041C68.3671 1.94155 67.9333 1.5078 67.9333 0.970777C67.9333 0.433752 68.3671 0 68.9041 0H74.8114C75.3484 0 75.7822 0.433752 75.7822 0.970777C75.7822 1.5078 75.3484 1.94155 74.8114 1.94155ZM62.9968 1.94155H57.0895C56.5525 1.94155 56.1188 1.5078 56.1188 0.970777C56.1188 0.433752 56.5525 0 57.0895 0H62.9968C63.5338 0 63.9676 0.433752 63.9676 0.970777C63.9676 1.5078 63.5338 1.94155 62.9968 1.94155ZM51.1823 1.94155H45.275C44.7379 1.94155 44.3042 1.5078 44.3042 0.970777C44.3042 0.433752 44.7379 0 45.275 0H51.1823C51.7193 0 52.153 0.433752 52.153 0.970777C52.153 1.5078 51.7193 1.94155 51.1823 1.94155ZM39.3677 1.94155H33.4604C32.9234 1.94155 32.4896 1.5078 32.4896 0.970777C32.4896 0.433752 32.9234 0 33.4604 0H39.3677C39.9047 0 40.3385 0.433752 40.3385 0.970777C40.3385 1.5078 39.9047 1.94155 39.3677 1.94155ZM27.5531 1.94155H21.6458C21.1088 1.94155 20.6751 1.5078 20.6751 0.970777C20.6751 0.433752 21.1088 0 21.6458 0H27.5531C28.0901 0 28.5239 0.433752 28.5239 0.970777C28.5239 1.5078 28.0901 1.94155 27.5531 1.94155ZM15.7179 1.94155H9.81062C9.27359 1.94155 8.83984 1.5078 8.83984 0.970777C8.83984 0.433752 9.27359 0 9.81062 0H15.7179C16.2549 0 16.6887 0.433752 16.6887 0.970777C16.6887 1.5078 16.2549 1.94155 15.7179 1.94155Z" fill="#470F4C"/>
<path d="M225.426 4.87454C224.889 4.87454 224.455 4.44079 224.455 3.90376V1.94155H222.514C221.977 1.94155 221.543 1.5078 221.543 0.970777C221.543 0.433752 221.977 0 222.514 0H225.447C225.984 0 226.418 0.433752 226.418 0.970777V3.90376C226.418 4.44079 225.984 4.87454 225.447 4.87454H225.426Z" fill="#470F4C"/>
<path d="M225.428 261.242C224.891 261.242 224.457 260.809 224.457 260.272V254.447C224.457 253.91 224.891 253.476 225.428 253.476C225.965 253.476 226.399 253.91 226.399 254.447V260.272C226.399 260.809 225.965 261.242 225.428 261.242ZM225.428 249.593C224.891 249.593 224.457 249.159 224.457 248.622V242.798C224.457 242.261 224.891 241.827 225.428 241.827C225.965 241.827 226.399 242.261 226.399 242.798V248.622C226.399 249.159 225.965 249.593 225.428 249.593ZM225.428 237.944C224.891 237.944 224.457 237.51 224.457 236.973V231.148C224.457 230.611 224.891 230.178 225.428 230.178C225.965 230.178 226.399 230.611 226.399 231.148V236.973C226.399 237.51 225.965 237.944 225.428 237.944ZM225.428 226.294C224.891 226.294 224.457 225.861 224.457 225.324V219.499C224.457 218.962 224.891 218.528 225.428 218.528C225.965 218.528 226.399 218.962 226.399 219.499V225.324C226.399 225.861 225.965 226.294 225.428 226.294ZM225.428 214.645C224.891 214.645 224.457 214.211 224.457 213.674V207.85C224.457 207.313 224.891 206.879 225.428 206.879C225.965 206.879 226.399 207.313 226.399 207.85V213.674C226.399 214.211 225.965 214.645 225.428 214.645ZM225.428 202.996C224.891 202.996 224.457 202.562 224.457 202.025V196.2C224.457 195.663 224.891 195.23 225.428 195.23C225.965 195.23 226.399 195.663 226.399 196.2V202.025C226.399 202.562 225.965 202.996 225.428 202.996ZM225.428 191.346C224.891 191.346 224.457 190.913 224.457 190.376V184.551C224.457 184.014 224.891 183.58 225.428 183.58C225.965 183.58 226.399 184.014 226.399 184.551V190.376C226.399 190.913 225.965 191.346 225.428 191.346ZM225.428 179.697C224.891 179.697 224.457 179.263 224.457 178.726V172.902C224.457 172.365 224.891 171.931 225.428 171.931C225.965 171.931 226.399 172.365 226.399 172.902V178.726C226.399 179.263 225.965 179.697 225.428 179.697ZM225.428 168.048C224.891 168.048 224.457 167.614 224.457 167.077V161.252C224.457 160.715 224.891 160.282 225.428 160.282C225.965 160.282 226.399 160.715 226.399 161.252V167.077C226.399 167.614 225.965 168.048 225.428 168.048ZM225.428 156.398C224.891 156.398 224.457 155.965 224.457 155.428V149.603C224.457 149.066 224.891 148.632 225.428 148.632C225.965 148.632 226.399 149.066 226.399 149.603V155.428C226.399 155.965 225.965 156.398 225.428 156.398ZM225.428 144.749C224.891 144.749 224.457 144.315 224.457 143.778V137.954C224.457 137.417 224.891 136.983 225.428 136.983C225.965 136.983 226.399 137.417 226.399 137.954V143.778C226.399 144.315 225.965 144.749 225.428 144.749ZM225.428 133.1C224.891 133.1 224.457 132.666 224.457 132.129V126.304C224.457 125.767 224.891 125.334 225.428 125.334C225.965 125.334 226.399 125.767 226.399 126.304V132.129C226.399 132.666 225.965 133.1 225.428 133.1ZM225.428 121.45C224.891 121.45 224.457 121.017 224.457 120.48V114.655C224.457 114.118 224.891 113.684 225.428 113.684C225.965 113.684 226.399 114.118 226.399 114.655V120.48C226.399 121.017 225.965 121.45 225.428 121.45ZM225.428 109.801C224.891 109.801 224.457 109.367 224.457 108.83V103.006C224.457 102.469 224.891 102.035 225.428 102.035C225.965 102.035 226.399 102.469 226.399 103.006V108.83C226.399 109.367 225.965 109.801 225.428 109.801ZM225.428 98.1518C224.891 98.1518 224.457 97.7181 224.457 97.1811V91.3564C224.457 90.8194 224.891 90.3856 225.428 90.3856C225.965 90.3856 226.399 90.8194 226.399 91.3564V97.1811C226.399 97.7181 225.965 98.1518 225.428 98.1518ZM225.428 86.5025C224.891 86.5025 224.457 86.0688 224.457 85.5317V79.7071C224.457 79.17 224.891 78.7363 225.428 78.7363C225.965 78.7363 226.399 79.17 226.399 79.7071V85.5317C226.399 86.0688 225.965 86.5025 225.428 86.5025ZM225.428 74.8532C224.891 74.8532 224.457 74.4194 224.457 73.8824V68.0577C224.457 67.5207 224.891 67.087 225.428 67.087C225.965 67.087 226.399 67.5207 226.399 68.0577V73.8824C226.399 74.4194 225.965 74.8532 225.428 74.8532ZM225.428 63.2039C224.891 63.2039 224.457 62.7701 224.457 62.2331V56.4084C224.457 55.8714 224.891 55.4376 225.428 55.4376C225.965 55.4376 226.399 55.8714 226.399 56.4084V62.2331C226.399 62.7701 225.965 63.2039 225.428 63.2039ZM225.428 51.5545C224.891 51.5545 224.457 51.1208 224.457 50.5837V44.7591C224.457 44.2221 224.891 43.7883 225.428 43.7883C225.965 43.7883 226.399 44.2221 226.399 44.7591V50.5837C226.399 51.1208 225.965 51.5545 225.428 51.5545ZM225.428 39.9052C224.891 39.9052 224.457 39.4714 224.457 38.9344V33.1098C224.457 32.5727 224.891 32.139 225.428 32.139C225.965 32.139 226.399 32.5727 226.399 33.1098V38.9344C226.399 39.4714 225.965 39.9052 225.428 39.9052ZM225.428 28.2559C224.891 28.2559 224.457 27.8221 224.457 27.2851V21.4604C224.457 20.9234 224.891 20.4897 225.428 20.4897C225.965 20.4897 226.399 20.9234 226.399 21.4604V27.2851C226.399 27.8221 225.965 28.2559 225.428 28.2559ZM225.428 16.6065C224.891 16.6065 224.457 16.1728 224.457 15.6358V9.81111C224.457 9.27408 224.891 8.84033 225.428 8.84033C225.965 8.84033 226.399 9.27408 226.399 9.81111V15.6358C226.399 16.1728 225.965 16.6065 225.428 16.6065V16.6065Z" fill="#470F4C"/>
<path d="M79.3359 107.612C79.3359 109.491 80.8644 111.02 82.744 111.02C84.6236 111.02 86.152 109.491 86.152 107.612C86.152 105.732 84.6236 104.204 82.744 104.204C80.8644 104.204 79.3359 105.732 79.3359 107.612Z" fill="#470F4C"/>
<path d="M82.7432 112.011C80.3266 112.011 78.3438 110.049 78.3438 107.612C78.3438 105.174 80.306 103.212 82.7432 103.212C85.1805 103.212 87.1427 105.174 87.1427 107.612C87.1427 110.049 85.1805 112.011 82.7432 112.011ZM82.7432 105.174C81.4007 105.174 80.306 106.269 80.306 107.612C80.306 108.954 81.4007 110.049 82.7432 110.049C84.0858 110.049 85.1805 108.954 85.1805 107.612C85.1805 106.269 84.0858 105.174 82.7432 105.174Z" fill="#470F4C"/>
<path d="M111.619 135.537C106.166 135.537 102.2 134.298 101.993 134.236C101.477 134.07 101.188 133.533 101.353 133.017C101.518 132.501 102.055 132.211 102.572 132.377C102.634 132.377 108.644 134.256 115.812 133.306C116.844 133.182 117.753 133.079 118.559 132.976C123.64 132.418 123.743 132.397 123.743 128.452C123.743 123.02 120.851 105.98 120.831 105.815C120.748 105.278 121.099 104.782 121.636 104.679C122.173 104.596 122.669 104.947 122.752 105.484C122.876 106.186 125.685 122.875 125.685 128.452C125.685 134.029 124.135 134.318 118.765 134.917C117.96 135 117.072 135.103 116.059 135.248C114.51 135.454 113.003 135.537 111.619 135.537Z" fill="#470F4C"/>
<path d="M133.182 159.786C132.975 159.786 132.748 159.724 132.583 159.579C132.355 159.393 132.211 159.125 132.211 158.836C131.86 143.985 128.741 138.759 126.18 136.962C124.383 135.702 122.854 136.218 122.792 136.239C122.689 136.28 122.544 136.301 122.462 136.301L102.282 136.26C93.4623 137.272 93.7308 146.03 93.9373 152.433C94.0406 155.944 94.1232 158.278 92.76 159.187C88.9595 161.727 77.8679 155.448 73.0966 152.019C66.549 147.31 64.8553 138.263 64.2357 125.189C63.5954 111.577 65.8467 68.6565 65.8674 68.2227C65.8881 67.6857 66.4044 67.2726 66.8588 67.2933C67.3752 67.2933 67.7883 67.727 67.809 68.2227C68.346 70.7839 84.5807 89.4559 113.415 90.3854C142.683 91.3148 155.964 68.0368 156.088 67.789C156.274 67.4379 156.666 67.252 157.059 67.2933C157.451 67.3346 157.781 67.6238 157.885 68.0162C164.474 92.7813 161.458 124.672 160.322 136.694L160.177 138.201C159.124 149.52 143.901 156.708 139.894 158.009C136.961 158.959 133.553 159.744 133.409 159.786C133.347 159.786 133.264 159.806 133.202 159.806L133.182 159.786ZM67.6231 71.6101C67.1067 81.9582 65.6195 113.787 66.1566 125.086C66.8382 139.647 69.1102 146.752 74.212 150.429C81.152 155.427 89.6411 158.897 91.6446 157.555C92.099 157.162 92.0164 154.353 91.9545 152.474C91.7686 146.133 91.4381 135.516 102.158 134.298L122.317 134.339C122.957 134.174 124.982 133.802 127.212 135.31C131.385 138.139 133.698 145.637 134.111 157.576C135.371 157.266 137.436 156.729 139.275 156.13C143.034 154.911 157.286 148.24 158.236 137.995L158.38 136.487C159.475 124.92 162.305 94.7642 156.542 70.66C152.535 76.464 138.696 93.1118 113.353 92.3063C89.0834 91.5214 72.8281 78.3023 67.6437 71.5688L67.6231 71.6101Z" fill="#470F4C"/>
<path d="M74.6261 98.1722C74.2956 98.1722 73.9858 98.007 73.7999 97.7178C73.5108 97.2634 73.6553 96.6644 74.1098 96.3752C74.337 96.2307 79.6866 92.9465 90.9434 93.6281C91.4805 93.6488 91.8936 94.1239 91.8523 94.6609C91.8109 95.1979 91.3565 95.611 90.8195 95.5697C80.2649 94.9501 75.1838 98.007 75.1218 98.0276C74.9566 98.1309 74.7914 98.1722 74.6055 98.1722H74.6261Z" fill="#470F4C"/>
<path d="M113.498 177.57C96.6027 177.57 83.9413 173.046 74.7705 163.772C55.8094 144.563 56.2638 107.839 56.6563 75.4314C56.6769 73.0147 56.7182 70.6188 56.7389 68.2435C56.8628 55.1896 61.1384 45.0068 69.4623 38.0048C85.3871 24.6205 110.855 26.9338 117.03 27.7187C116.824 25.8597 116.865 22.5137 119.096 19.7872C119.633 19.1263 120.356 18.8164 121.161 18.9404C123.888 19.3328 127.213 25.5086 129.175 29.7222C129.774 26.5207 130.869 21.9353 132.459 20.1177C132.935 19.5807 133.575 19.3535 134.215 19.4774C136.673 19.9938 139.172 26.7686 140.329 30.2799C166.416 33.5433 167.428 61.2828 168.316 85.7794L168.461 89.2701C169.287 109.656 170.692 143.758 151.958 163.256C142.849 172.736 129.919 177.549 113.519 177.549L113.498 177.57ZM106.352 29.0819C96.0244 29.0819 81.0496 30.8169 70.7222 39.5126C62.8527 46.1221 58.825 55.7886 58.7011 68.2641C58.6804 70.6394 58.6598 73.0354 58.6185 75.452C58.226 107.467 57.7716 143.758 76.1751 162.388C84.9534 171.29 97.181 175.607 113.519 175.607C129.857 175.607 141.837 171.001 150.553 161.913C168.709 143.014 167.325 109.409 166.519 89.3527L166.375 85.862C165.466 60.7871 164.516 34.8446 139.482 32.1388C139.09 32.0975 138.78 31.829 138.656 31.4572C137.045 26.3555 134.773 21.6462 133.823 21.3776C132.212 23.3399 130.931 30.6104 130.58 33.2335C130.518 33.6673 130.187 34.0184 129.733 34.0804C129.279 34.1423 128.866 33.8945 128.7 33.4814C126.242 27.5948 122.545 21.1091 120.851 20.8613C120.79 20.8613 120.728 20.8613 120.583 21.0059C118.022 24.166 119.137 28.5655 119.137 28.6068C119.22 28.9167 119.137 29.2678 118.91 29.5157C118.683 29.7635 118.352 29.8874 118.022 29.8255C117.898 29.8255 113.106 29.0612 106.31 29.0612L106.352 29.0819Z" fill="#470F4C"/>
<path d="M56.0771 126.098C48.3728 126.098 42.0938 120.5 42.0938 113.601C42.0938 106.703 48.3728 101.105 56.0771 101.105C56.6554 101.105 57.2131 101.147 57.7708 101.208C58.2458 101.27 58.6176 101.663 58.6383 102.159C58.8861 110.751 59.4645 118.083 60.3733 124.59C60.4352 125.085 60.1254 125.561 59.6297 125.684C58.4317 125.974 57.2337 126.118 56.0564 126.118L56.0771 126.098ZM56.0771 103.047C49.4469 103.047 44.0353 107.777 44.0353 113.601C44.0353 120.066 50.7481 125.271 58.3078 123.949C57.4816 117.815 56.9446 110.978 56.6967 103.067C56.4902 103.067 56.2836 103.067 56.0564 103.067L56.0771 103.047Z" fill="#470F4C"/>
<path d="M55.9944 120.149C52.2765 120.149 49.2402 117.113 49.2402 113.395C49.2402 108.954 53.4951 105.401 58.2044 107.033C58.5762 107.157 58.8447 107.508 58.8654 107.901C59.0513 111.577 59.2991 115.109 59.6296 118.373C59.6709 118.765 59.4644 119.158 59.1132 119.343C58.1012 119.881 57.0684 120.128 55.9944 120.128V120.149ZM55.9944 108.603C53.3505 108.603 51.2024 110.751 51.2024 113.395C51.2024 116.039 53.3505 118.187 55.9944 118.187C56.552 118.187 57.0891 118.084 57.6261 117.877C57.3369 114.985 57.1304 111.908 56.9445 108.706C56.614 108.624 56.3042 108.603 55.9944 108.603Z" fill="#470F4C"/>
<path d="M149.273 107.612C149.273 109.491 147.745 111.02 145.865 111.02C143.985 111.02 142.457 109.491 142.457 107.612C142.457 105.732 143.985 104.204 145.865 104.204C147.745 104.204 149.273 105.732 149.273 107.612Z" fill="#470F4C"/>
<path d="M145.864 112.011C143.448 112.011 141.465 110.049 141.465 107.612C141.465 105.174 143.427 103.212 145.864 103.212C148.302 103.212 150.264 105.174 150.264 107.612C150.264 110.049 148.302 112.011 145.864 112.011ZM145.864 105.174C144.522 105.174 143.427 106.269 143.427 107.612C143.427 108.954 144.522 110.049 145.864 110.049C147.207 110.049 148.302 108.954 148.302 107.612C148.302 106.269 147.207 105.174 145.864 105.174Z" fill="#470F4C"/>
<path d="M153.982 98.1724C153.817 98.1724 153.631 98.131 153.466 98.0278C153.424 98.0071 148.343 94.9502 137.768 95.5699C137.252 95.6112 136.777 95.1981 136.735 94.661C136.694 94.124 137.107 93.6696 137.644 93.6283C148.901 92.9673 154.251 96.2308 154.478 96.3754C154.932 96.6646 155.077 97.2635 154.788 97.718C154.602 98.0071 154.292 98.1724 153.961 98.1724H153.982Z" fill="#470F4C"/>
<path d="M172.531 126.098C170.424 126.098 168.358 125.684 166.437 124.838C166.045 124.672 165.797 124.259 165.859 123.826C166.603 117.526 166.933 110.668 166.871 102.861C166.871 102.448 167.14 102.076 167.532 101.931C169.143 101.374 170.837 101.105 172.531 101.105C180.235 101.105 186.514 106.703 186.514 113.601C186.514 120.5 180.235 126.098 172.531 126.098ZM167.883 123.309C169.37 123.867 170.92 124.135 172.531 124.135C179.161 124.135 184.572 119.405 184.572 113.581C184.572 107.756 179.181 103.026 172.531 103.026C171.271 103.026 170.031 103.191 168.833 103.542C168.875 110.834 168.565 117.299 167.883 123.289V123.309Z" fill="#470F4C"/>
<path d="M172.612 120.149C170.133 120.149 167.861 118.765 166.663 116.555C166.581 116.39 166.539 116.225 166.56 116.039C166.684 114.077 166.767 112.135 166.808 110.214C166.808 110.028 166.87 109.863 166.973 109.698C168.233 107.798 170.34 106.641 172.612 106.641C176.33 106.641 179.366 109.677 179.366 113.395C179.366 117.113 176.33 120.149 172.612 120.149ZM168.522 115.853C169.39 117.299 170.939 118.187 172.612 118.187C175.256 118.187 177.404 116.039 177.404 113.395C177.404 110.751 175.256 108.603 172.612 108.603C171.083 108.603 169.658 109.326 168.749 110.545C168.708 112.3 168.625 114.056 168.522 115.853Z" fill="#470F4C"/>
<path d="M114.697 152.453C112.528 152.453 111.041 152.205 110.897 152.185C110.36 152.102 110.008 151.586 110.112 151.049C110.194 150.512 110.711 150.14 111.248 150.264C111.33 150.264 119.076 151.565 124.88 147.971C125.334 147.703 125.933 147.827 126.223 148.281C126.512 148.735 126.367 149.334 125.913 149.624C122.133 151.958 117.775 152.453 114.718 152.453H114.697Z" fill="#470F4C"/>
<path d="M68.4292 153.672H68.3672L69.0901 169.741C69.0901 169.741 85.3455 179.842 105.856 176.578L105.67 176.165C86.9772 174.347 75.4725 165.92 68.4292 153.672Z" fill="#470F4C"/>
<path d="M97.4906 178.23C81.0906 178.23 69.1521 170.939 68.5738 170.588C68.3053 170.423 68.1194 170.134 68.1194 169.803L67.3965 153.713C67.3965 153.383 67.5411 153.052 67.8302 152.866C68.1194 152.68 68.4705 152.639 68.7804 152.784C68.9662 152.866 69.1728 153.032 69.2761 153.217C76.8357 166.375 88.7742 173.583 105.773 175.236C106.124 175.277 106.413 175.483 106.558 175.793L106.744 176.206C106.868 176.475 106.868 176.805 106.723 177.074C106.579 177.342 106.31 177.528 106.021 177.57C103.088 178.045 100.238 178.23 97.5112 178.23H97.4906ZM70.0403 169.184C72.4156 170.526 84.1682 176.702 99.1843 176.248C86.1304 173.707 76.3607 167.469 69.5033 157.286L70.0403 169.184Z" fill="#470F4C"/>
<path d="M145.864 269.607H86.1715C85.7584 269.607 85.3867 269.339 85.2421 268.947L62.3152 202.541C62.2326 202.293 62.2532 202.004 62.3772 201.756C62.5011 201.508 62.7283 201.343 62.9762 201.281L67.9953 199.939C67.2104 194.754 64.2567 173.211 68.4084 169.06C68.7802 168.688 69.3998 168.688 69.7922 169.06C70.164 169.431 70.164 170.051 69.7922 170.444C66.9625 173.273 68.4703 190.376 70.0608 200.496C70.1434 200.992 69.8336 201.467 69.3585 201.591L64.5046 202.892L86.8738 267.645H145.12L161.644 204.09L159.124 202.872C158.794 202.706 158.567 202.376 158.567 201.984V180.441C158.567 161.996 154.167 159.682 154.126 159.662C153.651 159.435 153.424 158.877 153.63 158.402C153.837 157.927 154.353 157.679 154.849 157.844C155.427 158.051 160.529 160.488 160.529 180.441V201.364L163.235 202.665C163.648 202.872 163.875 203.347 163.751 203.801L146.835 268.864C146.732 269.298 146.339 269.587 145.885 269.587L145.864 269.607Z" fill="#470F4C"/>
<path d="M77.5183 244.574C77.0225 244.574 76.5888 244.202 76.5475 243.686C73.945 215.595 79.9349 175.008 79.9968 174.616C80.0795 174.079 80.5752 173.728 81.1122 173.79C81.6492 173.872 82.021 174.368 81.9384 174.905C81.8764 175.318 75.9072 215.657 78.5097 243.521C78.551 244.058 78.1586 244.533 77.6215 244.574C77.6009 244.574 77.5596 244.574 77.5389 244.574H77.5183Z" fill="#470F4C"/>
<path d="M92.1816 269.607C91.7479 269.607 91.3554 269.318 91.2315 268.864C88.9388 259.734 91.1076 180.564 91.2108 177.198C91.2108 176.661 91.7479 176.227 92.2229 176.248C92.76 176.248 93.1937 176.702 93.1731 177.26C93.1524 178.086 90.9217 259.528 93.1524 268.389C93.2763 268.905 92.9665 269.442 92.4501 269.566C92.3675 269.566 92.2849 269.587 92.2229 269.587L92.1816 269.607Z" fill="#470F4C"/>
<path d="M106 269.608C105.463 269.608 105.029 269.195 105.029 268.657C105.029 268.472 104.554 248.911 104.885 231.541C105.215 214.191 104.885 176.971 104.885 176.599C104.885 176.062 105.318 175.628 105.855 175.607C106.392 175.607 106.826 176.041 106.826 176.578C106.826 176.95 107.157 214.191 106.826 231.561C106.496 248.911 106.971 268.41 106.971 268.595C106.971 269.133 106.558 269.587 106.021 269.587H106V269.608Z" fill="#470F4C"/>
<path d="M122.916 269.608C122.4 269.608 121.966 269.194 121.945 268.678C121.945 268.554 121.47 257.091 121.801 242.261C122.131 227.492 121.801 176.537 121.801 176.02C121.801 175.483 122.234 175.05 122.771 175.029C123.308 175.029 123.742 175.463 123.742 176C123.742 176.516 124.073 227.492 123.742 242.302C123.412 257.07 123.887 268.472 123.887 268.595C123.907 269.132 123.494 269.587 122.957 269.608H122.916Z" fill="#470F4C"/>
<path d="M136.24 269.608C136.137 269.608 136.013 269.608 135.91 269.546C135.393 269.36 135.145 268.802 135.311 268.306C135.724 266.385 136.736 227.121 136.736 212.352C136.736 198.266 133.803 173.563 133.782 173.315C133.72 172.778 134.092 172.303 134.629 172.22C135.166 172.137 135.641 172.53 135.724 173.067C135.744 173.315 138.698 198.142 138.698 212.332C138.698 224.229 137.748 267.294 137.149 268.947C137.004 269.339 136.633 269.587 136.24 269.587V269.608Z" fill="#470F4C"/>
<path d="M151.111 249.448C150.595 249.448 150.161 249.035 150.141 248.519C150.141 248.126 148.158 209.233 148.302 189.26C148.447 170.733 145.369 168.172 145.349 168.151C144.874 167.903 144.708 167.345 144.956 166.87C145.204 166.395 145.824 166.209 146.299 166.457C146.98 166.808 150.409 169.514 150.265 189.281C150.099 209.192 152.062 248.044 152.082 248.436C152.103 248.973 151.69 249.428 151.153 249.469H151.111V249.448Z" fill="#470F4C"/>
<path d="M65.0625 201.736C65.0625 201.736 1.59024 210.638 1.25977 268.864L94.4544 268.637C94.4544 268.637 68.8424 223.96 65.0625 201.736Z" fill="#470F4C"/>
<path d="M1.25984 269.835C0.991327 269.835 0.743469 269.731 0.57823 269.546C0.392337 269.36 0.289062 269.112 0.289062 268.843C0.61954 210.452 64.2984 200.848 64.9387 200.765C65.4551 200.682 65.9508 201.054 66.0334 201.57C69.7513 223.382 95.0534 267.707 95.3013 268.162C95.4665 268.471 95.4665 268.843 95.3013 269.132C95.1361 269.442 94.8056 269.628 94.4544 269.628L1.25984 269.855V269.835ZM64.2777 202.851C56.5528 204.256 3.20139 215.843 2.25127 267.873L92.7814 267.666C88.3613 259.796 68.1815 223.217 64.2777 202.851Z" fill="#470F4C"/>
<path d="M68.367 269.607C68.1604 269.607 67.9746 269.545 67.7887 269.422C66.033 268.141 50.6658 256.76 48.9928 252.526C47.361 248.395 56.5318 242.198 60.291 239.864C56.0567 236.126 41.8049 223.485 40.3384 221.502C38.5001 219.065 43.8704 212.332 47.2165 208.531C47.5676 208.118 48.1872 208.097 48.6003 208.448C49.0134 208.8 49.0341 209.419 48.6829 209.832C44.6759 214.376 41.4538 219.375 41.9082 220.346C43.1888 222.06 57.2754 234.598 62.5836 239.286C62.8109 239.493 62.9348 239.803 62.9141 240.112C62.8935 240.422 62.7076 240.711 62.4391 240.856C57.2134 243.933 49.9222 249.531 50.8104 251.803C51.9258 254.633 62.2738 262.936 68.9453 267.852C69.3791 268.182 69.4824 268.781 69.1519 269.215C68.966 269.484 68.6562 269.607 68.367 269.607Z" fill="#470F4C"/>
<path d="M161.913 201.736C161.913 201.736 225.386 210.638 225.716 268.864L132.521 268.637C132.521 268.637 158.133 223.96 161.913 201.736Z" fill="#470F4C"/>
<path d="M225.716 269.835L132.522 269.607C132.17 269.607 131.861 269.421 131.675 269.112C131.509 268.802 131.509 268.451 131.675 268.141C131.923 267.687 157.245 223.361 160.963 201.55C161.046 201.033 161.521 200.662 162.058 200.744C162.698 200.827 226.377 210.431 226.708 268.823C226.708 269.091 226.604 269.339 226.418 269.525C226.233 269.711 225.985 269.814 225.737 269.814L225.716 269.835ZM134.195 267.666L224.725 267.872C223.775 215.802 170.423 204.255 162.698 202.851C158.795 223.217 138.615 259.796 134.195 267.666Z" fill="#470F4C"/>
<path d="M158.629 269.607C158.319 269.607 158.03 269.463 157.844 269.215C157.534 268.781 157.617 268.162 158.051 267.852C164.722 262.957 175.07 254.633 176.186 251.803C177.095 249.531 169.783 243.913 164.557 240.856C164.289 240.691 164.103 240.422 164.082 240.112C164.061 239.802 164.165 239.493 164.413 239.286C169.721 234.597 183.807 222.06 185.088 220.346C185.542 219.375 182.32 214.376 178.313 209.832C177.962 209.419 178.003 208.82 178.396 208.448C178.809 208.097 179.429 208.139 179.78 208.531C183.126 212.332 188.496 219.065 186.658 221.502C185.171 223.485 170.939 236.126 166.705 239.864C170.485 242.198 179.635 248.395 178.003 252.526C176.33 256.781 160.963 268.141 159.208 269.422C159.042 269.545 158.836 269.607 158.629 269.607Z" fill="#470F4C"/>
</g>
<defs>
<clipPath id="clip0_186_731">
<rect width="226.687" height="270" fill="white"/>
</clipPath>
</defs>
</svg>
