<svg width="228" height="270" viewBox="0 0 228 270" fill="none" xmlns="http://www.w3.org/2000/svg">
<g clip-path="url(#clip0_186_776)">
<path d="M225.427 270H222.494C221.957 270 221.523 269.566 221.523 269.029C221.523 268.492 221.957 268.058 222.494 268.058H224.436V266.117C224.436 265.58 224.87 265.146 225.407 265.146C225.944 265.146 226.377 265.58 226.377 266.117V269.05C226.377 269.587 225.944 270.021 225.407 270.021L225.427 270Z" fill="#470F4C"/>
<path d="M216.587 270H210.68C210.143 270 209.709 269.566 209.709 269.029C209.709 268.492 210.143 268.058 210.68 268.058H216.587C217.124 268.058 217.558 268.492 217.558 269.029C217.558 269.566 217.124 270 216.587 270ZM204.772 270H198.865C198.328 270 197.894 269.566 197.894 269.029C197.894 268.492 198.328 268.058 198.865 268.058H204.772C205.309 268.058 205.743 268.492 205.743 269.029C205.743 269.566 205.309 270 204.772 270ZM192.958 270H187.051C186.514 270 186.08 269.566 186.08 269.029C186.08 268.492 186.514 268.058 187.051 268.058H192.958C193.495 268.058 193.929 268.492 193.929 269.029C193.929 269.566 193.495 270 192.958 270ZM181.143 270H175.236C174.699 270 174.265 269.566 174.265 269.029C174.265 268.492 174.699 268.058 175.236 268.058H181.143C181.68 268.058 182.114 268.492 182.114 269.029C182.114 269.566 181.68 270 181.143 270ZM169.329 270H163.421C162.884 270 162.451 269.566 162.451 269.029C162.451 268.492 162.884 268.058 163.421 268.058H169.329C169.866 268.058 170.3 268.492 170.3 269.029C170.3 269.566 169.866 270 169.329 270ZM157.514 270H151.607C151.07 270 150.636 269.566 150.636 269.029C150.636 268.492 151.07 268.058 151.607 268.058H157.514C158.051 268.058 158.485 268.492 158.485 269.029C158.485 269.566 158.051 270 157.514 270ZM145.7 270H139.792C139.255 270 138.822 269.566 138.822 269.029C138.822 268.492 139.255 268.058 139.792 268.058H145.7C146.237 268.058 146.67 268.492 146.67 269.029C146.67 269.566 146.237 270 145.7 270ZM133.885 270H127.978C127.441 270 127.007 269.566 127.007 269.029C127.007 268.492 127.441 268.058 127.978 268.058H133.885C134.422 268.058 134.856 268.492 134.856 269.029C134.856 269.566 134.422 270 133.885 270ZM122.07 270H116.163C115.626 270 115.192 269.566 115.192 269.029C115.192 268.492 115.626 268.058 116.163 268.058H122.07C122.608 268.058 123.041 268.492 123.041 269.029C123.041 269.566 122.608 270 122.07 270ZM110.256 270H104.349C103.812 270 103.378 269.566 103.378 269.029C103.378 268.492 103.812 268.058 104.349 268.058H110.256C110.793 268.058 111.227 268.492 111.227 269.029C111.227 269.566 110.793 270 110.256 270ZM98.4413 270H92.5341C91.997 270 91.5633 269.566 91.5633 269.029C91.5633 268.492 91.997 268.058 92.5341 268.058H98.4413C98.9784 268.058 99.4121 268.492 99.4121 269.029C99.4121 269.566 98.9784 270 98.4413 270ZM86.6268 270H80.7195C80.1825 270 79.7487 269.566 79.7487 269.029C79.7487 268.492 80.1825 268.058 80.7195 268.058H86.6268C87.1638 268.058 87.5976 268.492 87.5976 269.029C87.5976 269.566 87.1638 270 86.6268 270ZM74.8122 270H68.9049C68.3679 270 67.9342 269.566 67.9342 269.029C67.9342 268.492 68.3679 268.058 68.9049 268.058H74.8122C75.3492 268.058 75.783 268.492 75.783 269.029C75.783 269.566 75.3492 270 74.8122 270ZM62.9977 270H57.0904C56.5533 270 56.1196 269.566 56.1196 269.029C56.1196 268.492 56.5533 268.058 57.0904 268.058H62.9977C63.5347 268.058 63.9684 268.492 63.9684 269.029C63.9684 269.566 63.5347 270 62.9977 270ZM51.1831 270H45.2758C44.7388 270 44.305 269.566 44.305 269.029C44.305 268.492 44.7388 268.058 45.2758 268.058H51.1831C51.7201 268.058 52.1539 268.492 52.1539 269.029C52.1539 269.566 51.7201 270 51.1831 270ZM39.3685 270H33.4612C32.9242 270 32.4905 269.566 32.4905 269.029C32.4905 268.492 32.9242 268.058 33.4612 268.058H39.3685C39.9055 268.058 40.3393 268.492 40.3393 269.029C40.3393 269.566 39.9055 270 39.3685 270ZM27.554 270H21.6467C21.1096 270 20.6759 269.566 20.6759 269.029C20.6759 268.492 21.1096 268.058 21.6467 268.058H27.554C28.091 268.058 28.5247 268.492 28.5247 269.029C28.5247 269.566 28.091 270 27.554 270ZM15.7394 270H9.83211C9.29508 270 8.86133 269.566 8.86133 269.029C8.86133 268.492 9.29508 268.058 9.83211 268.058H15.7394C16.2764 268.058 16.7102 268.492 16.7102 269.029C16.7102 269.566 16.2764 270 15.7394 270Z" fill="#470F4C"/>
<path d="M3.90376 270H0.970777C0.433752 270 0 269.566 0 269.029V266.096C0 265.559 0.433752 265.125 0.970777 265.125C1.5078 265.125 1.94155 265.559 1.94155 266.096V268.038H3.88311C4.42013 268.038 4.85389 268.472 4.85389 269.009C4.85389 269.546 4.42013 269.979 3.88311 269.979L3.90376 270Z" fill="#470F4C"/>
<path d="M0.970777 261.242C0.433752 261.242 0 260.809 0 260.272V254.447C0 253.91 0.433752 253.476 0.970777 253.476C1.5078 253.476 1.94155 253.91 1.94155 254.447V260.272C1.94155 260.809 1.5078 261.242 0.970777 261.242ZM0.970777 249.593C0.433752 249.593 0 249.159 0 248.622V242.798C0 242.26 0.433752 241.827 0.970777 241.827C1.5078 241.827 1.94155 242.26 1.94155 242.798V248.622C1.94155 249.159 1.5078 249.593 0.970777 249.593ZM0.970777 237.944C0.433752 237.944 0 237.51 0 236.973V231.148C0 230.611 0.433752 230.177 0.970777 230.177C1.5078 230.177 1.94155 230.611 1.94155 231.148V236.973C1.94155 237.51 1.5078 237.944 0.970777 237.944ZM0.970777 226.294C0.433752 226.294 0 225.861 0 225.324V219.499C0 218.962 0.433752 218.528 0.970777 218.528C1.5078 218.528 1.94155 218.962 1.94155 219.499V225.324C1.94155 225.861 1.5078 226.294 0.970777 226.294ZM0.970777 214.645C0.433752 214.645 0 214.211 0 213.674V207.85C0 207.313 0.433752 206.879 0.970777 206.879C1.5078 206.879 1.94155 207.313 1.94155 207.85V213.674C1.94155 214.211 1.5078 214.645 0.970777 214.645ZM0.970777 202.996C0.433752 202.996 0 202.562 0 202.025V196.2C0 195.663 0.433752 195.229 0.970777 195.229C1.5078 195.229 1.94155 195.663 1.94155 196.2V202.025C1.94155 202.562 1.5078 202.996 0.970777 202.996ZM0.970777 191.346C0.433752 191.346 0 190.913 0 190.376V184.551C0 184.014 0.433752 183.58 0.970777 183.58C1.5078 183.58 1.94155 184.014 1.94155 184.551V190.376C1.94155 190.913 1.5078 191.346 0.970777 191.346ZM0.970777 179.697C0.433752 179.697 0 179.263 0 178.726V172.902C0 172.365 0.433752 171.931 0.970777 171.931C1.5078 171.931 1.94155 172.365 1.94155 172.902V178.726C1.94155 179.263 1.5078 179.697 0.970777 179.697ZM0.970777 168.048C0.433752 168.048 0 167.614 0 167.077V161.252C0 160.715 0.433752 160.281 0.970777 160.281C1.5078 160.281 1.94155 160.715 1.94155 161.252V167.077C1.94155 167.614 1.5078 168.048 0.970777 168.048ZM0.970777 156.398C0.433752 156.398 0 155.965 0 155.428V149.603C0 149.066 0.433752 148.632 0.970777 148.632C1.5078 148.632 1.94155 149.066 1.94155 149.603V155.428C1.94155 155.965 1.5078 156.398 0.970777 156.398ZM0.970777 144.749C0.433752 144.749 0 144.315 0 143.778V137.954C0 137.417 0.433752 136.983 0.970777 136.983C1.5078 136.983 1.94155 137.417 1.94155 137.954V143.778C1.94155 144.315 1.5078 144.749 0.970777 144.749ZM0.970777 133.1C0.433752 133.1 0 132.666 0 132.129V126.304C0 125.767 0.433752 125.333 0.970777 125.333C1.5078 125.333 1.94155 125.767 1.94155 126.304V132.129C1.94155 132.666 1.5078 133.1 0.970777 133.1ZM0.970777 121.45C0.433752 121.45 0 121.017 0 120.48V114.655C0 114.118 0.433752 113.684 0.970777 113.684C1.5078 113.684 1.94155 114.118 1.94155 114.655V120.48C1.94155 121.017 1.5078 121.45 0.970777 121.45ZM0.970777 109.801C0.433752 109.801 0 109.367 0 108.83V103.006C0 102.469 0.433752 102.035 0.970777 102.035C1.5078 102.035 1.94155 102.469 1.94155 103.006V108.83C1.94155 109.367 1.5078 109.801 0.970777 109.801ZM0.970777 98.1517C0.433752 98.1517 0 97.7179 0 97.1809V91.3563C0 90.8192 0.433752 90.3855 0.970777 90.3855C1.5078 90.3855 1.94155 90.8192 1.94155 91.3563V97.1809C1.94155 97.7179 1.5078 98.1517 0.970777 98.1517ZM0.970777 86.5024C0.433752 86.5024 0 86.0686 0 85.5316V79.7069C0 79.1699 0.433752 78.7361 0.970777 78.7361C1.5078 78.7361 1.94155 79.1699 1.94155 79.7069V85.5316C1.94155 86.0686 1.5078 86.5024 0.970777 86.5024ZM0.970777 74.853C0.433752 74.853 0 74.4193 0 73.8823V68.0576C0 67.5206 0.433752 67.0868 0.970777 67.0868C1.5078 67.0868 1.94155 67.5206 1.94155 68.0576V73.8823C1.94155 74.4193 1.5078 74.853 0.970777 74.853ZM0.970777 63.2037C0.433752 63.2037 0 62.77 0 62.2329V56.4083C0 55.8712 0.433752 55.4375 0.970777 55.4375C1.5078 55.4375 1.94155 55.8712 1.94155 56.4083V62.2329C1.94155 62.77 1.5078 63.2037 0.970777 63.2037ZM0.970777 51.5544C0.433752 51.5544 0 51.1206 0 50.5836V44.7589C0 44.2219 0.433752 43.7882 0.970777 43.7882C1.5078 43.7882 1.94155 44.2219 1.94155 44.7589V50.5836C1.94155 51.1206 1.5078 51.5544 0.970777 51.5544ZM0.970777 39.9051C0.433752 39.9051 0 39.4713 0 38.9343V33.1096C0 32.5726 0.433752 32.1388 0.970777 32.1388C1.5078 32.1388 1.94155 32.5726 1.94155 33.1096V38.9343C1.94155 39.4713 1.5078 39.9051 0.970777 39.9051ZM0.970777 28.1938C0.433752 28.1938 0 27.76 0 27.223V21.3983C0 20.8613 0.433752 20.4276 0.970777 20.4276C1.5078 20.4276 1.94155 20.8613 1.94155 21.3983V27.223C1.94155 27.76 1.5078 28.1938 0.970777 28.1938ZM0.970777 16.5238C0.433752 16.5238 0 16.09 0 15.553V9.72835C0 9.19132 0.433752 8.75757 0.970777 8.75757C1.5078 8.75757 1.94155 9.19132 1.94155 9.72835V15.553C1.94155 16.09 1.5078 16.5238 0.970777 16.5238V16.5238Z" fill="#470F4C"/>
<path d="M0.970777 4.87454C0.433752 4.87454 0 4.44079 0 3.90376V0.970777C0 0.433752 0.433752 0 0.970777 0H3.90376C4.44079 0 4.87454 0.433752 4.87454 0.970777C4.87454 1.5078 4.44079 1.94155 3.90376 1.94155H1.96221V3.88311C1.96221 4.42013 1.52846 4.85389 0.991432 4.85389L0.970777 4.87454Z" fill="#470F4C"/>
<path d="M216.586 1.94155H210.679C210.142 1.94155 209.708 1.5078 209.708 0.970777C209.708 0.433752 210.142 0 210.679 0H216.586C217.123 0 217.557 0.433752 217.557 0.970777C217.557 1.5078 217.123 1.94155 216.586 1.94155ZM204.772 1.94155H198.864C198.327 1.94155 197.894 1.5078 197.894 0.970777C197.894 0.433752 198.327 0 198.864 0H204.772C205.309 0 205.742 0.433752 205.742 0.970777C205.742 1.5078 205.309 1.94155 204.772 1.94155ZM192.957 1.94155H187.05C186.513 1.94155 186.079 1.5078 186.079 0.970777C186.079 0.433752 186.513 0 187.05 0H192.957C193.494 0 193.928 0.433752 193.928 0.970777C193.928 1.5078 193.494 1.94155 192.957 1.94155ZM181.142 1.94155H175.235C174.698 1.94155 174.264 1.5078 174.264 0.970777C174.264 0.433752 174.698 0 175.235 0H181.142C181.68 0 182.113 0.433752 182.113 0.970777C182.113 1.5078 181.68 1.94155 181.142 1.94155ZM169.328 1.94155H163.421C162.884 1.94155 162.45 1.5078 162.45 0.970777C162.45 0.433752 162.884 0 163.421 0H169.328C169.865 0 170.299 0.433752 170.299 0.970777C170.299 1.5078 169.865 1.94155 169.328 1.94155ZM157.513 1.94155H151.606C151.069 1.94155 150.635 1.5078 150.635 0.970777C150.635 0.433752 151.069 0 151.606 0H157.513C158.05 0 158.484 0.433752 158.484 0.970777C158.484 1.5078 158.05 1.94155 157.513 1.94155ZM145.699 1.94155H139.792C139.254 1.94155 138.821 1.5078 138.821 0.970777C138.821 0.433752 139.254 0 139.792 0H145.699C146.236 0 146.67 0.433752 146.67 0.970777C146.67 1.5078 146.236 1.94155 145.699 1.94155ZM133.884 1.94155H127.977C127.44 1.94155 127.006 1.5078 127.006 0.970777C127.006 0.433752 127.44 0 127.977 0H133.884C134.421 0 134.855 0.433752 134.855 0.970777C134.855 1.5078 134.421 1.94155 133.884 1.94155ZM122.07 1.94155H116.162C115.625 1.94155 115.192 1.5078 115.192 0.970777C115.192 0.433752 115.625 0 116.162 0H122.07C122.607 0 123.04 0.433752 123.04 0.970777C123.04 1.5078 122.607 1.94155 122.07 1.94155ZM110.255 1.94155H104.348C103.811 1.94155 103.377 1.5078 103.377 0.970777C103.377 0.433752 103.811 0 104.348 0H110.255C110.792 0 111.226 0.433752 111.226 0.970777C111.226 1.5078 110.792 1.94155 110.255 1.94155ZM98.4405 1.94155H92.5332C91.9962 1.94155 91.5625 1.5078 91.5625 0.970777C91.5625 0.433752 91.9962 0 92.5332 0H98.4405C98.9775 0 99.4113 0.433752 99.4113 0.970777C99.4113 1.5078 98.9775 1.94155 98.4405 1.94155ZM86.626 1.94155H80.7187C80.1817 1.94155 79.7479 1.5078 79.7479 0.970777C79.7479 0.433752 80.1817 0 80.7187 0H86.626C87.163 0 87.5967 0.433752 87.5967 0.970777C87.5967 1.5078 87.163 1.94155 86.626 1.94155ZM74.8114 1.94155H68.9041C68.3671 1.94155 67.9333 1.5078 67.9333 0.970777C67.9333 0.433752 68.3671 0 68.9041 0H74.8114C75.3484 0 75.7822 0.433752 75.7822 0.970777C75.7822 1.5078 75.3484 1.94155 74.8114 1.94155ZM62.9968 1.94155H57.0895C56.5525 1.94155 56.1188 1.5078 56.1188 0.970777C56.1188 0.433752 56.5525 0 57.0895 0H62.9968C63.5338 0 63.9676 0.433752 63.9676 0.970777C63.9676 1.5078 63.5338 1.94155 62.9968 1.94155ZM51.1823 1.94155H45.275C44.7379 1.94155 44.3042 1.5078 44.3042 0.970777C44.3042 0.433752 44.7379 0 45.275 0H51.1823C51.7193 0 52.153 0.433752 52.153 0.970777C52.153 1.5078 51.7193 1.94155 51.1823 1.94155ZM39.3677 1.94155H33.4604C32.9234 1.94155 32.4896 1.5078 32.4896 0.970777C32.4896 0.433752 32.9234 0 33.4604 0H39.3677C39.9047 0 40.3385 0.433752 40.3385 0.970777C40.3385 1.5078 39.9047 1.94155 39.3677 1.94155ZM27.5531 1.94155H21.6458C21.1088 1.94155 20.6751 1.5078 20.6751 0.970777C20.6751 0.433752 21.1088 0 21.6458 0H27.5531C28.0901 0 28.5239 0.433752 28.5239 0.970777C28.5239 1.5078 28.0901 1.94155 27.5531 1.94155ZM15.7179 1.94155H9.81062C9.27359 1.94155 8.83984 1.5078 8.83984 0.970777C8.83984 0.433752 9.27359 0 9.81062 0H15.7179C16.2549 0 16.6887 0.433752 16.6887 0.970777C16.6887 1.5078 16.2549 1.94155 15.7179 1.94155Z" fill="#470F4C"/>
<path d="M225.426 4.87454C224.889 4.87454 224.455 4.44079 224.455 3.90376V1.94155H222.514C221.977 1.94155 221.543 1.5078 221.543 0.970777C221.543 0.433752 221.977 0 222.514 0H225.447C225.984 0 226.418 0.433752 226.418 0.970777V3.90376C226.418 4.44079 225.984 4.87454 225.447 4.87454H225.426Z" fill="#470F4C"/>
<path d="M225.428 261.242C224.891 261.242 224.457 260.809 224.457 260.272V254.447C224.457 253.91 224.891 253.476 225.428 253.476C225.965 253.476 226.399 253.91 226.399 254.447V260.272C226.399 260.809 225.965 261.242 225.428 261.242ZM225.428 249.593C224.891 249.593 224.457 249.159 224.457 248.622V242.798C224.457 242.261 224.891 241.827 225.428 241.827C225.965 241.827 226.399 242.261 226.399 242.798V248.622C226.399 249.159 225.965 249.593 225.428 249.593ZM225.428 237.944C224.891 237.944 224.457 237.51 224.457 236.973V231.148C224.457 230.611 224.891 230.178 225.428 230.178C225.965 230.178 226.399 230.611 226.399 231.148V236.973C226.399 237.51 225.965 237.944 225.428 237.944ZM225.428 226.294C224.891 226.294 224.457 225.861 224.457 225.324V219.499C224.457 218.962 224.891 218.528 225.428 218.528C225.965 218.528 226.399 218.962 226.399 219.499V225.324C226.399 225.861 225.965 226.294 225.428 226.294ZM225.428 214.645C224.891 214.645 224.457 214.211 224.457 213.674V207.85C224.457 207.313 224.891 206.879 225.428 206.879C225.965 206.879 226.399 207.313 226.399 207.85V213.674C226.399 214.211 225.965 214.645 225.428 214.645ZM225.428 202.996C224.891 202.996 224.457 202.562 224.457 202.025V196.2C224.457 195.663 224.891 195.23 225.428 195.23C225.965 195.23 226.399 195.663 226.399 196.2V202.025C226.399 202.562 225.965 202.996 225.428 202.996ZM225.428 191.346C224.891 191.346 224.457 190.913 224.457 190.376V184.551C224.457 184.014 224.891 183.58 225.428 183.58C225.965 183.58 226.399 184.014 226.399 184.551V190.376C226.399 190.913 225.965 191.346 225.428 191.346ZM225.428 179.697C224.891 179.697 224.457 179.263 224.457 178.726V172.902C224.457 172.365 224.891 171.931 225.428 171.931C225.965 171.931 226.399 172.365 226.399 172.902V178.726C226.399 179.263 225.965 179.697 225.428 179.697ZM225.428 168.048C224.891 168.048 224.457 167.614 224.457 167.077V161.252C224.457 160.715 224.891 160.282 225.428 160.282C225.965 160.282 226.399 160.715 226.399 161.252V167.077C226.399 167.614 225.965 168.048 225.428 168.048ZM225.428 156.398C224.891 156.398 224.457 155.965 224.457 155.428V149.603C224.457 149.066 224.891 148.632 225.428 148.632C225.965 148.632 226.399 149.066 226.399 149.603V155.428C226.399 155.965 225.965 156.398 225.428 156.398ZM225.428 144.749C224.891 144.749 224.457 144.315 224.457 143.778V137.954C224.457 137.417 224.891 136.983 225.428 136.983C225.965 136.983 226.399 137.417 226.399 137.954V143.778C226.399 144.315 225.965 144.749 225.428 144.749ZM225.428 133.1C224.891 133.1 224.457 132.666 224.457 132.129V126.304C224.457 125.767 224.891 125.334 225.428 125.334C225.965 125.334 226.399 125.767 226.399 126.304V132.129C226.399 132.666 225.965 133.1 225.428 133.1ZM225.428 121.45C224.891 121.45 224.457 121.017 224.457 120.48V114.655C224.457 114.118 224.891 113.684 225.428 113.684C225.965 113.684 226.399 114.118 226.399 114.655V120.48C226.399 121.017 225.965 121.45 225.428 121.45ZM225.428 109.801C224.891 109.801 224.457 109.367 224.457 108.83V103.006C224.457 102.469 224.891 102.035 225.428 102.035C225.965 102.035 226.399 102.469 226.399 103.006V108.83C226.399 109.367 225.965 109.801 225.428 109.801ZM225.428 98.1518C224.891 98.1518 224.457 97.7181 224.457 97.1811V91.3564C224.457 90.8194 224.891 90.3856 225.428 90.3856C225.965 90.3856 226.399 90.8194 226.399 91.3564V97.1811C226.399 97.7181 225.965 98.1518 225.428 98.1518ZM225.428 86.5025C224.891 86.5025 224.457 86.0688 224.457 85.5317V79.7071C224.457 79.17 224.891 78.7363 225.428 78.7363C225.965 78.7363 226.399 79.17 226.399 79.7071V85.5317C226.399 86.0688 225.965 86.5025 225.428 86.5025ZM225.428 74.8532C224.891 74.8532 224.457 74.4194 224.457 73.8824V68.0577C224.457 67.5207 224.891 67.087 225.428 67.087C225.965 67.087 226.399 67.5207 226.399 68.0577V73.8824C226.399 74.4194 225.965 74.8532 225.428 74.8532ZM225.428 63.2039C224.891 63.2039 224.457 62.7701 224.457 62.2331V56.4084C224.457 55.8714 224.891 55.4376 225.428 55.4376C225.965 55.4376 226.399 55.8714 226.399 56.4084V62.2331C226.399 62.7701 225.965 63.2039 225.428 63.2039ZM225.428 51.5545C224.891 51.5545 224.457 51.1208 224.457 50.5837V44.7591C224.457 44.2221 224.891 43.7883 225.428 43.7883C225.965 43.7883 226.399 44.2221 226.399 44.7591V50.5837C226.399 51.1208 225.965 51.5545 225.428 51.5545ZM225.428 39.9052C224.891 39.9052 224.457 39.4714 224.457 38.9344V33.1098C224.457 32.5727 224.891 32.139 225.428 32.139C225.965 32.139 226.399 32.5727 226.399 33.1098V38.9344C226.399 39.4714 225.965 39.9052 225.428 39.9052ZM225.428 28.2559C224.891 28.2559 224.457 27.8221 224.457 27.2851V21.4604C224.457 20.9234 224.891 20.4897 225.428 20.4897C225.965 20.4897 226.399 20.9234 226.399 21.4604V27.2851C226.399 27.8221 225.965 28.2559 225.428 28.2559ZM225.428 16.6065C224.891 16.6065 224.457 16.1728 224.457 15.6358V9.81111C224.457 9.27408 224.891 8.84033 225.428 8.84033C225.965 8.84033 226.399 9.27408 226.399 9.81111V15.6358C226.399 16.1728 225.965 16.6065 225.428 16.6065V16.6065Z" fill="#470F4C"/>
<path d="M42.1974 28.2557C16.6887 63.7821 25.5703 144.088 26.0453 164.908C26.541 185.728 23.3809 209.874 23.3809 209.874L63.3067 178.292V147.744C54.4251 135.723 51.8432 119.509 51.4714 106.476C49.5918 107.632 47.3818 108.293 45.0065 108.293C38.2937 108.293 32.8614 103.006 32.8614 96.458C32.8614 89.9104 38.2937 84.6228 45.0065 84.6228C47.6916 84.6228 50.1908 85.4696 52.1944 86.9155C52.2563 86.9568 52.2976 86.9981 52.3596 87.0394C52.5868 85.1805 52.7727 84.1271 52.7727 84.1271L73.3449 66.715L97.6556 23.3606L98.4612 8.28252C98.4612 8.28252 67.7888 -7.43581 42.1768 28.2144L42.1974 28.2557Z" fill="#EBE7E7"/>
<path d="M23.4022 210.865C23.237 210.865 23.0718 210.824 22.9272 210.741C22.576 210.555 22.3902 210.163 22.4315 209.77C22.4521 209.523 25.571 185.46 25.0753 164.949C25.0133 162.12 24.7861 158.257 24.5176 153.383C22.7826 122.628 19.168 58.639 41.4133 27.6981C54.8596 8.96416 69.7723 4.44075 79.8932 3.96569C90.9022 3.44932 98.6065 7.31177 98.9163 7.47701C99.2674 7.64225 99.474 8.01404 99.4533 8.40648L98.6478 23.4639C98.6478 23.6084 98.6065 23.753 98.5239 23.8976L74.2131 67.2521C74.2131 67.2521 74.0892 67.438 73.9859 67.5206L53.6822 84.6848C53.6203 85.1392 53.4757 86.0067 53.3311 87.2047C53.2898 87.5558 53.0626 87.845 52.7528 87.9896C52.4223 88.1135 52.0712 88.0722 51.782 87.8656C51.782 87.8656 51.6374 87.7417 51.6167 87.7417C49.6958 86.3578 47.4032 85.6349 44.9865 85.6349C38.8314 85.6349 33.8123 90.5094 33.8123 96.4787C33.8123 102.448 38.8314 107.322 44.9865 107.322C47.0933 107.322 49.1382 106.744 50.9351 105.649C51.2243 105.464 51.5961 105.464 51.9059 105.629C52.2157 105.794 52.4016 106.104 52.4223 106.455C52.7734 118.311 55.0661 135 64.0716 147.186C64.1955 147.352 64.2575 147.558 64.2575 147.765V178.313C64.2575 178.602 64.1129 178.891 63.8857 179.077L23.9599 210.659C23.774 210.803 23.5675 210.865 23.3609 210.865H23.4022ZM42.1981 28.2558L42.983 28.8341C21.1509 59.2174 24.7448 122.752 26.4592 153.28C26.7277 158.175 26.9549 162.037 27.0168 164.908C27.4093 181.804 25.4058 201.054 24.6415 207.664L62.3366 177.838V148.095C53.579 136.074 51.0591 120.025 50.5427 108.087C48.8077 108.872 46.9074 109.285 45.0072 109.285C37.778 109.285 31.8707 103.543 31.8707 96.4787C31.8707 89.4147 37.7574 83.6727 45.0072 83.6727C47.3619 83.6727 49.6132 84.2717 51.6167 85.4077C51.7407 84.4989 51.8233 84.0032 51.8233 84.0032C51.8646 83.776 51.9885 83.5694 52.1538 83.4248L72.6021 66.1367L96.7062 23.1334L97.4705 8.94351C95.5289 8.09666 88.7541 5.47349 79.8932 5.90724C66.0132 6.60951 53.2485 14.541 43.0037 28.8341L42.2188 28.2558H42.1981Z" fill="#470F4C"/>
<path d="M79.7067 100.444C79.7067 102.324 78.1783 103.852 76.2987 103.852C74.4191 103.852 72.8906 102.324 72.8906 100.444C72.8906 98.5646 74.4191 97.0361 76.2987 97.0361C78.1783 97.0361 79.7067 98.5646 79.7067 100.444Z" fill="#470F4C"/>
<path d="M76.2987 104.823C73.8821 104.823 71.9199 102.861 71.9199 100.444C71.9199 98.0276 73.8821 96.0654 76.2987 96.0654C78.7154 96.0654 80.6776 98.0276 80.6776 100.444C80.6776 102.861 78.7154 104.823 76.2987 104.823ZM76.2987 98.0276C74.9562 98.0276 73.8821 99.1224 73.8821 100.444C73.8821 101.766 74.9768 102.861 76.2987 102.861C77.6207 102.861 78.7154 101.766 78.7154 100.444C78.7154 99.1224 77.6207 98.0276 76.2987 98.0276Z" fill="#470F4C"/>
<path d="M105.795 193.474C77.9312 193.474 62.8531 179.181 62.6466 178.995C62.4607 178.809 62.3574 178.561 62.3574 178.293V148.797C62.3574 148.26 62.7912 147.827 63.3282 147.827C63.8652 147.827 64.299 148.26 64.299 148.797V177.859C67.2113 180.42 91.4188 200.166 133.348 187.071C133.864 186.906 134.401 187.195 134.567 187.711C134.732 188.228 134.443 188.765 133.926 188.93C123.454 192.193 114.056 193.453 105.774 193.453L105.795 193.474Z" fill="#470F4C"/>
<path d="M3.13973 269.917C2.66467 269.917 2.25157 269.566 2.16896 269.091C2.10699 268.699 -3.8416 230.177 22.8031 209.089C23.2369 208.758 23.8359 208.82 24.1664 209.254C24.4968 209.667 24.4349 210.287 24.0011 210.617C0.413295 229.33 3.30497 262.358 3.98658 267.976L125.54 267.728C126.077 267.728 126.511 268.162 126.511 268.699C126.511 269.236 126.077 269.669 125.54 269.669L3.13973 269.917V269.917Z" fill="#470F4C"/>
<path d="M148.695 117.175C148.695 117.175 147.518 128.659 145.308 141.857C144.13 148.839 142.664 156.316 140.95 162.822C140.185 165.672 139.38 168.316 138.533 170.671C132.006 188.517 123.31 222.886 123.31 268.719H185.523C185.523 268.719 183.581 222.659 192.318 200.558L205.93 209.894C205.93 209.894 193.289 179.243 192.318 169.122C191.347 159.022 187.464 111.391 177.261 74.9357C167.016 38.4593 142.065 -9.33603 98.4833 8.32386L97.6777 23.4019L148.881 86.585C148.881 86.585 150.286 112.28 148.695 117.175V117.175Z" fill="#EBE7E7"/>
<path d="M185.481 269.69H123.268C122.731 269.69 122.298 269.256 122.298 268.719C122.298 217.661 132.997 182.919 137.582 170.34C138.388 168.13 139.193 165.528 139.978 162.574C141.486 156.894 142.952 149.871 144.316 141.713C146.505 128.7 147.682 117.216 147.703 117.092C147.703 117.03 147.724 116.948 147.744 116.886C148.984 113.064 148.302 94.3099 147.91 86.9568L96.9128 24.0215C96.7682 23.8356 96.6856 23.5877 96.7063 23.3605L97.5118 8.30317C97.5325 7.93138 97.7597 7.6009 98.1108 7.45632C111.082 2.18934 123.351 2.31327 134.546 7.80745C160.592 20.5928 173.728 58.8249 178.169 74.6878C187.691 108.686 191.698 152.123 193.02 166.395L193.268 169.039C194.218 178.891 206.693 209.213 206.817 209.523C206.982 209.915 206.858 210.39 206.528 210.659C206.198 210.927 205.722 210.948 205.371 210.7L192.793 202.066C184.717 224.146 186.472 268.224 186.493 268.678C186.493 268.947 186.41 269.194 186.224 269.401C186.038 269.587 185.791 269.711 185.522 269.711L185.481 269.69ZM124.239 267.749H184.469C184.221 260.685 183.271 220.697 191.388 200.207C191.491 199.939 191.719 199.712 192.008 199.629C192.297 199.546 192.607 199.588 192.855 199.753L203.781 207.251C200.559 199.216 192.132 177.57 191.326 169.225L191.078 166.581C189.756 152.35 185.77 109.037 176.289 75.2042C171.931 59.6098 159.022 21.9973 133.699 9.56311C123.186 4.39941 111.66 4.21351 99.4327 9.02609L98.6685 23.092L149.624 85.986C149.748 86.1512 149.83 86.3371 149.83 86.5437C149.892 87.5971 151.214 112.156 149.624 117.381C149.5 118.538 148.323 129.588 146.237 142.023C144.853 150.243 143.386 157.328 141.858 163.07C141.052 166.085 140.226 168.75 139.4 171.001C134.876 183.394 124.363 217.516 124.239 267.728V267.749Z" fill="#470F4C"/>
<path d="M100.92 164.846C82.4545 164.846 70.7226 157.741 63.3281 147.744V155.366C63.3281 155.366 90.386 180.214 140.371 164.846L140.928 162.822C142.663 156.316 144.13 148.859 145.287 141.857C147.063 131.262 148.178 121.781 148.55 118.456C146.03 140.184 135.558 164.846 100.92 164.846V164.846Z" fill="#470F4C"/>
<path d="M108.872 170.816C98.0696 170.816 89.312 168.936 82.8057 166.808C69.7519 162.492 62.9564 156.357 62.6672 156.089C62.4607 155.903 62.3574 155.634 62.3574 155.366V147.744C62.3574 147.331 62.6259 146.959 63.0184 146.815C63.4108 146.67 63.8652 146.815 64.1131 147.166C72.3131 158.257 84.6853 163.875 100.92 163.875C135.124 163.875 145.183 139.11 147.579 118.352C147.641 117.815 148.116 117.423 148.653 117.505C149.19 117.567 149.583 118.042 149.521 118.579C149.128 122.132 148.013 131.53 146.257 142.043C144.873 150.264 143.407 157.349 141.879 163.091L141.321 165.115C141.238 165.445 140.99 165.693 140.66 165.796C128.68 169.473 118.043 170.836 108.872 170.836V170.816ZM64.3196 154.932C67.4798 157.555 93.918 177.921 139.586 164.082L139.999 162.574C141.507 156.894 142.973 149.872 144.336 141.713C144.584 140.226 144.812 138.78 145.039 137.355C139.008 152.722 126.387 165.838 100.92 165.838C85.1604 165.838 72.8501 160.695 64.299 150.574V154.932H64.3196Z" fill="#470F4C"/>
<path d="M148.653 118.249C148.653 118.249 148.591 118.249 148.571 118.249C148.034 118.208 147.641 117.815 147.683 117.278V117.092C147.745 116.555 148.22 116.163 148.757 116.225C149.294 116.287 149.686 116.762 149.624 117.299C149.562 117.815 149.129 118.27 148.633 118.27L148.653 118.249Z" fill="#470F4C"/>
<path d="M63.3272 93.8762C63.1 93.8762 62.8728 93.7936 62.7075 93.649C62.2944 93.2978 62.2531 92.6782 62.5836 92.2651C62.8521 91.9553 69.2138 84.6021 83.4863 85.5936C84.0233 85.6349 84.4364 86.0893 84.3951 86.6263C84.3538 87.1633 83.8787 87.5558 83.3624 87.5351C70.0813 86.6057 64.1534 93.4424 64.0914 93.5044C63.9055 93.7316 63.6163 93.8555 63.3478 93.8555L63.3272 93.8762Z" fill="#470F4C"/>
<path d="M104.204 122.339C99.846 122.339 95.8597 120.624 95.6531 120.542C95.3846 120.418 95.1781 120.17 95.0954 119.881C93.7735 114.614 95.0128 91.6454 95.0748 90.6746C95.0954 90.1376 95.5705 89.6832 96.1075 89.7452C96.6445 89.7658 97.0576 90.2409 97.037 90.7779C97.037 91.0051 95.839 113.085 96.9131 118.93C98.3795 119.488 103.151 121.079 107.158 120.046C107.674 119.901 108.211 120.232 108.356 120.748C108.5 121.264 108.17 121.801 107.654 121.946C106.518 122.235 105.361 122.359 104.225 122.359L104.204 122.339Z" fill="#470F4C"/>
<path d="M79.707 131.674C79.707 131.674 85.036 142.663 105.794 138.449C105.794 138.449 102.634 132.769 98.5029 132.769C96.3135 132.769 92.7609 136.177 92.7609 136.177C92.7609 136.177 93.1533 131.778 89.6007 131.551C86.0274 131.323 82.4954 133.988 79.7277 131.674H79.707Z" fill="#470F4C"/>
<path d="M96.8506 140.37C83.0532 140.37 79.0255 132.48 78.819 132.088C78.6124 131.674 78.7364 131.179 79.0875 130.89C79.4593 130.6 79.955 130.621 80.3061 130.89C81.5867 131.964 83.0532 131.674 85.3253 131.117C86.6885 130.786 88.1137 130.435 89.6008 130.538C90.7988 130.621 91.7696 131.075 92.4718 131.902C93.0502 132.583 93.36 133.389 93.5252 134.153C94.8678 133.079 96.8713 131.757 98.4617 131.757C103.109 131.757 106.455 137.685 106.6 137.933C106.744 138.201 106.765 138.532 106.641 138.821C106.517 139.11 106.249 139.317 105.959 139.379C102.531 140.081 99.4945 140.37 96.83 140.37H96.8506ZM82.4129 133.575C85.16 136.26 91.4597 139.978 104.162 137.747C103.068 136.218 100.92 133.74 98.4824 133.74C97.1811 133.74 94.6819 135.661 93.4013 136.879C93.1121 137.169 92.6784 137.231 92.3066 137.045C91.9348 136.879 91.7282 136.487 91.7489 136.074C91.7902 135.558 91.7489 134.05 91.0053 133.182C90.6542 132.769 90.1585 132.542 89.4975 132.501C88.2995 132.418 87.0396 132.728 85.8003 133.038C84.7263 133.306 83.5696 133.575 82.4129 133.575Z" fill="#470F4C"/>
<path d="M119.695 100.444C119.695 102.324 121.224 103.852 123.103 103.852C124.983 103.852 126.511 102.324 126.511 100.444C126.511 98.5646 124.983 97.0361 123.103 97.0361C121.224 97.0361 119.695 98.5646 119.695 100.444Z" fill="#470F4C"/>
<path d="M123.103 104.823C120.687 104.823 118.725 102.861 118.725 100.444C118.725 98.0276 120.687 96.0654 123.103 96.0654C125.52 96.0654 127.482 98.0276 127.482 100.444C127.482 102.861 125.52 104.823 123.103 104.823ZM123.103 98.0276C121.761 98.0276 120.687 99.1224 120.687 100.444C120.687 101.766 121.782 102.861 123.103 102.861C124.425 102.861 125.52 101.766 125.52 100.444C125.52 99.1224 124.425 98.0276 123.103 98.0276Z" fill="#470F4C"/>
<path d="M136.074 93.8763C135.805 93.8763 135.516 93.7523 135.33 93.5251C135.268 93.4632 129.299 86.6057 116.059 87.5559C115.522 87.5765 115.047 87.1841 115.026 86.6471C114.985 86.11 115.398 85.635 115.935 85.6143C130.187 84.6229 136.569 91.9554 136.838 92.2858C137.189 92.6989 137.127 93.3186 136.714 93.649C136.528 93.8143 136.301 93.8763 136.074 93.8763V93.8763Z" fill="#470F4C"/>
<path d="M226.708 269.917L185.481 269.669C184.944 269.669 184.51 269.236 184.51 268.678C184.51 268.141 184.944 267.707 185.481 267.707L225.799 267.934C226.171 262.213 227.265 229.867 205.247 210.576C204.834 210.225 204.793 209.605 205.165 209.192C205.516 208.779 206.135 208.738 206.548 209.109C231.438 230.9 227.74 268.637 227.699 269.008C227.637 269.504 227.224 269.876 226.728 269.876L226.708 269.917Z" fill="#470F4C"/>
<path d="M103.336 269.69C102.799 269.69 102.365 269.256 102.365 268.719V195.064L77.0215 222.866C76.815 223.093 76.5465 223.217 76.2366 223.176C75.9475 223.176 75.679 223.01 75.4931 222.783C63.472 206.197 62.3772 179.47 62.3359 178.334C62.3359 177.797 62.7284 177.342 63.2654 177.322C63.8024 177.342 64.2568 177.714 64.2775 178.251C64.2775 178.52 65.3515 204.462 76.3812 220.635L102.613 191.883C102.881 191.594 103.315 191.491 103.687 191.636C104.059 191.78 104.307 192.152 104.307 192.544V268.719C104.307 269.256 103.873 269.69 103.336 269.69V269.69Z" fill="#470F4C"/>
<path d="M126.511 222.287C126.222 222.287 125.953 222.163 125.747 221.915L102.593 193.143C102.262 192.73 102.324 192.111 102.737 191.78C103.15 191.45 103.77 191.512 104.101 191.925L127.255 220.697C127.585 221.11 127.523 221.73 127.11 222.06C126.924 222.205 126.718 222.267 126.49 222.267L126.511 222.287Z" fill="#470F4C"/>
<path d="M25.4684 85.6142C25.4684 85.6142 25.3238 85.6141 25.2412 85.5935C24.7248 85.4696 24.3943 84.9325 24.5183 84.4162C33.8129 45.9362 48.23 21.9766 67.4184 13.219C82.4344 6.36155 95.0752 11.4013 97.657 12.5993C101.788 10.5132 132.213 -2.60265 164.95 40.9791C165.281 41.4128 165.178 42.0118 164.765 42.3423C164.331 42.6727 163.732 42.5695 163.401 42.1564C145.618 18.4859 128.825 12.2482 117.878 11.1741C106.043 10.0175 98.2767 14.4789 98.1941 14.5409C97.9049 14.7061 97.5538 14.7268 97.2439 14.5615C97.12 14.4996 83.8183 7.8487 68.2032 15.0159C49.6139 23.5464 35.5686 47.0516 26.4392 84.8912C26.3359 85.3456 25.9228 85.6348 25.489 85.6348L25.4684 85.6142Z" fill="#470F4C"/>
<path d="M185.481 117.939C185.027 117.939 184.613 117.629 184.531 117.154C184.428 116.658 174.245 67.2314 156.502 42.0945C133.968 10.1828 107.86 15.2845 107.592 15.3465C107.075 15.4704 106.538 15.1193 106.435 14.6029C106.332 14.0659 106.662 13.5495 107.178 13.4462C107.447 13.3843 134.773 7.97269 158.072 40.9791C176.062 66.4465 186.328 116.266 186.431 116.762C186.534 117.299 186.204 117.815 185.667 117.918C185.605 117.918 185.543 117.918 185.481 117.918V117.939Z" fill="#470F4C"/>
<path d="M164.165 270C163.628 270 163.194 269.545 163.194 269.008C163.194 268.678 163.69 235.382 168.978 206.755C177.198 162.347 176.227 121.347 166.086 84.9119C153.259 38.8103 131.675 26.7479 131.448 26.6446C130.973 26.3968 130.787 25.7978 131.055 25.3227C131.303 24.8477 131.902 24.6618 132.377 24.9303C133.286 25.426 154.891 37.3852 167.965 84.3956C178.19 121.12 179.181 162.409 170.898 207.106C165.631 235.568 165.156 268.699 165.136 269.029C165.136 269.566 164.702 270 164.165 270Z" fill="#470F4C"/>
<path d="M175.423 269.69C174.906 269.69 174.472 269.277 174.452 268.74C174.452 268.554 173.915 248.891 181.412 211.939C188.869 175.215 186.514 126.862 186.494 126.366C186.473 125.829 186.886 125.375 187.423 125.334C187.96 125.313 188.414 125.726 188.456 126.263C188.476 126.759 190.852 175.36 183.354 212.311C175.898 249.015 176.435 268.472 176.435 268.657C176.435 269.194 176.022 269.649 175.485 269.669H175.443L175.423 269.69Z" fill="#470F4C"/>
<path d="M192.297 201.529C192.297 201.529 192.132 201.529 192.049 201.488C191.533 201.343 191.223 200.806 191.368 200.29C191.388 200.207 193.764 191.099 191.739 171.724C191.677 171.187 192.07 170.712 192.607 170.65C193.123 170.588 193.619 170.981 193.681 171.518C195.767 191.326 193.35 200.414 193.268 200.786C193.144 201.219 192.751 201.509 192.318 201.509L192.297 201.529Z" fill="#470F4C"/>
<path d="M149.314 269.69H149.272C148.735 269.669 148.322 269.215 148.343 268.678C148.343 268.182 150.408 218.838 158.237 195.167C165.941 171.807 172.096 94.9502 148.488 58.3292C148.198 57.8748 148.322 57.2758 148.777 56.9866C149.231 56.6974 149.83 56.8214 150.119 57.2758C174.038 94.3925 167.862 172.179 160.075 195.787C152.35 219.21 150.305 268.265 150.285 268.761C150.264 269.277 149.83 269.69 149.314 269.69V269.69Z" fill="#470F4C"/>
<path d="M136.074 269.69C135.537 269.69 135.104 269.256 135.104 268.719C135.104 268.347 135.227 230.632 145.514 197.233C154.478 168.151 161.253 119.405 150.842 77.7446C150.719 77.2283 151.028 76.6912 151.545 76.5673C152.061 76.4434 152.598 76.7532 152.722 77.2696C163.235 119.302 156.399 168.461 147.372 197.791C137.169 230.9 137.045 268.327 137.045 268.699C137.045 269.236 136.611 269.669 136.074 269.669V269.69Z" fill="#470F4C"/>
<path d="M49.3249 190.334C49.3249 190.334 49.2423 190.334 49.2216 190.334C48.6846 190.272 48.2921 189.797 48.3541 189.26C48.4161 188.702 54.5919 133.885 50.4609 106.186C50.3783 105.649 50.7501 105.154 51.2871 105.071C51.8241 105.009 52.3198 105.36 52.4024 105.897C56.5747 133.864 50.3783 188.93 50.3163 189.487C50.2543 189.983 49.8412 190.355 49.3455 190.355L49.3249 190.334Z" fill="#470F4C"/>
<path d="M39.0382 198.493C39.0382 198.493 38.9762 198.493 38.9556 198.493C38.4186 198.452 38.0261 197.977 38.0674 197.44C38.1294 196.717 44.1813 124.445 44.0573 108.314C44.0573 107.777 44.4911 107.343 45.0281 107.323C45.5651 107.323 45.9989 107.756 45.9989 108.293C46.1228 124.528 40.071 196.882 40.009 197.605C39.9677 198.121 39.5339 198.493 39.0382 198.493Z" fill="#470F4C"/>
<path d="M30.6526 205.123C30.6526 205.123 30.5907 205.123 30.5493 205.123C30.0123 205.082 29.6199 204.586 29.6612 204.07C29.7438 203.285 37.1589 124.321 34.5357 103.997C34.4738 103.46 34.8455 102.964 35.3826 102.902C35.9196 102.84 36.4153 103.212 36.4773 103.749C39.1211 124.301 31.9126 200.992 31.6027 204.256C31.5614 204.751 31.1277 205.144 30.632 205.144L30.6526 205.123Z" fill="#470F4C"/>
<path d="M38.2949 87.597C38.2949 87.597 38.2742 87.597 38.2536 87.597C37.7165 87.597 37.2828 87.1219 37.3034 86.5849C37.3448 85.6761 38.1709 64.0505 46.3296 54.384C46.6807 53.9709 47.3004 53.909 47.7135 54.2601C48.1266 54.6112 48.1679 55.2309 47.8374 55.644C40.1125 64.7941 39.2863 86.4403 39.2657 86.6675C39.2657 87.2046 38.8112 87.6176 38.2949 87.6176V87.597Z" fill="#470F4C"/>
<path d="M50.6879 85.2837C50.6879 85.2837 93.1336 75.5552 99.6192 50.2944C99.6192 50.2944 113.871 87.8862 148.881 86.5849C148.881 86.5849 149.852 76.8565 148.881 69.0903C147.91 61.3034 136.24 23.0713 97.6777 23.4018C59.1151 23.7323 44.5328 51.2652 50.6879 85.2837V85.2837Z" fill="#EBE7E7"/>
<path d="M147.125 87.5971C118.311 87.5971 103.667 61.3448 99.7837 53.0828C91.2532 76.7533 52.608 85.8414 50.9143 86.2338C50.6458 86.2958 50.3773 86.2338 50.1501 86.0893C49.9229 85.9447 49.7783 85.7175 49.737 85.4489C46.267 66.2606 49.4685 49.5302 58.7632 38.3146C67.2523 28.0492 80.7193 22.555 97.6769 22.4104C97.8421 22.4104 98.0074 22.4104 98.1726 22.4104C136.239 22.4104 148.612 59.0934 149.851 68.9664C150.822 76.7533 149.892 86.2751 149.851 86.6882C149.81 87.1633 149.397 87.5557 148.922 87.5557C148.323 87.5764 147.724 87.5971 147.145 87.5971H147.125ZM99.6184 49.3236C100.032 49.3236 100.383 49.5715 100.527 49.9433C100.672 50.3151 114.49 85.6348 147.125 85.6348C147.393 85.6348 147.682 85.6348 147.971 85.6348C148.178 83.115 148.674 75.4727 147.889 69.2142C147.827 68.7598 139.689 24.3726 98.152 24.3726C97.9867 24.3726 97.8215 24.3726 97.6562 24.3726C81.277 24.5172 68.347 29.7635 60.2297 39.5746C51.472 50.1292 48.3738 65.9095 51.4514 84.0857C57.8544 82.4127 92.9469 72.3331 98.6477 50.0466C98.7509 49.6335 99.1227 49.3443 99.5358 49.3236C99.5358 49.3236 99.5771 49.3236 99.5978 49.3236H99.6184Z" fill="#470F4C"/>
<path d="M49.7362 79.5004C49.3231 79.5004 48.9306 79.2319 48.8067 78.7982C48.6621 78.2818 48.9513 77.7448 49.4677 77.5795C90.5088 65.6204 95.0529 29.8049 95.0942 29.4538C95.1561 28.9168 95.6312 28.5243 96.1682 28.5863C96.7053 28.6482 97.0977 29.1233 97.0357 29.6603C96.9944 30.0321 92.2851 67.1282 50.0253 79.4385C49.9427 79.4591 49.8394 79.4798 49.7568 79.4798L49.7362 79.5004Z" fill="#470F4C"/>
<path d="M49.3655 73.965C49.035 73.965 48.7045 73.7997 48.5186 73.4899C48.2501 73.0355 48.3947 72.4365 48.8698 72.1473C49.2416 71.9408 85.2429 50.3771 90.9024 28.0286C91.0263 27.5122 91.5633 27.1818 92.0797 27.3263C92.5961 27.4503 92.9265 27.9873 92.782 28.5037C86.916 51.6371 51.369 72.9322 49.8612 73.8204C49.696 73.903 49.5307 73.965 49.3655 73.965V73.965Z" fill="#470F4C"/>
<path d="M49.7376 64.4638C49.5104 64.4638 49.2626 64.3811 49.0767 64.2159C48.6842 63.8441 48.6429 63.2451 49.0147 62.832C49.2006 62.6255 68.6575 41.3304 84.3965 27.5329C84.8096 27.1818 85.4085 27.2231 85.7803 27.6155C86.1315 28.0286 86.0902 28.6276 85.6977 28.9994C70.0413 42.7349 50.6671 63.9267 50.4812 64.1539C50.2953 64.3605 50.0268 64.4638 49.7583 64.4638H49.7376Z" fill="#470F4C"/>
<path d="M149.313 79.5003C125.209 79.2112 100.713 43.6229 99.6799 42.0944C99.3701 41.64 99.494 41.041 99.9278 40.7312C100.362 40.4214 100.981 40.5453 101.291 40.979C101.539 41.3508 126.242 77.2283 149.334 77.5174C149.871 77.5174 150.305 77.9719 150.305 78.5089C150.305 79.0459 149.871 79.4797 149.334 79.4797L149.313 79.5003Z" fill="#470F4C"/>
<path d="M99.6179 51.2653C99.494 51.2653 99.3907 51.2653 99.2668 51.2033C98.7711 51.0174 98.5026 50.4391 98.7091 49.9433C100.671 44.7796 98.3787 23.7324 98.358 23.5052C98.296 22.9681 98.6885 22.4931 99.2255 22.4311C99.7625 22.3898 100.238 22.7616 100.3 23.2986C100.403 24.1868 102.675 45.0275 100.547 50.625C100.403 51.0174 100.031 51.2653 99.6386 51.2653H99.6179Z" fill="#470F4C"/>
<path d="M148.592 68.45C148.592 68.45 148.426 68.45 148.344 68.4087C129.548 63.5342 100.962 33.1302 99.743 31.829C99.3712 31.4365 99.3918 30.8169 99.7843 30.4451C100.177 30.0733 100.796 30.094 101.168 30.4864C101.457 30.7962 130.581 61.7578 148.839 66.5085C149.356 66.653 149.666 67.1694 149.542 67.7064C149.438 68.1402 149.025 68.4294 148.592 68.4294V68.45Z" fill="#470F4C"/>
<path d="M50.6867 85.2837C50.6867 85.2837 42.5487 29.2677 97.6765 28.2557C152.804 27.2436 148.88 86.5849 148.88 86.5849C148.88 86.5849 151.792 81.4005 151.792 77.5174C151.792 73.6343 151.152 13.6733 97.6765 13.6733C44.2011 13.6733 46.1014 62.2535 47.6298 84.9119L50.6867 85.2837Z" fill="#470F4C"/>
<path d="M148.881 87.5558C148.881 87.5558 148.695 87.5558 148.612 87.5144C148.178 87.3905 147.889 86.9774 147.91 86.523C147.91 86.2545 149.521 59.0314 133.575 42.3217C125.024 33.3575 112.962 28.9786 97.698 29.2265C81.9797 29.5157 70.0205 34.3696 62.1097 43.6642C48.209 60.0435 51.6171 84.8913 51.6584 85.1391C51.6997 85.449 51.5964 85.7381 51.3899 85.9653C51.1833 86.1925 50.8735 86.2958 50.5843 86.2545L47.5274 85.8827C47.0523 85.8208 46.7012 85.449 46.6599 84.9739C45.8337 72.581 43.8922 43.5403 59.7757 26.562C68.3888 17.3706 81.1328 12.7026 97.6774 12.7026C120.088 12.7026 136.694 23.4432 145.679 43.7469C152.433 59.0108 152.764 74.5639 152.764 77.5175C152.764 81.6072 149.851 86.8535 149.728 87.06C149.562 87.3699 149.232 87.5558 148.881 87.5558V87.5558ZM48.5601 84.0444L49.5929 84.1684C49.0352 78.7568 47.8166 57.503 60.6432 42.4043C68.9258 32.6552 81.3807 27.5741 97.6774 27.2643C113.54 26.9958 126.078 31.5812 135.021 40.9791C147.621 54.1982 149.686 73.1387 149.913 81.8963C150.409 80.4712 150.822 78.8807 150.822 77.4969C150.822 74.6052 150.492 59.4032 143.903 44.5111C135.125 24.6824 119.592 14.6235 97.698 14.6235C81.7112 14.6235 69.4422 19.085 61.2216 27.8633C46.2055 43.9121 47.672 70.5568 48.5601 84.0031V84.0444Z" fill="#470F4C"/>
<path d="M45.0271 109.264C37.7979 109.264 31.8906 103.522 31.8906 96.4581C31.8906 89.3941 37.7773 83.6521 45.0271 83.6521C47.8362 83.6521 50.5213 84.5196 52.7933 86.1307C53.2271 86.4405 53.3303 87.0601 53.0205 87.4939C52.7107 87.9277 52.0911 88.0309 51.6573 87.7211C49.7364 86.3372 47.4437 85.6143 45.0271 85.6143C38.872 85.6143 33.8528 90.4889 33.8528 96.4581C33.8528 102.427 38.872 107.302 45.0271 107.302C47.1545 107.302 49.1994 106.724 50.9963 105.629C51.4508 105.34 52.0497 105.484 52.3389 105.959C52.6281 106.414 52.4835 107.013 52.0084 107.302C49.9223 108.582 47.5057 109.264 45.0271 109.264V109.264Z" fill="#470F4C"/>
<path d="M48.7251 104.369C44.5941 104.369 41.248 101.085 41.248 97.0569C41.248 93.0292 44.6148 89.7451 48.7251 89.7451C50.0057 89.7451 51.2656 90.0756 52.381 90.6746C52.8561 90.9224 53.0213 91.5214 52.7734 91.9965C52.5256 92.4716 51.9266 92.6368 51.4515 92.3889C50.6253 91.9345 49.6752 91.7073 48.7251 91.7073C45.6682 91.7073 43.1896 94.1033 43.1896 97.0776C43.1896 100.052 45.6682 102.427 48.7251 102.427C49.5306 102.427 50.3155 102.262 51.0384 101.931C51.5342 101.704 52.1125 101.931 52.319 102.427C52.5462 102.923 52.319 103.501 51.8233 103.708C50.8525 104.142 49.7992 104.369 48.7044 104.369H48.7251Z" fill="#470F4C"/>
<path d="M100.921 165.817C85.1403 165.817 72.8094 160.653 64.2583 150.491C53.9515 138.222 51.1218 120.79 50.5848 108.293C49.9858 94.8264 51.8241 84.0859 51.8447 83.9826C51.9273 83.4456 52.4231 83.0944 52.9807 83.1977C53.5178 83.301 53.8689 83.7967 53.7656 84.3337C53.683 84.7468 46.6604 126.552 65.7661 149.252C73.9247 158.96 85.76 163.875 100.921 163.875C116.081 163.875 127.937 158.98 135.91 149.314C154.231 127.11 146.692 86.6884 146.609 86.2959C146.506 85.7589 146.857 85.2632 147.373 85.1599C147.89 85.0566 148.406 85.4078 148.509 85.9241C148.509 86.0274 150.513 96.4375 150.141 109.491C149.79 121.595 147.311 138.553 137.397 150.553C129.032 160.674 116.763 165.817 100.9 165.817H100.921Z" fill="#470F4C"/>
</g>
<defs>
<clipPath id="clip0_186_776">
<rect width="227.905" height="270" fill="white"/>
</clipPath>
</defs>
</svg>
