<svg width="227" height="270" viewBox="0 0 227 270" fill="none" xmlns="http://www.w3.org/2000/svg">
<g clip-path="url(#clip0_186_610)">
<path d="M225.299 269.773H222.368C221.832 269.773 221.398 269.34 221.398 268.803C221.398 268.266 221.832 267.833 222.368 267.833H224.308V265.893C224.308 265.356 224.742 264.923 225.278 264.923C225.815 264.923 226.248 265.356 226.248 265.893V268.824C226.248 269.36 225.815 269.794 225.278 269.794L225.299 269.773Z" fill="#470F4C"/>
<path d="M216.467 269.773H210.565C210.028 269.773 209.595 269.34 209.595 268.803C209.595 268.266 210.028 267.833 210.565 267.833H216.467C217.004 267.833 217.437 268.266 217.437 268.803C217.437 269.34 217.004 269.773 216.467 269.773ZM204.662 269.773H198.76C198.224 269.773 197.79 269.34 197.79 268.803C197.79 268.266 198.224 267.833 198.76 267.833H204.662C205.199 267.833 205.632 268.266 205.632 268.803C205.632 269.34 205.199 269.773 204.662 269.773ZM192.858 269.773H186.955C186.419 269.773 185.986 269.34 185.986 268.803C185.986 268.266 186.419 267.833 186.955 267.833H192.858C193.394 267.833 193.828 268.266 193.828 268.803C193.828 269.34 193.394 269.773 192.858 269.773ZM181.053 269.773H175.151C174.614 269.773 174.181 269.34 174.181 268.803C174.181 268.266 174.614 267.833 175.151 267.833H181.053C181.59 267.833 182.023 268.266 182.023 268.803C182.023 269.34 181.59 269.773 181.053 269.773ZM169.249 269.773H163.346C162.81 269.773 162.376 269.34 162.376 268.803C162.376 268.266 162.81 267.833 163.346 267.833H169.249C169.785 267.833 170.218 268.266 170.218 268.803C170.218 269.34 169.785 269.773 169.249 269.773ZM157.444 269.773H151.542C151.005 269.773 150.572 269.34 150.572 268.803C150.572 268.266 151.005 267.833 151.542 267.833H157.444C157.98 267.833 158.414 268.266 158.414 268.803C158.414 269.34 157.98 269.773 157.444 269.773ZM145.639 269.773H139.737C139.2 269.773 138.767 269.34 138.767 268.803C138.767 268.266 139.2 267.833 139.737 267.833H145.639C146.176 267.833 146.609 268.266 146.609 268.803C146.609 269.34 146.176 269.773 145.639 269.773ZM133.835 269.773H127.932C127.396 269.773 126.962 269.34 126.962 268.803C126.962 268.266 127.396 267.833 127.932 267.833H133.835C134.371 267.833 134.805 268.266 134.805 268.803C134.805 269.34 134.371 269.773 133.835 269.773ZM122.03 269.773H116.128C115.591 269.773 115.158 269.34 115.158 268.803C115.158 268.266 115.591 267.833 116.128 267.833H122.03C122.567 267.833 123 268.266 123 268.803C123 269.34 122.567 269.773 122.03 269.773ZM110.225 269.773H104.323C103.786 269.773 103.353 269.34 103.353 268.803C103.353 268.266 103.786 267.833 104.323 267.833H110.225C110.762 267.833 111.195 268.266 111.195 268.803C111.195 269.34 110.762 269.773 110.225 269.773ZM98.4207 269.773H92.5184C91.9818 269.773 91.5484 269.34 91.5484 268.803C91.5484 268.266 91.9818 267.833 92.5184 267.833H98.4207C98.9573 267.833 99.3907 268.266 99.3907 268.803C99.3907 269.34 98.9573 269.773 98.4207 269.773ZM86.6161 269.773H80.7138C80.1772 269.773 79.7438 269.34 79.7438 268.803C79.7438 268.266 80.1772 267.833 80.7138 267.833H86.6161C87.1527 267.833 87.586 268.266 87.586 268.803C87.586 269.34 87.1527 269.773 86.6161 269.773ZM74.8115 269.773H68.9091C68.3726 269.773 67.9392 269.34 67.9392 268.803C67.9392 268.266 68.3726 267.833 68.9091 267.833H74.8115C75.348 267.833 75.7814 268.266 75.7814 268.803C75.7814 269.34 75.348 269.773 74.8115 269.773ZM63.0068 269.773H57.1045C56.5679 269.773 56.1345 269.34 56.1345 268.803C56.1345 268.266 56.5679 267.833 57.1045 267.833H63.0068C63.5434 267.833 63.9768 268.266 63.9768 268.803C63.9768 269.34 63.5434 269.773 63.0068 269.773ZM51.2022 269.773H45.2999C44.7633 269.773 44.3299 269.34 44.3299 268.803C44.3299 268.266 44.7633 267.833 45.2999 267.833H51.2022C51.7388 267.833 52.1722 268.266 52.1722 268.803C52.1722 269.34 51.7388 269.773 51.2022 269.773ZM39.3976 269.773H33.4952C32.9587 269.773 32.5253 269.34 32.5253 268.803C32.5253 268.266 32.9587 267.833 33.4952 267.833H39.3976C39.9341 267.833 40.3675 268.266 40.3675 268.803C40.3675 269.34 39.9341 269.773 39.3976 269.773ZM27.5929 269.773H21.6906C21.154 269.773 20.7206 269.34 20.7206 268.803C20.7206 268.266 21.154 267.833 21.6906 267.833H27.5929C28.1295 267.833 28.5629 268.266 28.5629 268.803C28.5629 269.34 28.1295 269.773 27.5929 269.773ZM15.7883 269.773H9.88598C9.3494 269.773 8.91602 269.34 8.91602 268.803C8.91602 268.266 9.3494 267.833 9.88598 267.833H15.7883C16.3249 267.833 16.7583 268.266 16.7583 268.803C16.7583 269.34 16.3249 269.773 15.7883 269.773Z" fill="#470F4C"/>
<path d="M3.96298 269.773H1.03246C0.495887 269.773 0.0625 269.34 0.0625 268.803V265.873C0.0625 265.336 0.495887 264.903 1.03246 264.903C1.56904 264.903 2.00242 265.336 2.00242 265.873V267.812H3.94234C4.47892 267.812 4.91231 268.246 4.91231 268.782C4.91231 269.319 4.47892 269.752 3.94234 269.752L3.96298 269.773Z" fill="#470F4C"/>
<path d="M1.03246 261.023C0.495887 261.023 0.0625 260.589 0.0625 260.053V254.233C0.0625 253.696 0.495887 253.263 1.03246 253.263C1.56904 253.263 2.00242 253.696 2.00242 254.233V260.053C2.00242 260.589 1.56904 261.023 1.03246 261.023ZM1.03246 249.383C0.495887 249.383 0.0625 248.95 0.0625 248.413V242.593C0.0625 242.057 0.495887 241.623 1.03246 241.623C1.56904 241.623 2.00242 242.057 2.00242 242.593V248.413C2.00242 248.95 1.56904 249.383 1.03246 249.383ZM1.03246 237.744C0.495887 237.744 0.0625 237.31 0.0625 236.774V230.954C0.0625 230.417 0.495887 229.984 1.03246 229.984C1.56904 229.984 2.00242 230.417 2.00242 230.954V236.774C2.00242 237.31 1.56904 237.744 1.03246 237.744ZM1.03246 226.104C0.495887 226.104 0.0625 225.671 0.0625 225.134V219.314C0.0625 218.778 0.495887 218.344 1.03246 218.344C1.56904 218.344 2.00242 218.778 2.00242 219.314V225.134C2.00242 225.671 1.56904 226.104 1.03246 226.104ZM1.03246 214.464C0.495887 214.464 0.0625 214.031 0.0625 213.495V207.675C0.0625 207.138 0.495887 206.705 1.03246 206.705C1.56904 206.705 2.00242 207.138 2.00242 207.675V213.495C2.00242 214.031 1.56904 214.464 1.03246 214.464ZM1.03246 202.825C0.495887 202.825 0.0625 202.392 0.0625 201.855V196.035C0.0625 195.499 0.495887 195.065 1.03246 195.065C1.56904 195.065 2.00242 195.499 2.00242 196.035V201.855C2.00242 202.392 1.56904 202.825 1.03246 202.825ZM1.03246 191.185C0.495887 191.185 0.0625 190.752 0.0625 190.215V184.396C0.0625 183.859 0.495887 183.426 1.03246 183.426C1.56904 183.426 2.00242 183.859 2.00242 184.396V190.215C2.00242 190.752 1.56904 191.185 1.03246 191.185ZM1.03246 179.546C0.495887 179.546 0.0625 179.113 0.0625 178.576V172.756C0.0625 172.22 0.495887 171.786 1.03246 171.786C1.56904 171.786 2.00242 172.22 2.00242 172.756V178.576C2.00242 179.113 1.56904 179.546 1.03246 179.546ZM1.03246 167.906C0.495887 167.906 0.0625 167.473 0.0625 166.936V161.117C0.0625 160.58 0.495887 160.147 1.03246 160.147C1.56904 160.147 2.00242 160.58 2.00242 161.117V166.936C2.00242 167.473 1.56904 167.906 1.03246 167.906ZM1.03246 156.267C0.495887 156.267 0.0625 155.833 0.0625 155.297V149.477C0.0625 148.941 0.495887 148.507 1.03246 148.507C1.56904 148.507 2.00242 148.941 2.00242 149.477V155.297C2.00242 155.833 1.56904 156.267 1.03246 156.267ZM1.03246 144.627C0.495887 144.627 0.0625 144.194 0.0625 143.657V137.838C0.0625 137.301 0.495887 136.868 1.03246 136.868C1.56904 136.868 2.00242 137.301 2.00242 137.838V143.657C2.00242 144.194 1.56904 144.627 1.03246 144.627ZM1.03246 132.988C0.495887 132.988 0.0625 132.554 0.0625 132.018V126.198C0.0625 125.661 0.495887 125.228 1.03246 125.228C1.56904 125.228 2.00242 125.661 2.00242 126.198V132.018C2.00242 132.554 1.56904 132.988 1.03246 132.988ZM1.03246 121.348C0.495887 121.348 0.0625 120.915 0.0625 120.378V114.559C0.0625 114.022 0.495887 113.589 1.03246 113.589C1.56904 113.589 2.00242 114.022 2.00242 114.559V120.378C2.00242 120.915 1.56904 121.348 1.03246 121.348ZM1.03246 109.709C0.495887 109.709 0.0625 109.275 0.0625 108.739V102.919C0.0625 102.382 0.495887 101.949 1.03246 101.949C1.56904 101.949 2.00242 102.382 2.00242 102.919V108.739C2.00242 109.275 1.56904 109.709 1.03246 109.709ZM1.03246 98.0692C0.495887 98.0692 0.0625 97.6358 0.0625 97.0992V91.2794C0.0625 90.7429 0.495887 90.3095 1.03246 90.3095C1.56904 90.3095 2.00242 90.7429 2.00242 91.2794V97.0992C2.00242 97.6358 1.56904 98.0692 1.03246 98.0692ZM1.03246 86.4296C0.495887 86.4296 0.0625 85.9963 0.0625 85.4597V79.6399C0.0625 79.1033 0.495887 78.67 1.03246 78.67C1.56904 78.67 2.00242 79.1033 2.00242 79.6399V85.4597C2.00242 85.9963 1.56904 86.4296 1.03246 86.4296ZM1.03246 74.7901C0.495887 74.7901 0.0625 74.3567 0.0625 73.8201V68.0004C0.0625 67.4638 0.495887 67.0304 1.03246 67.0304C1.56904 67.0304 2.00242 67.4638 2.00242 68.0004V73.8201C2.00242 74.3567 1.56904 74.7901 1.03246 74.7901ZM1.03246 63.1506C0.495887 63.1506 0.0625 62.7172 0.0625 62.1806V56.3608C0.0625 55.8243 0.495887 55.3909 1.03246 55.3909C1.56904 55.3909 2.00242 55.8243 2.00242 56.3608V62.1806C2.00242 62.7172 1.56904 63.1506 1.03246 63.1506ZM1.03246 51.511C0.495887 51.511 0.0625 51.0777 0.0625 50.5411V44.7213C0.0625 44.1847 0.495887 43.7514 1.03246 43.7514C1.56904 43.7514 2.00242 44.1847 2.00242 44.7213V50.5411C2.00242 51.0777 1.56904 51.511 1.03246 51.511ZM1.03246 39.8715C0.495887 39.8715 0.0625 39.4381 0.0625 38.9016V33.0818C0.0625 32.5452 0.495887 32.1118 1.03246 32.1118C1.56904 32.1118 2.00242 32.5452 2.00242 33.0818V38.9016C2.00242 39.4381 1.56904 39.8715 1.03246 39.8715ZM1.03246 28.232C0.495887 28.232 0.0625 27.7986 0.0625 27.262V21.4423C0.0625 20.9057 0.495887 20.4723 1.03246 20.4723C1.56904 20.4723 2.00242 20.9057 2.00242 21.4423V27.262C2.00242 27.7986 1.56904 28.232 1.03246 28.232ZM1.03246 16.5925C0.495887 16.5925 0.0625 16.1591 0.0625 15.6225V9.80272C0.0625 9.26615 0.495887 8.83276 1.03246 8.83276C1.56904 8.83276 2.00242 9.26615 2.00242 9.80272V15.6225C2.00242 16.1591 1.56904 16.5925 1.03246 16.5925V16.5925Z" fill="#470F4C"/>
<path d="M1.03246 4.87044C0.495887 4.87044 0.0625 4.43706 0.0625 3.90048V0.969961C0.0625 0.433387 0.495887 0 1.03246 0H3.96298C4.49956 0 4.93294 0.433387 4.93294 0.969961C4.93294 1.50654 4.49956 1.93992 3.96298 1.93992H2.00242V3.87984C2.00242 4.41642 1.56904 4.84981 1.03246 4.84981V4.87044Z" fill="#470F4C"/>
<path d="M216.466 1.93992H210.564C210.027 1.93992 209.594 1.50654 209.594 0.969961C209.594 0.433387 210.027 0 210.564 0H216.466C217.003 0 217.436 0.433387 217.436 0.969961C217.436 1.50654 217.003 1.93992 216.466 1.93992ZM204.662 1.93992H198.759C198.223 1.93992 197.789 1.50654 197.789 0.969961C197.789 0.433387 198.223 0 198.759 0H204.662C205.198 0 205.632 0.433387 205.632 0.969961C205.632 1.50654 205.198 1.93992 204.662 1.93992ZM192.857 1.93992H186.955C186.418 1.93992 185.985 1.50654 185.985 0.969961C185.985 0.433387 186.418 0 186.955 0H192.857C193.393 0 193.827 0.433387 193.827 0.969961C193.827 1.50654 193.393 1.93992 192.857 1.93992ZM181.052 1.93992H175.15C174.613 1.93992 174.18 1.50654 174.18 0.969961C174.18 0.433387 174.613 0 175.15 0H181.052C181.589 0 182.022 0.433387 182.022 0.969961C182.022 1.50654 181.589 1.93992 181.052 1.93992ZM169.248 1.93992H163.345C162.809 1.93992 162.375 1.50654 162.375 0.969961C162.375 0.433387 162.809 0 163.345 0H169.248C169.784 0 170.218 0.433387 170.218 0.969961C170.218 1.50654 169.784 1.93992 169.248 1.93992ZM157.443 1.93992H151.541C151.004 1.93992 150.571 1.50654 150.571 0.969961C150.571 0.433387 151.004 0 151.541 0H157.443C157.98 0 158.413 0.433387 158.413 0.969961C158.413 1.50654 157.98 1.93992 157.443 1.93992ZM145.638 1.93992H139.736C139.199 1.93992 138.766 1.50654 138.766 0.969961C138.766 0.433387 139.199 0 139.736 0H145.638C146.175 0 146.608 0.433387 146.608 0.969961C146.608 1.50654 146.175 1.93992 145.638 1.93992ZM133.834 1.93992H127.931C127.395 1.93992 126.961 1.50654 126.961 0.969961C126.961 0.433387 127.395 0 127.931 0H133.834C134.37 0 134.804 0.433387 134.804 0.969961C134.804 1.50654 134.37 1.93992 133.834 1.93992ZM122.029 1.93992H116.127C115.59 1.93992 115.157 1.50654 115.157 0.969961C115.157 0.433387 115.59 0 116.127 0H122.029C122.566 0 122.999 0.433387 122.999 0.969961C122.999 1.50654 122.566 1.93992 122.029 1.93992ZM110.224 1.93992H104.322C103.786 1.93992 103.352 1.50654 103.352 0.969961C103.352 0.433387 103.786 0 104.322 0H110.224C110.761 0 111.194 0.433387 111.194 0.969961C111.194 1.50654 110.761 1.93992 110.224 1.93992ZM98.4199 1.93992H92.5175C91.981 1.93992 91.5476 1.50654 91.5476 0.969961C91.5476 0.433387 91.981 0 92.5175 0H98.4199C98.9564 0 99.3898 0.433387 99.3898 0.969961C99.3898 1.50654 98.9564 1.93992 98.4199 1.93992ZM86.6152 1.93992H80.7129C80.1763 1.93992 79.743 1.50654 79.743 0.969961C79.743 0.433387 80.1763 0 80.7129 0H86.6152C87.1518 0 87.5852 0.433387 87.5852 0.969961C87.5852 1.50654 87.1518 1.93992 86.6152 1.93992ZM74.8106 1.93992H68.9083C68.3717 1.93992 67.9383 1.50654 67.9383 0.969961C67.9383 0.433387 68.3717 0 68.9083 0H74.8106C75.3472 0 75.7806 0.433387 75.7806 0.969961C75.7806 1.50654 75.3472 1.93992 74.8106 1.93992ZM63.006 1.93992H57.1037C56.5671 1.93992 56.1337 1.50654 56.1337 0.969961C56.1337 0.433387 56.5671 0 57.1037 0H63.006C63.5425 0 63.9759 0.433387 63.9759 0.969961C63.9759 1.50654 63.5425 1.93992 63.006 1.93992ZM51.2013 1.93992H45.299C44.7625 1.93992 44.3291 1.50654 44.3291 0.969961C44.3291 0.433387 44.7625 0 45.299 0H51.2013C51.7379 0 52.1713 0.433387 52.1713 0.969961C52.1713 1.50654 51.7379 1.93992 51.2013 1.93992ZM39.3967 1.93992H33.4944C32.9578 1.93992 32.5244 1.50654 32.5244 0.969961C32.5244 0.433387 32.9578 0 33.4944 0H39.3967C39.9333 0 40.3667 0.433387 40.3667 0.969961C40.3667 1.50654 39.9333 1.93992 39.3967 1.93992ZM27.5921 1.93992H21.6898C21.1532 1.93992 20.7198 1.50654 20.7198 0.969961C20.7198 0.433387 21.1532 0 21.6898 0H27.5921C28.1286 0 28.562 0.433387 28.562 0.969961C28.562 1.50654 28.1286 1.93992 27.5921 1.93992ZM15.7668 1.93992H9.86449C9.32792 1.93992 8.89453 1.50654 8.89453 0.969961C8.89453 0.433387 9.32792 0 9.86449 0H15.7668C16.3034 0 16.7368 0.433387 16.7368 0.969961C16.7368 1.50654 16.3034 1.93992 15.7668 1.93992Z" fill="#470F4C"/>
<path d="M225.3 4.87044C224.763 4.87044 224.33 4.43706 224.33 3.90048V1.93992H222.39C221.853 1.93992 221.42 1.50654 221.42 0.969961C221.42 0.433387 221.853 0 222.39 0H225.32C225.857 0 226.29 0.433387 226.29 0.969961V3.90048C226.29 4.43706 225.857 4.87044 225.32 4.87044H225.3Z" fill="#470F4C"/>
<path d="M225.3 261.023C224.763 261.023 224.33 260.589 224.33 260.053V254.233C224.33 253.696 224.763 253.263 225.3 253.263C225.837 253.263 226.27 253.696 226.27 254.233V260.053C226.27 260.589 225.837 261.023 225.3 261.023ZM225.3 249.383C224.763 249.383 224.33 248.95 224.33 248.413V242.593C224.33 242.057 224.763 241.623 225.3 241.623C225.837 241.623 226.27 242.057 226.27 242.593V248.413C226.27 248.95 225.837 249.383 225.3 249.383ZM225.3 237.744C224.763 237.744 224.33 237.31 224.33 236.774V230.954C224.33 230.417 224.763 229.984 225.3 229.984C225.837 229.984 226.27 230.417 226.27 230.954V236.774C226.27 237.31 225.837 237.744 225.3 237.744ZM225.3 226.104C224.763 226.104 224.33 225.671 224.33 225.134V219.314C224.33 218.778 224.763 218.344 225.3 218.344C225.837 218.344 226.27 218.778 226.27 219.314V225.134C226.27 225.671 225.837 226.104 225.3 226.104ZM225.3 214.464C224.763 214.464 224.33 214.031 224.33 213.495V207.675C224.33 207.138 224.763 206.705 225.3 206.705C225.837 206.705 226.27 207.138 226.27 207.675V213.495C226.27 214.031 225.837 214.464 225.3 214.464ZM225.3 202.825C224.763 202.825 224.33 202.392 224.33 201.855V196.035C224.33 195.499 224.763 195.065 225.3 195.065C225.837 195.065 226.27 195.499 226.27 196.035V201.855C226.27 202.392 225.837 202.825 225.3 202.825ZM225.3 191.185C224.763 191.185 224.33 190.752 224.33 190.215V184.396C224.33 183.859 224.763 183.426 225.3 183.426C225.837 183.426 226.27 183.859 226.27 184.396V190.215C226.27 190.752 225.837 191.185 225.3 191.185ZM225.3 179.546C224.763 179.546 224.33 179.113 224.33 178.576V172.756C224.33 172.22 224.763 171.786 225.3 171.786C225.837 171.786 226.27 172.22 226.27 172.756V178.576C226.27 179.113 225.837 179.546 225.3 179.546ZM225.3 167.906C224.763 167.906 224.33 167.473 224.33 166.936V161.117C224.33 160.58 224.763 160.147 225.3 160.147C225.837 160.147 226.27 160.58 226.27 161.117V166.936C226.27 167.473 225.837 167.906 225.3 167.906ZM225.3 156.267C224.763 156.267 224.33 155.833 224.33 155.297V149.477C224.33 148.941 224.763 148.507 225.3 148.507C225.837 148.507 226.27 148.941 226.27 149.477V155.297C226.27 155.833 225.837 156.267 225.3 156.267ZM225.3 144.627C224.763 144.627 224.33 144.194 224.33 143.657V137.838C224.33 137.301 224.763 136.868 225.3 136.868C225.837 136.868 226.27 137.301 226.27 137.838V143.657C226.27 144.194 225.837 144.627 225.3 144.627ZM225.3 132.988C224.763 132.988 224.33 132.554 224.33 132.018V126.198C224.33 125.661 224.763 125.228 225.3 125.228C225.837 125.228 226.27 125.661 226.27 126.198V132.018C226.27 132.554 225.837 132.988 225.3 132.988ZM225.3 121.348C224.763 121.348 224.33 120.915 224.33 120.378V114.559C224.33 114.022 224.763 113.589 225.3 113.589C225.837 113.589 226.27 114.022 226.27 114.559V120.378C226.27 120.915 225.837 121.348 225.3 121.348ZM225.3 109.709C224.763 109.709 224.33 109.275 224.33 108.739V102.919C224.33 102.382 224.763 101.949 225.3 101.949C225.837 101.949 226.27 102.382 226.27 102.919V108.739C226.27 109.275 225.837 109.709 225.3 109.709ZM225.3 98.0692C224.763 98.0692 224.33 97.6358 224.33 97.0992V91.2794C224.33 90.7429 224.763 90.3095 225.3 90.3095C225.837 90.3095 226.27 90.7429 226.27 91.2794V97.0992C226.27 97.6358 225.837 98.0692 225.3 98.0692ZM225.3 86.4296C224.763 86.4296 224.33 85.9963 224.33 85.4597V79.6399C224.33 79.1033 224.763 78.67 225.3 78.67C225.837 78.67 226.27 79.1033 226.27 79.6399V85.4597C226.27 85.9963 225.837 86.4296 225.3 86.4296ZM225.3 74.7901C224.763 74.7901 224.33 74.3567 224.33 73.8201V68.0004C224.33 67.4638 224.763 67.0304 225.3 67.0304C225.837 67.0304 226.27 67.4638 226.27 68.0004V73.8201C226.27 74.3567 225.837 74.7901 225.3 74.7901ZM225.3 63.1506C224.763 63.1506 224.33 62.7172 224.33 62.1806V56.3608C224.33 55.8243 224.763 55.3909 225.3 55.3909C225.837 55.3909 226.27 55.8243 226.27 56.3608V62.1806C226.27 62.7172 225.837 63.1506 225.3 63.1506ZM225.3 51.511C224.763 51.511 224.33 51.0777 224.33 50.5411V44.7213C224.33 44.1847 224.763 43.7514 225.3 43.7514C225.837 43.7514 226.27 44.1847 226.27 44.7213V50.5411C226.27 51.0777 225.837 51.511 225.3 51.511ZM225.3 39.8715C224.763 39.8715 224.33 39.4381 224.33 38.9016V33.0818C224.33 32.5452 224.763 32.1118 225.3 32.1118C225.837 32.1118 226.27 32.5452 226.27 33.0818V38.9016C226.27 39.4381 225.837 39.8715 225.3 39.8715ZM225.3 28.232C224.763 28.232 224.33 27.7986 224.33 27.262V21.4423C224.33 20.9057 224.763 20.4723 225.3 20.4723C225.837 20.4723 226.27 20.9057 226.27 21.4423V27.262C226.27 27.7986 225.837 28.232 225.3 28.232ZM225.3 16.5925C224.763 16.5925 224.33 16.1591 224.33 15.6225V9.80272C224.33 9.26615 224.763 8.83276 225.3 8.83276C225.837 8.83276 226.27 9.26615 226.27 9.80272V15.6225C226.27 16.1591 225.837 16.5925 225.3 16.5925V16.5925Z" fill="#470F4C"/>
<path d="M224.886 269.773H0.969289C0.432715 269.773 -0.000671529 269.36 -0.000671529 268.824C-0.000671529 268.246 -0.970629 211.782 50.4579 206.87C50.9945 206.808 51.4692 207.221 51.5311 207.757C51.5724 208.294 51.1802 208.769 50.6437 208.81C4.64276 213.185 2.06308 260.486 1.95989 267.812H224.019C224.432 263.829 225.464 246.04 213.205 229.839C201.318 214.134 180.763 204.497 152.159 201.215C151.664 201.153 151.293 200.741 151.293 200.245V168.319C151.293 167.783 151.726 167.349 152.263 167.349C152.799 167.349 153.233 167.783 153.233 168.319V199.378C181.96 202.825 202.659 212.69 214.773 228.704C229.096 247.67 225.856 268.741 225.814 268.947C225.732 269.422 225.34 269.773 224.845 269.773H224.886Z" fill="#470F4C"/>
<path d="M115.775 225.856C80.9394 225.856 71.6319 200.823 71.5287 200.576C71.4874 200.472 71.4668 200.348 71.4668 200.245L71.5287 170.837C71.5287 170.3 71.9621 169.867 72.4987 169.867C73.0352 169.867 73.4686 170.3 73.4686 170.837L73.4067 200.06C73.7988 201.03 76.1309 206.498 81.8681 211.926C87.6672 217.395 98.2749 223.896 115.734 223.896C149.002 223.896 151.251 200.39 151.272 200.163C151.313 199.626 151.829 199.234 152.324 199.275C152.861 199.317 153.253 199.791 153.212 200.328C153.212 200.575 150.797 225.856 115.734 225.856H115.775Z" fill="#470F4C"/>
<path d="M190.257 269.34C189.72 269.34 189.287 268.906 189.287 268.37C189.287 229.406 194.261 213.618 194.467 212.958C194.632 212.442 195.189 212.174 195.685 212.339C196.201 212.504 196.469 213.061 196.304 213.556C196.263 213.722 191.206 229.777 191.206 268.37C191.206 268.906 190.773 269.34 190.236 269.34H190.257Z" fill="#470F4C"/>
<path d="M38.3852 269.34C37.8487 269.34 37.4153 268.906 37.4153 268.37C37.4153 231.098 33.7624 211.782 33.7212 211.596C33.618 211.059 33.9688 210.564 34.4847 210.461C35.0007 210.358 35.5166 210.709 35.6198 211.224C35.6611 211.41 39.3552 230.913 39.3552 268.37C39.3552 268.906 38.9218 269.34 38.3852 269.34Z" fill="#470F4C"/>
<path d="M67.5874 268.37C67.5874 268.37 45.6911 212.545 51.5315 205.095C57.3719 197.624 72.4578 200.266 72.4578 200.266C72.4578 200.266 80.2382 248.104 95.8195 268.39" fill="#470F4C"/>
<path d="M67.5868 269.34C67.1947 269.34 66.8232 269.113 66.6787 268.721C64.4086 262.963 44.7411 212.174 50.7466 204.476C56.8759 196.634 71.9826 199.172 72.6223 199.275C73.0351 199.337 73.3446 199.668 73.4065 200.08C73.4891 200.555 81.3313 247.897 96.5824 267.751C96.9126 268.184 96.8301 268.782 96.3967 269.113C95.9633 269.443 95.3648 269.36 95.0346 268.927C80.3407 249.796 72.6636 207.324 71.5904 201.071C68.6599 200.679 56.9998 199.606 52.2738 205.652C48.2495 210.812 59.7445 245.751 68.4742 267.978C68.6806 268.473 68.4329 269.051 67.917 269.237C67.7932 269.278 67.6693 269.298 67.5661 269.298L67.5868 269.34Z" fill="#470F4C"/>
<path d="M50.5416 263.829C50.2321 263.829 49.9225 263.747 49.6129 263.602C48.6636 263.086 48.3128 261.91 48.8081 260.961L52.7292 253.655C53.2451 252.706 54.4215 252.355 55.3708 252.85C56.3201 253.366 56.671 254.542 56.1757 255.492L52.2545 262.797C51.9037 263.458 51.2227 263.829 50.5416 263.829Z" fill="#470F4C"/>
<path d="M112.66 260.589C111.669 260.589 110.823 259.846 110.72 258.835C110.617 257.762 111.401 256.812 112.474 256.689L120.709 255.863C121.802 255.76 122.731 256.544 122.855 257.617C122.958 258.69 122.174 259.64 121.101 259.764L112.866 260.589C112.866 260.589 112.743 260.589 112.66 260.589Z" fill="#470F4C"/>
<path d="M121.968 245.916C121.865 245.916 121.741 245.916 121.638 245.895C120.585 245.71 119.863 244.698 120.049 243.646L121.431 235.473C121.617 234.421 122.628 233.699 123.681 233.884C124.733 234.07 125.456 235.081 125.27 236.134L123.887 244.306C123.722 245.256 122.897 245.937 121.968 245.937V245.916Z" fill="#470F4C"/>
<path d="M173.21 244.347C172.797 244.347 172.385 244.224 172.034 243.955L165.45 238.92C164.604 238.259 164.439 237.042 165.079 236.196C165.739 235.349 166.957 235.184 167.824 235.824L174.407 240.86C175.253 241.52 175.418 242.738 174.779 243.584C174.387 244.079 173.809 244.347 173.231 244.347H173.21Z" fill="#470F4C"/>
<path d="M47.6309 236.856C47.1975 236.856 46.7434 236.712 46.3926 236.402L40.0363 231.098C39.2108 230.417 39.1076 229.179 39.7886 228.353C40.4903 227.528 41.7079 227.425 42.5334 228.106L48.8897 233.41C49.7152 234.091 49.8184 235.329 49.1374 236.154C48.7453 236.608 48.1881 236.856 47.6309 236.856Z" fill="#470F4C"/>
<path d="M94.9315 242.181C94.0647 242.181 93.2805 241.603 93.0535 240.736L90.9278 232.729C90.6595 231.697 91.2786 230.624 92.3105 230.335C93.3424 230.046 94.4155 230.686 94.7045 231.717L96.8301 239.725C97.0984 240.757 96.4793 241.83 95.4474 242.119C95.2823 242.16 95.1172 242.181 94.9521 242.181H94.9315Z" fill="#470F4C"/>
<path d="M144.813 260.094C144.482 260.094 144.132 260.011 143.822 259.826C142.893 259.289 142.584 258.092 143.12 257.163L147.33 250.023C147.867 249.094 149.064 248.784 149.993 249.321C150.921 249.858 151.231 251.055 150.694 251.983L146.484 259.124C146.113 259.743 145.473 260.094 144.792 260.094H144.813Z" fill="#470F4C"/>
<path d="M164.087 270C163.675 270 163.241 269.855 162.891 269.587C162.044 268.927 161.9 267.688 162.56 266.842L167.658 260.321C168.318 259.475 169.536 259.31 170.403 259.991C171.249 260.651 171.393 261.889 170.733 262.735L165.635 269.257C165.243 269.752 164.686 270 164.108 270H164.087Z" fill="#470F4C"/>
<path d="M146.918 235.515C146.093 235.515 145.308 234.978 145.061 234.132L142.605 226.228C142.295 225.196 142.852 224.102 143.884 223.793C144.916 223.462 146.01 224.04 146.32 225.072L148.775 232.976C149.085 234.008 148.528 235.102 147.496 235.412C147.31 235.473 147.104 235.494 146.918 235.494V235.515Z" fill="#470F4C"/>
<path d="M186.934 219.314C186.934 219.314 186.789 219.314 186.707 219.314C185.633 219.19 184.87 218.22 184.994 217.147L185.964 208.913C186.087 207.84 187.037 207.097 188.131 207.2C189.204 207.324 189.967 208.294 189.843 209.367L188.873 217.601C188.75 218.592 187.904 219.314 186.934 219.314Z" fill="#470F4C"/>
<path d="M162.871 217.56C162.128 217.56 161.426 217.127 161.096 216.404C160.662 215.414 161.096 214.258 162.066 213.825L169.619 210.399C170.61 209.945 171.765 210.399 172.199 211.369C172.632 212.359 172.199 213.515 171.229 213.949L163.676 217.374C163.407 217.498 163.139 217.539 162.871 217.539V217.56Z" fill="#470F4C"/>
<path d="M46.1857 215.868C45.319 215.868 44.5347 215.29 44.3077 214.423L42.9044 209.161C42.6361 208.129 43.2552 207.056 44.2871 206.767C45.319 206.498 46.3921 207.118 46.681 208.149L48.0844 213.412C48.3527 214.444 47.7335 215.517 46.7017 215.806C46.5366 215.847 46.3715 215.868 46.2064 215.868H46.1857Z" fill="#470F4C"/>
<path d="M114.373 186.79C89.1958 186.79 73.5939 179.278 68.0011 164.46C65.5452 157.918 65.4627 151.376 65.4214 146.588C65.4214 145.556 65.4008 144.607 65.3595 143.781C65.277 141.676 65.215 138.684 65.1738 134.866C65.0499 121.121 65.3595 100.67 65.3595 100.463L65.1531 98.3995C65.1119 98.0487 65.277 97.7185 65.5452 97.5121C65.8135 97.3058 66.185 97.2645 66.4946 97.3883C66.6803 97.4709 85.2127 105.107 111.897 102.96L117.036 91.5685C117.221 91.1764 117.614 90.9494 118.047 91.0113C118.48 91.0732 118.811 91.3828 118.893 91.8162L120.792 103.043C123.66 103.456 134.99 104.88 144.009 103.084L146.258 91.7956C146.341 91.3622 146.712 91.032 147.166 91.0113C147.6 91.0113 148.013 91.2796 148.157 91.6924L151.521 102.713C153.543 102.135 157.072 100.938 158.311 99.7616C158.6 99.4933 159.012 99.4314 159.363 99.5759C159.714 99.7203 159.941 100.071 159.962 100.463C159.962 100.649 160.044 118.377 159.57 126.941C159.528 127.89 159.59 129.438 159.693 131.399C160.085 139.179 160.828 153.646 154.905 165.802C154.575 166.462 154.245 167.122 153.874 167.783C146.877 180.248 133.876 186.625 115.24 186.749C114.951 186.749 114.662 186.749 114.373 186.749V186.79ZM67.2582 99.7823L67.3201 100.401C67.3201 100.711 67.0311 121.142 67.1343 134.866C67.155 138.663 67.2169 141.635 67.3201 143.719C67.3613 144.566 67.3613 145.515 67.382 146.588C67.4233 151.231 67.5058 157.567 69.8378 163.779C75.1829 177.916 90.3515 184.994 115.24 184.85C133.133 184.726 145.557 178.679 152.202 166.875C152.553 166.256 152.883 165.636 153.193 164.997C158.889 153.295 158.166 139.159 157.795 131.564C157.692 129.541 157.609 127.952 157.671 126.9C158.042 120.007 158.063 107.129 158.063 102.362C155.483 103.765 151.686 104.777 151.17 104.9C150.654 105.024 150.138 104.735 149.994 104.24L147.476 96.0262L145.846 104.157C145.763 104.529 145.474 104.838 145.103 104.921C134.289 107.294 120.42 105.024 119.842 104.921C119.43 104.859 119.12 104.529 119.038 104.116L117.552 95.3452L113.486 104.364C113.342 104.694 113.032 104.9 112.681 104.942C89.5672 106.923 72.3143 101.619 67.2788 99.8442L67.2582 99.7823Z" fill="#470F4C"/>
<path d="M74.7288 117.056C74.3986 117.056 74.0891 116.891 73.9033 116.602C73.6144 116.148 73.7589 115.549 74.2129 115.26C74.5637 115.054 82.6536 109.998 90.3101 109.998C90.8467 109.998 91.2801 110.431 91.2801 110.968C91.2801 111.504 90.8467 111.938 90.3101 111.938C83.2314 111.938 75.3273 116.849 75.2447 116.891C75.0796 116.994 74.8939 117.035 74.7288 117.035V117.056Z" fill="#470F4C"/>
<path d="M87.483 128.778C82.757 128.778 78.9598 127.911 78.7327 127.87C78.2168 127.746 77.8866 127.23 78.0104 126.693C78.1343 126.177 78.6502 125.847 79.1868 125.971C79.2693 125.971 87.6481 127.87 94.7061 125.971C95.2221 125.827 95.7587 126.136 95.9031 126.652C96.0476 127.168 95.738 127.705 95.2221 127.849C92.663 128.551 89.9595 128.778 87.5243 128.778H87.483Z" fill="#470F4C"/>
<path d="M146.774 117.056C146.588 117.056 146.423 117.014 146.258 116.911C146.175 116.87 138.292 111.958 131.193 111.958C130.656 111.958 130.223 111.525 130.223 110.988C130.223 110.452 130.656 110.018 131.193 110.018C138.849 110.018 146.939 115.074 147.29 115.281C147.744 115.57 147.888 116.168 147.599 116.622C147.414 116.911 147.104 117.076 146.774 117.076V117.056Z" fill="#470F4C"/>
<path d="M134.02 128.778C131.585 128.778 128.881 128.551 126.322 127.849C125.806 127.705 125.497 127.168 125.641 126.652C125.785 126.136 126.322 125.827 126.838 125.971C133.896 127.87 142.254 125.971 142.357 125.971C142.894 125.847 143.41 126.177 143.534 126.693C143.658 127.209 143.327 127.746 142.811 127.87C142.564 127.932 138.766 128.778 134.061 128.778H134.02Z" fill="#470F4C"/>
<path d="M118.707 151.355C114.208 151.355 110.968 149.828 110.824 149.745C110.535 149.601 110.328 149.333 110.287 149.002C109.482 143.699 110.246 128.386 110.287 127.746C110.308 127.209 110.72 126.776 111.319 126.817C111.855 126.838 112.268 127.312 112.248 127.849C112.248 127.994 111.505 142.584 112.165 148.177C113.362 148.652 116.767 149.745 120.812 149.271C121.328 149.209 121.823 149.58 121.906 150.117C121.968 150.653 121.596 151.128 121.06 151.211C120.276 151.314 119.491 151.355 118.769 151.355H118.707Z" fill="#470F4C"/>
<path d="M114.002 162.417C114.002 162.417 122.443 162.582 134.454 157.381C134.454 157.381 135.506 159.404 135.259 161.942C134.99 164.687 133.236 168.03 126.983 170.053C121.535 171.828 118.356 170.404 116.52 168.34C114.312 165.863 114.023 162.417 114.023 162.417H114.002Z" fill="#470F4C"/>
<path d="M122.443 171.807C119.141 171.807 117.036 170.404 115.777 168.98C113.383 166.276 113.032 162.644 113.032 162.499C113.012 162.231 113.094 161.942 113.301 161.757C113.486 161.55 113.672 161.426 114.023 161.447C114.126 161.447 122.422 161.53 134.062 156.494C134.537 156.288 135.073 156.494 135.321 156.948C135.362 157.031 136.497 159.259 136.229 162.045C135.961 164.893 134.186 168.753 127.293 170.981C125.456 171.58 123.846 171.828 122.464 171.828L122.443 171.807ZM115.137 163.346C115.385 164.46 115.963 166.256 117.222 167.659C119.286 169.97 122.464 170.445 126.674 169.083C131.4 167.556 133.959 165.1 134.268 161.818C134.392 160.539 134.124 159.383 133.897 158.64C124.734 162.458 117.8 163.201 115.137 163.325V163.346Z" fill="#470F4C"/>
<path d="M158.682 175.769C156.886 175.769 154.678 175.625 152.119 175.192C151.582 175.109 151.232 174.593 151.314 174.077C151.397 173.541 151.933 173.19 152.449 173.272C158.207 174.263 162.066 173.664 163.346 173.396L165.719 166.771C165.843 166.4 166.194 166.152 166.586 166.132C167.061 166.111 167.349 166.338 167.515 166.689L170.528 173.231C175.563 173.045 180.537 170.94 182.126 170.218C183.096 70.6421 158.744 46.9916 144.112 41.7703C121.493 33.701 111.752 46.5169 111.649 46.6407C111.484 46.8471 111.257 46.9916 110.989 47.0328C110.72 47.0741 110.452 46.9916 110.246 46.8265C106.221 43.5657 96.3359 38.5715 84.6757 40.5527C73.4077 42.4719 63.5017 50.2935 55.2467 63.7698C35.4141 96.1913 37.1889 163.139 37.4366 170.177C48.7253 175.026 72.0869 172.632 72.3139 172.612C72.8505 172.55 73.3251 172.942 73.387 173.479C73.449 174.015 73.0568 174.49 72.5203 174.552C71.509 174.655 47.6315 177.111 36.0745 171.704C35.7443 171.559 35.5379 171.229 35.5173 170.858C35.476 170.135 32.4217 97.3057 53.5751 62.7379C62.1396 48.7664 72.479 40.6352 84.3249 38.6127C96.0057 36.6109 106.056 41.275 110.72 44.7214C113.362 41.8941 124.093 32.5453 144.751 39.9129C180.021 52.5018 184.52 127.333 184.045 170.816C184.045 171.188 183.839 171.518 183.509 171.683C183.24 171.828 176.657 175.15 169.888 175.171C169.413 175.191 169.166 174.944 169 174.614L166.71 169.661L164.955 174.531C164.852 174.82 164.605 175.047 164.316 175.13C164.192 175.171 162.19 175.728 158.62 175.728L158.682 175.769Z" fill="#470F4C"/>
<path d="M71.075 82.0959C70.6416 82.0959 70.2495 81.807 70.1256 81.353C69.6716 79.5162 76.9154 66.5765 88.3073 54.8338C88.6787 54.4417 89.2979 54.4417 89.69 54.8132C90.0821 55.1847 90.0821 55.8038 89.69 56.1959C78.4632 67.7735 72.3339 79.3511 72.0449 81.0434C72.0862 81.5181 71.7766 81.9515 71.302 82.0546C71.2194 82.0546 71.1369 82.0753 71.075 82.0753V82.0959Z" fill="#470F4C"/>
<path d="M108.615 94.437C108.615 94.437 108.532 94.437 108.491 94.437C107.954 94.3751 107.583 93.8798 107.645 93.3432C109.027 82.7975 105.932 62.1807 105.89 61.9743C105.808 61.4377 106.179 60.9424 106.716 60.8599C107.252 60.7773 107.748 61.1488 107.83 61.6854C107.954 62.5315 111.008 82.7769 109.584 93.5909C109.523 94.0862 109.11 94.437 108.615 94.437Z" fill="#470F4C"/>
<path d="M115.9 82.0958C115.363 82.0958 114.93 81.6624 114.93 81.1258C114.888 73.201 111.462 57.1451 111.421 56.98C111.318 56.4434 111.648 55.9275 112.164 55.8243C112.68 55.7211 113.217 56.0513 113.32 56.5672C113.464 57.2276 116.828 72.9947 116.87 81.1052C116.87 81.6418 116.436 82.0751 115.9 82.0958Z" fill="#470F4C"/>
<path d="M142.544 80.156C142.152 80.156 141.78 79.9084 141.636 79.5163C137.054 67.0306 125.951 54.6481 125.848 54.5243C125.497 54.1322 125.518 53.513 125.91 53.1416C126.302 52.7907 126.921 52.8114 127.293 53.2035C127.767 53.7194 138.767 65.9781 143.473 78.8352C143.658 79.3305 143.39 79.9084 142.895 80.0941C142.791 80.1354 142.668 80.156 142.564 80.156H142.544Z" fill="#470F4C"/>
<path d="M61.6244 135.836C55.5158 135.836 50.5421 131.316 50.5215 125.744C50.5215 120.151 55.4745 115.59 61.6038 115.57H61.6451C63.2754 115.57 64.8439 115.9 66.3298 116.519C66.7013 116.684 66.9489 117.056 66.9283 117.468C66.887 118.067 66.8664 118.665 66.8457 119.285C66.6393 124.258 66.7425 129.149 67.114 133.793C67.1553 134.205 66.9283 134.598 66.5362 134.763C64.9884 135.464 63.358 135.815 61.6657 135.815H61.6244V135.836ZM61.6244 117.51H61.6038C56.5476 117.51 52.4614 121.204 52.4614 125.723C52.4614 130.222 56.5889 133.875 61.6244 133.875H61.6657C62.8627 133.875 64.0184 133.669 65.1122 133.256C64.7613 128.737 64.6788 124.011 64.8852 119.202C64.8852 118.81 64.9264 118.438 64.9471 118.067C63.8946 117.695 62.7801 117.51 61.6451 117.51H61.6244Z" fill="#470F4C"/>
<path d="M62.2445 132.018C58.117 132.018 54.7324 129.191 54.7324 125.723C54.7324 122.236 58.0963 119.388 62.2445 119.367C63.6684 119.346 65.0512 119.697 66.2481 120.337C66.5783 120.502 66.7847 120.853 66.7641 121.224C66.6815 124.176 66.7228 127.168 66.8673 130.099C66.8673 130.47 66.6815 130.821 66.3513 131.007C65.1337 131.667 63.7304 132.018 62.2651 132.038H62.2445V132.018ZM62.2445 121.307H62.2238C59.1488 121.307 56.6517 123.288 56.6723 125.703C56.6723 128.117 59.1695 130.057 62.2445 130.057H62.2651C63.1731 130.057 64.0812 129.872 64.8861 129.521C64.7829 126.962 64.7416 124.361 64.8035 121.782C64.0193 121.451 63.1525 121.286 62.2651 121.286L62.2445 121.307Z" fill="#470F4C"/>
<path d="M163.284 135.588H163.243C161.55 135.588 159.899 135.237 158.372 134.536C158.001 134.37 157.774 133.978 157.794 133.566C158.186 128.902 158.269 124.031 158.063 119.057C158.042 118.438 158.001 117.819 157.98 117.241C157.959 116.829 158.186 116.457 158.578 116.292C160.085 115.652 161.777 115.322 163.304 115.343C169.434 115.343 174.407 119.924 174.387 125.517C174.387 131.089 169.393 135.609 163.284 135.609V135.588ZM159.796 133.008C160.89 133.421 162.066 133.628 163.243 133.628H163.284C168.319 133.628 172.426 129.975 172.447 125.476C172.447 120.956 168.361 117.283 163.304 117.262C162.231 117.221 161.034 117.448 159.982 117.819C159.982 118.191 160.023 118.562 160.044 118.954C160.25 123.763 160.168 128.489 159.817 133.008H159.796Z" fill="#470F4C"/>
<path d="M162.665 131.791H162.624C161.179 131.791 159.755 131.44 158.538 130.759C158.208 130.573 158.022 130.222 158.043 129.851C158.187 126.92 158.208 123.928 158.146 120.977C158.146 120.605 158.331 120.254 158.662 120.089C159.879 119.449 161.262 119.099 162.665 119.119C164.647 119.119 166.504 119.759 167.907 120.915C169.373 122.112 170.177 123.742 170.177 125.455C170.177 127.189 169.352 128.798 167.887 129.995C166.483 131.13 164.626 131.77 162.665 131.77V131.791ZM160.024 129.314C160.829 129.665 161.716 129.83 162.645 129.851C164.151 129.933 165.596 129.376 166.669 128.509C167.68 127.684 168.237 126.611 168.237 125.476C168.237 124.341 167.701 123.267 166.69 122.442C165.637 121.575 164.213 121.08 162.686 121.08H162.665C161.778 121.08 160.911 121.245 160.127 121.575C160.189 124.155 160.148 126.755 160.044 129.314H160.024Z" fill="#470F4C"/>
<path d="M126.983 170.032C130.76 168.815 132.865 167.102 134.02 165.348C132.142 164.192 129.501 163.655 126.632 164.109C122.463 164.749 119.285 167.205 118.666 169.991C120.565 170.961 123.227 171.271 126.983 170.053V170.032Z" fill="white"/>
<path d="M122.463 171.807C120.895 171.807 119.471 171.477 118.212 170.837C117.82 170.631 117.613 170.177 117.696 169.743C118.439 166.483 121.968 163.82 126.467 163.119C129.418 162.665 132.348 163.16 134.515 164.501C134.742 164.646 134.907 164.873 134.949 165.12C134.99 165.368 134.949 165.657 134.804 165.863C133.339 168.072 130.801 169.785 127.251 170.94C125.517 171.497 123.908 171.786 122.442 171.786L122.463 171.807ZM119.863 169.434C121.699 170.094 123.99 169.97 126.673 169.104C129.294 168.257 131.255 167.102 132.534 165.678C130.883 164.976 128.861 164.749 126.776 165.059C123.495 165.554 120.791 167.308 119.863 169.434Z" fill="#470F4C"/>
<path d="M115.24 185.799C90.7845 185.964 78.6084 179.216 72.541 170.837V178.143C72.541 178.143 104.839 201.03 152.305 185.448V168.567C146.382 178.184 135.403 185.655 115.261 185.799H115.24Z" fill="#470F4C"/>
<path d="M119.533 191.805C90.5579 191.805 72.1905 179.113 71.9635 178.947C71.7159 178.762 71.5508 178.473 71.5508 178.143V170.837C71.5508 170.342 71.9223 169.929 72.3969 169.867C72.7478 169.826 73.0986 169.97 73.305 170.259C80.4249 180.062 94.479 184.953 115.22 184.829C132.473 184.705 144.649 179.071 151.438 168.072C151.665 167.7 152.099 167.535 152.532 167.638C152.945 167.762 153.234 168.133 153.234 168.567V185.448C153.234 185.861 152.966 186.253 152.573 186.377C140.521 190.339 129.398 191.805 119.512 191.805H119.533ZM73.4907 177.627C77.3706 180.144 108.079 198.636 151.294 184.747V171.745C143.885 181.61 131.771 186.666 115.22 186.79C114.931 186.79 114.642 186.79 114.353 186.79C95.0156 186.79 81.2917 182.353 73.4701 173.602V177.627H73.4907Z" fill="#470F4C"/>
</g>
<defs>
<clipPath id="clip0_186_610">
<rect width="226.269" height="270" fill="white"/>
</clipPath>
</defs>
</svg>
