<svg width="227" height="270" viewBox="0 0 227 270" fill="none" xmlns="http://www.w3.org/2000/svg">
<g clip-path="url(#clip0_186_553)">
<path d="M225.85 270H222.921C222.384 270 221.951 269.566 221.951 269.029C221.951 268.492 222.384 268.058 222.921 268.058H224.86V266.117C224.86 265.58 225.293 265.146 225.829 265.146C226.366 265.146 226.799 265.58 226.799 266.117V269.05C226.799 269.587 226.366 270.021 225.829 270.021L225.85 270Z" fill="#470F4C"/>
<path d="M217.041 270H211.141C210.605 270 210.172 269.566 210.172 269.029C210.172 268.492 210.605 268.058 211.141 268.058H217.041C217.578 268.058 218.011 268.492 218.011 269.029C218.011 269.566 217.578 270 217.041 270ZM205.242 270H199.342C198.805 270 198.372 269.566 198.372 269.029C198.372 268.492 198.805 268.058 199.342 268.058H205.242C205.778 268.058 206.211 268.492 206.211 269.029C206.211 269.566 205.778 270 205.242 270ZM193.442 270H187.542C187.005 270 186.572 269.566 186.572 269.029C186.572 268.492 187.005 268.058 187.542 268.058H193.442C193.978 268.058 194.411 268.492 194.411 269.029C194.411 269.566 193.978 270 193.442 270ZM181.642 270H175.742C175.205 270 174.772 269.566 174.772 269.029C174.772 268.492 175.205 268.058 175.742 268.058H181.642C182.178 268.058 182.611 268.492 182.611 269.029C182.611 269.566 182.178 270 181.642 270ZM169.842 270H163.942C163.405 270 162.972 269.566 162.972 269.029C162.972 268.492 163.405 268.058 163.942 268.058H169.842C170.378 268.058 170.811 268.492 170.811 269.029C170.811 269.566 170.378 270 169.842 270ZM158.042 270H152.142C151.605 270 151.172 269.566 151.172 269.029C151.172 268.492 151.605 268.058 152.142 268.058H158.042C158.578 268.058 159.011 268.492 159.011 269.029C159.011 269.566 158.578 270 158.042 270ZM146.242 270H140.342C139.805 270 139.372 269.566 139.372 269.029C139.372 268.492 139.805 268.058 140.342 268.058H146.242C146.778 268.058 147.211 268.492 147.211 269.029C147.211 269.566 146.778 270 146.242 270ZM134.442 270H128.542C128.005 270 127.572 269.566 127.572 269.029C127.572 268.492 128.005 268.058 128.542 268.058H134.442C134.978 268.058 135.411 268.492 135.411 269.029C135.411 269.566 134.978 270 134.442 270ZM122.642 270H116.742C116.205 270 115.772 269.566 115.772 269.029C115.772 268.492 116.205 268.058 116.742 268.058H122.642C123.178 268.058 123.611 268.492 123.611 269.029C123.611 269.566 123.178 270 122.642 270ZM110.842 270H104.942C104.405 270 103.972 269.566 103.972 269.029C103.972 268.492 104.405 268.058 104.942 268.058H110.842C111.378 268.058 111.811 268.492 111.811 269.029C111.811 269.566 111.378 270 110.842 270ZM99.0417 270H93.1417C92.6053 270 92.1721 269.566 92.1721 269.029C92.1721 268.492 92.6053 268.058 93.1417 268.058H99.0417C99.578 268.058 100.011 268.492 100.011 269.029C100.011 269.566 99.578 270 99.0417 270ZM87.2417 270H81.3417C80.8054 270 80.3721 269.566 80.3721 269.029C80.3721 268.492 80.8054 268.058 81.3417 268.058H87.2417C87.7781 268.058 88.2113 268.492 88.2113 269.029C88.2113 269.566 87.7781 270 87.2417 270ZM75.4417 270H69.5417C69.0054 270 68.5722 269.566 68.5722 269.029C68.5722 268.492 69.0054 268.058 69.5417 268.058H75.4417C75.9781 268.058 76.4113 268.492 76.4113 269.029C76.4113 269.566 75.9781 270 75.4417 270ZM63.6418 270H57.7418C57.2054 270 56.7722 269.566 56.7722 269.029C56.7722 268.492 57.2054 268.058 57.7418 268.058H63.6418C64.1781 268.058 64.6113 268.492 64.6113 269.029C64.6113 269.566 64.1781 270 63.6418 270ZM51.8418 270H45.9418C45.4054 270 44.9722 269.566 44.9722 269.029C44.9722 268.492 45.4054 268.058 45.9418 268.058H51.8418C52.3781 268.058 52.8114 268.492 52.8114 269.029C52.8114 269.566 52.3781 270 51.8418 270ZM40.0418 270H34.1418C33.6054 270 33.1722 269.566 33.1722 269.029C33.1722 268.492 33.6054 268.058 34.1418 268.058H40.0418C40.5782 268.058 41.0114 268.492 41.0114 269.029C41.0114 269.566 40.5782 270 40.0418 270ZM28.2418 270H22.3418C21.8055 270 21.3722 269.566 21.3722 269.029C21.3722 268.492 21.8055 268.058 22.3418 268.058H28.2418C28.7782 268.058 29.2114 268.492 29.2114 269.029C29.2114 269.566 28.7782 270 28.2418 270ZM16.4418 270H10.5418C10.0055 270 9.57227 269.566 9.57227 269.029C9.57227 268.492 10.0055 268.058 10.5418 268.058H16.4418C16.9782 268.058 17.4114 268.492 17.4114 269.029C17.4114 269.566 16.9782 270 16.4418 270Z" fill="#470F4C"/>
<path d="M4.60097 270H1.69223C1.15587 270 0.722656 269.566 0.722656 269.029V266.096C0.722656 265.559 1.15587 265.125 1.69223 265.125C2.2286 265.125 2.66181 265.559 2.66181 266.096V268.038H4.60097C5.13733 268.038 5.57055 268.472 5.57055 269.009C5.57055 269.546 5.13733 269.979 4.60097 269.979V270Z" fill="#470F4C"/>
<path d="M1.69223 261.242C1.15587 261.242 0.722656 260.809 0.722656 260.272V254.447C0.722656 253.91 1.15587 253.476 1.69223 253.476C2.2286 253.476 2.66181 253.91 2.66181 254.447V260.272C2.66181 260.809 2.2286 261.242 1.69223 261.242ZM1.69223 249.593C1.15587 249.593 0.722656 249.159 0.722656 248.622V242.798C0.722656 242.261 1.15587 241.827 1.69223 241.827C2.2286 241.827 2.66181 242.261 2.66181 242.798V248.622C2.66181 249.159 2.2286 249.593 1.69223 249.593ZM1.69223 237.944C1.15587 237.944 0.722656 237.51 0.722656 236.973V231.148C0.722656 230.611 1.15587 230.178 1.69223 230.178C2.2286 230.178 2.66181 230.611 2.66181 231.148V236.973C2.66181 237.51 2.2286 237.944 1.69223 237.944ZM1.69223 226.294C1.15587 226.294 0.722656 225.861 0.722656 225.324V219.499C0.722656 218.962 1.15587 218.528 1.69223 218.528C2.2286 218.528 2.66181 218.962 2.66181 219.499V225.324C2.66181 225.861 2.2286 226.294 1.69223 226.294ZM1.69223 214.645C1.15587 214.645 0.722656 214.211 0.722656 213.674V207.85C0.722656 207.313 1.15587 206.879 1.69223 206.879C2.2286 206.879 2.66181 207.313 2.66181 207.85V213.674C2.66181 214.211 2.2286 214.645 1.69223 214.645ZM1.69223 202.996C1.15587 202.996 0.722656 202.562 0.722656 202.025V196.2C0.722656 195.663 1.15587 195.23 1.69223 195.23C2.2286 195.23 2.66181 195.663 2.66181 196.2V202.025C2.66181 202.562 2.2286 202.996 1.69223 202.996ZM1.69223 191.346C1.15587 191.346 0.722656 190.913 0.722656 190.376V184.551C0.722656 184.014 1.15587 183.58 1.69223 183.58C2.2286 183.58 2.66181 184.014 2.66181 184.551V190.376C2.66181 190.913 2.2286 191.346 1.69223 191.346ZM1.69223 179.697C1.15587 179.697 0.722656 179.263 0.722656 178.726V172.902C0.722656 172.365 1.15587 171.931 1.69223 171.931C2.2286 171.931 2.66181 172.365 2.66181 172.902V178.726C2.66181 179.263 2.2286 179.697 1.69223 179.697ZM1.69223 168.048C1.15587 168.048 0.722656 167.614 0.722656 167.077V161.252C0.722656 160.715 1.15587 160.282 1.69223 160.282C2.2286 160.282 2.66181 160.715 2.66181 161.252V167.077C2.66181 167.614 2.2286 168.048 1.69223 168.048ZM1.69223 156.398C1.15587 156.398 0.722656 155.965 0.722656 155.428V149.603C0.722656 149.066 1.15587 148.632 1.69223 148.632C2.2286 148.632 2.66181 149.066 2.66181 149.603V155.428C2.66181 155.965 2.2286 156.398 1.69223 156.398ZM1.69223 144.749C1.15587 144.749 0.722656 144.315 0.722656 143.778V137.954C0.722656 137.417 1.15587 136.983 1.69223 136.983C2.2286 136.983 2.66181 137.417 2.66181 137.954V143.778C2.66181 144.315 2.2286 144.749 1.69223 144.749ZM1.69223 133.1C1.15587 133.1 0.722656 132.666 0.722656 132.129V126.304C0.722656 125.767 1.15587 125.334 1.69223 125.334C2.2286 125.334 2.66181 125.767 2.66181 126.304V132.129C2.66181 132.666 2.2286 133.1 1.69223 133.1ZM1.69223 121.451C1.15587 121.451 0.722656 121.017 0.722656 120.48V114.655C0.722656 114.118 1.15587 113.684 1.69223 113.684C2.2286 113.684 2.66181 114.118 2.66181 114.655V120.48C2.66181 121.017 2.2286 121.451 1.69223 121.451ZM1.69223 109.801C1.15587 109.801 0.722656 109.367 0.722656 108.83V103.006C0.722656 102.469 1.15587 102.035 1.69223 102.035C2.2286 102.035 2.66181 102.469 2.66181 103.006V108.83C2.66181 109.367 2.2286 109.801 1.69223 109.801ZM1.69223 98.1518C1.15587 98.1518 0.722656 97.7181 0.722656 97.1811V91.3564C0.722656 90.8194 1.15587 90.3856 1.69223 90.3856C2.2286 90.3856 2.66181 90.8194 2.66181 91.3564V97.1811C2.66181 97.7181 2.2286 98.1518 1.69223 98.1518ZM1.69223 86.5025C1.15587 86.5025 0.722656 86.0688 0.722656 85.5317V79.7071C0.722656 79.1701 1.15587 78.7363 1.69223 78.7363C2.2286 78.7363 2.66181 79.1701 2.66181 79.7071V85.5317C2.66181 86.0688 2.2286 86.5025 1.69223 86.5025ZM1.69223 74.8532C1.15587 74.8532 0.722656 74.4194 0.722656 73.8824V68.0577C0.722656 67.5207 1.15587 67.087 1.69223 67.087C2.2286 67.087 2.66181 67.5207 2.66181 68.0577V73.8824C2.66181 74.4194 2.2286 74.8532 1.69223 74.8532ZM1.69223 63.2039C1.15587 63.2039 0.722656 62.7701 0.722656 62.2331V56.4084C0.722656 55.8714 1.15587 55.4376 1.69223 55.4376C2.2286 55.4376 2.66181 55.8714 2.66181 56.4084V62.2331C2.66181 62.7701 2.2286 63.2039 1.69223 63.2039ZM1.69223 51.5545C1.15587 51.5545 0.722656 51.1208 0.722656 50.5838V44.7591C0.722656 44.2221 1.15587 43.7883 1.69223 43.7883C2.2286 43.7883 2.66181 44.2221 2.66181 44.7591V50.5838C2.66181 51.1208 2.2286 51.5545 1.69223 51.5545ZM1.69223 39.9052C1.15587 39.9052 0.722656 39.4715 0.722656 38.9344V33.1098C0.722656 32.5727 1.15587 32.139 1.69223 32.139C2.2286 32.139 2.66181 32.5727 2.66181 33.1098V38.9344C2.66181 39.4715 2.2286 39.9052 1.69223 39.9052ZM1.69223 28.2559C1.15587 28.2559 0.722656 27.8221 0.722656 27.2851V21.4604C0.722656 20.9234 1.15587 20.4897 1.69223 20.4897C2.2286 20.4897 2.66181 20.9234 2.66181 21.4604V27.2851C2.66181 27.8221 2.2286 28.2559 1.69223 28.2559ZM1.69223 16.6065C1.15587 16.6065 0.722656 16.1728 0.722656 15.6358V9.81111C0.722656 9.27408 1.15587 8.84033 1.69223 8.84033C2.2286 8.84033 2.66181 9.27408 2.66181 9.81111V15.6358C2.66181 16.1728 2.2286 16.6065 1.69223 16.6065Z" fill="#470F4C"/>
<path d="M1.69223 4.87454C1.15587 4.87454 0.722656 4.44079 0.722656 3.90376V0.970777C0.722656 0.433752 1.15587 0 1.69223 0H4.6216C5.15796 0 5.59118 0.433752 5.59118 0.970777C5.59118 1.5078 5.15796 1.94155 4.6216 1.94155H2.68244V3.88311C2.68244 4.42014 2.24923 4.85389 1.71286 4.85389L1.69223 4.87454Z" fill="#470F4C"/>
<path d="M217.042 1.94155H211.142C210.605 1.94155 210.172 1.5078 210.172 0.970777C210.172 0.433752 210.605 0 211.142 0H217.042C217.578 0 218.011 0.433752 218.011 0.970777C218.011 1.5078 217.578 1.94155 217.042 1.94155ZM205.242 1.94155H199.342C198.805 1.94155 198.372 1.5078 198.372 0.970777C198.372 0.433752 198.805 0 199.342 0H205.242C205.778 0 206.211 0.433752 206.211 0.970777C206.211 1.5078 205.778 1.94155 205.242 1.94155ZM193.442 1.94155H187.542C187.005 1.94155 186.572 1.5078 186.572 0.970777C186.572 0.433752 187.005 0 187.542 0H193.442C193.978 0 194.411 0.433752 194.411 0.970777C194.411 1.5078 193.978 1.94155 193.442 1.94155ZM181.642 1.94155H175.742C175.205 1.94155 174.772 1.5078 174.772 0.970777C174.772 0.433752 175.205 0 175.742 0H181.642C182.178 0 182.611 0.433752 182.611 0.970777C182.611 1.5078 182.178 1.94155 181.642 1.94155ZM169.842 1.94155H163.942C163.405 1.94155 162.972 1.5078 162.972 0.970777C162.972 0.433752 163.405 0 163.942 0H169.842C170.378 0 170.811 0.433752 170.811 0.970777C170.811 1.5078 170.378 1.94155 169.842 1.94155ZM158.042 1.94155H152.142C151.605 1.94155 151.172 1.5078 151.172 0.970777C151.172 0.433752 151.605 0 152.142 0H158.042C158.578 0 159.011 0.433752 159.011 0.970777C159.011 1.5078 158.578 1.94155 158.042 1.94155ZM146.242 1.94155H140.342C139.805 1.94155 139.372 1.5078 139.372 0.970777C139.372 0.433752 139.805 0 140.342 0H146.242C146.778 0 147.211 0.433752 147.211 0.970777C147.211 1.5078 146.778 1.94155 146.242 1.94155ZM134.442 1.94155H128.542C128.006 1.94155 127.572 1.5078 127.572 0.970777C127.572 0.433752 128.006 0 128.542 0H134.442C134.978 0 135.411 0.433752 135.411 0.970777C135.411 1.5078 134.978 1.94155 134.442 1.94155ZM122.642 1.94155H116.742C116.206 1.94155 115.772 1.5078 115.772 0.970777C115.772 0.433752 116.206 0 116.742 0H122.642C123.178 0 123.611 0.433752 123.611 0.970777C123.611 1.5078 123.178 1.94155 122.642 1.94155ZM110.842 1.94155H104.942C104.406 1.94155 103.972 1.5078 103.972 0.970777C103.972 0.433752 104.406 0 104.942 0H110.842C111.378 0 111.811 0.433752 111.811 0.970777C111.811 1.5078 111.378 1.94155 110.842 1.94155ZM99.0419 1.94155H93.1419C92.6056 1.94155 92.1724 1.5078 92.1724 0.970777C92.1724 0.433752 92.6056 0 93.1419 0H99.0419C99.5783 0 100.012 0.433752 100.012 0.970777C100.012 1.5078 99.5783 1.94155 99.0419 1.94155ZM87.242 1.94155H81.342C80.8056 1.94155 80.3724 1.5078 80.3724 0.970777C80.3724 0.433752 80.8056 0 81.342 0H87.242C87.7783 0 88.2115 0.433752 88.2115 0.970777C88.2115 1.5078 87.7783 1.94155 87.242 1.94155ZM75.442 1.94155H69.542C69.0056 1.94155 68.5724 1.5078 68.5724 0.970777C68.5724 0.433752 69.0056 0 69.542 0H75.442C75.9783 0 76.4116 0.433752 76.4116 0.970777C76.4116 1.5078 75.9783 1.94155 75.442 1.94155ZM63.642 1.94155H57.742C57.2056 1.94155 56.7724 1.5078 56.7724 0.970777C56.7724 0.433752 57.2056 0 57.742 0H63.642C64.1784 0 64.6116 0.433752 64.6116 0.970777C64.6116 1.5078 64.1784 1.94155 63.642 1.94155ZM51.842 1.94155H45.942C45.4057 1.94155 44.9724 1.5078 44.9724 0.970777C44.9724 0.433752 45.4057 0 45.942 0H51.842C52.3784 0 52.8116 0.433752 52.8116 0.970777C52.8116 1.5078 52.3784 1.94155 51.842 1.94155ZM40.042 1.94155H34.142C33.6057 1.94155 33.1725 1.5078 33.1725 0.970777C33.1725 0.433752 33.6057 0 34.142 0H40.042C40.5784 0 41.0116 0.433752 41.0116 0.970777C41.0116 1.5078 40.5784 1.94155 40.042 1.94155ZM28.2421 1.94155H22.3421C21.8057 1.94155 21.3725 1.5078 21.3725 0.970777C21.3725 0.433752 21.8057 0 22.3421 0H28.2421C28.7784 0 29.2116 0.433752 29.2116 0.970777C29.2116 1.5078 28.7784 1.94155 28.2421 1.94155ZM16.4008 1.94155H10.5008C9.96447 1.94155 9.53125 1.5078 9.53125 0.970777C9.53125 0.433752 9.96447 0 10.5008 0H16.4008C16.9372 0 17.3704 0.433752 17.3704 0.970777C17.3704 1.5078 16.9372 1.94155 16.4008 1.94155Z" fill="#470F4C"/>
<path d="M225.851 4.87454C225.315 4.87454 224.881 4.44079 224.881 3.90376V1.94155H222.942C222.406 1.94155 221.973 1.5078 221.973 0.970777C221.973 0.433752 222.406 0 222.942 0H225.872C226.408 0 226.841 0.433752 226.841 0.970777V3.90376C226.841 4.44079 226.408 4.87454 225.872 4.87454H225.851Z" fill="#470F4C"/>
<path d="M225.85 261.242C225.314 261.242 224.881 260.809 224.881 260.272V254.447C224.881 253.91 225.314 253.476 225.85 253.476C226.387 253.476 226.82 253.91 226.82 254.447V260.272C226.82 260.809 226.387 261.242 225.85 261.242ZM225.85 249.593C225.314 249.593 224.881 249.159 224.881 248.622V242.798C224.881 242.261 225.314 241.827 225.85 241.827C226.387 241.827 226.82 242.261 226.82 242.798V248.622C226.82 249.159 226.387 249.593 225.85 249.593ZM225.85 237.944C225.314 237.944 224.881 237.51 224.881 236.973V231.148C224.881 230.611 225.314 230.178 225.85 230.178C226.387 230.178 226.82 230.611 226.82 231.148V236.973C226.82 237.51 226.387 237.944 225.85 237.944ZM225.85 226.294C225.314 226.294 224.881 225.861 224.881 225.324V219.499C224.881 218.962 225.314 218.528 225.85 218.528C226.387 218.528 226.82 218.962 226.82 219.499V225.324C226.82 225.861 226.387 226.294 225.85 226.294ZM225.85 214.645C225.314 214.645 224.881 214.211 224.881 213.674V207.85C224.881 207.313 225.314 206.879 225.85 206.879C226.387 206.879 226.82 207.313 226.82 207.85V213.674C226.82 214.211 226.387 214.645 225.85 214.645ZM225.85 202.996C225.314 202.996 224.881 202.562 224.881 202.025V196.2C224.881 195.663 225.314 195.23 225.85 195.23C226.387 195.23 226.82 195.663 226.82 196.2V202.025C226.82 202.562 226.387 202.996 225.85 202.996ZM225.85 191.346C225.314 191.346 224.881 190.913 224.881 190.376V184.551C224.881 184.014 225.314 183.58 225.85 183.58C226.387 183.58 226.82 184.014 226.82 184.551V190.376C226.82 190.913 226.387 191.346 225.85 191.346ZM225.85 179.697C225.314 179.697 224.881 179.263 224.881 178.726V172.902C224.881 172.365 225.314 171.931 225.85 171.931C226.387 171.931 226.82 172.365 226.82 172.902V178.726C226.82 179.263 226.387 179.697 225.85 179.697ZM225.85 168.048C225.314 168.048 224.881 167.614 224.881 167.077V161.252C224.881 160.715 225.314 160.282 225.85 160.282C226.387 160.282 226.82 160.715 226.82 161.252V167.077C226.82 167.614 226.387 168.048 225.85 168.048ZM225.85 156.398C225.314 156.398 224.881 155.965 224.881 155.428V149.603C224.881 149.066 225.314 148.632 225.85 148.632C226.387 148.632 226.82 149.066 226.82 149.603V155.428C226.82 155.965 226.387 156.398 225.85 156.398ZM225.85 144.749C225.314 144.749 224.881 144.315 224.881 143.778V137.954C224.881 137.417 225.314 136.983 225.85 136.983C226.387 136.983 226.82 137.417 226.82 137.954V143.778C226.82 144.315 226.387 144.749 225.85 144.749ZM225.85 133.1C225.314 133.1 224.881 132.666 224.881 132.129V126.304C224.881 125.767 225.314 125.334 225.85 125.334C226.387 125.334 226.82 125.767 226.82 126.304V132.129C226.82 132.666 226.387 133.1 225.85 133.1ZM225.85 121.451C225.314 121.451 224.881 121.017 224.881 120.48V114.655C224.881 114.118 225.314 113.684 225.85 113.684C226.387 113.684 226.82 114.118 226.82 114.655V120.48C226.82 121.017 226.387 121.451 225.85 121.451ZM225.85 109.801C225.314 109.801 224.881 109.367 224.881 108.83V103.006C224.881 102.469 225.314 102.035 225.85 102.035C226.387 102.035 226.82 102.469 226.82 103.006V108.83C226.82 109.367 226.387 109.801 225.85 109.801ZM225.85 98.1518C225.314 98.1518 224.881 97.7181 224.881 97.1811V91.3564C224.881 90.8194 225.314 90.3856 225.85 90.3856C226.387 90.3856 226.82 90.8194 226.82 91.3564V97.1811C226.82 97.7181 226.387 98.1518 225.85 98.1518ZM225.85 86.5025C225.314 86.5025 224.881 86.0688 224.881 85.5317V79.7071C224.881 79.1701 225.314 78.7363 225.85 78.7363C226.387 78.7363 226.82 79.1701 226.82 79.7071V85.5317C226.82 86.0688 226.387 86.5025 225.85 86.5025ZM225.85 74.8532C225.314 74.8532 224.881 74.4194 224.881 73.8824V68.0577C224.881 67.5207 225.314 67.087 225.85 67.087C226.387 67.087 226.82 67.5207 226.82 68.0577V73.8824C226.82 74.4194 226.387 74.8532 225.85 74.8532ZM225.85 63.2039C225.314 63.2039 224.881 62.7701 224.881 62.2331V56.4084C224.881 55.8714 225.314 55.4376 225.85 55.4376C226.387 55.4376 226.82 55.8714 226.82 56.4084V62.2331C226.82 62.7701 226.387 63.2039 225.85 63.2039ZM225.85 51.5545C225.314 51.5545 224.881 51.1208 224.881 50.5838V44.7591C224.881 44.2221 225.314 43.7883 225.85 43.7883C226.387 43.7883 226.82 44.2221 226.82 44.7591V50.5838C226.82 51.1208 226.387 51.5545 225.85 51.5545ZM225.85 39.9052C225.314 39.9052 224.881 39.4715 224.881 38.9344V33.1098C224.881 32.5727 225.314 32.139 225.85 32.139C226.387 32.139 226.82 32.5727 226.82 33.1098V38.9344C226.82 39.4715 226.387 39.9052 225.85 39.9052ZM225.85 28.2559C225.314 28.2559 224.881 27.8221 224.881 27.2851V21.4604C224.881 20.9234 225.314 20.4897 225.85 20.4897C226.387 20.4897 226.82 20.9234 226.82 21.4604V27.2851C226.82 27.8221 226.387 28.2559 225.85 28.2559ZM225.85 16.6065C225.314 16.6065 224.881 16.1728 224.881 15.6358V9.81111C224.881 9.27408 225.314 8.84033 225.85 8.84033C226.387 8.84033 226.82 9.27408 226.82 9.81111V15.6358C226.82 16.1728 226.387 16.6065 225.85 16.6065Z" fill="#470F4C"/>
<path d="M91.9644 106.228C93.8443 106.228 95.3682 104.702 95.3682 102.82C95.3682 100.937 93.8443 99.4116 91.9644 99.4116C90.0845 99.4116 88.5605 100.937 88.5605 102.82C88.5605 104.702 90.0845 106.228 91.9644 106.228Z" fill="#470F4C"/>
<path d="M91.9652 107.178C89.5516 107.178 87.5918 105.216 87.5918 102.799C87.5918 100.382 89.5516 98.4202 91.9652 98.4202C94.3789 98.4202 96.3386 100.382 96.3386 102.799C96.3386 105.216 94.3789 107.178 91.9652 107.178ZM91.9652 100.382C90.6243 100.382 89.5516 101.477 89.5516 102.799C89.5516 104.121 90.6449 105.216 91.9652 105.216C93.2855 105.216 94.3788 104.121 94.3788 102.799C94.3788 101.477 93.2855 100.382 91.9652 100.382Z" fill="#470F4C"/>
<path d="M142.939 106.228C144.819 106.228 146.343 104.702 146.343 102.82C146.343 100.937 144.819 99.4116 142.939 99.4116C141.059 99.4116 139.535 100.937 139.535 102.82C139.535 104.702 141.059 106.228 142.939 106.228Z" fill="#470F4C"/>
<path d="M142.94 107.178C140.526 107.178 138.566 105.216 138.566 102.799C138.566 100.382 140.526 98.4202 142.94 98.4202C145.353 98.4202 147.313 100.382 147.313 102.799C147.313 105.216 145.353 107.178 142.94 107.178ZM142.94 100.382C141.599 100.382 140.526 101.477 140.526 102.799C140.526 104.121 141.62 105.216 142.94 105.216C144.26 105.216 145.353 104.121 145.353 102.799C145.353 101.477 144.26 100.382 142.94 100.382Z" fill="#470F4C"/>
<path d="M114.512 183.415C97.3484 183.415 84.0012 177.569 74.8212 166.065C61.8041 149.747 59.5967 124.755 60.03 106.661C60.4838 87.7623 63.8258 72.2505 64.0939 71.1145L65.0635 60.4979C65.0841 60.25 65.2079 60.0228 65.373 59.8576L75.0687 51.1206C75.275 50.9347 75.5638 50.8521 75.8527 50.8727L162.166 62.047C162.578 62.109 162.908 62.3981 162.991 62.7906C163.032 62.9558 167.076 80.6157 167.839 102.035C168.561 121.905 166.56 149.169 152.903 166.375C143.929 177.673 131.015 183.415 114.512 183.415ZM66.9408 61.0349L66.0125 71.3417C66.0125 71.3417 66.0125 71.4243 66.0125 71.4656C65.8681 72.0852 52.1083 134.422 76.3478 164.825C85.1358 175.855 97.9879 181.453 114.512 181.453C131.036 181.453 142.795 175.979 151.377 165.156C175.513 134.752 162.764 71.0732 161.217 63.8646L76.0177 52.8349L66.9408 61.0143V61.0349Z" fill="#470F4C"/>
<path d="M112.904 214.913C85.2815 214.913 66.5913 197.976 66.3231 197.708C66.1168 197.522 66.0137 197.274 66.0137 196.985V149.396C66.0137 148.859 66.4469 148.426 66.9833 148.426C67.5196 148.426 67.9528 148.859 67.9528 149.396V196.531C71.8311 199.877 110.986 231.685 158.619 196.489V152.309C158.619 151.772 159.052 151.338 159.588 151.338C160.125 151.338 160.558 151.772 160.558 152.309V196.964C160.558 197.274 160.414 197.563 160.166 197.749C142.94 210.597 126.788 214.893 112.884 214.893L112.904 214.913Z" fill="#470F4C"/>
<path d="M114.511 182.444C87.8169 182.444 73.8921 168.234 67.002 149.954C67.0432 157.576 67.1464 177.342 67.1464 177.735C67.1464 177.735 129.529 208.986 159.607 157.514L159.566 153.052C152.345 169.948 138.813 182.444 114.511 182.444Z" fill="#470F4C"/>
<path d="M107.808 187.98C85.8786 187.98 67.0647 178.788 66.714 178.623C66.3839 178.458 66.1776 178.127 66.1776 177.756C66.1776 177.363 66.0745 157.596 66.0332 149.975C66.0332 149.5 66.3633 149.087 66.8378 149.004C67.2916 148.921 67.7661 149.169 67.9311 149.624C75.894 170.754 91.5723 181.473 114.533 181.473C135.678 181.473 150.531 171.786 158.7 152.681C158.886 152.247 159.319 152.02 159.794 152.102C160.247 152.185 160.577 152.598 160.577 153.052L160.619 157.514C160.619 157.679 160.577 157.865 160.495 158.01C146.756 181.535 126.209 187.98 107.849 187.98H107.808ZM68.1168 177.115C72.9234 179.346 108.798 194.961 137.473 178.706C130.851 181.825 123.197 183.394 114.512 183.394C92.3769 183.394 76.7605 173.81 68.0136 154.87C68.0549 162.822 68.1168 174.327 68.1374 177.115H68.1168Z" fill="#470F4C"/>
<path d="M58.2569 85.8209C60.9387 85.8209 62.7334 86.3579 64.5488 88.1342C64.9201 70.8668 67.21 50.0467 72.8006 40.1943C61.5988 44.0774 55.7607 65.9303 54.9355 86.4199C55.967 86.0481 57.081 85.8209 58.2569 85.8209Z" fill="#470F4C"/>
<path d="M64.5488 89.1049C64.3012 89.1049 64.0537 89.0017 63.868 88.8364C62.3414 87.3493 60.8149 86.8123 58.2362 86.8123C57.2254 86.8123 56.2352 86.9982 55.245 87.3493C54.9355 87.4526 54.6054 87.4112 54.3373 87.2254C54.0691 87.0395 53.9247 86.7296 53.9453 86.3992C54.7086 67.3554 60.031 43.6023 72.4704 39.2855C72.8418 39.1409 73.275 39.2855 73.5432 39.5746C73.8114 39.8845 73.832 40.3182 73.6463 40.69C69.0253 48.828 65.9928 66.5912 65.5184 88.1755C65.5184 88.5679 65.2708 88.919 64.9201 89.0636C64.7963 89.1049 64.6726 89.1463 64.5488 89.1463V89.1049ZM58.2568 84.8501C60.5054 84.8501 62.1558 85.2425 63.6411 86.1513C63.9299 76.8566 65.1883 54.7353 70.6551 42.3217C61.7226 48.1257 56.9159 67.1695 55.9876 85.0772C56.7303 84.912 57.4935 84.8294 58.2568 84.8294V84.8501Z" fill="#470F4C"/>
<path d="M58.2569 107.178C57.4524 107.178 56.6684 107.075 55.9258 106.889C57.7412 118.352 61.1656 121.265 61.1656 121.265L65.4359 114.221C65.4359 114.221 64.5076 110.999 64.4044 104.989C62.5891 106.744 60.9181 107.178 58.2569 107.178Z" fill="#470F4C"/>
<path d="M61.1664 122.235C60.9395 122.235 60.7125 122.153 60.5475 122.008C60.4031 121.884 56.8136 118.745 54.9776 107.033C54.9363 106.703 55.0395 106.393 55.287 106.166C55.5346 105.939 55.8647 105.856 56.1741 105.939C56.8755 106.104 57.5975 106.207 58.2783 106.207C60.9188 106.207 62.2597 105.753 63.7451 104.286C64.0339 104.018 64.4465 103.935 64.7972 104.08C65.1479 104.224 65.3954 104.575 65.3954 104.968C65.4986 110.731 66.365 113.911 66.3856 113.932C66.4681 114.201 66.4269 114.469 66.2825 114.696L62.0122 121.74C61.8678 121.987 61.6202 122.153 61.3314 122.194C61.2695 122.194 61.2283 122.194 61.1664 122.194V122.235ZM57.123 108.087C58.3195 114.738 60.073 118.104 61.0632 119.571L64.4052 114.056C64.1783 113.126 63.7038 110.71 63.5181 106.93C61.9091 107.901 60.2587 108.149 58.2783 108.149C57.907 108.149 57.515 108.128 57.1437 108.087H57.123Z" fill="#470F4C"/>
<path d="M171.965 107.095C171.573 107.137 171.16 107.178 170.747 107.178C169.51 107.178 168.334 106.93 167.24 106.517C167.323 116.225 166.869 123.206 166.869 123.206C169.365 117.898 170.974 112.486 171.965 107.095Z" fill="#470F4C"/>
<path d="M166.87 124.177C166.87 124.177 166.705 124.177 166.622 124.156C166.168 124.032 165.859 123.619 165.9 123.144C165.9 123.082 166.354 116.08 166.271 106.517C166.271 106.187 166.416 105.897 166.684 105.711C166.952 105.526 167.282 105.484 167.592 105.608C168.974 106.145 170.459 106.31 171.841 106.125C172.151 106.083 172.46 106.207 172.667 106.414C172.873 106.641 172.976 106.951 172.914 107.261C171.862 113.044 170.129 118.559 167.757 123.599C167.592 123.95 167.241 124.156 166.87 124.156V124.177ZM168.231 107.839C168.231 111.722 168.169 115.13 168.087 117.733C169.201 114.655 170.109 111.454 170.769 108.149C169.923 108.149 169.077 108.045 168.252 107.839H168.231Z" fill="#470F4C"/>
<path d="M170.749 85.821C171.492 85.821 172.214 85.9036 172.895 86.0688C171.389 67.0044 164.437 52.3188 164.437 52.3188L160.559 60.1677C163.674 67.4588 165.386 77.2286 166.294 86.9157C167.634 86.2341 169.14 85.821 170.749 85.821Z" fill="#470F4C"/>
<path d="M166.293 87.8864C166.128 87.8864 165.963 87.8451 165.818 87.7625C165.529 87.5972 165.344 87.3287 165.323 86.9982C164.271 75.7827 162.352 66.8804 159.671 60.5601C159.568 60.2915 159.568 60.0024 159.691 59.7545L163.57 51.9057C163.735 51.5752 164.065 51.3687 164.436 51.3687C164.807 51.3687 165.158 51.5959 165.302 51.9263C165.364 52.0709 172.358 67.0044 173.843 86.0068C173.864 86.3166 173.74 86.6264 173.513 86.8123C173.286 87.0189 172.956 87.1015 172.667 87.0189C170.625 86.5645 168.583 86.833 166.726 87.7831C166.581 87.8451 166.437 87.8864 166.272 87.8864H166.293ZM161.63 60.2089C164.209 66.426 166.066 74.9358 167.138 85.4904C168.644 84.9534 170.212 84.7469 171.821 84.9121C170.522 70.7222 166.21 59.0729 164.374 54.6528L161.63 60.2089Z" fill="#470F4C"/>
<path d="M65.5187 68.347C65.5187 68.347 67.4579 54.7561 79.588 60.085C91.718 65.4346 155.236 103.791 166.871 49.4065C166.871 49.4065 166.623 49.1586 161.775 47.2171C158.928 46.081 153.297 43.0861 148.923 34.8448C144.55 26.6035 126.623 13.4877 98.4844 20.7582C70.3666 28.0494 64.5492 47.4649 65.5187 68.347Z" fill="#470F4C"/>
<path d="M134.297 79.1493C115.669 79.1493 94.5442 68.574 84.147 63.3897C82.0428 62.3363 80.3718 61.5101 79.1959 60.9937C75.9778 59.5892 73.2959 59.4653 71.1711 60.6426C67.3547 62.77 66.4883 68.4501 66.4883 68.4914C66.4264 68.9871 65.9932 69.3589 65.4774 69.3383C64.9823 69.3176 64.5697 68.9045 64.5491 68.4088C63.3113 41.5575 74.018 26.1077 98.2574 19.8286C127.386 12.2896 145.56 26.3762 149.79 34.3903C153.668 41.7228 158.639 44.9243 162.146 46.3288C167.18 48.353 167.428 48.5802 167.572 48.7247C167.799 48.9519 167.902 49.3031 167.84 49.6129C165.035 62.6874 159.011 71.5483 149.893 75.9272C145.148 78.2198 139.826 79.1493 134.297 79.1493ZM74.4099 57.8748C76.1222 57.8748 77.9788 58.3086 80.0005 59.1967C81.2176 59.7338 82.9092 60.5806 85.034 61.634C98.2574 68.2436 129.201 83.714 149.067 74.1715C157.443 70.1438 163.054 61.9851 165.777 49.9227C165.2 49.6749 163.962 49.1378 161.445 48.1258C157.649 46.5973 152.244 43.1479 148.098 35.2991C144.096 27.7394 126.788 14.4584 98.7732 21.7082C77.2568 27.285 66.8802 40.4215 66.447 62.894C67.2928 61.3862 68.5306 59.899 70.2634 58.9282C71.5218 58.226 72.9246 57.8748 74.4306 57.8748H74.4099Z" fill="#470F4C"/>
<path d="M116.143 266.427C116.143 266.427 116.082 266.427 116.061 266.427C98.1546 264.96 44.6421 208.944 42.3729 206.569C42.146 206.342 42.0635 206.011 42.1254 205.702C42.1872 205.392 42.4142 205.123 42.703 204.999L54.4617 200.166C54.8537 200.001 55.3075 200.125 55.5757 200.455C55.947 200.91 92.8323 245.607 113.833 254.158C118.268 251.06 156.185 224.25 172.379 201.261C172.647 200.889 173.122 200.744 173.555 200.93L183.374 204.999C183.663 205.123 183.87 205.371 183.952 205.66C184.035 205.949 183.952 206.28 183.766 206.507C156.494 239.906 117.072 265.993 116.68 266.262C116.515 266.365 116.329 266.427 116.143 266.427ZM44.7659 206.259C52.2337 214.005 99.6606 262.523 115.896 264.444C119.485 262.048 155.607 237.469 181.415 206.301L173.514 203.037C155.917 227.492 114.906 255.79 114.493 256.079C114.225 256.265 113.895 256.306 113.585 256.182C93.2242 248.333 59.0827 207.767 54.503 202.252L44.7453 206.259H44.7659Z" fill="#470F4C"/>
<path d="M128.767 69.9785C114.574 69.9785 106.323 64.6702 98.958 59.9403C93.1612 56.2224 88.1482 53.0003 81.1755 52.7937C75.9151 52.6491 71.9749 53.9504 69.4787 56.6768C65.8273 60.6425 66.4256 66.3433 66.4256 66.4052C66.4875 66.9423 66.0955 67.4173 65.5591 67.4793C65.0228 67.5413 64.5483 67.1488 64.4864 66.6118C64.4451 66.3433 63.785 59.9609 68.0346 55.3343C70.9434 52.1741 75.3787 50.6663 81.2168 50.8108C88.7465 51.0174 94.2133 54.5287 99.9895 58.2466C107.952 63.369 116.988 69.173 133.801 67.7478C158.556 65.6617 165.88 49.1171 165.962 48.9519C166.168 48.4562 166.746 48.229 167.241 48.4355C167.736 48.6421 167.963 49.2204 167.757 49.7161C167.447 50.4391 159.959 67.5 133.966 69.6894C132.151 69.834 130.397 69.9166 128.747 69.9166L128.767 69.9785Z" fill="#470F4C"/>
<path d="M131.263 57.7096C119.422 57.7096 112.14 53.2275 105.683 49.2618C100.072 45.8124 95.2446 42.8175 88.3544 43.1066C73.2744 43.7263 67.3538 52.7525 67.2919 52.8557C67.0031 53.3101 66.4048 53.4341 65.951 53.1655C65.4971 52.8764 65.3527 52.2774 65.6415 51.823C65.8891 51.4099 72.0985 41.826 88.2719 41.1651C95.7397 40.8553 101.062 44.1394 106.694 47.6094C113.275 51.6577 120.742 56.2431 133.203 55.7267C155.524 54.7973 160.887 46.8039 160.949 46.7212C161.238 46.2668 161.836 46.1429 162.29 46.4114C162.744 46.7006 162.888 47.2996 162.599 47.754C162.372 48.1258 156.803 56.6975 133.285 57.689C132.604 57.7096 131.924 57.7303 131.263 57.7303V57.7096Z" fill="#470F4C"/>
<path d="M145.56 48.3117C136.194 48.3117 129.015 44.3666 121.547 40.2563C115.214 36.7863 108.654 33.1924 100.485 32.077C79.7314 29.2886 69.3755 45.5233 69.2724 45.6885C68.9835 46.1429 68.3853 46.2875 67.9315 45.9984C67.4776 45.7092 67.3332 45.1102 67.622 44.6558C67.7252 44.4906 78.7206 27.1818 100.753 30.1561C109.293 31.3128 115.998 34.9893 122.496 38.5626C132.625 44.1188 142.197 49.3858 157.628 44.2634C158.144 44.0981 158.68 44.3666 158.866 44.883C159.031 45.3994 158.762 45.9364 158.247 46.1223C153.564 47.6714 149.397 48.3324 145.601 48.3324L145.56 48.3117Z" fill="#470F4C"/>
<path d="M151.563 40.0291C151.563 40.0291 151.502 40.0291 151.481 40.0291C146.385 39.616 142.734 37.5092 138.093 34.8241C133.059 31.9117 126.808 28.2765 115.854 24.9511C95.266 18.6926 80.9699 29.8463 80.8255 29.9495C80.3923 30.28 79.794 30.218 79.4639 29.7843C79.1339 29.3712 79.1958 28.7515 79.629 28.4211C79.7734 28.2971 94.8947 16.5445 116.432 23.0715C127.592 26.4589 133.967 30.1561 139.083 33.1304C143.662 35.7948 146.984 37.7157 151.646 38.0875C152.182 38.1288 152.574 38.6039 152.533 39.1409C152.492 39.6573 152.059 40.0291 151.563 40.0291Z" fill="#470F4C"/>
<path d="M58.2567 86.7917C57.7203 86.7917 57.2871 86.3373 57.2871 85.8003C57.514 70.1439 64.92 54.6528 65.2294 54.0125C65.4563 53.5374 66.0546 53.3308 66.529 53.5581C67.0035 53.7853 67.2098 54.3842 66.9829 54.8593C66.9004 55.0245 59.4532 70.6189 59.2263 85.8209C59.2263 86.3579 58.793 86.7917 58.2567 86.7917Z" fill="#470F4C"/>
<path d="M60.9796 115.192C60.9796 115.192 60.8765 115.192 60.8146 115.192C57.7408 114.676 57.3283 108.479 57.2664 107.24C57.2457 106.703 57.6583 106.248 58.1947 106.228C58.7723 106.228 59.1849 106.62 59.2055 107.157C59.3293 109.925 60.1338 113.106 61.124 113.271C61.6604 113.354 62.0111 113.87 61.9286 114.386C61.8461 114.862 61.4335 115.213 60.959 115.213L60.9796 115.192Z" fill="#470F4C"/>
<path d="M76.039 94.0828C75.7501 94.0828 75.482 93.9589 75.2757 93.7317C74.925 93.3186 74.9869 92.6989 75.4201 92.3685C75.6676 92.1619 81.8771 87.1634 93.3057 84.8914C93.8421 84.7881 94.3578 85.1186 94.4609 85.6556C94.5641 86.1927 94.234 86.6884 93.6977 86.8123C82.7435 89.0017 76.7197 93.8349 76.6578 93.8969C76.4722 94.0415 76.2659 94.1241 76.039 94.1241V94.0828Z" fill="#470F4C"/>
<path d="M156.204 94.0828C155.998 94.0828 155.771 94.0209 155.586 93.8556C155.524 93.8143 149.459 88.9604 138.546 86.771C138.009 86.6678 137.679 86.1514 137.782 85.6144C137.886 85.0773 138.401 84.7469 138.938 84.8501C150.366 87.1428 156.555 92.1206 156.823 92.3272C157.236 92.6577 157.298 93.2773 156.968 93.6904C156.782 93.9176 156.493 94.0415 156.204 94.0415V94.0828Z" fill="#470F4C"/>
<path d="M117.338 133.409C113.357 133.409 109.128 133.1 106.838 132.542C106.322 132.418 105.992 131.881 106.116 131.365C106.24 130.848 106.776 130.518 107.292 130.642C111.706 131.716 123.053 131.757 125.404 130.704C126.498 129.237 126.003 113.767 124.827 99.7214C124.785 99.1844 125.177 98.7093 125.714 98.668C126.25 98.6267 126.725 99.0192 126.766 99.5562C127.962 113.911 128.849 131.303 126.188 132.48C124.765 133.12 121.155 133.409 117.318 133.409H117.338Z" fill="#470F4C"/>
<path d="M162.021 62.9973C162.021 62.9973 165.259 109.12 163.65 114.221C162.041 119.323 153.294 135.021 116.162 134.38C80.2666 133.761 67.6414 123.041 65.4341 114.221C63.2268 105.402 66.4656 65.0421 66.4656 65.0421L65.0421 71.2592C65.0421 71.2592 39.8331 182.444 114.511 182.444C189.189 182.444 162.041 63.018 162.041 63.018L162.021 62.9973ZM116.141 154.54C100.029 154.54 98.9774 144.729 98.9774 144.729C98.9774 144.729 114.491 148.55 132.273 144.729C132.273 144.729 132.253 154.54 116.141 154.54Z" fill="#470F4C"/>
<path d="M114.512 183.415C97.3484 183.415 84.0012 177.57 74.8212 166.065C61.8041 149.747 59.5967 124.755 60.03 106.662C60.5044 87.1427 64.0733 71.2178 64.0939 71.0526L65.5174 64.8355C65.6205 64.3398 66.1156 64.0093 66.6107 64.0919C67.1058 64.1745 67.4771 64.6289 67.4359 65.1246C67.3946 65.5171 64.2383 105.422 66.3632 113.994C67.4565 118.373 74.2642 132.707 116.162 133.41C154.389 134.07 161.65 117.299 162.702 113.932C163.981 109.904 161.939 75.8445 161.031 63.0798C160.99 62.5634 161.361 62.1297 161.856 62.0471C162.372 61.9645 162.847 62.2949 162.95 62.7906C162.991 62.9559 167.034 80.6158 167.798 102.035C168.52 121.905 166.519 149.169 152.862 166.375C143.888 177.673 130.974 183.415 114.471 183.415H114.512ZM64.4859 79.6863C61.6597 97.718 57.3481 141.052 76.3271 164.846C85.1152 175.876 97.9673 181.473 114.491 181.473C131.015 181.473 142.774 176 151.356 165.177C168.623 143.427 167.014 104.679 164.146 81.7311C164.889 95.2187 165.528 111.495 164.559 114.531C163.424 118.125 155.709 136.033 116.121 135.372C74.0373 134.649 65.9712 120.521 64.4653 114.469C63.1037 109.016 63.7432 92.2444 64.4653 79.707L64.4859 79.6863ZM116.142 155.51C99.3495 155.51 98.0498 145.265 98.0086 144.832C97.9673 144.522 98.0911 144.212 98.3386 143.985C98.5862 143.778 98.8956 143.696 99.2051 143.778C99.3495 143.82 114.718 147.496 132.068 143.778C132.356 143.716 132.666 143.778 132.893 143.964C133.12 144.15 133.264 144.439 133.243 144.728C133.243 144.832 133.017 155.51 116.142 155.51ZM100.319 146.009C101.289 148.529 104.672 153.569 116.142 153.569C127.612 153.569 130.417 148.405 131.098 145.968C117.132 148.673 104.631 146.815 100.34 146.009H100.319Z" fill="#470F4C"/>
<path d="M170.749 108.149C169.243 108.149 167.778 107.839 166.396 107.219C165.901 106.992 165.674 106.434 165.901 105.939C166.128 105.443 166.685 105.216 167.18 105.443C168.315 105.939 169.511 106.207 170.749 106.207C175.824 106.207 179.95 101.849 179.95 96.4993C179.95 91.1497 175.824 86.7916 170.749 86.7916C169.346 86.7916 167.985 87.122 166.726 87.7623C166.252 88.0102 165.654 87.8243 165.406 87.3286C165.158 86.8535 165.344 86.2545 165.839 86.0067C167.366 85.2218 169.016 84.8293 170.728 84.8293C176.876 84.8293 181.889 90.055 181.889 96.4787C181.889 102.902 176.876 108.128 170.728 108.128L170.749 108.149Z" fill="#470F4C"/>
<path d="M169.613 102.551C168.561 102.551 167.55 102.345 166.601 101.952C166.106 101.746 165.879 101.167 166.085 100.672C166.292 100.176 166.869 99.9486 167.364 100.155C168.066 100.444 168.829 100.61 169.633 100.61C172.398 100.61 174.626 98.7713 174.626 96.4993C174.626 94.2273 172.377 92.389 169.633 92.389C168.602 92.389 167.632 92.6368 166.787 93.1119C166.312 93.3804 165.714 93.2152 165.466 92.7401C165.198 92.265 165.363 91.666 165.838 91.4182C166.972 90.7779 168.293 90.4268 169.654 90.4268C173.491 90.4268 176.606 93.1325 176.606 96.4786C176.606 99.8247 173.491 102.53 169.654 102.53L169.613 102.551Z" fill="#470F4C"/>
<path d="M58.2562 108.149C52.1086 108.149 47.0957 102.923 47.0957 96.4994C47.0957 90.0758 52.1086 84.8501 58.2562 84.8501C59.7415 84.8501 61.2062 85.1599 62.5677 85.7589C63.0628 85.9655 63.2897 86.5438 63.0628 87.0395C62.8565 87.5352 62.2789 87.7624 61.7838 87.5352C60.6698 87.0395 59.4733 86.7916 58.2562 86.7916C53.1814 86.7916 49.0555 91.1498 49.0555 96.4994C49.0555 101.849 53.1814 106.207 58.2562 106.207C59.2258 106.207 59.8859 106.125 60.6492 105.877C61.1649 105.711 61.7013 106.001 61.8663 106.517C62.0313 107.033 61.7425 107.57 61.2268 107.736C60.2572 108.045 59.4114 108.149 58.2355 108.149H58.2562Z" fill="#470F4C"/>
<path d="M59.3915 102.551C55.5545 102.551 52.4395 99.8248 52.4395 96.4994C52.4395 93.1739 55.5545 90.4475 59.3915 90.4475C60.4024 90.4475 61.372 90.6334 62.2796 91.0052C62.7748 91.2117 63.0223 91.7694 62.816 92.2651C62.6097 92.7608 62.0527 93.0087 61.5576 92.8022C60.8769 92.5336 60.1548 92.3891 59.3915 92.3891C56.6272 92.3891 54.3992 94.2273 54.3992 96.4994C54.3992 98.7714 56.6478 100.61 59.3915 100.61C59.8454 100.61 60.2992 100.568 60.7324 100.465C61.2482 100.341 61.7845 100.672 61.9083 101.188C62.0321 101.704 61.702 102.241 61.1863 102.365C60.6087 102.489 60.0104 102.572 59.4122 102.572L59.3915 102.551Z" fill="#470F4C"/>
<path d="M225.065 270H1.03079C0.515058 270 0.102472 269.607 0.0612129 269.091C0.0405835 268.657 -2.53808 225.365 28.7566 211.175C59.5562 197.192 66.5702 196.097 66.8384 196.056C67.3747 195.973 67.8698 196.345 67.9317 196.882C68.0142 197.419 67.6429 197.914 67.1065 197.976C67.1065 197.976 59.8656 199.195 29.5405 212.951C13.8829 220.056 7.21959 234.845 4.39337 246.02C1.83534 256.161 1.85596 265.229 1.93848 268.058H224.137C224.22 265.229 224.261 256.161 221.682 246.02C218.856 234.866 212.193 220.056 196.535 212.951C166.21 199.195 159.031 197.997 158.969 197.976C158.433 197.894 158.061 197.398 158.144 196.861C158.226 196.324 158.701 195.973 159.237 196.035C159.526 196.076 166.519 197.192 197.319 211.154C228.614 225.344 226.035 268.637 226.014 269.07C225.973 269.587 225.56 269.979 225.045 269.979L225.065 270Z" fill="#470F4C"/>
</g>
<defs>
<clipPath id="clip0_186_553">
<rect width="226.84" height="270" fill="white"/>
</clipPath>
</defs>
</svg>
