<svg width="762" height="631" viewBox="0 0 762 631" fill="none" xmlns="http://www.w3.org/2000/svg">
<g clip-path="url(#clip0_12_908)">
<path d="M647.316 189.159L445.615 121.061L445.467 120.894L338.899 11.7263L253.456 89.7538L252.196 88.3829L338.973 9.13281L446.634 119.449L646.612 186.973L728.683 74.0816L730.184 75.1746L647.316 189.159Z" fill="white" stroke="black" stroke-width="0.5" stroke-miterlimit="10"/>
<path d="M271.931 600.823L271.153 600.675L21.143 553.473L21.4951 551.657L270.727 598.711L445.263 119.931L447.005 120.58L271.931 600.823Z" fill="white" stroke="black" stroke-width="0.5" stroke-miterlimit="10"/>
<path d="M33.1158 164.356L31.8872 165.743L117.185 241.267L118.414 239.88L33.1158 164.356Z" fill="white" stroke="black" stroke-width="0.5" stroke-miterlimit="10"/>
<path d="M729.813 601.36L606.216 524.777L608.903 524.036L738.782 399.122L646.112 188.437L647.817 187.696L740.987 399.567L740.523 400.011L610.386 525.185L730.795 599.785L729.813 601.36Z" fill="white" stroke="black" stroke-width="0.5" stroke-miterlimit="10"/>
<path d="M22.1066 553.065L20.55 552.065L95.2454 436.709L9.11688 356.829L9.74691 356.144L117.63 239.399L118.278 239.77L609.848 524.055L608.922 525.667L117.982 241.733L11.7482 356.737L97.6543 436.394L22.1066 553.065Z" fill="white" stroke="black" stroke-width="0.5" stroke-miterlimit="10"/>
<path d="M20.4018 356.774C20.4018 362.276 15.936 366.74 10.4325 366.74C4.92904 366.74 0.463257 362.276 0.463257 356.774C0.463257 351.272 4.92904 346.807 10.4325 346.807C15.936 346.807 20.4018 351.272 20.4018 356.774Z" fill="white" stroke="black" stroke-width="0.5" stroke-miterlimit="10"/>
<path d="M348.906 10.4296C348.906 15.9315 344.44 20.3961 338.936 20.3961C333.433 20.3961 328.967 15.9315 328.967 10.4296C328.967 4.92767 333.433 0.463135 338.936 0.463135C344.44 0.463135 348.906 4.92767 348.906 10.4296Z" fill="white" stroke="black" stroke-width="0.5" stroke-miterlimit="10"/>
<path d="M739.412 74.6374C739.412 80.1393 734.946 84.6038 729.442 84.6038C723.939 84.6038 719.473 80.1393 719.473 74.6374C719.473 69.1354 723.939 64.6709 729.442 64.6709C734.946 64.6709 739.412 69.1354 739.412 74.6374Z" fill="white" stroke="black" stroke-width="0.5" stroke-miterlimit="10"/>
<path d="M740.283 600.563C740.283 606.065 735.817 610.53 730.313 610.53C724.81 610.53 720.344 606.065 720.344 600.563C720.344 595.061 724.81 590.597 730.313 590.597C735.817 590.597 740.283 595.061 740.283 600.563Z" fill="white" stroke="black" stroke-width="0.5" stroke-miterlimit="10"/>
<path d="M456.103 120.265C456.103 125.767 451.637 130.231 446.134 130.231C440.63 130.231 436.164 125.767 436.164 120.265C436.164 114.763 440.63 110.298 446.134 110.298C451.637 110.298 456.103 114.763 456.103 120.265Z" fill="white" stroke="black" stroke-width="0.5" stroke-miterlimit="10"/>
<path d="M646.127 183.342L480.843 254.984L481.58 256.684L646.864 185.042L646.127 183.342Z" fill="white" stroke="black" stroke-width="0.5" stroke-miterlimit="10"/>
<path d="M253.602 88.5608L252.026 89.5359L322.701 203.668L324.277 202.693L253.602 88.5608Z" fill="white" stroke="black" stroke-width="0.5" stroke-miterlimit="10"/>
<path d="M275.67 392.471L92.3271 430.863L92.7069 432.676L276.05 394.284L275.67 392.471Z" fill="white" stroke="black" stroke-width="0.5" stroke-miterlimit="10"/>
<path opacity="0.8" d="M646.127 183.342L480.843 254.984L481.58 256.684L646.864 185.042L646.127 183.342Z" fill="white" stroke="black" stroke-width="0.5" stroke-miterlimit="10"/>
<path d="M503.176 363.078L501.606 364.062L607.107 532.393L608.677 531.409L503.176 363.078Z" fill="white" stroke="black" stroke-width="0.5" stroke-miterlimit="10"/>
<path opacity="0.8" d="M503.176 363.078L501.606 364.062L607.107 532.393L608.677 531.409L503.176 363.078Z" fill="white" stroke="black" stroke-width="0.5" stroke-miterlimit="10"/>
<path opacity="0.8" d="M253.602 88.5608L252.026 89.5359L322.701 203.668L324.277 202.693L253.602 88.5608Z" fill="white" stroke="black" stroke-width="0.5" stroke-miterlimit="10"/>
<path opacity="0.8" d="M275.67 392.471L92.3271 430.863L92.7069 432.676L276.05 394.284L275.67 392.471Z" fill="white" stroke="black" stroke-width="0.5" stroke-miterlimit="10"/>
<path d="M271.042 600.767L91.5393 432.06L116.926 240.159L117.111 239.955L252.363 88.1979L252.697 88.1609L497.796 54.2786L647.465 183.843L647.409 184.324L608.718 532.706L608.051 532.836L271.023 600.767H271.042ZM93.5035 431.356L271.616 598.748L607.05 531.132L645.538 184.565L497.222 56.2052L253.29 89.9393L118.686 240.974L93.5035 431.374V431.356Z" fill="white" stroke="black" stroke-width="0.5" stroke-miterlimit="10"/>
<path opacity="0.8" d="M271.042 600.767L91.5393 432.06L116.926 240.159L117.111 239.955L252.363 88.1979L252.697 88.1609L497.796 54.2786L647.465 183.843L647.409 184.324L608.718 532.706L608.051 532.836L271.023 600.767H271.042ZM93.5035 431.356L271.616 598.748L607.05 531.132L645.538 184.565L497.222 56.2052L253.29 89.9393L118.686 240.974L93.5035 431.374V431.356Z" fill="white" stroke="black" stroke-width="0.5" stroke-miterlimit="10"/>
<path d="M363.934 472.278C368.918 472.685 373.847 472.852 378.739 472.778C420.618 472.166 458.938 454.197 486.122 425.317C508.655 401.382 523.535 369.908 526.444 334.599C526.518 333.692 526.592 332.765 526.648 331.858C527.871 312.962 525.536 294.641 520.236 277.561C503.985 225.32 459.92 184.528 404.015 174.154C399.011 173.228 393.916 172.542 388.727 172.116C376.219 171.079 363.934 171.616 352.074 173.543C316.96 179.23 285.532 197.181 262.796 223.171C242.357 246.55 228.941 276.449 226.198 309.776C224.716 327.634 226.421 345.029 230.831 361.368C246.878 420.945 298.855 466.887 363.897 472.259L363.934 472.278Z" fill="white" stroke="black" stroke-width="0.5" stroke-miterlimit="10"/>
<g opacity="0.7">
<path d="M363.934 472.278C368.918 472.685 373.847 472.852 378.739 472.778C420.618 472.166 458.938 454.197 486.122 425.317C508.655 401.382 523.535 369.908 526.444 334.599C526.518 333.692 526.592 332.765 526.648 331.858C527.871 312.962 525.536 294.641 520.236 277.561C503.985 225.32 459.92 184.528 404.015 174.154C399.011 173.228 393.916 172.542 388.727 172.116C376.219 171.079 363.934 171.616 352.074 173.543C316.96 179.23 285.532 197.181 262.796 223.171C242.357 246.55 228.941 276.449 226.198 309.776C224.716 327.634 226.421 345.029 230.831 361.368C246.878 420.945 298.855 466.887 363.897 472.259L363.934 472.278Z" fill="white" stroke="black" stroke-width="0.5" stroke-miterlimit="10"/>
</g>
<path d="M10.4325 165.04C10.4325 173.209 14.8798 180.36 21.495 184.157C24.7378 186.029 28.4995 187.103 32.5205 187.103C37.6534 187.103 42.3786 185.362 46.1217 182.416C51.2916 178.378 54.59 172.098 54.59 165.04C54.59 152.85 44.7134 142.976 32.5205 142.976C20.3276 142.976 10.451 152.85 10.451 165.04H10.4325Z" fill="white" stroke="black" stroke-width="0.5" stroke-miterlimit="10"/>
<path opacity="0.3" d="M35.8509 185.572C47.1951 183.731 54.8987 173.045 53.0572 161.704C51.2158 150.363 40.5267 142.661 29.1824 144.502C17.8382 146.343 10.1346 157.029 11.9761 168.37C13.8175 179.711 24.5066 187.413 35.8509 185.572Z" fill="white" stroke="black" stroke-width="0.5" stroke-miterlimit="10"/>
<path d="M21.3283 572.183C32.166 572.183 40.9518 563.4 40.9518 552.565C40.9518 541.73 32.166 532.947 21.3283 532.947C10.4905 532.947 1.70477 541.73 1.70477 552.565C1.70477 563.4 10.4905 572.183 21.3283 572.183Z" fill="white" stroke="black" stroke-width="0.5" stroke-miterlimit="10"/>
<path opacity="0.3" d="M39.8214 552.565C39.8214 556.826 38.3761 560.772 35.9486 563.902C32.5576 568.256 27.2765 571.053 21.3283 571.053C17.474 571.053 13.8791 569.867 10.9143 567.848C6.04084 564.514 2.83511 558.919 2.83511 552.565C2.83511 542.358 11.1181 534.059 21.3283 534.059C31.5384 534.059 39.84 542.339 39.84 552.565H39.8214Z" fill="white" stroke="black" stroke-width="0.5" stroke-miterlimit="10"/>
<path d="M755.214 414.658C763.673 406.201 763.673 392.489 755.214 384.032C746.754 375.575 733.039 375.575 724.579 384.032C716.12 392.489 716.12 406.201 724.579 414.658C733.039 423.115 746.754 423.115 755.214 414.658Z" fill="white" stroke="black" stroke-width="0.5" stroke-miterlimit="10"/>
<path opacity="0.3" d="M760.295 399.344C760.295 403.531 759.035 407.421 756.867 410.645C753.217 416.146 746.972 419.759 739.875 419.759C735.168 419.759 730.832 418.166 727.367 415.461C722.549 411.738 719.455 405.902 719.455 399.326C719.455 388.044 728.59 378.911 739.875 378.911C751.16 378.911 760.295 388.044 760.295 399.326V399.344Z" fill="white" stroke="black" stroke-width="0.5" stroke-miterlimit="10"/>
<path d="M708.744 188.066C708.744 201.941 704.149 214.779 696.421 225.098C693.679 228.784 690.51 232.137 687.008 235.064C683.895 237.769 680.467 240.14 676.798 242.141C667.978 247.031 657.786 249.829 646.964 249.829C637.866 249.829 629.194 247.847 621.411 244.29C620.688 243.993 619.966 243.641 619.262 243.271H619.243C614.888 241.103 610.812 238.399 607.124 235.287C601.602 230.655 596.896 225.042 593.319 218.725C588.131 209.685 585.166 199.237 585.166 188.085C585.166 153.98 612.832 126.304 646.964 126.304C681.097 126.304 708.726 153.962 708.726 188.085L708.744 188.066Z" fill="white" stroke="black" stroke-width="0.5" stroke-miterlimit="10"/>
<path opacity="0.7" d="M689.368 230.461C712.793 207.043 712.793 169.075 689.368 145.657C665.944 122.239 627.965 122.239 604.541 145.657C581.116 169.075 581.116 207.043 604.541 230.461C627.965 253.879 665.944 253.879 689.368 230.461Z" fill="white" stroke="black" stroke-width="0.5" stroke-miterlimit="10"/>
<path d="M495.665 92.6624C514.291 92.6624 529.39 77.5674 529.39 58.9468C529.39 40.3262 514.291 25.2312 495.665 25.2312C477.039 25.2312 461.94 40.3262 461.94 58.9468C461.94 77.5674 477.039 92.6624 495.665 92.6624Z" fill="white" stroke="black" stroke-width="0.5" stroke-miterlimit="10"/>
<path opacity="0.3" d="M527.463 58.9467C527.463 67.3015 524.239 74.8968 518.958 80.5654C513.158 86.8084 504.875 90.7171 495.665 90.7171C485.788 90.7171 476.987 86.2341 471.168 79.1946C466.591 73.7111 463.867 66.6531 463.867 58.9467C463.867 41.3849 478.098 27.1577 495.665 27.1577C513.232 27.1577 527.444 41.3849 527.444 58.9467H527.463Z" fill="white" stroke="black" stroke-width="0.5" stroke-miterlimit="10"/>
<path d="M295.186 620.656C308.356 607.49 308.356 586.142 295.186 572.975C282.015 559.809 260.662 559.809 247.491 572.975C234.321 586.142 234.321 607.49 247.491 620.656C260.662 633.823 282.015 633.823 295.186 620.656Z" fill="white" stroke="black" stroke-width="0.5" stroke-miterlimit="10"/>
<path opacity="0.2" d="M303.136 596.822C303.136 605.917 299.3 614.124 293.185 619.885C287.496 625.294 279.788 628.592 271.338 628.592C264.649 628.592 258.46 626.536 253.345 623.016C245.007 617.292 239.54 607.677 239.54 596.822C239.54 579.26 253.771 565.051 271.338 565.051C288.905 565.051 303.136 579.278 303.136 596.822Z" fill="white" stroke="black" stroke-width="0.5" stroke-miterlimit="10"/>
<path d="M150.62 248.311C154.899 230.188 143.672 212.03 125.544 207.752C107.416 203.475 89.2522 214.699 84.9737 232.822C80.6951 250.944 91.9221 269.103 110.05 273.38C128.178 277.658 146.341 266.434 150.62 248.311Z" fill="white" stroke="black" stroke-width="0.5" stroke-miterlimit="10"/>
<path opacity="0.2" d="M149.613 240.566C149.613 248.699 146.556 256.127 141.534 261.74C135.697 268.261 127.229 272.355 117.815 272.355C110.811 272.355 104.344 270.095 99.0997 266.261C91.1687 260.481 86.0359 251.107 86.0359 240.566C86.0359 223.005 100.267 208.796 117.815 208.796C135.363 208.796 149.613 223.023 149.613 240.566Z" fill="white" stroke="black" stroke-width="0.5" stroke-miterlimit="10"/>
<path d="M250.529 142.828C281.763 142.828 307.083 117.515 307.083 86.2897C307.083 55.0643 281.763 29.7512 250.529 29.7512C219.295 29.7512 193.974 55.0643 193.974 86.2897C193.974 117.515 219.295 142.828 250.529 142.828Z" fill="white" stroke="black" stroke-width="0.5" stroke-miterlimit="10"/>
<path opacity="0.7" d="M305.23 86.2897C305.23 98.8126 300.986 110.372 293.852 119.616C291.907 122.154 289.739 124.525 287.348 126.693C285.162 128.694 282.827 130.509 280.325 132.102C280.233 132.195 280.121 132.269 280.01 132.306C278.065 133.584 276.045 134.714 273.932 135.715C266.835 139.086 258.886 140.976 250.529 140.976C233.87 140.976 218.916 133.492 208.891 121.728C200.738 112.151 195.827 99.7944 195.827 86.2897C195.827 56.1309 220.38 31.6038 250.547 31.6038C280.714 31.6038 305.248 56.1309 305.248 86.2897H305.23Z" fill="white" stroke="black" stroke-width="0.5" stroke-miterlimit="10"/>
<path d="M94.1891 487.82C123.724 487.82 147.667 463.884 147.667 434.357C147.667 404.83 123.724 380.894 94.1891 380.894C64.6539 380.894 40.7109 404.83 40.7109 434.357C40.7109 463.884 64.6539 487.82 94.1891 487.82Z" fill="white" stroke="black" stroke-width="0.5" stroke-miterlimit="10"/>
<path opacity="0.7" d="M145.814 434.357C145.814 446.695 141.478 458.032 134.214 466.905C132.028 469.591 129.582 472.055 126.895 474.26C126.043 474.964 125.153 475.649 124.227 476.298C121.725 478.113 119.038 479.688 116.222 481.021C109.532 484.189 102.064 485.968 94.1891 485.968C84.7202 485.968 75.8442 483.411 68.2283 478.928C66.2641 477.798 64.3925 476.52 62.6136 475.131H62.5951C62.5951 475.131 62.4098 474.982 62.3172 474.89C60.2232 473.278 58.259 471.463 56.4801 469.517C47.845 460.31 42.5825 447.936 42.5825 434.357C42.5825 405.902 65.7267 382.746 94.1891 382.746C122.652 382.746 145.814 405.902 145.814 434.357Z" fill="white" stroke="black" stroke-width="0.5" stroke-miterlimit="10"/>
<path d="M656.993 573.031C682.87 547.161 682.87 505.216 656.992 479.346C631.115 453.475 589.159 453.475 563.281 479.346C537.403 505.216 537.403 547.161 563.281 573.031C589.159 598.902 631.115 598.902 656.993 573.031Z" fill="white" stroke="black" stroke-width="0.5" stroke-miterlimit="10"/>
<path opacity="0.7" d="M674.537 526.186C674.537 536.578 672.073 546.396 667.663 555.103C666.792 556.844 665.828 558.53 664.809 560.179C664.012 561.457 663.178 562.717 662.27 563.94C658.509 569.145 653.969 573.758 648.836 577.63C647.668 578.519 646.464 579.352 645.222 580.167C640.275 583.409 634.846 585.966 629.083 587.744C623.079 589.597 616.723 590.597 610.126 590.597C600.639 590.597 591.615 588.541 583.498 584.836C582.461 584.354 581.423 583.854 580.404 583.335C574.641 580.316 569.378 576.444 564.801 571.905C560.317 567.478 556.481 562.383 553.442 556.807C552.59 555.214 551.793 553.566 551.07 551.898C547.624 544.025 545.715 535.318 545.715 526.186C545.715 490.692 574.622 461.792 610.145 461.792C645.667 461.792 674.556 490.692 674.556 526.186H674.537Z" fill="white" stroke="black" stroke-width="0.5" stroke-miterlimit="10"/>
</g>
<defs>
<clipPath id="clip0_12_908">
<rect width="762" height="631" fill="white"/>
</clipPath>
</defs>
</svg>
