<svg width="590" height="434" viewBox="0 0 590 434" fill="none" xmlns="http://www.w3.org/2000/svg">
<g clip-path="url(#clip0_111_1476)">
<path d="M61.87 288.22L46.79 342.88L65.27 356.06L106.83 366.18L123.31 304.47L61.87 288.22Z" fill="#F5F5F5"/>
<path d="M54.82 340.43L46.79 342.88C46.79 342.88 49.32 347.68 53.28 350.44C57.24 353.21 61.11 355.04 65.27 356.06C65.27 356.06 56.39 350.9 54.82 340.43Z" fill="#ECECEC"/>
<path d="M111.3 322.17C111.27 322.27 100.79 319.59 87.8901 316.19C74.9901 312.78 64.5501 309.94 64.5801 309.84C64.6101 309.74 75.0901 312.42 87.9901 315.82C100.89 319.23 111.33 322.07 111.3 322.17Z" fill="#E1E1E1"/>
<path d="M108.87 330.54C108.84 330.64 98.36 327.96 85.46 324.56C72.56 321.15 62.12 318.31 62.15 318.21C62.18 318.11 72.66 320.79 85.56 324.19C98.46 327.6 108.9 330.44 108.87 330.54Z" fill="#E1E1E1"/>
<path d="M107.16 338.08C107.13 338.18 96.65 335.5 83.75 332.1C70.85 328.69 60.41 325.85 60.44 325.75C60.47 325.65 70.95 328.33 83.85 331.73C96.75 335.14 107.19 337.98 107.16 338.08Z" fill="#E1E1E1"/>
<path d="M105.22 345.26C105.19 345.36 94.7101 342.68 81.8101 339.28C68.9101 335.87 58.4701 333.03 58.5001 332.93C58.5301 332.83 69.0101 335.51 81.9101 338.91C94.8101 342.32 105.25 345.16 105.22 345.26Z" fill="#E1E1E1"/>
<path d="M543.11 238.12L531.6 279.81L545.7 289.86L577.4 297.58L589.97 250.52L543.11 238.12Z" fill="#F5F5F5"/>
<path d="M537.73 277.94L531.61 279.81C531.61 279.81 533.54 283.47 536.56 285.58C539.58 287.69 542.54 289.09 545.71 289.86C545.71 289.86 538.93 285.92 537.74 277.94H537.73Z" fill="#ECECEC"/>
<path d="M580.81 264.02C580.79 264.1 572.8 262.05 562.96 259.46C553.12 256.86 545.16 254.69 545.18 254.62C545.2 254.54 553.19 256.58 563.03 259.18C572.87 261.78 580.83 263.95 580.81 264.02Z" fill="#E1E1E1"/>
<path d="M578.96 270.4C578.94 270.48 570.95 268.43 561.11 265.84C551.27 263.24 543.31 261.07 543.33 261C543.35 260.92 551.34 262.96 561.18 265.56C571.02 268.16 578.98 270.33 578.96 270.4Z" fill="#E1E1E1"/>
<path d="M577.65 276.15C577.63 276.23 569.64 274.18 559.8 271.59C549.96 268.99 542 266.82 542.02 266.75C542.04 266.67 550.03 268.71 559.87 271.31C569.71 273.91 577.67 276.08 577.65 276.15Z" fill="#E1E1E1"/>
<path d="M576.17 281.63C576.15 281.71 568.16 279.66 558.32 277.07C548.48 274.47 540.52 272.3 540.54 272.23C540.56 272.15 548.55 274.19 558.39 276.79C568.23 279.39 576.19 281.56 576.17 281.63Z" fill="#E1E1E1"/>
<path d="M482.31 30.9L467.11 34.79L466.37 39.44C466.13 40.99 466.13 42.22 466.37 43.13C466.68 44.34 467.39 45.1 468.51 45.42C469.17 45.61 470.64 45.51 472.93 45.1L473.23 46.27L458.92 49.93L458.62 48.76C460.1 48.13 461.21 47.17 461.94 45.87C462.67 44.57 463.34 42.09 463.96 38.44L470.56 0.15L471.16 0L495.71 31.33C498.05 34.29 499.8 36.09 500.97 36.71C501.86 37.18 502.97 37.3 504.31 37.07L504.61 38.24L483.79 43.57L483.49 42.4L484.35 42.18C486.02 41.75 487.14 41.22 487.69 40.58C488.07 40.12 488.18 39.58 488.01 38.94C487.91 38.56 487.75 38.18 487.52 37.81C487.43 37.63 486.91 36.92 485.96 35.67L482.3 30.89L482.31 30.9ZM480.63 28.83L470.43 15.65L467.62 32.16L480.63 28.83Z" fill="#E1E1E1"/>
<path d="M571.014 139.857L527.463 138.58C522.538 138.435 518.429 142.31 518.285 147.235L517.17 185.258C517.025 190.182 520.9 194.291 525.824 194.436L569.376 195.713C574.3 195.858 578.409 191.983 578.553 187.059L579.669 149.035C579.813 144.111 575.938 140.002 571.014 139.857Z" fill="#ECECEC"/>
<path d="M517.32 180.39L538.05 166.48C539.66 165.19 541.97 165.28 543.48 166.69L553.69 171.93L568.26 157.68C570.1 156.04 572.93 156.28 574.46 158.21L579.22 164.19L578.99 188.68C578.95 192.61 575.69 195.74 571.76 195.62L523.86 194.11C519.98 193.99 516.93 190.73 517.08 186.85L517.32 180.41V180.39Z" fill="#E1E1E1"/>
<path d="M546.97 153.6C547.12 156.99 544.51 159.86 541.12 160.01C537.73 160.16 534.86 157.55 534.71 154.16C534.56 150.77 537.17 147.9 540.56 147.75C543.95 147.6 546.82 150.21 546.97 153.6Z" fill="#E1E1E1"/>
<path d="M301.89 367.25C307.29 380.95 300.53 396.44 286.8 401.85C273.07 407.26 257.56 400.54 252.17 386.84C246.77 373.14 253.53 357.65 267.26 352.24C280.99 346.83 296.5 353.55 301.89 367.25Z" fill="#F5F5F5"/>
<path d="M295.97 369.58C300.08 380.02 294.93 391.82 284.47 395.94C274.01 400.06 262.19 394.94 258.08 384.5C253.97 374.06 259.12 362.26 269.58 358.13C280.04 354.01 291.86 359.13 295.97 369.57V369.58Z" fill="#ECECEC"/>
<path d="M295.73 368.99C295.62 369.04 295.21 368.24 294.33 366.91C293.45 365.59 292.05 363.73 289.86 361.96C288.76 361.08 287.48 360.23 286 359.51C284.52 358.8 282.85 358.2 281.04 357.85C280.14 357.67 279.2 357.54 278.23 357.5C277.27 357.45 276.28 357.46 275.28 357.56C274.28 357.66 273.28 357.82 272.27 358.08C271.27 358.34 270.27 358.68 269.29 359.09C268.32 359.52 267.39 360.01 266.51 360.56C265.63 361.11 264.82 361.73 264.06 362.38C263.3 363.03 262.62 363.75 261.99 364.48C261.36 365.21 260.81 365.98 260.31 366.76C259.32 368.32 258.61 369.94 258.11 371.5C257.62 373.07 257.35 374.59 257.24 375.99C257.01 378.8 257.41 381.09 257.76 382.64C258.13 384.19 258.43 385.04 258.31 385.08C258.23 385.12 257.73 384.35 257.18 382.81C256.63 381.27 256.05 378.91 256.14 375.93C256.19 374.45 256.41 372.82 256.87 371.13C257.35 369.45 258.06 367.69 259.09 366C259.6 365.15 260.18 364.32 260.85 363.52C261.51 362.72 262.24 361.94 263.05 361.23C263.86 360.52 264.73 359.84 265.68 359.24C266.62 358.64 267.63 358.11 268.68 357.65C269.74 357.2 270.81 356.84 271.89 356.57C272.97 356.29 274.06 356.13 275.14 356.03C276.22 355.93 277.28 355.93 278.31 356C279.35 356.06 280.35 356.22 281.32 356.43C283.26 356.84 285.02 357.53 286.57 358.34C288.12 359.16 289.45 360.12 290.56 361.11C292.79 363.09 294.1 365.14 294.84 366.59C295.58 368.06 295.8 368.94 295.71 368.98L295.73 368.99Z" fill="#E1E1E1"/>
<path d="M283.62 387.5L284.97 390.78L282.04 391.98L280.73 388.79C277.76 389.8 274.6 390.04 272.47 389.44L272.61 385.2C274.52 385.68 276.95 385.61 279.15 384.95L277.14 380.06C273.56 380.61 269.49 381.01 267.77 376.82C266.5 373.71 267.66 370.12 272.07 367.7L270.73 364.45L273.66 363.25L274.97 366.44C277.24 365.71 279.62 365.42 281.65 365.78L281.67 369.99C279.83 369.75 278.1 369.88 276.56 370.31L278.61 375.29C282.17 374.72 286.19 374.33 287.89 378.46C289.14 381.51 288 385.06 283.63 387.5H283.62ZM275.37 375.75L273.66 371.59C272.25 372.58 271.99 373.68 272.38 374.65C272.8 375.67 273.91 375.87 275.37 375.75ZM283.31 380.74C282.89 379.71 281.81 379.51 280.37 379.58L282.03 383.62C283.36 382.7 283.69 381.67 283.31 380.73V380.74Z" fill="#E1E1E1"/>
<path d="M0 74.03C0.02 74.11 0.03 74.19 0.05 74.28L0.01 74.3C0.01 74.21 0.01 74.12 0 74.04L0 74.03Z" fill="#470F4C"/>
<path d="M200.6 35.09H149.88C147.43 35.09 145.47 33.04 145.59 30.59L146.62 9.10001C146.73 6.81001 148.62 5.01001 150.91 5.01001H201.63C204.08 5.01001 206.04 7.06001 205.92 9.51001L204.89 31C204.78 33.29 202.89 35.09 200.6 35.09Z" fill="#FAFAFA"/>
<path d="M200.6 35.09C200.6 35.09 201.23 35.14 202.27 34.69C202.78 34.46 203.39 34.07 203.89 33.42C204.41 32.78 204.78 31.87 204.8 30.8C204.99 26.44 205.26 20.17 205.6 12.44C205.58 10.54 206.22 8.31999 204.81 6.71999C204.18 5.92999 203.22 5.37999 202.18 5.25999C201.14 5.17999 199.98 5.23999 198.85 5.22999C194.29 5.22999 189.41 5.24999 184.29 5.24999C174.03 5.24999 162.76 5.25999 150.92 5.26999C149.52 5.26999 148.17 6.02999 147.46 7.21999C147.1 7.80999 146.91 8.47999 146.88 9.16999C146.85 9.88999 146.81 10.62 146.78 11.34C146.64 14.22 146.5 17.06 146.37 19.84C146.23 22.63 146.1 25.37 145.97 28.05C145.94 28.72 145.9 29.39 145.87 30.05C145.82 30.73 145.81 31.33 146 31.93C146.34 33.12 147.25 34.12 148.38 34.56C148.95 34.79 149.53 34.87 150.16 34.86C150.79 34.86 151.42 34.86 152.05 34.86C153.3 34.86 154.53 34.86 155.75 34.86C158.18 34.86 160.54 34.86 162.82 34.87C167.38 34.88 171.63 34.89 175.51 34.9C183.25 34.93 189.52 34.96 193.88 34.98C196.03 35 197.71 35.02 198.88 35.03C199.43 35.04 199.86 35.05 200.18 35.06C200.47 35.06 200.62 35.08 200.62 35.09C200.62 35.1 200.47 35.11 200.18 35.12C199.86 35.12 199.43 35.13 198.88 35.15C197.71 35.16 196.03 35.18 193.88 35.2C189.52 35.22 183.25 35.25 175.51 35.28C171.63 35.28 167.38 35.3 162.82 35.31C160.54 35.31 158.18 35.31 155.75 35.32C154.54 35.32 153.3 35.32 152.05 35.32C151.43 35.32 150.8 35.32 150.16 35.32C149.52 35.33 148.82 35.25 148.2 34.99C146.93 34.5 145.92 33.38 145.53 32.05C145.32 31.39 145.33 30.65 145.38 30.01C145.41 29.35 145.44 28.68 145.47 28.01C145.6 25.33 145.73 22.59 145.86 19.8C145.99 17.01 146.13 14.17 146.26 11.3C146.29 10.58 146.33 9.85999 146.36 9.12999C146.39 8.36999 146.62 7.59999 147.02 6.93999C147.81 5.59999 149.35 4.73999 150.92 4.73999C162.76 4.73999 174.03 4.74999 184.29 4.75999C189.42 4.75999 194.29 4.77999 198.85 4.77999C200 4.79999 201.09 4.73999 202.24 4.82999C203.39 4.97999 204.44 5.58999 205.13 6.44999C205.83 7.30999 206.18 8.40999 206.13 9.46999C206.08 10.48 206.03 11.48 205.98 12.45C205.57 20.18 205.25 26.44 205.02 30.8C204.99 31.9 204.58 32.86 204.03 33.51C203.5 34.18 202.86 34.55 202.33 34.78C201.79 35 201.35 35.05 201.06 35.09C200.77 35.09 200.62 35.09 200.62 35.09H200.6Z" fill="#470F4C"/>
<path d="M358.4 35.27L360.58 21.69L369.83 16.31L377.42 24.46L375.14 38.38L358.4 35.27Z" fill="#00B380"/>
<path d="M401.18 49.61L389.95 296.03L208.9 290.89L198.13 272.07L217.6 43.05L386.09 31.9L401.18 49.61Z" fill="#E1E1E1"/>
<g opacity="0.3">
<path d="M389.95 296.03L374.87 278.32L386.09 31.9L401.18 49.61L389.95 296.03Z" fill="black"/>
</g>
<path d="M386.09 31.9L374.87 278.32L198.13 272.07L211.5 29.41L386.09 31.9Z" fill="#FAFAFA"/>
<path d="M386.09 31.9C384.36 31.88 317.47 31 211.49 29.62L211.7 29.42C207.98 97.23 203.37 181.23 198.38 272.08L198.13 271.81C199.05 271.84 200.05 271.88 201.05 271.91C263.24 274.12 322.27 276.21 374.87 278.08L374.63 278.31C381.4 132.79 386 34.01 386.09 31.9C386 34 381.59 132.79 375.1 278.33V278.56H374.85C322.25 276.71 263.22 274.63 201.03 272.44C200.03 272.4 199.03 272.37 198.11 272.34H197.84L197.85 272.07C202.87 181.22 207.52 97.22 211.27 29.41V29.21H211.48C317.45 30.85 384.34 31.89 386.07 31.91L386.09 31.9Z" fill="#470F4C"/>
<path d="M231.842 88.8259L293.555 90.6359C294.853 90.674 295.935 89.6532 295.973 88.3558L296.041 86.0468C296.079 84.7495 295.058 83.667 293.761 83.6289L232.047 81.8189C230.75 81.7808 229.668 82.8017 229.629 84.099L229.562 86.408C229.524 87.7053 230.545 88.7878 231.842 88.8259Z" fill="#E1E1E1"/>
<path d="M231.249 102.369L292.962 104.179C294.259 104.217 295.342 103.196 295.38 101.899L295.448 99.59C295.486 98.2927 294.465 97.2102 293.168 97.1722L231.454 95.3621C230.157 95.3241 229.074 96.3449 229.036 97.6422L228.969 99.9512C228.93 101.249 229.951 102.331 231.249 102.369Z" fill="#E1E1E1"/>
<path d="M230.656 115.912L292.369 117.722C293.667 117.761 294.749 116.74 294.787 115.442L294.855 113.133C294.893 111.836 293.872 110.754 292.575 110.715L230.861 108.905C229.564 108.867 228.482 109.888 228.443 111.186L228.376 113.495C228.338 114.792 229.358 115.874 230.656 115.912Z" fill="#E1E1E1"/>
<path d="M230.052 129.466L291.766 131.276C293.063 131.314 294.146 130.293 294.184 128.995L294.251 126.686C294.289 125.389 293.269 124.307 291.971 124.269L230.258 122.459C228.96 122.421 227.878 123.441 227.84 124.739L227.772 127.048C227.734 128.345 228.755 129.427 230.052 129.466Z" fill="#E1E1E1"/>
<path d="M229.469 143.009L291.183 144.819C292.48 144.857 293.563 143.836 293.601 142.539L293.668 140.23C293.706 138.933 292.686 137.85 291.388 137.812L229.675 136.002C228.377 135.964 227.295 136.985 227.257 138.282L227.189 140.591C227.151 141.888 228.172 142.971 229.469 143.009Z" fill="#E1E1E1"/>
<path d="M228.866 156.552L290.58 158.362C291.877 158.4 292.96 157.379 292.998 156.082L293.065 153.773C293.103 152.476 292.083 151.393 290.785 151.355L229.072 149.545C227.774 149.507 226.692 150.528 226.654 151.825L226.586 154.134C226.548 155.432 227.569 156.514 228.866 156.552Z" fill="#E1E1E1"/>
<path d="M228.273 170.096L289.986 171.906C291.284 171.944 292.366 170.923 292.404 169.625L292.472 167.316C292.51 166.019 291.489 164.937 290.192 164.899L228.479 163.089C227.181 163.051 226.099 164.071 226.061 165.369L225.993 167.678C225.955 168.975 226.976 170.057 228.273 170.096Z" fill="#E1E1E1"/>
<path d="M302.067 158.577L363.78 160.387C365.078 160.425 366.16 159.404 366.198 158.107L366.266 155.798C366.304 154.501 365.283 153.418 363.986 153.38L302.272 151.57C300.975 151.532 299.893 152.553 299.855 153.85L299.787 156.159C299.749 157.456 300.77 158.539 302.067 158.577Z" fill="#E1E1E1"/>
<path d="M301.484 172.12L363.197 173.93C364.495 173.968 365.577 172.948 365.615 171.65L365.683 169.341C365.721 168.044 364.7 166.961 363.403 166.923L301.689 165.113C300.392 165.075 299.31 166.096 299.272 167.393L299.204 169.702C299.166 171 300.187 172.082 301.484 172.12Z" fill="#E1E1E1"/>
<path d="M300.752 186.407L362.466 188.217C363.763 188.255 364.846 187.235 364.884 185.937L364.952 183.628C364.99 182.331 363.969 181.248 362.671 181.21L300.958 179.4C299.661 179.362 298.578 180.383 298.54 181.68L298.472 183.989C298.434 185.287 299.455 186.369 300.752 186.407Z" fill="#E1E1E1"/>
<path d="M300.041 200.695L361.754 202.505C363.051 202.543 364.134 201.522 364.172 200.224L364.24 197.915C364.278 196.618 363.257 195.536 361.96 195.498L300.246 193.688C298.949 193.649 297.866 194.67 297.828 195.968L297.76 198.277C297.722 199.574 298.743 200.656 300.041 200.695Z" fill="#E1E1E1"/>
<path d="M299.319 214.972L361.033 216.782C362.33 216.82 363.413 215.799 363.451 214.502L363.518 212.193C363.557 210.895 362.536 209.813 361.238 209.775L299.525 207.965C298.228 207.927 297.145 208.948 297.107 210.245L297.039 212.554C297.001 213.851 298.022 214.934 299.319 214.972Z" fill="#E1E1E1"/>
<path d="M298.607 229.259L360.321 231.069C361.618 231.107 362.701 230.086 362.739 228.789L362.807 226.48C362.845 225.183 361.824 224.1 360.526 224.062L298.813 222.252C297.516 222.214 296.433 223.235 296.395 224.532L296.327 226.841C296.289 228.138 297.31 229.221 298.607 229.259Z" fill="#E1E1E1"/>
<path d="M297.886 243.546L359.6 245.356C360.897 245.394 361.98 244.374 362.018 243.076L362.085 240.767C362.123 239.47 361.103 238.387 359.805 238.349L298.092 236.539C296.794 236.501 295.712 237.522 295.674 238.819L295.606 241.128C295.568 242.426 296.589 243.508 297.886 243.546Z" fill="#E1E1E1"/>
<path d="M222.21 254.2L358.43 258.19C359.73 258.23 360.81 257.21 360.84 255.91L360.91 253.6C360.95 252.3 359.93 251.22 358.63 251.19L222.41 247.2C221.11 247.16 220.03 248.18 220 249.48L219.93 251.79C219.89 253.09 220.91 254.17 222.21 254.2Z" fill="#E1E1E1"/>
<path d="M232.918 71.1865L274.53 72.4069C275.827 72.445 276.91 71.4242 276.948 70.1268L277.016 67.8178C277.054 66.5205 276.033 65.438 274.735 65.3999L233.123 64.1795C231.826 64.1414 230.743 65.1623 230.705 66.4596L230.638 68.7686C230.6 70.0659 231.62 71.1484 232.918 71.1865Z" fill="#E1E1E1"/>
<path d="M207.89 277.63C207.89 277.63 208.18 277.66 208.75 277.68C209.33 277.7 210.18 277.74 211.28 277.79C213.52 277.87 216.81 278 221.06 278.16C229.59 278.46 241.95 278.9 257.36 279.44C288.2 280.48 331.22 281.93 379.97 283.58H380.23L380.24 283.33C380.7 273.59 381.19 263.37 381.68 252.97C384.3 197.08 386.67 146.5 388.38 109.87C389.21 91.57 389.88 76.75 390.35 66.5C390.57 61.39 390.74 57.42 390.86 54.71C390.91 53.37 390.95 52.35 390.98 51.64C391 50.95 391 50.59 391 50.59C391 50.59 390.96 50.94 390.92 51.63C390.88 52.33 390.82 53.36 390.75 54.69C390.61 57.4 390.41 61.37 390.14 66.48C389.63 76.73 388.9 91.54 388 109.84C386.24 146.47 383.82 197.05 381.14 252.94C380.65 263.34 380.17 273.56 379.7 283.3L379.97 283.05C331.22 281.47 288.2 280.08 257.36 279.09C241.95 278.62 229.59 278.23 221.06 277.97C216.81 277.85 213.52 277.76 211.28 277.69C210.17 277.66 209.33 277.64 208.75 277.63C208.18 277.62 207.89 277.63 207.89 277.63Z" fill="#470F4C"/>
<path d="M222.25 285C222.25 285 222.52 285.03 223.06 285.05C223.61 285.08 224.41 285.11 225.45 285.16C227.57 285.25 230.67 285.37 234.69 285.54C242.75 285.85 254.44 286.29 269.03 286.85C298.24 287.92 339.061 289.42 385.54 291.12H385.8L385.81 290.87C386.43 279.11 387.08 266.88 387.74 254.39C390.61 199.25 393.22 149.33 395.1 113.19C396.02 95.13 396.76 80.51 397.27 70.4C397.51 65.36 397.7 61.4399 397.83 58.7599C397.89 57.4399 397.93 56.4299 397.96 55.7299C397.99 55.0499 397.99 54.7 397.99 54.7C397.99 54.7 397.95 55.0499 397.91 55.7299C397.87 56.42 397.81 57.43 397.72 58.75C397.57 61.42 397.34 65.3399 397.06 70.3799C396.51 80.4899 395.71 95.11 394.72 113.16C392.8 149.3 390.141 199.21 387.201 254.36C386.54 266.86 385.9 279.09 385.28 290.84L385.55 290.59C339.07 288.96 298.25 287.53 269.04 286.5C254.44 286.01 242.75 285.62 234.69 285.35C230.67 285.23 227.57 285.13 225.45 285.06C224.41 285.03 223.61 285.01 223.06 285C222.52 284.99 222.25 285 222.25 285Z" fill="#470F4C"/>
<path d="M280.78 28.75L283.45 26.14L315.27 26.3L316.82 29.21L280.78 28.75Z" fill="#470F4C"/>
<path d="M316.633 44.3828L316.823 29.214L280.786 28.7611L280.595 43.9299L316.633 44.3828Z" fill="#470F4C"/>
<path d="M317.857 44.881L317.864 44.351C317.872 43.6607 317.32 43.0941 316.629 43.0854L280.592 42.6325C279.902 42.6239 279.335 43.1764 279.327 43.8667L279.32 44.3967C279.311 45.087 279.864 45.6536 280.554 45.6623L316.591 46.1152C317.282 46.1239 317.848 45.5713 317.857 44.881Z" fill="#470F4C"/>
<path d="M306.59 40.55H306.57L290.72 40.35C290.26 40.35 289.84 40.12 289.58 39.74C289.32 39.37 289.26 38.89 289.42 38.46L294.09 25.9C292.03 24.36 290.79 21.96 290.75 19.38C290.69 14.86 294.3 11.1 298.81 10.98C301.07 10.91 303.23 11.77 304.84 13.36C306.46 14.96 307.33 17.09 307.3 19.36C307.27 22.05 305.94 24.53 303.74 26.05L307.91 38.69C308.05 39.12 307.98 39.59 307.71 39.95C307.45 40.31 307.03 40.52 306.58 40.52L306.59 40.55ZM299.04 11.99C298.98 11.99 298.91 11.99 298.85 11.99C294.95 12.09 291.71 15.47 291.77 19.37C291.8 21.75 293.01 23.97 294.99 25.3L295.32 25.52L290.38 38.8C290.33 38.92 290.35 39.06 290.42 39.16C290.49 39.27 290.61 39.33 290.74 39.33L306.59 39.53C306.73 39.53 306.84 39.47 306.92 39.37C307 39.27 307.02 39.13 306.98 39.01L302.57 25.63L302.9 25.42C305.01 24.1 306.29 21.83 306.32 19.34C306.35 17.34 305.58 15.47 304.16 14.07C302.79 12.71 300.98 11.97 299.05 11.97L299.04 11.99Z" fill="#375A64"/>
<path d="M316.37 43.08C316.37 43.08 316.24 43.06 316.01 43.06C315.74 43.06 315.4 43.04 314.98 43.03C314.04 43.01 312.75 42.98 311.17 42.95C307.92 42.9 303.49 42.82 298.6 42.74C293.71 42.68 289.28 42.64 286.02 42.6C284.44 42.6 283.15 42.6 282.21 42.59C281.79 42.59 281.44 42.59 281.17 42.6C280.93 42.6 280.81 42.61 280.81 42.62C280.81 42.63 280.93 42.64 281.17 42.66C281.44 42.67 281.78 42.69 282.21 42.7C283.15 42.73 284.44 42.76 286.02 42.81C289.24 42.89 293.68 42.97 298.59 43.04C303.5 43.11 307.95 43.15 311.16 43.16C312.77 43.16 314.07 43.16 314.97 43.14C315.42 43.14 315.77 43.13 316.01 43.11C316.25 43.09 316.37 43.08 316.37 43.07V43.08Z" fill="#375A64"/>
<path d="M316.89 28.9C316.89 28.9 316.76 28.88 316.53 28.88C316.26 28.88 315.92 28.86 315.5 28.85C314.56 28.83 313.27 28.8 311.69 28.77C308.44 28.72 304.01 28.64 299.12 28.56C294.23 28.5 289.8 28.46 286.54 28.42C284.96 28.42 283.67 28.42 282.73 28.41C282.31 28.41 281.96 28.41 281.69 28.42C281.45 28.42 281.33 28.43 281.33 28.44C281.33 28.45 281.45 28.46 281.69 28.48C281.96 28.49 282.3 28.51 282.73 28.52C283.67 28.55 284.96 28.58 286.54 28.63C289.76 28.71 294.2 28.79 299.11 28.86C304.02 28.93 308.47 28.97 311.68 28.98C313.29 28.98 314.59 28.98 315.49 28.96C315.94 28.96 316.29 28.95 316.53 28.93C316.77 28.91 316.89 28.9 316.89 28.89V28.9Z" fill="#375A64"/>
<path d="M278.663 181.708L235.111 180.431C230.187 180.287 226.078 184.161 225.934 189.086L224.819 227.109C224.674 232.034 228.549 236.142 233.473 236.287L277.024 237.564C281.949 237.709 286.058 233.834 286.202 228.91L287.317 190.886C287.462 185.962 283.587 181.853 278.663 181.708Z" fill="#ECECEC"/>
<path d="M224.94 223.01C224.96 222.53 225.2 222.09 225.6 221.82L245.7 208.34C247.27 207.09 249.5 207.13 251.01 208.44C251.09 208.51 251.18 208.57 251.28 208.62L260.39 213.3C260.96 213.59 261.66 213.49 262.12 213.04L275.92 199.55C277.76 197.91 280.59 198.15 282.12 200.08L286.55 205.64C286.76 205.91 286.88 206.24 286.88 206.59L286.67 229.04C286.63 233.8 282.68 237.59 277.92 237.44L233 236.02C228.3 235.87 224.62 231.93 224.79 227.23L224.94 223.03V223.01Z" fill="#E1E1E1"/>
<path d="M254.62 195.45C254.77 198.84 252.16 201.71 248.77 201.86C245.38 202.01 242.51 199.4 242.36 196.01C242.21 192.62 244.82 189.75 248.21 189.6C251.6 189.44 254.47 192.06 254.62 195.45Z" fill="#E1E1E1"/>
<path d="M358.002 87.1147L314.451 85.8373C309.527 85.6929 305.418 89.5677 305.273 94.492L304.158 132.516C304.013 137.44 307.888 141.549 312.813 141.693L356.364 142.971C361.288 143.115 365.397 139.24 365.542 134.316L366.657 96.2923C366.801 91.3681 362.926 87.2591 358.002 87.1147Z" fill="#ECECEC"/>
<path d="M304.29 127.66L325.02 113.75C326.63 112.46 328.94 112.55 330.45 113.96L340.66 119.2L355.23 104.95C357.07 103.31 359.9 103.55 361.43 105.48L366.19 111.46L365.99 132.95C365.94 138.52 361.31 142.97 355.74 142.79L313.77 141.46C308.27 141.29 303.95 136.67 304.15 131.16L304.28 127.66H304.29Z" fill="#E1E1E1"/>
<path d="M333.94 100.87C334.09 104.26 331.48 107.13 328.09 107.28C324.7 107.43 321.83 104.82 321.68 101.43C321.53 98.04 324.14 95.1699 327.53 95.0199C330.92 94.8699 333.79 97.48 333.94 100.87Z" fill="#E1E1E1"/>
<path d="M234.27 118.42C234.27 118.42 233.98 118.41 233.46 118.19C232.96 117.97 232.24 117.51 231.63 116.64C231.04 115.79 230.52 114.49 230.74 112.97C230.93 111.47 231.76 109.86 233.17 108.59C234.58 107.31 236.51 106.44 238.64 105.9C240.77 105.37 243.1 105.03 245.57 105C250.49 104.94 255.99 106.07 260.96 108.9C262.19 109.62 263.35 110.51 264.22 111.64C265.08 112.77 265.64 114.13 265.68 115.53C265.74 116.94 265.14 118.3 264.22 119.27C263.3 120.25 262.13 120.87 260.97 121.31C258.62 122.19 256.24 122.33 254.06 122.43C251.87 122.5 249.83 122.39 247.98 122.17C244.28 121.71 241.38 120.83 239.44 120.11C238.47 119.75 237.72 119.44 237.23 119.2C236.73 118.97 236.48 118.84 236.49 118.82C236.49 118.8 236.77 118.9 237.27 119.1C237.78 119.3 238.53 119.59 239.51 119.91C241.46 120.56 244.36 121.39 248.02 121.8C249.85 122 251.87 122.09 254.04 122C256.19 121.89 258.54 121.73 260.79 120.87C261.9 120.44 263.01 119.84 263.85 118.94C264.69 118.05 265.22 116.83 265.16 115.56C265.12 114.29 264.6 113.02 263.8 111.97C262.98 110.91 261.88 110.07 260.68 109.36C255.81 106.59 250.4 105.45 245.56 105.49C243.13 105.5 240.83 105.82 238.73 106.32C236.64 106.83 234.76 107.65 233.4 108.86C232.04 110.06 231.22 111.59 231.02 113.01C230.79 114.44 231.25 115.69 231.79 116.53C232.35 117.38 233.02 117.85 233.5 118.1C233.98 118.34 234.27 118.39 234.26 118.42H234.27Z" fill="#470F4C"/>
<path d="M260.11 258.12C260.11 258.12 259.82 258.11 259.3 257.89C258.8 257.67 258.08 257.21 257.47 256.34C256.88 255.49 256.36 254.18 256.58 252.67C256.77 251.17 257.6 249.56 259.01 248.29C260.42 247.01 262.35 246.14 264.48 245.6C266.61 245.07 268.94 244.73 271.41 244.7C276.33 244.64 281.83 245.77 286.8 248.6C288.03 249.32 289.19 250.21 290.06 251.34C290.92 252.47 291.48 253.83 291.52 255.23C291.58 256.64 290.98 258 290.06 258.97C289.14 259.95 287.97 260.57 286.81 261.01C284.46 261.89 282.08 262.03 279.9 262.13C277.71 262.2 275.67 262.09 273.82 261.87C270.12 261.41 267.22 260.53 265.28 259.81C264.31 259.45 263.56 259.14 263.07 258.9C262.57 258.67 262.32 258.54 262.33 258.52C262.33 258.5 262.61 258.6 263.11 258.8C263.62 259 264.37 259.29 265.35 259.61C267.3 260.26 270.2 261.09 273.86 261.5C275.69 261.7 277.71 261.79 279.88 261.7C282.04 261.59 284.38 261.43 286.63 260.57C287.74 260.14 288.85 259.54 289.69 258.64C290.53 257.75 291.06 256.53 291 255.26C290.96 253.99 290.44 252.72 289.64 251.67C288.82 250.61 287.72 249.77 286.52 249.06C281.65 246.29 276.24 245.15 271.4 245.19C268.97 245.2 266.67 245.52 264.57 246.02C262.48 246.53 260.6 247.35 259.24 248.56C257.88 249.76 257.06 251.29 256.86 252.71C256.63 254.14 257.09 255.39 257.63 256.23C258.19 257.08 258.86 257.55 259.34 257.8C259.82 258.04 260.11 258.09 260.1 258.12H260.11Z" fill="#470F4C"/>
<path d="M230.11 72.68C230.11 72.68 229.82 72.67 229.3 72.45C228.8 72.23 228.08 71.77 227.47 70.9C226.88 70.05 226.36 68.75 226.58 67.23C226.77 65.73 227.6 64.12 229.01 62.85C230.41 61.57 232.35 60.7 234.48 60.16C236.61 59.63 238.94 59.29 241.41 59.26C246.33 59.2 251.83 60.33 256.8 63.16C258.03 63.88 259.19 64.77 260.06 65.9C260.92 67.03 261.48 68.39 261.52 69.79C261.58 71.2 260.98 72.56 260.06 73.53C259.14 74.51 257.97 75.13 256.81 75.57C254.46 76.45 252.08 76.59 249.9 76.69C247.71 76.76 245.67 76.65 243.82 76.43C240.12 75.97 237.22 75.09 235.28 74.37C234.31 74.01 233.56 73.7 233.07 73.46C232.57 73.23 232.32 73.1 232.33 73.08C232.33 73.06 232.61 73.16 233.11 73.36C233.62 73.56 234.37 73.85 235.35 74.17C237.3 74.82 240.2 75.65 243.86 76.06C245.69 76.26 247.71 76.35 249.88 76.26C252.04 76.15 254.38 75.99 256.63 75.13C257.74 74.7 258.85 74.1 259.69 73.2C260.53 72.31 261.06 71.09 261 69.82C260.96 68.55 260.44 67.28 259.64 66.23C258.82 65.17 257.72 64.33 256.52 63.62C251.65 60.85 246.24 59.71 241.4 59.75C238.97 59.76 236.67 60.08 234.57 60.58C232.48 61.09 230.6 61.91 229.24 63.12C227.88 64.32 227.06 65.85 226.86 67.27C226.63 68.7 227.09 69.95 227.63 70.79C228.19 71.64 228.86 72.11 229.34 72.36C229.82 72.6 230.11 72.65 230.1 72.68H230.11Z" fill="#470F4C"/>
<path d="M383.55 212.99L397.3 213.33L403.86 221.78L396.8 230.4L382.69 229.98L383.55 212.99Z" fill="#00B380"/>
<path d="M384.86 188.87L398.61 189.21L405.17 197.66L398.11 206.28L384 205.86L384.86 188.87Z" fill="#375A64"/>
<path d="M154.01 15.46H197.5C197.79 15.46 198.02 15.69 198.02 15.98V16.2C198.02 16.49 197.79 16.72 197.5 16.72H154.01C153.72 16.72 153.49 16.49 153.49 16.2V15.98C153.49 15.69 153.72 15.46 154.01 15.46Z" fill="#E1E1E1"/>
<path d="M154.01 19.43H197.5C197.79 19.43 198.02 19.66 198.02 19.95V20.17C198.02 20.46 197.79 20.69 197.5 20.69H154.01C153.72 20.69 153.49 20.46 153.49 20.17V19.95C153.49 19.66 153.72 19.43 154.01 19.43Z" fill="#E1E1E1"/>
<path d="M154.01 23.39H197.5C197.79 23.39 198.02 23.62 198.02 23.91V24.13C198.02 24.42 197.79 24.65 197.5 24.65H154.01C153.72 24.65 153.49 24.42 153.49 24.13V23.91C153.49 23.62 153.72 23.39 154.01 23.39Z" fill="#E1E1E1"/>
<path d="M206.04 19.16C206.15 19.07 213.07 28.03 221.49 39.17C229.91 50.31 236.65 59.41 236.53 59.5C236.42 59.59 229.5 50.63 221.07 39.49C212.65 28.35 205.92 19.25 206.03 19.16H206.04Z" fill="#470F4C"/>
<path d="M205.79 20.05C206.723 20.05 207.48 19.2933 207.48 18.36C207.48 17.4266 206.723 16.67 205.79 16.67C204.857 16.67 204.1 17.4266 204.1 18.36C204.1 19.2933 204.857 20.05 205.79 20.05Z" fill="#470F4C"/>
<path d="M252.9 361.58H202.18C199.73 361.58 197.77 359.53 197.89 357.08L198.92 335.59C199.03 333.3 200.92 331.5 203.21 331.5H253.93C256.38 331.5 258.34 333.55 258.22 336L257.19 357.49C257.08 359.78 255.19 361.58 252.9 361.58Z" fill="#FAFAFA"/>
<path d="M252.9 361.58C252.9 361.58 253.53 361.63 254.57 361.18C255.08 360.95 255.69 360.56 256.19 359.91C256.71 359.27 257.08 358.36 257.1 357.29C257.29 352.93 257.56 346.66 257.9 338.93C257.88 337.03 258.52 334.81 257.11 333.21C256.48 332.42 255.52 331.87 254.48 331.75C253.44 331.67 252.28 331.73 251.15 331.72C246.59 331.72 241.71 331.74 236.59 331.74C226.33 331.74 215.06 331.75 203.22 331.76C201.82 331.76 200.47 332.52 199.76 333.71C199.4 334.3 199.21 334.97 199.18 335.66C199.15 336.39 199.11 337.11 199.08 337.83C198.94 340.71 198.8 343.55 198.67 346.33C198.53 349.12 198.4 351.86 198.27 354.54C198.24 355.21 198.2 355.88 198.17 356.54C198.12 357.22 198.11 357.82 198.3 358.42C198.64 359.61 199.55 360.61 200.68 361.05C201.25 361.28 201.83 361.36 202.46 361.35C203.09 361.35 203.72 361.35 204.35 361.35C205.6 361.35 206.83 361.35 208.05 361.35C210.48 361.35 212.84 361.35 215.12 361.36C219.68 361.37 223.93 361.38 227.81 361.39C235.55 361.42 241.82 361.45 246.18 361.47C248.33 361.49 250.01 361.51 251.18 361.52C251.73 361.53 252.16 361.54 252.48 361.55C252.77 361.55 252.92 361.57 252.92 361.58C252.92 361.59 252.77 361.6 252.48 361.61C252.16 361.61 251.73 361.62 251.18 361.64C250.01 361.65 248.33 361.67 246.18 361.69C241.82 361.71 235.55 361.74 227.81 361.77C223.93 361.77 219.68 361.79 215.12 361.8C212.84 361.8 210.48 361.8 208.05 361.81C206.84 361.81 205.6 361.81 204.35 361.81C203.73 361.81 203.1 361.81 202.46 361.81C201.82 361.82 201.12 361.74 200.5 361.48C199.23 360.99 198.22 359.87 197.83 358.54C197.62 357.88 197.63 357.14 197.68 356.5C197.71 355.84 197.74 355.17 197.77 354.5C197.9 351.82 198.03 349.08 198.16 346.29C198.29 343.5 198.43 340.66 198.56 337.79C198.59 337.07 198.63 336.35 198.66 335.62C198.69 334.86 198.92 334.09 199.32 333.43C200.11 332.09 201.65 331.23 203.22 331.23C215.06 331.23 226.33 331.24 236.59 331.25C241.72 331.25 246.59 331.27 251.15 331.27C252.3 331.29 253.39 331.23 254.54 331.32C255.69 331.47 256.74 332.08 257.43 332.94C258.13 333.8 258.48 334.9 258.43 335.96C258.38 336.97 258.33 337.97 258.28 338.94C257.87 346.67 257.55 352.93 257.32 357.29C257.29 358.39 256.88 359.35 256.33 360C255.8 360.67 255.16 361.04 254.63 361.27C254.09 361.49 253.65 361.54 253.36 361.58C253.07 361.58 252.92 361.58 252.92 361.58H252.9Z" fill="#470F4C"/>
<path d="M206.31 341.95H249.8C250.09 341.95 250.32 342.18 250.32 342.47V342.69C250.32 342.98 250.09 343.21 249.8 343.21H206.31C206.02 343.21 205.79 342.98 205.79 342.69V342.47C205.79 342.18 206.02 341.95 206.31 341.95Z" fill="#E1E1E1"/>
<path d="M206.3 345.91H249.79C250.08 345.91 250.31 346.14 250.31 346.43V346.65C250.31 346.94 250.08 347.17 249.79 347.17H206.3C206.01 347.17 205.78 346.94 205.78 346.65V346.43C205.78 346.14 206.01 345.91 206.3 345.91Z" fill="#E1E1E1"/>
<path d="M206.31 349.88H249.8C250.09 349.88 250.32 350.11 250.32 350.4V350.62C250.32 350.91 250.09 351.14 249.8 351.14H206.31C206.02 351.14 205.79 350.91 205.79 350.62V350.4C205.79 350.11 206.02 349.88 206.31 349.88Z" fill="#E1E1E1"/>
<path d="M272.1 261.07C272.23 261.14 264.12 276.96 253.99 296.4C243.86 315.85 235.54 331.56 235.41 331.49C235.28 331.42 243.39 315.61 253.52 296.16C263.65 276.72 271.97 261 272.09 261.07H272.1Z" fill="#470F4C"/>
<path d="M237.1 331.49C237.1 332.43 236.34 333.18 235.41 333.18C234.48 333.18 233.72 332.42 233.72 331.49C233.72 330.56 234.48 329.8 235.41 329.8C236.34 329.8 237.1 330.56 237.1 331.49Z" fill="#470F4C"/>
<path d="M440.02 85.62C440.02 85.62 435.48 102.6 435.09 114.62L434.96 118.62C434.96 118.62 444.98 126.94 453.39 127.46L460.44 110.13L440.03 85.62H440.02Z" fill="#470F4C"/>
<path d="M484.54 96.04C482.62 87.76 481.89 78.11 475 72.71C469.89 68.7 464.06 67.58 457.57 67.86C454.37 67.99 450.77 69.47 447.98 71.04C444.16 73.2 442.55 77.58 440.71 81.56C437.02 89.53 437.49 100.33 439.99 103.33L473.31 120.93C479.96 117.47 484.13 116.09 485.2 107.22C485.65 103.49 485.39 99.7 484.55 96.04H484.54Z" fill="#470F4C"/>
<path d="M474.65 79.29L453.68 73.0999C446.92 72.1199 442.09 80.29 441.39 87.08C440.62 94.62 439.97 103.87 440.64 109.55C442 120.97 450.64 122.76 450.64 122.76C450.64 122.72 450.66 122.93 450.59 126.3L450.56 133.25C450.47 135.46 450.86 136.2 452.21 137.95C455.3 141.96 460.94 142.49 467.59 140.03C471.44 138.6 474.12 135.74 474.42 131.83L478.07 83.47C478.19 81.4 476.71 79.5799 474.66 79.2799L474.65 79.29Z" fill="#C07560"/>
<path d="M443.38 97.42C443.32 98.19 443.93 98.87 444.73 98.94C445.53 99.01 446.22 98.45 446.28 97.69C446.34 96.92 445.73 96.24 444.94 96.17C444.14 96.1 443.44 96.66 443.39 97.42H443.38Z" fill="#470F4C"/>
<path d="M442.77 93.93C442.94 94.13 444.08 93.35 445.64 93.42C447.21 93.46 448.32 94.31 448.5 94.13C448.59 94.05 448.42 93.7 447.93 93.31C447.45 92.93 446.62 92.54 445.65 92.51C444.67 92.48 443.84 92.8 443.35 93.15C442.85 93.5 442.68 93.84 442.76 93.93H442.77Z" fill="#470F4C"/>
<path d="M457.15 97.65C457.09 98.42 457.7 99.0999 458.5 99.1699C459.3 99.2399 459.99 98.6799 460.05 97.9199C460.11 97.1499 459.5 96.47 458.71 96.4C457.91 96.33 457.21 96.89 457.16 97.65H457.15Z" fill="#470F4C"/>
<path d="M458.18 94.1099C458.35 94.3099 459.49 93.5299 461.05 93.5999C462.61 93.6399 463.73 94.4899 463.91 94.3099C464 94.2299 463.83 93.8799 463.34 93.4899C462.86 93.1099 462.04 92.7199 461.06 92.6899C460.08 92.6599 459.25 92.9799 458.76 93.3299C458.27 93.6799 458.09 94.0199 458.17 94.1099H458.18Z" fill="#470F4C"/>
<path d="M452.08 104.27C452.09 104.18 451.12 103.97 449.55 103.71C449.15 103.65 448.78 103.56 448.72 103.28C448.64 102.99 448.82 102.56 449.03 102.11C449.44 101.16 449.88 100.16 450.33 99.11C452.14 94.84 453.47 91.32 453.3 91.25C453.13 91.18 451.52 94.58 449.7 98.85C449.26 99.9 448.84 100.91 448.45 101.87C448.28 102.32 448 102.82 448.18 103.43C448.28 103.73 448.56 103.96 448.81 104.04C449.06 104.13 449.29 104.14 449.49 104.16C451.07 104.31 452.06 104.35 452.07 104.27H452.08Z" fill="#470F4C"/>
<path d="M450.59 122.76C450.59 122.76 458.21 123.55 465.95 119.3C465.95 119.3 461.88 127.09 450.56 125.58L450.59 122.75V122.76Z" fill="#7C4236"/>
<path d="M457.16 107.75C456.78 107.08 456.06 106.7 455.31 106.65C454.23 106.57 453.31 106.91 452.57 107.88C452.32 108.16 452.31 108.97 452.4 109.2C452.49 109.43 452.42 109.32 452.59 109.48C453.2 110.06 453.85 110.65 454.65 110.87C455.45 111.1 456.46 110.87 457.02 110.1C457.52 109.41 457.54 108.43 457.16 107.75Z" fill="#7C4236"/>
<path d="M456.92 105.6C456.67 105.57 456.59 107.27 455.08 108.41C453.57 109.55 451.77 109.28 451.75 109.52C451.72 109.63 452.14 109.87 452.9 109.92C453.65 109.98 454.75 109.79 455.68 109.09C456.6 108.39 457.03 107.42 457.12 106.73C457.22 106.02 457.05 105.59 456.93 105.6H456.92Z" fill="#470F4C"/>
<path d="M457.59 88.3799C457.7 88.8199 459.28 88.7699 461.09 89.1699C462.91 89.5299 464.33 90.2099 464.61 89.8499C464.74 89.6799 464.52 89.2499 463.96 88.7899C463.41 88.3199 462.5 87.8399 461.42 87.6099C460.33 87.3799 459.31 87.4599 458.62 87.6699C457.92 87.8799 457.55 88.1799 457.6 88.3799H457.59Z" fill="#470F4C"/>
<path d="M442.9 89.7099C443.26 90.0199 444.4 89.4799 445.83 89.2599C447.26 88.9899 448.52 89.1099 448.74 88.6999C448.84 88.4999 448.59 88.1799 448.01 87.9199C447.44 87.6599 446.52 87.5199 445.54 87.6899C444.56 87.8599 443.75 88.2999 443.3 88.7399C442.84 89.1799 442.73 89.5599 442.89 89.7099H442.9Z" fill="#470F4C"/>
<path d="M453.6 71.88C453.58 71.96 453.57 72.04 453.55 72.13L453.59 72.15C453.59 72.06 453.59 71.97 453.6 71.89V71.88Z" fill="#470F4C"/>
<path d="M468.27 127.34C468.59 124.36 467.39 121.38 467.74 118.4C468.11 115.25 470.15 112.55 470.99 109.49C472.33 104.59 470.49 99.38 469.82 94.31C466.98 93.96 464.33 92.25 462.44 90.05C460.16 87.4 458.79 84.11 457.45 80.88C457.53 84.05 458.63 87.18 460.54 89.7C459.28 89.96 457.95 89.42 457 88.55C456.05 87.68 455.43 86.51 454.92 85.33C453.69 82.47 453.02 79.37 452.91 76.25C452.49 80.71 452.99 85.26 454.39 89.51C453.6 89.27 452.74 89.48 451.92 89.6C451.1 89.72 450.15 89.7 449.57 89.1C449.18 88.7 449.04 88.13 448.93 87.59C448.15 83.8 448.02 79.87 448.55 76.04C447.54 78.11 446.53 80.21 445.95 82.44C445.36 84.67 445.21 87.07 445.9 89.27C445.57 89.68 444.88 89.62 444.49 89.27C444.1 88.91 443.95 88.37 443.87 87.84C443.57 85.93 443.91 83.99 444.24 82.09C443.11 84.1 442.73 86.44 442.1 88.66C441.47 90.88 440.47 93.16 438.54 94.43C438.21 91.1 438.32 88.83 438.82 85.72C439.2 83.34 440.33 80.98 441.37 78.81C442.54 76.38 444.16 73.99 445.97 72.4C449.31 69.47 450.71 70.73 452.85 71.85L453.1 71.96C453.1 71.91 453.1 71.85 453.12 71.8L453.22 71.35C458.78 70.1 464.67 70.37 470.09 72.14C474.12 73.45 474.49 82.12 475.47 78C476.06 75.51 479.29 77.78 479.33 77.85C484.08 86.41 489.11 100 489.34 121.47L468.25 127.36L468.27 127.34Z" fill="#470F4C"/>
<path d="M482.01 61.92C480.11 59.85 477.44 58.41 474.63 58.33C471.82 58.24 468.93 59.62 467.5 62.04C466.07 64.46 466.35 67.86 468.38 69.81L471.89 72.62C474.3 73.95 477.29 74.39 479.86 73.39C482.43 72.39 484.42 69.82 484.36 67.07C484.31 65.14 483.32 63.34 482.02 61.92H482.01Z" fill="#470F4C"/>
<path d="M479.3 77.5C478.62 77.82 476.7 74.88 473.27 72.56C469.89 70.17 466.46 69.42 466.52 68.67C466.55 68.33 467.52 68.06 469.08 68.22C470.63 68.37 472.76 69.05 474.75 70.42C476.73 71.79 478.12 73.54 478.82 74.94C479.52 76.35 479.61 77.35 479.3 77.49V77.5Z" fill="#375A64"/>
<path d="M430.52 170.79L443.66 158.48L452.56 172.62C452.38 173.89 441.04 198.34 436.12 203.41C430.51 209.19 422.87 208.74 419.5 200.76C416.84 194.47 412.43 175.09 412.43 175.09L430.51 170.79H430.52Z" fill="#00B380"/>
<path d="M444.85 133.77C441.71 134.9 434.49 138.85 432.39 141.44C431.37 142.69 430.38 144.12 429.74 145.54C428.1 149.16 424.97 175.97 424.97 175.97L438.96 186.1L451.14 139.2L450.36 131.76L444.84 133.76L444.85 133.77Z" fill="#00B380"/>
<path d="M440.21 211.19L441.09 204.26C441.09 204.26 438.39 191.9 437.4 181.17C435.82 164.11 440.27 153.51 440.88 151.71C441.22 150.69 450.36 131.76 450.36 131.76C450.36 131.76 452.28 137.59 459.99 136.21C470.74 134.29 474.66 128.46 474.66 128.46L488.55 131.46C488.55 131.46 493.96 153.2 494.76 160.41C495.19 164.27 490.1 186.1 490.1 186.1L498.29 198.36C498.54 198.96 494.73 215.72 493.99 216.41C493.25 217.1 479.92 220.2 479.75 220.77C479.58 221.34 454.34 231.91 454.35 231.48C454.37 231.05 442.2 216.6 442.2 216.6L440.19 211.19H440.21Z" fill="#00B380"/>
<path d="M437.06 154.32C437.06 154.32 437.06 154.5 437.03 154.83C436.98 155.22 436.929 155.69 436.859 156.27C436.709 157.52 436.5 159.33 436.32 161.56C435.97 166.03 435.62 172.26 436.65 179.05C437.55 185.85 438.859 191.93 439.709 196.35C440.139 198.56 440.469 200.35 440.679 201.59C440.769 202.16 440.84 202.64 440.9 203.02C440.94 203.35 440.96 203.52 440.94 203.53C440.92 203.53 440.87 203.37 440.79 203.04C440.7 202.66 440.6 202.19 440.47 201.63C440.19 200.32 439.81 198.56 439.34 196.42C438.4 192.02 437.03 185.94 436.13 179.12C435.09 172.29 435.51 166 435.95 161.53C436.18 159.29 436.45 157.48 436.66 156.24C436.77 155.62 436.859 155.14 436.929 154.81C436.999 154.49 437.05 154.32 437.07 154.32H437.06Z" fill="#470F4C"/>
<path d="M446.24 391.06L446.14 411.7C446.14 411.7 425.12 418.53 424.73 422.34L464.74 423.98L466.22 391.83L446.23 391.07L446.24 391.06Z" fill="#00B380"/>
<path d="M458.58 410.48C459.35 410.72 459.85 411.62 459.63 412.39C459.42 413.17 458.52 413.68 457.74 413.45C456.97 413.22 456.34 412.17 456.64 411.42C456.94 410.67 458.03 410.13 458.72 410.53" fill="#E1E1E1"/>
<path d="M464.74 423.98L464.76 420.73L426.39 420.37C426.39 420.37 424.58 421.07 424.73 422.34L464.74 423.98Z" fill="#375A64"/>
<path d="M445.49 411.47C445.49 411.67 446.46 411.79 447.4 412.46C448.35 413.1 448.81 413.97 449 413.9C449.18 413.87 448.94 412.69 447.79 411.9C446.65 411.1 445.46 411.29 445.49 411.47Z" fill="white"/>
<path d="M441.23 413.04C441.18 413.23 442.01 413.59 442.64 414.45C443.29 415.28 443.43 416.19 443.62 416.18C443.8 416.22 443.98 415.08 443.18 414.03C442.39 412.98 441.24 412.85 441.23 413.03V413.04Z" fill="white"/>
<path d="M438.64 417.96C438.82 418.01 439.13 417.04 438.67 415.95C438.22 414.86 437.32 414.4 437.23 414.56C437.11 414.72 437.68 415.31 438.04 416.22C438.42 417.11 438.45 417.94 438.64 417.97V417.96Z" fill="white"/>
<path d="M446.04 406.77C446.11 406.95 447.02 406.72 448.12 406.84C449.22 406.94 450.07 407.34 450.18 407.18C450.3 407.04 449.49 406.29 448.19 406.16C446.89 406.03 445.95 406.61 446.04 406.77Z" fill="white"/>
<path d="M540.74 388.9L548.41 412.67L559.89 429.72C560.72 430.95 560.33 432.62 559.05 433.36C558.33 433.78 557.46 433.82 556.71 433.48C551.91 431.28 534.29 423.1 533.83 421.33C533.29 419.28 524.08 396.8 524.08 396.8L540.74 388.91V388.9Z" fill="#00B380"/>
<path d="M559.04 433.36L533.26 419.73L533.61 420.73C533.91 421.59 534.5 422.33 535.29 422.79C537.4 424.03 543.3 427.32 556.62 433.5C557.4 433.86 558.3 433.81 559.03 433.36H559.04Z" fill="#375A64"/>
<g opacity="0.6">
<path d="M535.46 410.44C536.19 410.64 536.7 411.47 536.52 412.21C536.35 412.95 535.51 413.47 534.77 413.28C534.03 413.09 533.4 412.12 533.65 411.4C533.9 410.68 534.92 410.13 535.59 410.49" fill="white"/>
</g>
<path d="M550.07 424.93C550.23 424.95 550.33 423.53 551.5 422.38C552.64 421.19 554.06 421.07 554.03 420.92C554.03 420.86 553.67 420.78 553.09 420.89C552.52 421 551.74 421.35 551.11 422C550.47 422.65 550.13 423.42 550.03 424C549.92 424.58 550.01 424.94 550.07 424.94V424.93Z" fill="white"/>
<path d="M552.85 427.5C553 427.56 553.49 426.53 554.59 425.76C555.67 424.96 556.8 424.82 556.79 424.66C556.82 424.52 555.51 424.41 554.27 425.31C553.02 426.2 552.71 427.48 552.85 427.5Z" fill="white"/>
<path d="M545.53 421.97C545.68 422.04 546.43 420.46 548.03 419.1C549.61 417.72 551.29 417.23 551.24 417.07C551.24 416.93 549.37 417.21 547.67 418.69C545.96 420.15 545.39 421.95 545.53 421.97Z" fill="white"/>
<path d="M542.6 414.94C542.71 415.06 543.83 414.06 545.5 413.41C547.17 412.74 548.66 412.7 548.66 412.53C548.68 412.39 547.09 412.18 545.3 412.9C543.5 413.6 542.49 414.86 542.6 414.94Z" fill="white"/>
<path d="M540.17 408.02C540.29 408.13 541.33 406.89 543.15 406.35C544.96 405.77 546.51 406.21 546.55 406.05C546.57 405.99 546.21 405.78 545.56 405.66C544.91 405.53 543.97 405.53 542.99 405.83C542.01 406.13 541.23 406.67 540.77 407.14C540.3 407.61 540.12 407.99 540.17 408.03V408.02Z" fill="white"/>
<path d="M542.65 405.04C542.65 405.04 542.62 404.69 542.37 404.14C542.12 403.59 541.66 402.8 540.85 402.05C540.44 401.7 539.98 401.23 539.21 401.15C538.83 401.11 538.36 401.34 538.19 401.75C538.02 402.15 538.07 402.57 538.19 402.94C538.74 404.43 540.52 405.43 542.28 405.06C544.04 404.66 545.23 403.16 545.45 401.63C545.48 401.24 545.44 400.8 545.12 400.46C544.8 400.12 544.27 400.13 543.95 400.3C543.29 400.65 542.98 401.21 542.68 401.65C542.09 402.59 541.83 403.45 541.71 404.04C541.59 404.64 541.6 404.98 541.63 404.98C541.73 405.01 541.82 403.61 543 401.86C543.31 401.44 543.65 400.93 544.14 400.71C544.38 400.6 544.62 400.62 544.78 400.79C544.94 400.95 544.99 401.26 544.95 401.57C544.75 402.82 543.66 404.19 542.17 404.51C540.69 404.84 539.12 403.96 538.67 402.76C538.57 402.47 538.54 402.15 538.64 401.93C538.73 401.71 538.95 401.58 539.2 401.59C539.72 401.62 540.2 402 540.6 402.33C542.2 403.72 542.56 405.09 542.66 405.03L542.65 405.04Z" fill="white"/>
<path d="M500.74 208.24C503.23 212.47 508.92 228.65 511.13 236.92C521.22 274.63 529.76 325.35 532.59 335.69C536.37 349.46 544.83 380.62 549.14 401.38L528.46 410.4C528.46 410.4 501.37 337.41 493.99 319.48C486.33 300.9 473.56 265.84 473.56 265.84L466.18 404.87L446.37 405.48C446.37 405.48 439.59 366.3 436.9 342.89C434.21 319.47 433.91 271.27 433.88 259.04C433.85 244.14 440.31 210.63 440.31 210.63C440.31 210.63 448.04 216.43 462.53 214.21C474.07 212.44 497.99 203.57 497.99 203.57L500.74 208.24Z" fill="#470F4C"/>
<path d="M460.47 219.03C460.47 219.03 460.47 219.6 460.59 220.63C460.7 221.65 460.88 223.13 461.12 224.96C461.6 228.61 462.36 233.64 463.35 239.17C464.34 244.7 465.37 249.68 466.18 253.27C466.58 255.07 466.93 256.51 467.18 257.51C467.43 258.51 467.59 259.06 467.63 259.05C467.66 259.05 467.57 258.48 467.38 257.47C467.16 256.37 466.88 254.93 466.54 253.2C465.82 249.59 464.85 244.61 463.86 239.08C462.87 233.56 462.06 228.54 461.48 224.91C461.2 223.16 460.97 221.71 460.79 220.61C460.62 219.6 460.51 219.04 460.48 219.04L460.47 219.03Z" fill="#375A64"/>
<path d="M467.53 218.74C467.53 218.74 467.5 218.49 467.14 218.34C466.8 218.19 466.26 218.15 465.63 218.29C465.32 218.36 464.98 218.47 464.64 218.69C464.29 218.92 464.04 219.34 463.96 219.79C463.8 220.68 464.21 221.74 465.09 222.31C465.95 222.87 467.07 222.93 467.85 222.43C468.24 222.19 468.51 221.78 468.61 221.4C468.72 221.02 468.73 220.65 468.68 220.33C468.59 219.68 468.3 219.2 468.01 218.97C467.72 218.73 467.51 218.72 467.51 218.74C467.49 218.78 467.67 218.86 467.87 219.11C468.07 219.35 468.28 219.79 468.32 220.36C468.36 220.91 468.21 221.67 467.6 222.02C466.99 222.38 466.07 222.33 465.37 221.87C464.66 221.42 464.32 220.56 464.42 219.86C464.47 219.51 464.63 219.21 464.88 219.03C465.14 218.84 465.44 218.72 465.71 218.63C466.27 218.46 466.75 218.44 467.06 218.52C467.37 218.59 467.47 218.76 467.51 218.73L467.53 218.74Z" fill="#375A64"/>
<path d="M454.86 254.09C454.82 254.16 455.76 254.75 457.26 255.73C458.76 256.71 460.81 258.09 463.01 259.71C465.21 261.33 467.13 262.88 468.51 264.03C469.89 265.17 470.74 265.89 470.79 265.83C470.84 265.78 470.08 264.97 468.75 263.75C467.43 262.53 465.53 260.93 463.32 259.29C461.11 257.66 459.01 256.32 457.46 255.42C455.91 254.51 454.9 254.03 454.87 254.09H454.86Z" fill="#375A64"/>
<path d="M505.02 329.3C505.02 329.3 505.33 329.34 505.88 329.33C506.43 329.32 507.22 329.26 508.2 329.15C510.15 328.93 512.84 328.44 515.71 327.54C518.58 326.64 521.07 325.51 522.8 324.57C523.67 324.1 524.35 323.7 524.81 323.39C525.27 323.09 525.52 322.91 525.5 322.88C525.46 322.81 524.4 323.4 522.64 324.24C520.88 325.09 518.4 326.15 515.56 327.04C512.72 327.93 510.08 328.47 508.15 328.78C506.22 329.09 505.02 329.21 505.02 329.29V329.3Z" fill="#375A64"/>
<path d="M508.38 327.19C508.4 327.25 509.18 327.06 510.41 326.65C511.64 326.24 513.31 325.6 515.11 324.79C516.91 323.98 518.5 323.15 519.62 322.5C520.74 321.85 521.4 321.4 521.37 321.34C521.3 321.21 518.48 322.71 514.9 324.32C511.32 325.94 508.33 327.05 508.38 327.19Z" fill="#375A64"/>
<path d="M415.12 154.32L424.66 164.17L425.05 172.76L413.97 175.3H413.41L412.69 169.77L406.31 161.28L415.12 154.32Z" fill="#C07560"/>
<path d="M404.91 147.19C394.3 158.52 379.91 165.04 364.4 165.54C348.89 166.05 334.11 160.48 322.78 149.87C299.4 127.97 298.19 91.12 320.09 67.74C330.7 56.41 345.09 49.89 360.6 49.39C376.11 48.88 390.89 54.45 402.22 65.06C411.42 73.67 417.18 84.6 419.46 96.11C422.98 113.86 418.19 133.01 404.91 147.19ZM325.44 147.04C336.01 156.94 349.8 162.13 364.27 161.66C378.74 161.19 392.17 155.11 402.06 144.54C411.96 133.97 417.15 120.18 416.68 105.71C416.21 91.24 410.13 77.81 399.56 67.91C388.99 58.01 375.2 52.82 360.73 53.29C346.26 53.76 332.83 59.84 322.93 70.41C310.53 83.65 306.07 101.51 309.35 118.07C311.48 128.81 316.86 139 325.44 147.04Z" fill="#375A64"/>
<path d="M404.91 147.19C394.3 158.52 379.91 165.04 364.4 165.54C348.89 166.05 334.11 160.48 322.78 149.87C299.4 127.97 298.19 91.12 320.09 67.74C330.7 56.41 345.09 49.89 360.6 49.39C376.11 48.88 390.89 54.45 402.22 65.06C411.42 73.67 417.18 84.6 419.46 96.11C422.98 113.86 418.19 133.01 404.91 147.19ZM325.44 147.04C336.01 156.94 349.8 162.13 364.27 161.66C378.74 161.19 392.17 155.11 402.06 144.54C411.96 133.97 417.15 120.18 416.68 105.71C416.21 91.24 410.13 77.81 399.56 67.91C388.99 58.01 375.2 52.82 360.73 53.29C346.26 53.76 332.83 59.84 322.93 70.41C310.53 83.65 306.07 101.51 309.35 118.07C311.48 128.81 316.86 139 325.44 147.04Z" fill="#470F4C"/>
<path d="M406.33 144.39C395.72 155.72 381.33 162.24 365.82 162.74C350.31 163.25 335.53 157.68 324.2 147.07C300.82 125.17 299.61 88.32 321.51 64.94C332.12 53.61 346.51 47.09 362.02 46.59C377.53 46.08 392.31 51.65 403.64 62.26C412.84 70.87 418.6 81.8 420.88 93.31C424.4 111.06 419.61 130.21 406.33 144.39ZM326.86 144.24C337.43 154.14 351.22 159.33 365.69 158.86C380.16 158.39 393.59 152.31 403.48 141.74C413.38 131.17 418.57 117.38 418.1 102.91C417.63 88.44 411.55 75.01 400.98 65.11C390.41 55.21 376.62 50.02 362.15 50.49C347.68 50.96 334.25 57.04 324.35 67.61C311.95 80.85 307.49 98.71 310.77 115.27C312.9 126.01 318.28 136.2 326.86 144.24Z" fill="#375A64"/>
<path d="M470.84 217.74L472.69 215.95C474.34 214.35 473.41 210.71 471.68 208.93L406.77 141.83L398.09 150.23L462.91 217.23C465.1 219.38 468.72 219.79 470.84 217.74Z" fill="#375A64"/>
<path d="M411.01 149.93C410.7 149.64 410.1 149.46 409.7 149.58C409.3 149.7 408.97 150 408.67 150.3C406.56 152.44 405.33 155.43 405.33 158.44C405.33 159.73 405.67 161.21 406.82 161.8L408.12 161.05C408.52 160.53 409.73 159.66 409.89 159.02C410.56 156.32 409.6 156.44 411.29 151.76C411.46 151.3 411.64 150.53 411.02 149.94L411.01 149.93Z" fill="#C07560"/>
<path d="M410.71 153.75C411.08 153.11 411.49 152.49 412 152.05C412.52 151.61 413.16 151.36 413.72 151.54C414.62 151.82 415.06 153.12 414.96 154.32C414.86 155.52 414.34 156.66 413.84 157.75C412.77 160.07 411.7 162.38 410.63 164.7L410.01 164.24C409.57 164.67 408.92 164.45 408.62 163.93C408.32 163.41 408.29 162.71 408.31 162.04C408.4 159.15 409.29 156.21 410.7 153.75H410.71Z" fill="#C07560"/>
<path d="M412.28 160.68C413.02 159.05 414.25 157.69 415.49 156.38C415.92 155.92 416.38 155.46 416.98 155.25C417.58 155.04 418.36 155.19 418.66 155.74C418.94 156.27 418.69 156.91 418.43 157.45C416.82 160.8 414.98 164.04 412.91 167.14L410.99 165.21C410.12 163.64 411.54 162.32 412.28 160.69V160.68Z" fill="#C07560"/>
<path d="M464.06 182.12L462.3 181.75L453.09 173.9L448.05 169.67C447.63 169.32 447.12 169.08 446.57 168.99L441.58 168.16C441.58 168.16 440.8 170.33 443.07 171.58L445.8 172.99L448.3 175.95L447.98 176.59C447.98 176.59 431.58 179.13 430.56 180.38C429.54 181.63 430.56 182.77 431.01 183C431.46 183.23 432.26 183.11 432.26 183.11C432.26 183.11 431.46 185.04 433.85 186.63C433.85 186.63 432.03 189.02 435.21 190.16C435.21 190.16 436.12 191.98 437.94 192.55C439.76 193.12 449.54 194.26 450.56 194.26C451.58 194.26 462.31 194.28 462.31 194.28L464.67 194.67L464.03 182.14L464.06 182.12Z" fill="#C07560"/>
<path d="M431.91 183.13C431.9 183.26 433.93 183.55 436.44 183.37C438.95 183.19 440.94 182.83 440.93 182.7C440.92 182.55 438.89 182.67 436.41 182.85C433.94 183.02 431.92 182.97 431.91 183.12V183.13Z" fill="#7C4236"/>
<path d="M433.88 186.63C433.88 186.7 434.31 186.76 434.99 186.85C435.67 186.94 436.62 187.07 437.69 187.13C438.77 187.2 439.73 187.1 440.41 187.07C441.1 187.02 441.51 187.03 441.53 186.97C441.55 186.9 441.11 186.75 440.42 186.71C439.72 186.64 438.76 186.69 437.73 186.62C436.69 186.56 435.73 186.48 435.03 186.49C434.33 186.49 433.9 186.56 433.9 186.63H433.88Z" fill="#7C4236"/>
<path d="M434.91 190.08C434.9 190.22 436.88 190.49 439.33 190.67C440.56 190.75 441.64 190.84 442.36 191.14C443.08 191.41 443.41 191.8 443.48 191.74C443.53 191.72 443.28 191.2 442.51 190.81C441.76 190.39 440.59 190.23 439.37 190.16C436.92 189.97 434.92 189.94 434.91 190.08Z" fill="#7C4236"/>
<path d="M488.56 131.47C488.56 131.47 495.49 132.67 500.74 142.99C503.64 148.7 517.22 183.02 518.02 186.03C521.46 198.91 514.8 207.21 508.38 207.77C501.32 208.39 464.79 196.61 464.79 196.61L463.98 181.01L497.3 186.07L481.29 155C481.29 155 480.68 134.31 488.54 131.48L488.56 131.47Z" fill="#00B380"/>
<path d="M508.52 194.59C508.52 194.59 508.35 193.72 507.62 192.51C506.91 191.3 505.62 189.78 503.87 188.53C502.11 187.28 500.26 186.56 498.88 186.28C497.5 185.99 496.62 186.06 496.62 186.11C496.62 186.2 497.47 186.26 498.79 186.63C500.11 186.99 501.86 187.74 503.56 188.95C505.25 190.17 506.53 191.58 507.3 192.71C508.08 193.83 508.42 194.63 508.5 194.59H508.52Z" fill="#470F4C"/>
<path d="M499.24 206.44C499.24 206.44 499.18 206.44 499.07 206.42C498.93 206.39 498.77 206.36 498.57 206.31C498.13 206.22 497.49 206.03 496.65 205.8C494.98 205.32 492.56 204.58 489.51 203.6C483.41 201.65 474.79 198.81 464.65 195.38L464.5 195.33V195.17C464.26 190.68 464 185.78 463.73 180.68L463.71 180.36L464.03 180.41C466.66 180.84 469.42 181.28 472.23 181.74C481.27 183.21 489.82 184.61 497.36 185.84L497.11 186.18C492.58 177.31 488.76 169.82 486.04 164.52C484.72 161.9 483.67 159.82 482.94 158.36C482.6 157.67 482.33 157.12 482.14 156.72C481.96 156.35 481.87 156.15 481.89 156.14C481.9 156.14 482.01 156.32 482.21 156.68C482.42 157.07 482.71 157.61 483.08 158.29C483.84 159.74 484.93 161.79 486.3 164.39C489.05 169.67 492.93 177.13 497.53 185.97L497.75 186.38L497.29 186.31C489.75 185.1 481.2 183.72 472.16 182.26C469.35 181.8 466.59 181.36 463.96 180.93L464.26 180.66C464.52 185.77 464.76 190.66 464.98 195.15L464.82 194.94C474.93 198.37 483.52 201.27 489.61 203.34C492.63 204.33 495.02 205.11 496.7 205.66C497.53 205.91 498.16 206.13 498.59 206.24C498.79 206.3 498.95 206.35 499.08 206.38C499.19 206.41 499.24 206.44 499.24 206.44Z" fill="#470F4C"/>
<path d="M490.05 132.1C490.1 132.18 489.11 132.75 487.73 133.94C486.35 135.12 484.64 137.01 483.3 139.44C481.98 141.88 481.33 144.35 481.09 146.15C480.84 147.96 480.9 149.1 480.81 149.1C480.77 149.1 480.73 148.82 480.69 148.3C480.64 147.78 480.64 147.03 480.72 146.1C480.79 145.17 480.99 144.08 481.32 142.89C481.67 141.71 482.16 140.44 482.84 139.18C483.53 137.93 484.32 136.83 485.12 135.89C485.94 134.97 486.75 134.2 487.49 133.64C488.22 133.07 488.85 132.66 489.31 132.42C489.77 132.17 490.03 132.05 490.04 132.08L490.05 132.1Z" fill="#470F4C"/>
<path d="M105.81 153.12C105.81 153.12 98.4497 194.08 98.7997 197.91C99.1597 201.74 101.11 207.83 105.56 208.88C110 209.92 114.09 208.88 114.09 208.88L108.76 158.57L105.81 153.12Z" fill="#FFBF9D"/>
<path d="M127.309 118.14L126.789 75.82C126.319 65.3 132.049 56.25 142.579 56.07L143.549 56.11C153.359 56.52 161.209 64.38 161.589 74.19C161.949 83.31 162.229 93.4 161.959 98.28C161.419 108.37 151.249 109.53 151.249 109.53C151.229 109.53 151.189 115.67 151.189 118.64L143.059 129.92V130.52L127.279 118.15L127.309 118.14Z" fill="#FFBF9D"/>
<path d="M151.27 109.51C151.27 109.51 144.89 109.62 138.28 105.08C138.28 105.08 141.13 112.8 151.25 112.31L151.27 109.51Z" fill="#FF9A6C"/>
<path d="M158.389 82.89C158.389 83.65 157.739 84.28 156.939 84.29C156.139 84.29 155.499 83.69 155.509 82.93C155.509 82.17 156.159 81.54 156.959 81.53C157.759 81.53 158.399 82.13 158.389 82.89Z" fill="#470F4C"/>
<path d="M159.269 78.55C159.079 78.73 158.019 77.88 156.469 77.82C154.919 77.74 153.749 78.49 153.589 78.29C153.509 78.2 153.709 77.87 154.219 77.53C154.719 77.19 155.569 76.88 156.539 76.92C157.509 76.97 158.299 77.35 158.759 77.74C159.219 78.13 159.369 78.47 159.279 78.55H159.269Z" fill="#470F4C"/>
<path d="M144.52 82.89C144.52 83.65 143.87 84.28 143.07 84.29C142.27 84.29 141.63 83.69 141.64 82.93C141.64 82.17 142.29 81.54 143.09 81.53C143.89 81.53 144.53 82.13 144.52 82.89Z" fill="#470F4C"/>
<path d="M144.039 78.28C143.849 78.46 142.789 77.61 141.239 77.55C139.689 77.47 138.519 78.22 138.359 78.02C138.279 77.93 138.479 77.6 138.989 77.26C139.489 76.92 140.339 76.61 141.309 76.65C142.279 76.7 143.079 77.09 143.529 77.47C143.989 77.86 144.139 78.2 144.049 78.28H144.039Z" fill="#470F4C"/>
<path d="M149.119 90.44C149.119 90.35 150.089 90.22 151.659 90.09C152.059 90.07 152.439 90 152.509 89.73C152.609 89.45 152.469 89.01 152.289 88.54C151.959 87.57 151.609 86.54 151.239 85.47C149.789 81.11 148.759 77.52 148.929 77.47C149.109 77.41 150.419 80.9 151.869 85.27C152.219 86.35 152.549 87.37 152.869 88.35C152.999 88.81 153.239 89.33 153.009 89.91C152.889 90.2 152.589 90.4 152.329 90.46C152.069 90.53 151.849 90.52 151.649 90.53C150.069 90.55 149.099 90.52 149.089 90.43L149.119 90.44Z" fill="#470F4C"/>
<path d="M144.74 73.45C144.51 73.84 143.02 73.36 141.19 73.24C139.36 73.09 137.82 73.35 137.65 72.93C137.58 72.73 137.9 72.39 138.56 72.09C139.21 71.8 140.21 71.58 141.31 71.66C142.41 71.74 143.36 72.09 143.96 72.48C144.57 72.87 144.84 73.25 144.74 73.44V73.45Z" fill="#470F4C"/>
<path d="M159.53 73.99C159.2 74.33 157.94 73.93 156.42 73.88C154.9 73.78 153.61 74.04 153.32 73.67C153.2 73.49 153.41 73.14 153.98 72.82C154.54 72.5 155.48 72.25 156.52 72.31C157.56 72.37 158.46 72.71 158.98 73.08C159.51 73.46 159.67 73.82 159.53 73.99Z" fill="#470F4C"/>
<path d="M127.31 83.32C127.14 83.24 120.46 80.98 120.39 87.89C120.33 94.8 127.28 93.4399 127.29 93.2399C127.3 93.0399 127.31 83.3099 127.31 83.3099V83.32Z" fill="#FFBF9D"/>
<path d="M125.199 90.61C125.199 90.61 125.079 90.69 124.869 90.78C124.669 90.87 124.329 90.93 123.969 90.78C123.239 90.51 122.639 89.34 122.619 88.09C122.609 87.46 122.749 86.86 122.969 86.37C123.189 85.87 123.519 85.52 123.879 85.45C124.249 85.37 124.509 85.59 124.589 85.79C124.679 85.98 124.639 86.12 124.669 86.13C124.689 86.15 124.819 86.02 124.769 85.73C124.739 85.59 124.659 85.43 124.499 85.29C124.339 85.15 124.089 85.08 123.839 85.11C123.309 85.14 122.819 85.63 122.569 86.17C122.289 86.71 122.119 87.39 122.129 88.09C122.159 89.48 122.859 90.79 123.859 91.09C124.349 91.22 124.749 91.08 124.959 90.92C125.179 90.75 125.209 90.6 125.189 90.58L125.199 90.61Z" fill="#FF9A6C"/>
<path d="M144.239 91.4C144.479 91.39 144.489 92.97 145.849 94.09C147.209 95.21 148.899 95.03 148.919 95.25C148.939 95.35 148.539 95.56 147.829 95.58C147.129 95.61 146.109 95.39 145.269 94.7C144.439 94.01 144.079 93.09 144.019 92.44C143.959 91.78 144.129 91.38 144.239 91.39V91.4Z" fill="#470F4C"/>
<path d="M175.56 65.08C175.45 64.67 175.16 64.33 174.8 64.11C174.01 63.63 173.1 63.69 172.22 63.66C170.03 63.6 167.86 63.01 165.91 62C166.6 61.66 167.24 61.25 167.78 60.72C168.91 59.62 169.57 57.92 169.08 56.42C168.99 56.14 168.83 55.84 168.55 55.75C168.1 55.61 167.7 56.04 167.39 56.39C166.35 57.53 165.39 58.01 163.86 57.84C162.91 57.73 161.99 57.51 161.24 57.03C161.21 57 161.18 56.96 161.15 56.93C160.79 56.55 160.45 56.2 160.11 55.85C157.54 53.24 155.32 51.43 153.03 50.48C149.67 49.08 144.03 48.47 140.5 49.35C136.97 50.23 133.78 53.05 133.25 56.65C131.3 54.96 128.33 54.94 125.92 55.88L125.86 55.85C123.17 56.77 121.62 59.59 120.8 62.31C120.76 62.46 120.72 62.61 120.67 62.76C119.75 64.18 118.5 65.4 117.03 66.24C116.77 66.39 116.47 66.57 116.44 66.87C116.41 67.16 116.65 67.41 116.89 67.59C117.53 68.06 118.27 68.37 119.05 68.51C118.8 69.16 118.5 69.78 118.14 70.38C117.83 70.89 117.47 71.5 117.72 72.03C117.92 72.44 118.44 72.62 118.9 72.56C119.36 72.5 119.76 72.25 120.15 72.01C119.84 72.72 119.54 73.43 119.23 74.14C120.2 74.32 121.2 74.25 122.14 73.98C122.68 76.54 123.05 81.27 123.69 83.01C125.52 83.06 125.97 82.87 126.9 83.19C128.09 83.6 127.61 85.71 129.18 85.13C129.98 84.83 131.23 81.84 131.5 81.04C133.32 75.7 133.97 69.96 133.4 64.35C134.52 63.18 135.87 62.23 137.35 61.57L137.23 61.68C140.07 60.73 143.28 59.8 145.94 61.16C148.01 62.21 149.21 64.39 150.74 66.13C153.65 69.43 156.97 71.21 161.36 71.45C161.72 74.51 161.78 79.5 161.9 82.35L164.4 76.68V76.7C164.6 76.37 164.77 76.03 164.93 75.7L164.99 75.6C165.25 75.05 165.49 74.51 165.81 73.98C165.81 73.98 165.83 74 165.84 74C167.37 75.38 169.67 73.32 168.47 71.65C168.23 71.32 167.95 71.02 167.62 70.78C168.32 71.45 169.37 71.78 170.29 71.51C171.22 71.24 171.95 70.31 171.88 69.34C171.83 68.68 171.37 68.09 170.78 67.82C172.03 67.93 173.3 67.67 174.4 67.07C175.12 66.67 175.82 66.01 175.59 65.11L175.56 65.08Z" fill="#470F4C"/>
<path d="M136.41 57.85C136.41 57.85 135.98 58.11 135.38 58.77C134.79 59.42 134.12 60.56 133.79 62.11C133.62 62.88 133.51 63.75 133.5 64.68C133.49 65.61 133.55 66.61 133.61 67.66C133.67 68.71 133.73 69.82 133.65 70.98C133.61 71.56 133.53 72.14 133.4 72.73C133.27 73.31 133.11 73.93 132.67 74.42C132.32 74.82 131.74 74.99 131.24 74.88C130.74 74.78 130.29 74.51 129.96 74.14C129.32 73.37 129.17 72.41 129.01 71.56L129.22 71.59C128.86 72.35 128.5 73.1 127.96 73.7C127.43 74.3 126.71 74.69 125.98 74.75C125.62 74.78 125.25 74.72 124.94 74.56C124.62 74.4 124.39 74.13 124.24 73.85C124.09 73.56 124.02 73.25 124.04 72.95C124.06 72.65 124.18 72.37 124.37 72.17L124.48 72.27C123.69 73.15 122.86 73.62 122.29 73.88C122 74.01 121.77 74.09 121.61 74.13C121.45 74.17 121.37 74.19 121.37 74.19C121.37 74.19 121.45 74.15 121.6 74.1C121.75 74.04 121.98 73.95 122.26 73.81C122.82 73.53 123.62 73.05 124.38 72.18L124.49 72.28C124.15 72.64 124.12 73.27 124.41 73.78C124.55 74.03 124.76 74.27 125.04 74.41C125.32 74.55 125.65 74.6 125.98 74.57C126.65 74.51 127.33 74.14 127.82 73.57C128.32 73 128.68 72.27 129.03 71.51L129.18 71.19L129.24 71.54C129.39 72.39 129.55 73.32 130.14 74.01C130.43 74.34 130.84 74.59 131.28 74.67C131.72 74.76 132.19 74.62 132.5 74.28C132.89 73.86 133.05 73.26 133.18 72.7C133.31 72.13 133.38 71.56 133.43 70.99C133.51 69.85 133.46 68.75 133.41 67.7C133.36 66.65 133.3 65.64 133.32 64.7C133.34 63.76 133.46 62.88 133.64 62.1C133.99 60.53 134.7 59.38 135.33 58.73C135.96 58.08 136.42 57.88 136.42 57.88L136.41 57.85Z" fill="#375A64"/>
<path d="M167.6 68.06C167.6 68.06 167.57 68.09 167.52 68.13C167.45 68.18 167.37 68.24 167.27 68.31C167.16 68.39 167.02 68.49 166.84 68.58C166.66 68.68 166.46 68.8 166.22 68.9C165.28 69.34 163.76 69.76 161.88 69.63C160.02 69.5 157.78 68.82 155.8 67.31C153.8 65.83 152.05 63.67 150.62 61.2C149.9 59.97 149.31 58.7 148.66 57.54C148.02 56.37 147.3 55.29 146.43 54.43C145.57 53.57 144.57 52.93 143.53 52.63C143.01 52.47 142.49 52.43 141.99 52.44C141.49 52.46 141.02 52.56 140.58 52.69C139.7 52.97 139 53.45 138.46 53.94C137.92 54.43 137.55 54.96 137.3 55.41C136.83 56.33 136.8 56.93 136.76 56.92C136.76 56.92 136.76 56.88 136.76 56.81C136.77 56.73 136.79 56.62 136.81 56.5C136.86 56.23 136.98 55.84 137.21 55.36C137.45 54.9 137.82 54.35 138.36 53.84C138.9 53.33 139.62 52.83 140.52 52.53C140.97 52.38 141.46 52.28 141.98 52.25C142.5 52.24 143.04 52.28 143.58 52.44C144.66 52.74 145.69 53.4 146.57 54.28C147.46 55.15 148.19 56.25 148.85 57.43C149.51 58.61 150.09 59.87 150.81 61.09C152.22 63.54 153.95 65.68 155.91 67.14C157.86 68.64 160.04 69.33 161.87 69.47C163.72 69.62 165.22 69.23 166.16 68.82C167.11 68.41 167.57 68.04 167.58 68.07L167.6 68.06Z" fill="#375A64"/>
<path d="M168.57 63.62C168.57 63.62 168.45 63.72 168.2 63.87C167.96 64.02 167.59 64.21 167.12 64.4C166.65 64.6 166.07 64.79 165.41 64.94C164.75 65.08 164.01 65.18 163.23 65.2C162.45 65.21 161.71 65.14 161.04 65.03C160.38 64.9 159.79 64.74 159.31 64.56C158.83 64.38 158.46 64.21 158.21 64.07C157.96 63.93 157.83 63.85 157.83 63.84C157.85 63.8 158.41 64.09 159.36 64.4C159.84 64.56 160.42 64.7 161.07 64.81C161.72 64.91 162.45 64.97 163.22 64.96C163.98 64.94 164.71 64.85 165.36 64.72C166.01 64.58 166.58 64.42 167.05 64.24C167.99 63.89 168.54 63.57 168.56 63.61L168.57 63.62Z" fill="#375A64"/>
<path d="M142.1 384.87L141.1 407.73C141.1 407.73 164 416.42 164.22 420.66L119.83 420.31L119.93 384.63L142.1 384.86V384.87Z" fill="#00B380"/>
<path d="M127.39 405.7C126.53 405.93 125.93 406.89 126.12 407.76C126.31 408.63 127.28 409.25 128.15 409.04C129.01 408.83 129.77 407.7 129.48 406.85C129.19 406.01 128.01 405.34 127.22 405.76" fill="#E1E1E1"/>
<g opacity="0.6">
<path d="M119.84 420.32L119.99 416.72L162.49 418.4C162.49 418.4 164.46 419.28 164.23 420.67L119.84 420.32Z" fill="white"/>
</g>
<path d="M141.83 407.51C141.83 407.73 140.74 407.82 139.66 408.51C138.57 409.17 138.01 410.11 137.81 410.02C137.61 409.98 137.94 408.68 139.26 407.87C140.56 407.05 141.87 407.32 141.82 407.51H141.83Z" fill="#470F4C"/>
<path d="M146.47 409.47C146.52 409.68 145.58 410.04 144.83 410.95C144.06 411.84 143.87 412.83 143.65 412.82C143.45 412.85 143.31 411.58 144.25 410.47C145.19 409.35 146.46 409.27 146.46 409.47H146.47Z" fill="#470F4C"/>
<path d="M149.07 415.06C148.87 415.1 148.58 414.02 149.15 412.84C149.71 411.65 150.73 411.19 150.82 411.37C150.94 411.55 150.28 412.18 149.83 413.16C149.36 414.13 149.29 415.04 149.07 415.06Z" fill="#470F4C"/>
<path d="M141.48 402.28C141.39 402.48 140.4 402.17 139.17 402.24C137.94 402.29 136.99 402.69 136.87 402.51C136.75 402.35 137.68 401.56 139.13 401.49C140.57 401.41 141.59 402.11 141.48 402.28Z" fill="#470F4C"/>
<path d="M142.04 402.02C142.15 402.02 142.17 404.14 142.1 407.52L141.92 407.25C144.51 408.23 147.96 409.56 151.62 411.29C155.63 413.17 159.16 415.12 161.46 416.95C162.61 417.85 163.46 418.71 163.89 419.43C164.35 420.14 164.29 420.69 164.22 420.66C164.19 420.66 164.15 420.21 163.65 419.59C163.17 418.97 162.3 418.19 161.14 417.37C158.82 415.69 155.29 413.82 151.31 411.96C147.67 410.24 144.26 408.86 141.72 407.77L141.53 407.69V407.5C141.74 404.12 141.93 402.01 142.04 402.02Z" fill="#470F4C"/>
<path d="M113.4 225.5V246.21L121.57 312.36C121.57 312.36 118.98 343.38 117.39 360.89C116.01 376.1 118.27 402.58 118.27 402.58H142.5L151.17 314.26L156.55 259.18L166.31 226.55L113.41 225.5H113.4Z" fill="#470F4C"/>
<path d="M156.35 380.91L150 402.89C150 402.89 170.21 416.72 169.43 420.9L126.37 410.13L134.85 375.48L156.34 380.92L156.35 380.91Z" fill="#00B380"/>
<path d="M137.16 397.69C136.27 397.71 135.46 398.5 135.44 399.39C135.42 400.28 136.22 401.11 137.11 401.11C138 401.11 139 400.18 138.92 399.3C138.84 398.41 137.85 397.49 136.98 397.71" fill="#E1E1E1"/>
<g opacity="0.6">
<path d="M126.38 410.12L127.37 406.66L168.29 418.28C168.29 418.28 170 419.59 169.44 420.89L126.38 410.12Z" fill="white"/>
</g>
<path d="M150.76 402.84C150.7 403.05 149.63 402.88 148.42 403.3C147.21 403.69 146.44 404.46 146.27 404.33C146.09 404.24 146.71 403.06 148.18 402.58C149.64 402.09 150.85 402.66 150.76 402.84Z" fill="#470F4C"/>
<path d="M154.81 405.84C154.81 406.06 153.81 406.19 152.87 406.9C151.91 407.58 151.49 408.5 151.28 408.44C151.07 408.42 151.24 407.16 152.42 406.29C153.59 405.42 154.85 405.64 154.81 405.84Z" fill="#470F4C"/>
<path d="M156.02 411.89C155.82 411.89 155.79 410.76 156.62 409.75C157.44 408.73 158.55 408.52 158.59 408.72C158.67 408.92 157.87 409.38 157.21 410.23C156.52 411.06 156.24 411.93 156.03 411.9L156.02 411.89Z" fill="#470F4C"/>
<path d="M151.65 397.68C151.51 397.85 150.62 397.32 149.41 397.1C148.21 396.86 147.18 397.03 147.12 396.82C147.04 396.64 148.13 396.09 149.55 396.36C150.97 396.62 151.79 397.54 151.65 397.68Z" fill="#470F4C"/>
<path d="M175.66 226.91L176.77 238.18L175.43 319.98L156.25 385.7L151.61 401.64L126.86 396.97L145.94 226.93L175.66 226.91Z" fill="#470F4C"/>
<path d="M174.91 321.7C174.91 321.7 174.88 321.83 174.82 322.09C174.75 322.36 174.64 322.73 174.51 323.23C174.22 324.24 173.81 325.72 173.26 327.63C172.15 331.48 170.54 337.09 168.51 344.15C164.41 358.3 158.61 378.29 151.82 401.7L151.77 401.89L151.58 401.85C143.76 400.38 135.44 398.82 126.83 397.2L126.6 397.16L126.64 396.93C127.9 390.26 129.22 383.29 130.57 376.19C134.57 355.15 138.34 335.3 141.63 317.96V318.03C137.53 292.3 134.26 271.79 132.39 260.01V260.04C130.6 256.77 129.21 254.24 128.27 252.52C127.81 251.67 127.46 251.03 127.22 250.58C126.99 250.14 126.88 249.91 126.88 249.91C126.88 249.91 127.02 250.12 127.27 250.55C127.52 250.99 127.89 251.63 128.37 252.47C129.33 254.18 130.75 256.69 132.58 259.94V259.97C134.5 271.74 137.85 292.25 142.04 317.96V318V318.04C138.76 335.39 135.01 355.24 131.03 376.28C129.68 383.38 128.36 390.35 127.1 397.02L126.92 396.75C135.53 398.38 143.84 399.95 151.66 401.42L151.41 401.57C158.27 378.17 164.12 358.2 168.26 344.06C170.34 337.01 171.99 331.42 173.13 327.57C173.7 325.67 174.14 324.2 174.44 323.19C174.59 322.7 174.71 322.33 174.79 322.06C174.87 321.81 174.92 321.68 174.92 321.68L174.91 321.7Z" fill="#375A64"/>
<path d="M171.21 233.62C171.21 233.62 170.81 234.46 169.86 235.6C168.91 236.74 167.4 238.17 165.47 239.35C163.53 240.53 161.57 241.22 160.12 241.54C158.67 241.86 157.75 241.88 157.75 241.83C157.7 241.67 161.42 241.31 165.23 238.95C169.07 236.65 171.1 233.51 171.21 233.62Z" fill="#375A64"/>
<path d="M223.94 110.18C224.25 109.72 224.17 109.06 223.71 108.74C223.59 108.66 223.46 108.61 223.34 108.63C222.84 108.71 221.54 109.66 220.54 109.68C219.54 109.7 217.83 109.39 216.82 110.32C215.82 111.25 213.37 116.36 213.06 117.47C212.75 118.58 211.66 128.33 211.66 128.33L223.94 110.18Z" fill="#FFBF9D"/>
<path d="M228.19 108.9C228.14 108.96 216.18 114.24 210.93 116.55C209.76 117.07 209.5 118.58 210.42 119.48C210.99 120.03 211.85 120.17 212.56 119.81L229.72 111.45L231.13 109.3L228.19 108.89V108.9Z" fill="#470F4C"/>
<path d="M215.52 119.66L219.33 116.85L224.36 109.55C224.36 109.55 226.42 108.33 227.49 109.1C228.56 109.87 228.91 110.76 228.41 111.76C228.41 111.76 231.25 112.44 231.46 113.39C231.66 114.34 231.05 116.66 231.05 116.66C231.05 116.66 231.47 118.44 231.07 119.38C230.67 120.32 230.71 121.14 230.71 121.14C230.71 121.14 232.55 123.39 231.76 125.7C230.97 128 227.65 133.15 225.87 134.48C224.09 135.81 220.73 137.4 220.73 137.4L218.53 142L209.41 133.75L215.51 119.67L215.52 119.66Z" fill="#FFBF9D"/>
<path d="M224.21 109.86C224.21 109.86 224.14 110.01 223.98 110.25C223.8 110.53 223.57 110.87 223.3 111.28C222.72 112.15 221.91 113.34 221 114.65C220.54 115.3 220.11 115.92 219.71 116.49C219.51 116.77 219.29 117.03 219.06 117.24C218.82 117.45 218.57 117.6 218.33 117.71C217.85 117.94 217.43 118.04 217.15 118.11C216.86 118.18 216.71 118.2 216.7 118.19C216.7 118.18 216.85 118.13 217.13 118.04C217.41 117.95 217.81 117.83 218.27 117.6C219.25 117.19 219.91 115.81 220.85 114.54C221.76 113.23 222.59 112.05 223.19 111.2C223.48 110.8 223.72 110.47 223.92 110.2C224.1 109.97 224.2 109.84 224.21 109.85V109.86Z" fill="#FF9A6C"/>
<path d="M225.38 117.46C225.38 117.46 225.99 116.15 226.85 114.59C227.71 113.03 228.44 111.78 228.48 111.81C228.52 111.84 227.87 113.12 227.01 114.68C226.15 116.24 225.42 117.49 225.38 117.46Z" fill="#FF9A6C"/>
<path d="M226.58 122.02C226.58 122.02 226.54 121.86 226.44 121.62C226.35 121.38 226.16 121.08 225.85 120.86C225.54 120.64 225.18 120.57 224.93 120.57C224.68 120.57 224.52 120.6 224.51 120.57C224.51 120.55 224.65 120.46 224.93 120.43C225.2 120.4 225.61 120.46 225.96 120.7C226.32 120.95 226.51 121.31 226.57 121.58C226.64 121.85 226.6 122.02 226.58 122.02Z" fill="#FF9A6C"/>
<path d="M230.81 123.39C230.81 123.39 230.65 123.31 230.43 123.13C230.21 122.96 229.91 122.72 229.54 122.55C229.17 122.38 228.79 122.33 228.53 122.39C228.27 122.44 228.18 122.6 228.15 122.58C228.12 122.58 228.19 122.36 228.49 122.26C228.78 122.16 229.21 122.2 229.61 122.38C230.02 122.57 230.31 122.84 230.51 123.03C230.71 123.23 230.82 123.37 230.8 123.39H230.81Z" fill="#FF9A6C"/>
<path d="M229.18 119.55C229.18 119.55 229.51 118.85 230.02 118.06C230.52 117.26 230.97 116.64 231.01 116.67C231.05 116.7 230.68 117.37 230.17 118.16C229.67 118.96 229.22 119.58 229.18 119.55Z" fill="#FF9A6C"/>
<path d="M221.87 119.88C221.87 119.88 221.84 119.72 221.78 119.49C221.71 119.26 221.55 118.96 221.26 118.75C220.97 118.54 220.64 118.48 220.4 118.49C220.16 118.49 220.01 118.54 220 118.51C220 118.49 220.13 118.39 220.39 118.36C220.65 118.32 221.03 118.36 221.37 118.61C221.7 118.85 221.86 119.21 221.9 119.47C221.94 119.73 221.89 119.89 221.87 119.89V119.88Z" fill="#FF9A6C"/>
<path d="M211.9 119.86C211.9 119.86 212.06 119.69 212.23 119.38C212.39 119.07 212.51 118.56 212.32 118.06C212.12 117.56 211.7 117.25 211.37 117.12C211.04 116.98 210.81 116.99 210.81 116.96C210.81 116.94 211.05 116.89 211.42 117C211.78 117.11 212.27 117.43 212.5 118C212.72 118.57 212.56 119.14 212.35 119.46C212.14 119.79 211.91 119.9 211.91 119.88L211.9 119.86Z" fill="#375A64"/>
<path d="M179.84 142.93L194.3 155.31L212.05 128.79L223.59 135.6C223.59 135.6 206.29 175.42 201.6 178.94C196.91 182.46 192.96 181.55 186.92 178.76C180.89 175.97 159.4 154.34 159.4 154.34L179.83 142.93H179.84Z" fill="#FFBF9D"/>
<path d="M194.82 166.31C194.68 166.29 195.07 163.79 194.9 160.7C194.75 157.61 194.09 155.17 194.23 155.13C194.34 155.09 195.21 157.52 195.37 160.68C195.55 163.83 194.94 166.35 194.83 166.32L194.82 166.31Z" fill="#FF9A6C"/>
<path d="M120.82 122.68C120.82 122.68 133.11 122.86 133.29 138.18C133.47 153.5 130.16 174 130.16 174L98.7798 168.47C98.7798 168.47 102.67 139.95 106 131.73C109.34 123.46 115.73 121.29 120.82 122.68Z" fill="#00B380"/>
<path d="M126.66 111.65L126.27 114.15C126.27 114.15 109.5 125.23 108.55 128.09C107.08 132.52 110.29 169.98 111.7 180.6C113.12 191.22 113.4 214.61 113.4 214.61C112.37 217.37 111.2 219.85 110.81 223.7C110.43 227.51 113.4 230.99 113.4 230.99C131.39 236.86 153.37 232.35 177.15 226.93L176.93 220.19L169.16 146.96C169.16 146.96 171.42 127.93 162.14 122.42C161.12 121.82 153.02 117.21 153.02 117.21L126.66 111.65Z" fill="#00B380"/>
<g opacity="0.3">
<path d="M153.62 143.39C153.62 143.39 153.48 153.93 159.15 165.98C164.82 178.03 173.26 185.56 173.26 185.56L170.74 163.65L153.62 143.4V143.39Z" fill="black"/>
</g>
<path d="M167.71 124.91C164.77 122.53 159.3 121.24 156.18 123.38C154.79 124.33 153.17 125.77 152.39 128.04C149.73 135.83 151.32 144.2 153.45 150.41C155.58 156.62 165.88 168.59 165.88 168.59L191.32 153.15C191.32 153.15 174.29 132.51 172.52 130.38C171.59 129.27 169.34 126.23 167.71 124.91Z" fill="#00B380"/>
<path d="M167.71 124.91C167.71 124.91 167.91 125.04 168.25 125.34C168.59 125.64 169.07 126.11 169.65 126.77C170.83 128.07 172.38 130.09 174.48 132.56C178.64 137.56 184.52 144.64 191.49 153.02L191.64 153.21L191.43 153.34C184.23 157.72 176.04 162.7 167.39 167.96C166.91 168.25 166.44 168.54 166 168.8L165.83 168.9L165.7 168.75C162.86 165.39 160.21 162.01 157.84 158.61C156.66 156.91 155.55 155.2 154.59 153.44C154.12 152.56 153.68 151.67 153.34 150.74C153 149.82 152.73 148.9 152.46 147.98C150.34 140.67 150.28 133.51 152.22 128.05C152.68 126.66 153.51 125.5 154.45 124.6C155.4 123.72 156.4 122.94 157.52 122.59C158.62 122.23 159.71 122.16 160.69 122.21C161.67 122.26 162.55 122.44 163.32 122.66C164.87 123.09 165.97 123.7 166.69 124.15C167.4 124.6 167.71 124.92 167.71 124.92C167.69 124.95 167.36 124.65 166.64 124.23C165.92 123.81 164.81 123.23 163.28 122.84C162.52 122.63 161.64 122.48 160.68 122.44C159.72 122.4 158.66 122.48 157.61 122.84C156.55 123.18 155.59 123.95 154.67 124.82C153.76 125.71 152.98 126.83 152.54 128.17C150.67 133.56 150.75 140.64 152.88 147.88C153.15 148.78 153.42 149.7 153.76 150.61C154.1 151.5 154.52 152.38 154.99 153.25C155.93 154.99 157.04 156.68 158.22 158.37C160.58 161.75 163.23 165.12 166.06 168.47L165.76 168.42C166.2 168.15 166.68 167.86 167.15 167.57C175.81 162.32 184.01 157.36 191.21 152.99L191.16 153.3C184.24 144.87 178.41 137.76 174.28 132.73C172.21 130.24 170.68 128.18 169.54 126.87C168.97 126.21 168.51 125.72 168.19 125.41C167.87 125.09 167.69 124.94 167.7 124.93L167.71 124.91Z" fill="#470F4C"/>
<path d="M108.22 136.57C108.22 136.57 108.26 136.72 108.29 137.01C108.32 137.36 108.36 137.78 108.41 138.29C108.5 139.47 108.61 141.06 108.75 142.99C109.01 147.03 109.35 152.49 109.74 158.52C110.14 164.58 110.55 170.07 110.91 174.03C111.09 175.96 111.24 177.54 111.35 178.72C111.39 179.23 111.43 179.65 111.46 180C111.48 180.29 111.48 180.45 111.46 180.45C111.44 180.45 111.41 180.3 111.36 180.01C111.31 179.67 111.24 179.25 111.16 178.74C111 177.64 110.79 176.04 110.58 174.06C110.14 170.1 109.67 164.61 109.27 158.55C108.88 152.49 108.6 146.99 108.42 143.01C108.34 141.07 108.28 139.48 108.23 138.3C108.22 137.79 108.21 137.36 108.2 137.02C108.2 136.73 108.2 136.57 108.22 136.57Z" fill="#470F4C"/>
<path d="M164.48 225.5C164.48 225.5 164.32 225.57 164.01 225.65C163.65 225.74 163.19 225.85 162.64 225.98C162.04 226.13 161.31 226.28 160.45 226.44C159.59 226.61 158.62 226.8 157.53 226.96C155.37 227.33 152.77 227.63 149.88 227.92C146.99 228.16 143.8 228.34 140.45 228.38C137.1 228.4 133.91 228.29 131.01 228.1C128.12 227.87 125.51 227.6 123.35 227.25C122.26 227.1 121.29 226.92 120.43 226.76C119.57 226.61 118.84 226.46 118.24 226.31C117.69 226.18 117.23 226.07 116.87 225.98C116.56 225.9 116.39 225.85 116.4 225.83C116.4 225.81 116.57 225.83 116.89 225.88C117.26 225.94 117.72 226.03 118.28 226.12C118.88 226.24 119.62 226.36 120.48 226.49C121.34 226.63 122.31 226.79 123.4 226.91C125.57 227.22 128.16 227.45 131.05 227.66C133.94 227.83 137.12 227.93 140.45 227.91C143.79 227.87 146.96 227.7 149.85 227.49C152.73 227.23 155.32 226.97 157.49 226.64C158.58 226.5 159.55 226.33 160.41 226.19C161.27 226.05 162.01 225.93 162.61 225.81C163.17 225.71 163.63 225.63 164 225.56C164.32 225.51 164.49 225.49 164.49 225.5H164.48Z" fill="#470F4C"/>
</g>
<defs>
<clipPath id="clip0_111_1476">
<rect width="589.97" height="433.74" fill="white"/>
</clipPath>
</defs>
</svg>
