<svg width="594" height="456" viewBox="0 0 594 456" fill="none" xmlns="http://www.w3.org/2000/svg">
<g clip-path="url(#clip0_111_1335)">
<path d="M235.93 332.57C238.59 330.96 241.43 329.74 244.35 328.91L246.08 320.58L260.16 320.33L262.19 328.6C265.14 329.33 268.01 330.45 270.73 331.96L277.84 327.3L287.97 337.08L283.56 344.35C285.17 347.01 286.39 349.85 287.22 352.77L295.55 354.5L295.8 368.58L287.53 370.61C286.8 373.56 285.68 376.43 284.17 379.15L288.83 386.27L279.05 396.4L271.78 391.99C269.12 393.6 266.28 394.82 263.36 395.65L261.63 403.98L247.55 404.23L245.52 395.96C242.57 395.23 239.7 394.11 236.98 392.6L229.87 397.26L219.74 387.48L224.15 380.21C222.54 377.55 221.32 374.71 220.49 371.79L212.16 370.06L211.91 355.98L220.18 353.95C220.91 351 222.03 348.13 223.54 345.41L218.88 338.29L228.66 328.16L235.93 332.57ZM243.43 351.32C237.64 357.32 237.8 366.88 243.81 372.68C249.81 378.47 259.37 378.31 265.17 372.3C270.96 366.3 270.8 356.74 264.79 350.94C258.79 345.15 249.23 345.31 243.43 351.32Z" fill="#ECECEC"/>
<path d="M90.0898 26.66C92.5098 25.2 95.0798 24.09 97.7298 23.34L99.2998 15.77L112.08 15.55L113.92 23.06C116.6 23.72 119.21 24.74 121.68 26.11L128.14 21.87L137.34 30.75L133.34 37.35C134.8 39.77 135.91 42.34 136.66 45L144.23 46.57L144.45 59.35L136.94 61.19C136.28 63.87 135.26 66.48 133.89 68.95L138.12 75.41L129.24 84.61L122.63 80.6C120.21 82.06 117.64 83.17 114.98 83.92L113.41 91.49L100.63 91.71L98.7898 84.2C96.1098 83.54 93.4998 82.52 91.0298 81.15L84.5698 85.39L75.3698 76.51L79.3698 69.91C77.9098 67.49 76.7998 64.92 76.0498 62.27L68.4798 60.7L68.2598 47.92L75.7698 46.08C76.4298 43.4 77.4498 40.79 78.8198 38.32L74.5898 31.86L83.4698 22.66L90.0798 26.67L90.0898 26.66ZM96.8998 43.69C91.6398 49.14 91.7898 57.82 97.2398 63.08C102.69 68.34 111.37 68.19 116.63 62.74C121.89 57.29 121.74 48.61 116.29 43.35C110.84 38.09 102.16 38.24 96.8998 43.69Z" fill="#ECECEC"/>
<path d="M312.816 49.0721L312.313 49.9361L503.838 161.541L504.342 160.677L312.816 49.0721Z" fill="#ECECEC"/>
<path d="M55.5598 268.14L54.8398 267.44C55.6298 266.63 134.09 186.25 167.27 149.99C191.31 123.73 261.27 50.88 261.98 50.15L262.7 50.84C262 51.57 192.04 124.41 168.01 150.67C134.82 186.94 56.3498 267.33 55.5598 268.14Z" fill="#ECECEC"/>
<path d="M33.2501 283.31C36.0601 282.13 38.0501 279.24 38.0701 275.83C38.0901 271.36 34.7101 267.72 30.5101 267.7C26.3201 267.68 22.9101 271.29 22.8901 275.76C22.8801 279.2 24.8901 282.13 27.7201 283.32C16.0401 285.08 16.5701 297.77 16.5701 297.77L44.1801 297.9C44.1801 297.9 44.8101 285.07 33.2301 283.32L33.2501 283.31Z" fill="#ECECEC"/>
<path d="M30.39 314.15C13.63 314.15 0 300.52 0 283.76C0 267 13.63 253.37 30.39 253.37C47.15 253.37 60.78 267 60.78 283.76C60.78 300.52 47.15 314.15 30.39 314.15ZM30.39 254.23C14.11 254.23 0.86 267.47 0.86 283.75C0.86 300.03 14.1 313.28 30.39 313.28C46.68 313.28 59.92 300.03 59.92 283.75C59.92 267.47 46.68 254.23 30.39 254.23Z" fill="#ECECEC"/>
<path d="M532.45 173.87C535.19 172.72 537.13 169.9 537.15 166.57C537.17 162.21 533.87 158.66 529.78 158.65C525.7 158.63 522.37 162.15 522.35 166.51C522.34 169.87 524.3 172.72 527.06 173.88C515.67 175.6 516.19 187.97 516.19 187.97L543.11 188.09C543.11 188.09 543.72 175.58 532.44 173.88L532.45 173.87Z" fill="#ECECEC"/>
<path d="M532.88 203.76C514.02 205.76 498.2 189.94 500.2 171.08C501.66 157.34 512.7 146.29 526.44 144.84C545.3 142.84 561.12 158.66 559.12 177.52C557.66 191.26 546.62 202.31 532.88 203.77V203.76ZM532.79 145.68C514.47 143.74 499.1 159.11 501.04 177.43C502.46 190.78 513.19 201.51 526.54 202.92C544.86 204.86 560.23 189.49 558.29 171.17C556.87 157.82 546.14 147.09 532.79 145.68Z" fill="#ECECEC"/>
<path d="M283.54 27.45C286.11 26.37 287.94 23.72 287.96 20.59C287.98 16.49 284.88 13.16 281.03 13.14C277.19 13.12 274.06 16.43 274.04 20.53C274.03 23.69 275.87 26.37 278.47 27.46C267.77 29.07 268.25 40.71 268.25 40.71L293.56 40.83C293.56 40.83 294.14 29.07 283.53 27.47L283.54 27.45Z" fill="#ECECEC"/>
<path d="M283.95 55.56C266.22 57.44 251.34 42.57 253.22 24.83C254.59 11.91 264.97 1.52 277.89 0.149996C295.62 -1.73 310.5 13.14 308.62 30.88C307.25 43.8 296.87 54.19 283.95 55.56ZM283.86 0.949996C266.63 -0.870004 252.18 13.58 254.01 30.8C255.34 43.35 265.43 53.44 277.98 54.77C295.21 56.59 309.66 42.14 307.83 24.92C306.5 12.37 296.41 2.28 283.86 0.949996Z" fill="#ECECEC"/>
<path d="M130.93 387.08C133.33 386.08 135.03 383.6 135.04 380.69C135.06 376.88 132.17 373.77 128.59 373.76C125.02 373.74 122.1 376.82 122.09 380.63C122.08 383.57 123.79 386.07 126.22 387.08C116.26 388.58 116.71 399.41 116.71 399.41L140.27 399.52C140.27 399.52 140.81 388.57 130.93 387.08Z" fill="#ECECEC"/>
<path d="M128.49 413.39C114.19 413.39 102.56 401.76 102.56 387.46C102.56 373.16 114.19 361.53 128.49 361.53C142.79 361.53 154.42 373.16 154.42 387.46C154.42 401.76 142.79 413.39 128.49 413.39ZM128.49 362.27C114.6 362.27 103.3 373.57 103.3 387.46C103.3 401.35 114.6 412.65 128.49 412.65C142.38 412.65 153.68 401.35 153.68 387.46C153.68 373.57 142.38 362.27 128.49 362.27Z" fill="#ECECEC"/>
<path d="M46.6499 309.246L45.9814 309.99L111.541 368.917L112.21 368.173L46.6499 309.246Z" fill="#ECECEC"/>
<path d="M560.19 9.74002H404.23V82.99H560.19V9.74002Z" fill="#FAFAFA"/>
<path d="M560.19 82.99C560.19 82.99 560.18 82.54 560.17 81.68C560.17 80.81 560.16 79.54 560.15 77.87C560.14 74.52 560.12 69.6 560.1 63.27C560.08 50.61 560.04 32.33 560 9.74001L560.19 9.93001C519.64 9.95001 464.67 9.97001 404.24 10H404.23L404.49 9.74001C404.49 35.52 404.49 60.3 404.48 82.99L404.23 82.74C449.63 82.79 488.59 82.83 516.21 82.86C530.03 82.89 541.01 82.91 548.55 82.93C552.31 82.94 555.22 82.95 557.19 82.96C558.17 82.96 558.91 82.97 559.43 82.97C559.93 82.97 560.2 82.99 560.2 82.99C560.2 82.99 559.96 83 559.46 83.01C558.95 83.01 558.22 83.01 557.25 83.02C555.29 83.02 552.4 83.04 548.66 83.05C541.14 83.07 530.17 83.09 516.38 83.12C488.72 83.15 449.71 83.19 404.24 83.24H403.99V82.99C403.99 60.3 403.99 35.52 403.98 9.74001V9.48001H404.24H404.25C464.68 9.51001 519.65 9.53001 560.2 9.55001H560.39V9.74001C560.35 32.37 560.31 50.7 560.29 63.38C560.27 69.69 560.25 74.6 560.24 77.94C560.24 79.59 560.22 80.85 560.22 81.72C560.22 82.57 560.2 82.99 560.2 82.99H560.19Z" fill="#1A2E35"/>
<path d="M560.43 31.85C560.43 31.99 525.46 32.11 482.33 32.11C439.2 32.11 404.23 31.99 404.23 31.85C404.23 31.71 439.19 31.59 482.33 31.59C525.47 31.59 560.43 31.71 560.43 31.85Z" fill="#1A2E35"/>
<path d="M419.61 17.46C419.71 17.57 417.81 19.47 415.37 21.71C412.93 23.95 410.88 25.68 410.78 25.57C410.68 25.46 412.58 23.56 415.02 21.32C417.46 19.08 419.51 17.35 419.61 17.46Z" fill="#1A2E35"/>
<path d="M419.26 25.93C419.15 26.03 417.25 24.13 415.01 21.69C412.77 19.25 411.04 17.2 411.15 17.1C411.26 17 413.16 18.9 415.4 21.34C417.64 23.78 419.37 25.83 419.26 25.93Z" fill="#1A2E35"/>
<path d="M435.1 25.76C435.1 25.76 435.07 25.51 435.05 25.1C435.03 24.61 435.01 24.04 434.99 23.35C434.95 21.86 434.9 19.77 434.88 17.28L435.11 17.51C432.62 17.52 429.73 17.53 426.64 17.55C426.58 17.61 427.13 17.06 426.9 17.29V17.87V18.44C426.9 18.82 426.9 19.2 426.9 19.57C426.9 20.32 426.9 21.05 426.9 21.76C426.9 23.18 426.88 24.51 426.87 25.76L426.64 25.53C429.13 25.55 431.22 25.6 432.71 25.64C433.39 25.66 433.97 25.68 434.46 25.7C434.87 25.72 435.1 25.73 435.12 25.75C435.15 25.78 434.34 25.82 432.86 25.86C431.39 25.9 429.24 25.95 426.65 25.97H426.43V25.74C426.43 24.5 426.41 23.16 426.4 21.74C426.4 21.03 426.4 20.3 426.4 19.55C426.4 19.18 426.4 18.8 426.4 18.42V17.85V17.56V17.41V17.34V17.29V17.27C426.17 17.5 426.72 16.95 426.66 17.01C429.75 17.02 432.64 17.03 435.13 17.05H435.36V17.28C435.34 19.87 435.29 22.02 435.25 23.49C435.21 24.97 435.17 25.78 435.14 25.75L435.1 25.76Z" fill="#1A2E35"/>
<path d="M450.9 25C450.9 25.14 448.87 25.26 446.36 25.26C443.85 25.26 441.81 25.14 441.81 25C441.81 24.86 443.84 24.74 446.36 24.74C448.88 24.74 450.9 24.86 450.9 25Z" fill="#1A2E35"/>
<path d="M142.69 97.96H1.1499V197.34H142.69V97.96Z" fill="#FAFAFA"/>
<path d="M142.68 197.34C142.68 197.34 142.66 196.72 142.66 195.53C142.66 194.33 142.65 192.57 142.64 190.27C142.63 185.66 142.61 178.89 142.59 170.24C142.56 152.95 142.53 128.14 142.48 97.96L142.69 98.17C103.31 98.18 54.2399 98.2 1.16988 98.22H1.15988L1.41988 97.96C1.41988 133.5 1.39988 167.24 1.39988 197.34L1.15988 197.1C42.9299 197.15 78.2799 197.19 103.2 197.22C115.67 197.25 125.53 197.27 132.28 197.28C135.65 197.29 138.25 197.3 140.01 197.31C140.88 197.31 141.55 197.32 142 197.32C142.45 197.32 142.68 197.33 142.68 197.33C142.68 197.33 142.46 197.33 142.02 197.34C141.57 197.34 140.91 197.34 140.05 197.35C138.3 197.35 135.72 197.37 132.37 197.38C125.63 197.39 115.79 197.42 103.34 197.44C78.3799 197.47 42.9699 197.51 1.13988 197.56H0.899883V197.32C0.899883 167.23 0.889883 133.48 0.879883 97.94V97.68H1.13988H1.14988C54.2299 97.7 103.29 97.72 142.67 97.73H142.88V97.94C142.83 128.17 142.8 153.03 142.77 170.35C142.75 178.98 142.73 185.73 142.72 190.33C142.71 192.61 142.7 194.36 142.7 195.55C142.7 196.73 142.68 197.32 142.68 197.32V197.34Z" fill="#1A2E35"/>
<path d="M142.9 118.03C142.9 118.17 111.16 118.29 72.0299 118.29C32.8999 118.29 1.1499 118.17 1.1499 118.03C1.1499 117.89 32.8799 117.77 72.0299 117.77C111.18 117.77 142.9 117.89 142.9 118.03Z" fill="#1A2E35"/>
<path d="M15.1099 104.97C15.2099 105.08 13.4899 106.81 11.2799 108.84C9.06985 110.87 7.19985 112.44 7.09985 112.33C6.99985 112.22 8.71985 110.49 10.9299 108.46C13.1399 106.43 15.0099 104.86 15.1099 104.97Z" fill="#1A2E35"/>
<path d="M14.78 112.66C14.67 112.76 12.94 111.04 10.91 108.83C8.88 106.62 7.31 104.75 7.42 104.65C7.53 104.55 9.26 106.27 11.29 108.48C13.32 110.69 14.89 112.56 14.78 112.66Z" fill="#1A2E35"/>
<path d="M29.1596 112.5C29.1596 112.5 29.0896 111.66 29.0496 110.31C29.0096 108.96 28.9596 107.07 28.9396 104.81L29.1696 105.04C26.8996 105.05 24.2796 105.06 21.4796 105.08C21.4196 105.14 21.9696 104.59 21.7396 104.82V105.08V105.34V105.86C21.7396 106.21 21.7396 106.55 21.7396 106.89C21.7396 107.57 21.7396 108.23 21.7396 108.88C21.7396 110.16 21.7196 111.38 21.7096 112.51L21.4796 112.28C23.7396 112.3 25.6296 112.35 26.9796 112.39C28.3296 112.43 29.1296 112.47 29.1696 112.5C29.1996 112.53 28.4696 112.57 27.1296 112.61C25.7896 112.65 23.8396 112.7 21.4896 112.72H21.2696V112.49C21.2696 111.36 21.2496 110.15 21.2396 108.86C21.2396 108.21 21.2396 107.55 21.2396 106.87C21.2396 106.53 21.2396 106.19 21.2396 105.84V105.32V105.06V104.81C21.0096 105.03 21.5596 104.48 21.4996 104.53C24.2996 104.54 26.9196 104.55 29.1896 104.57H29.4196V104.8C29.3996 107.15 29.3496 109.11 29.3096 110.44C29.2696 111.78 29.2296 112.52 29.1996 112.48L29.1596 112.5Z" fill="#1A2E35"/>
<path d="M43.4998 111.82C43.4998 111.96 41.6498 112.08 39.3798 112.08C37.1098 112.08 35.2598 111.96 35.2598 111.82C35.2598 111.68 37.1098 111.56 39.3798 111.56C41.6498 111.56 43.4998 111.68 43.4998 111.82Z" fill="#1A2E35"/>
<path d="M84.62 150.58C84.62 138.35 73.57 128.71 60.91 131.08C52.95 132.57 46.6 139.08 45.21 147.06C44.34 152.05 45.37 156.74 47.64 160.61H47.63L47.69 160.68C48.45 161.96 49.41 162.88 50.37 164.23L61.9 179.5C63.33 181.4 66.19 181.4 67.62 179.5L78.96 164.48C78.96 164.48 81.08 161.96 81.84 160.66L81.88 160.61C83.61 157.66 84.62 154.24 84.62 150.58ZM64.76 159.23C59.93 159.23 56.02 155.32 56.02 150.49C56.02 145.66 59.93 141.75 64.76 141.75C69.59 141.75 73.5 145.66 73.5 150.49C73.5 155.32 69.59 159.23 64.76 159.23Z" fill="#E1E1E1"/>
<path d="M593.4 235.9H411.72V363.47H593.4V235.9Z" fill="#FAFAFA"/>
<path d="M593.41 363.47C593.41 363.47 593.39 362.67 593.39 361.15C593.39 359.62 593.38 357.36 593.37 354.4C593.36 348.49 593.34 339.8 593.32 328.7C593.29 306.51 593.26 274.64 593.21 235.9L593.42 236.11C542.87 236.12 479.88 236.14 411.75 236.16H411.74L412 235.9C412 281.52 411.98 324.84 411.98 363.47L411.74 363.23C465.37 363.28 510.76 363.32 542.75 363.35C558.76 363.38 571.41 363.4 580.08 363.41C584.41 363.42 587.74 363.43 589.99 363.44C591.11 363.44 591.96 363.45 592.55 363.45C593.13 363.45 593.43 363.46 593.43 363.46C593.43 363.46 593.15 363.46 592.58 363.47C592 363.47 591.16 363.47 590.05 363.48C587.8 363.48 584.49 363.5 580.18 363.51C571.53 363.52 558.89 363.55 542.91 363.57C510.88 363.6 465.43 363.64 411.74 363.69H411.5V363.45C411.5 324.82 411.49 281.51 411.48 235.88V235.62H411.76C479.89 235.64 542.88 235.66 593.43 235.67H593.64V235.88C593.59 274.68 593.56 306.59 593.53 328.81C593.51 339.89 593.49 348.56 593.48 354.46C593.47 357.4 593.46 359.64 593.46 361.17C593.46 362.68 593.44 363.45 593.44 363.45L593.41 363.47Z" fill="#1A2E35"/>
<path d="M593.69 261.66C593.69 261.8 552.95 261.92 502.71 261.92C452.47 261.92 411.72 261.8 411.72 261.66C411.72 261.52 452.45 261.4 502.71 261.4C552.97 261.4 593.69 261.52 593.69 261.66Z" fill="#1A2E35"/>
<path d="M429.64 244.91C429.74 245.02 427.51 247.22 424.68 249.83C421.84 252.44 419.46 254.47 419.36 254.36C419.26 254.25 421.49 252.05 424.32 249.44C427.16 246.83 429.54 244.8 429.64 244.91Z" fill="#1A2E35"/>
<path d="M429.23 254.77C429.12 254.87 426.92 252.64 424.31 249.81C421.7 246.97 419.67 244.59 419.78 244.49C419.89 244.39 422.09 246.62 424.7 249.46C427.31 252.3 429.34 254.68 429.23 254.78V254.77Z" fill="#1A2E35"/>
<path d="M447.69 254.56C447.69 254.56 447.66 254.28 447.64 253.8C447.62 253.25 447.6 252.58 447.58 251.77C447.54 250.04 447.49 247.6 447.47 244.69L447.7 244.92C444.81 244.93 441.43 244.94 437.83 244.96C437.77 245.02 438.32 244.47 438.09 244.7V245.37V246.04C438.09 246.48 438.09 246.92 438.09 247.36C438.09 248.23 438.09 249.08 438.09 249.91C438.09 251.56 438.07 253.12 438.06 254.56L437.83 254.33C440.74 254.35 443.18 254.4 444.91 254.44C445.72 254.46 446.39 254.48 446.94 254.5C447.42 254.52 447.68 254.53 447.7 254.55C447.72 254.57 447.49 254.58 447.04 254.6C446.51 254.62 445.85 254.64 445.06 254.66C443.34 254.7 440.84 254.75 437.84 254.77H437.62V254.54C437.62 253.1 437.6 251.54 437.59 249.89C437.59 249.06 437.59 248.21 437.59 247.34C437.59 246.9 437.59 246.46 437.59 246.02V245.35V245.01V244.76V244.72V244.7V244.68C437.36 244.91 437.91 244.36 437.85 244.42C441.45 244.43 444.82 244.44 447.72 244.46H447.95V244.69C447.93 247.7 447.88 250.19 447.84 251.91C447.82 252.7 447.8 253.36 447.78 253.89C447.76 254.34 447.75 254.57 447.73 254.55L447.69 254.56Z" fill="#1A2E35"/>
<path d="M466.09 253.69C466.09 253.83 463.72 253.95 460.8 253.95C457.88 253.95 455.51 253.83 455.51 253.69C455.51 253.55 457.88 253.43 460.8 253.43C463.72 253.43 466.09 253.55 466.09 253.69Z" fill="#1A2E35"/>
<path d="M572.31 276.58H507.35V341.54H572.31V276.58Z" fill="#E1E1E1"/>
<path d="M481.74 46.36H105.76V335.42H481.74V46.36Z" fill="white"/>
<path d="M481.74 335.42C481.74 333.64 481.66 221.01 481.53 46.36L481.74 46.57C375.05 46.58 245.44 46.6 105.79 46.62H105.76L106.02 46.36C106.02 150.46 106 248.97 105.99 335.42L105.76 335.19C328.82 335.33 479.68 335.42 481.74 335.42C479.68 335.42 328.82 335.52 105.76 335.65H105.53V335.42C105.53 248.97 105.51 150.46 105.5 46.36V46.1H105.79C245.44 46.12 375.04 46.13 481.74 46.15H481.95V46.36C481.82 221.01 481.74 333.64 481.74 335.42Z" fill="#1A2E35"/>
<path d="M481.74 73C481.74 73.14 398.02 73.26 294.76 73.26C191.5 73.26 107.76 73.14 107.76 73C107.76 72.86 191.47 72.74 294.76 72.74C398.05 72.74 481.74 72.86 481.74 73Z" fill="#1A2E35"/>
<path d="M126.38 56.72C126.48 56.83 123.91 59.35 120.64 62.35C117.37 65.35 114.64 67.7 114.55 67.6C114.45 67.49 117.02 64.97 120.29 61.97C123.56 58.97 126.28 56.62 126.38 56.72Z" fill="#1A2E35"/>
<path d="M125.9 68.07C125.79 68.17 123.27 65.6 120.27 62.33C117.27 59.06 114.92 56.33 115.02 56.24C115.13 56.14 117.65 58.71 120.65 61.98C123.65 65.25 126 67.97 125.9 68.07Z" fill="#1A2E35"/>
<path d="M147.15 67.84C147.15 67.84 147.12 67.52 147.1 66.98C147.08 66.37 147.07 65.59 147.04 64.65C147 62.66 146.95 59.85 146.93 56.49L147.16 56.72C143.84 56.73 139.95 56.74 135.81 56.76C135.75 56.82 136.3 56.27 136.07 56.5V57.27V58.04C136.07 58.55 136.07 59.06 136.07 59.56C136.07 60.56 136.07 61.54 136.07 62.49C136.07 64.39 136.05 66.19 136.04 67.85L135.81 67.62C139.17 67.64 141.97 67.69 143.97 67.73C144.91 67.75 145.69 67.77 146.3 67.79C146.85 67.81 147.15 67.82 147.16 67.84C147.18 67.86 146.91 67.87 146.39 67.89C145.79 67.91 145.03 67.93 144.11 67.95C142.13 67.99 139.26 68.04 135.81 68.06H135.59V67.83C135.59 66.17 135.57 64.38 135.56 62.47C135.56 61.52 135.56 60.54 135.56 59.54C135.56 59.04 135.56 58.53 135.56 58.02V57.25V56.86V56.5V56.48C135.33 56.71 135.88 56.16 135.82 56.21C139.97 56.22 143.85 56.23 147.17 56.25H147.4V56.48C147.38 59.93 147.33 62.8 147.29 64.78C147.27 65.7 147.25 66.46 147.23 67.06C147.21 67.58 147.2 67.85 147.18 67.83L147.15 67.84Z" fill="#1A2E35"/>
<path d="M168.33 66.83C168.33 66.97 165.6 67.09 162.24 67.09C158.88 67.09 156.15 66.97 156.15 66.83C156.15 66.69 158.88 66.57 162.24 66.57C165.6 66.57 168.33 66.69 168.33 66.83Z" fill="#1A2E35"/>
<path d="M409.47 179.39C409.47 179.39 396.88 182.79 394.52 192.3C390.79 207.32 379.38 251.63 379.38 251.63L367.34 261.37L375.01 274.1C375.01 274.1 388.43 269.69 394.04 262.48C399.65 255.27 405.37 228.34 405.37 228.34L409.47 179.4V179.39Z" fill="#00B380"/>
<path d="M432.5 112.09C435.47 108.66 443.02 108.98 444.86 111.15C447.44 109.73 451.1 110.85 452.44 113.47C455.13 113.99 457.81 114.51 460.5 115.03C461.87 115.3 463.31 115.59 464.39 116.49C465.46 117.39 466 119.1 465.15 120.22C467.99 120.89 469.2 125.06 467.15 127.14C468.33 128.32 468.16 130.56 466.8 131.55C469.08 134.15 470.9 137.14 472.18 140.35C472.71 141.69 473.15 143.2 472.68 144.56C472.21 145.93 470.45 146.9 469.26 146.09C470.09 147.17 470.19 148.75 469.52 149.93C470.88 149.93 471.33 152.02 470.42 153.02C469.51 154.03 468 154.17 466.64 154.17C465.28 154.17 463.81 154.14 462.72 154.94C462.78 155.34 462.95 155.61 463.18 155.79C465.55 157.63 466.29 160.87 464.6 163.36C464.44 163.59 464.3 163.8 464.17 163.99C463.41 165.12 461.49 166.19 460.3 166.85C457.27 168.52 455.44 168.26 452.03 168.84C453.02 171.02 447.57 176.05 441.1 171.39C428.49 175.1 419.37 176.62 406.23 176.96C404.35 177.01 402.1 176.81 401.22 175.15C399.71 175.59 398.05 174.92 396.9 173.85C395.75 172.78 395.01 171.35 394.29 169.95C391.02 169.16 388.45 166.08 388.23 162.73C385.99 161.07 384.5 158.42 384.25 155.64C381.07 154.75 379.23 150.7 380.66 147.72C381.25 143.83 382.48 140.05 384.3 136.56C382.14 136.15 381.26 133.27 382.1 131.23C382.94 129.19 384.86 127.85 386.69 126.63C385.09 127.1 383.64 125.11 383.99 123.48C384.33 121.85 385.76 120.7 387.17 119.81C389.23 118.51 391.45 117.45 393.76 116.68C394.46 113.83 398 110.52 400.62 109.21C411.19 103.9 418.64 102.44 432.5 112.09Z" fill="#470F4C"/>
<path d="M442.98 128.83C443.09 126.58 441.46 124.62 439.23 124.32L416.4 117.85C409.06 116.86 403.9 125.79 403.23 133.17C402.48 141.37 401.88 151.4 402.68 157.56C404.29 169.94 415.3 171.67 415.3 171.67C415.3 171.65 415.11 180.61 415.11 180.61L414.81 191.01C418.32 190.52 440.87 179.73 440.87 179.73L442.98 128.82V128.83Z" fill="#FFBF9D"/>
<path d="M415.43 151.69C415.44 151.59 414.39 151.38 412.68 151.11C412.25 151.05 411.84 150.95 411.77 150.66C411.68 150.34 411.87 149.88 412.1 149.38C412.54 148.34 413 147.25 413.48 146.11C415.4 141.45 416.8 137.62 416.61 137.54C416.42 137.46 414.71 141.18 412.8 145.83C412.34 146.98 411.9 148.07 411.48 149.12C411.3 149.61 411 150.16 411.21 150.82C411.32 151.15 411.63 151.39 411.91 151.48C412.19 151.57 412.43 151.58 412.64 151.6C414.36 151.74 415.43 151.78 415.44 151.68L415.43 151.69Z" fill="#470F4C"/>
<path d="M415.29 171.67C415.29 171.67 421.95 172.54 430.3 167.84C430.3 167.84 428.05 176.96 415.2 175.93L415.29 171.67Z" fill="#FF9A6C"/>
<path d="M420.97 132.63C421.12 133.1 422.83 132.93 424.82 133.22C426.81 133.48 428.41 134.11 428.68 133.7C428.8 133.5 428.54 133.06 427.9 132.6C427.27 132.13 426.25 131.68 425.06 131.51C423.87 131.34 422.76 131.51 422.03 131.78C421.29 132.05 420.91 132.41 420.98 132.63H420.97Z" fill="#470F4C"/>
<path d="M406.02 132.62C406.31 133.01 407.49 132.65 408.9 132.67C410.31 132.64 411.49 133 411.78 132.61C411.91 132.42 411.73 132.03 411.22 131.64C410.72 131.26 409.87 130.94 408.9 130.94C407.93 130.94 407.08 131.27 406.58 131.65C406.07 132.03 405.9 132.43 406.02 132.62Z" fill="#470F4C"/>
<path d="M397.79 139.18C397.88 137.25 398.45 135.28 399.75 133.84C400.46 133.06 401.37 132.45 402 131.6C403.36 129.76 403.12 127.23 403.67 125.01C404.38 122.15 406.57 119.7 409.33 118.66C411.63 117.8 414.25 117.87 416.4 116.68C417.99 115.8 419.18 114.31 420.82 113.53C424.01 112.01 427.76 113.6 430.83 115.36C431.47 117.76 429.98 119.87 428.54 121.9C427.1 123.93 424.74 125.27 422.26 125.45C420.34 125.6 418.08 125.2 416.75 126.59C415.35 128.06 415.94 130.59 414.8 132.27C413.17 134.66 409.35 133.82 406.87 135.33C404.96 136.49 404.18 138.81 403.24 140.84C402.3 142.87 400.65 145 398.42 144.93C398.06 143.03 397.7 141.11 397.79 139.18Z" fill="#470F4C"/>
<path d="M426.09 119.82C431.71 119.64 437.36 120.57 442.63 122.53C444.2 123.11 445.83 123.86 446.74 125.27C447.54 126.51 447.66 128.05 447.67 129.53C447.69 134.14 445.92 139.82 444.23 144.11L438.52 147.65C434.07 146.67 435.98 138.98 436.13 135.14C433.01 133.83 430.8 130.6 430.71 127.22C428.15 125.63 426.39 122.82 426.08 119.82H426.09Z" fill="#470F4C"/>
<path d="M438.58 145.99C438.71 143.35 441.94 142.79 444.23 144.11C445.49 144.84 446.45 146.3 446.33 149.1C446.02 156.58 438.58 154.72 438.58 154.51C438.58 154.38 438.43 149.08 438.58 145.99Z" fill="#FFBF9D"/>
<path d="M440.98 151.77C440.98 151.77 441.11 151.87 441.32 151.98C441.53 152.09 441.9 152.17 442.29 152.04C443.09 151.78 443.81 150.56 443.9 149.21C443.95 148.53 443.83 147.88 443.61 147.33C443.4 146.77 443.07 146.38 442.67 146.29C442.28 146.18 441.99 146.41 441.89 146.62C441.78 146.83 441.82 146.98 441.78 146.99C441.76 147.01 441.62 146.86 441.7 146.55C441.74 146.4 441.83 146.23 442.01 146.09C442.2 145.95 442.46 145.89 442.74 145.93C443.31 145.99 443.81 146.55 444.05 147.14C444.32 147.74 444.47 148.48 444.42 149.24C444.31 150.74 443.48 152.12 442.39 152.39C441.86 152.51 441.43 152.33 441.21 152.14C440.99 151.95 440.95 151.78 440.98 151.76V151.77Z" fill="#FF9A6C"/>
<path d="M441.86 154.9C441.86 154.9 441.86 154.93 441.88 155C441.91 155.06 441.91 155.17 441.98 155.28C442.09 155.53 442.39 155.83 442.86 156.04C443.33 156.26 443.97 156.39 444.71 156.4C445.08 156.4 445.49 156.38 445.91 156.3C446.33 156.23 446.78 156.11 447.21 155.88L447.12 155.84C447.3 156.85 447.99 157.94 449.14 158.52C450.28 159.1 451.88 159.03 453.07 158.11L452.94 158.09C453.16 158.42 453.53 158.65 453.93 158.73C454.33 158.81 454.75 158.76 455.14 158.61C455.53 158.46 455.88 158.18 456.1 157.8C456.32 157.43 456.44 157 456.46 156.56C456.5 155.68 456.17 154.79 455.61 154.08C455.06 153.36 454.34 152.77 453.61 152.19V152.36C454.22 151.98 454.63 151.29 454.76 150.57C454.9 149.84 454.81 149.07 454.51 148.37C454.21 147.67 453.72 147.06 453.17 146.53C452.62 145.99 452 145.53 451.38 145.06V145.23C451.94 144.67 452.16 143.84 452.1 143.05C452.04 142.26 451.73 141.48 451.22 140.84C450.24 139.63 448.83 138.97 447.54 138.36L447.6 138.49C447.98 136.85 447.46 135.09 446.35 133.94C445.24 132.78 443.61 132.26 442.11 132.45L442.23 132.58C442.5 131.24 441.99 129.89 441.16 128.96C440.34 128.02 439.15 127.44 437.98 127.46L438.07 127.55C438.05 126.18 437.27 125.02 436.32 124.32C435.37 123.61 434.2 123.32 433.18 123.51L433.27 123.58C433.24 122.85 432.96 122.22 432.63 121.67C432.3 121.13 431.91 120.67 431.47 120.32C430.63 119.59 429.66 119.3 428.9 119.26C428.8 119.26 428.71 119.25 428.62 119.25C428.53 119.25 428.44 119.27 428.36 119.27C428.19 119.29 428.03 119.29 427.89 119.33C427.61 119.41 427.36 119.45 427.18 119.54C427.01 119.62 426.87 119.68 426.77 119.73C426.68 119.77 426.63 119.8 426.63 119.8C426.63 119.8 426.68 119.79 426.78 119.75C426.88 119.71 427.02 119.65 427.2 119.58C427.38 119.5 427.63 119.47 427.91 119.39C428.05 119.35 428.21 119.36 428.38 119.34C428.46 119.34 428.55 119.32 428.64 119.32C428.73 119.32 428.82 119.33 428.92 119.34C429.67 119.39 430.6 119.68 431.42 120.41C431.84 120.76 432.22 121.21 432.54 121.74C432.85 122.27 433.12 122.9 433.14 123.58V123.67L433.23 123.66C434.21 123.49 435.33 123.77 436.24 124.46C437.15 125.14 437.89 126.26 437.9 127.56V127.65H437.99C439.1 127.63 440.23 128.19 441.02 129.1C441.81 129.99 442.29 131.28 442.03 132.54L442 132.69L442.15 132.67C443.57 132.48 445.14 132.99 446.2 134.1C447.26 135.2 447.75 136.89 447.39 138.45L447.37 138.54L447.45 138.58C448.75 139.2 450.12 139.85 451.05 141C451.53 141.6 451.82 142.34 451.88 143.08C451.94 143.82 451.73 144.58 451.24 145.09L451.15 145.18L451.25 145.26C452.48 146.17 453.72 147.14 454.31 148.48C454.59 149.14 454.67 149.87 454.55 150.55C454.43 151.23 454.06 151.86 453.49 152.2L453.36 152.28L453.48 152.37C454.21 152.95 454.92 153.52 455.45 154.21C455.99 154.89 456.3 155.73 456.27 156.56C456.25 157.37 455.81 158.17 455.08 158.44C454.38 158.73 453.49 158.6 453.1 158L453.05 157.92L452.98 157.98C451.85 158.87 450.31 158.94 449.22 158.4C448.11 157.85 447.43 156.81 447.25 155.83L447.23 155.75L447.16 155.79C446.75 156.01 446.31 156.13 445.9 156.21C445.49 156.29 445.09 156.32 444.72 156.32C443.98 156.32 443.36 156.21 442.89 156C442.43 155.8 442.13 155.52 442.01 155.28C441.89 155.05 441.87 154.91 441.85 154.91L441.86 154.9Z" fill="#00B380"/>
<path d="M470.18 146.44C470.18 146.44 470.3 146.3 470.45 145.98C470.6 145.67 470.79 145.17 470.82 144.5C470.85 143.84 470.73 142.97 470.17 142.17C469.63 141.38 468.67 140.65 467.44 140.49L467.5 140.58C467.72 139.43 467.51 138.07 466.76 136.9C466.39 136.31 465.89 135.78 465.27 135.37C464.65 134.95 463.91 134.74 463.21 134.44C462.86 134.29 462.52 134.12 462.22 133.87C461.92 133.63 461.69 133.32 461.52 132.96C461.18 132.25 461.06 131.4 460.62 130.64C459.76 129.14 457.89 128.15 456.03 128.46L456.16 128.58C456.38 126.87 455.8 124.99 454.51 123.67C453.17 122.29 451.21 121.66 449.42 121.91L449.55 122.03C449.74 119.84 448.47 117.74 446.68 116.86C444.87 115.97 442.74 116.24 441.3 117.25H441.42C440.64 116.51 439.7 116.03 438.78 115.71C437.86 115.4 436.95 115.2 436.09 115.14C434.37 114.97 432.86 115.2 431.67 115.51C430.48 115.84 429.6 116.27 429.06 116.65C428.77 116.82 428.6 117 428.46 117.1C428.33 117.21 428.27 117.27 428.27 117.27C428.28 117.29 428.55 117.05 429.1 116.7C429.65 116.35 430.53 115.93 431.71 115.62C432.89 115.33 434.39 115.12 436.09 115.3C436.94 115.37 437.84 115.57 438.74 115.88C439.64 116.2 440.55 116.67 441.3 117.4L441.36 117.45L441.42 117.41C442.81 116.44 444.87 116.19 446.59 117.05C448.3 117.89 449.52 119.92 449.34 122.01V122.15L449.47 122.13C451.19 121.89 453.09 122.5 454.37 123.83C455.6 125.1 456.16 126.92 455.96 128.56L455.94 128.71L456.09 128.68C457.84 128.38 459.63 129.32 460.45 130.75C460.86 131.46 460.98 132.3 461.35 133.05C461.53 133.43 461.78 133.77 462.11 134.03C462.43 134.29 462.79 134.47 463.15 134.62C463.87 134.92 464.59 135.12 465.18 135.52C465.78 135.91 466.26 136.42 466.62 136.99C467.35 138.12 467.56 139.43 467.36 140.54V140.62H467.42C468.6 140.76 469.54 141.45 470.08 142.22C470.63 142.99 470.77 143.83 470.74 144.48C470.72 145.14 470.55 145.63 470.41 145.95C470.27 146.27 470.16 146.42 470.17 146.42L470.18 146.44Z" fill="#00B380"/>
<path d="M398.78 149.65C398.78 149.65 398.93 149.44 398.8 149.04C398.73 148.84 398.58 148.62 398.35 148.43C398.12 148.23 397.79 148.09 397.42 147.98C397.05 147.86 396.63 147.77 396.25 147.51C395.87 147.26 395.56 146.83 395.39 146.33C395.21 145.82 395.15 145.24 395.17 144.62C395.19 144 395.27 143.35 395.26 142.65C395.26 141.23 394.63 139.8 394.24 138.25C394.05 137.47 393.96 136.63 394.1 135.8C394.23 134.97 394.65 134.14 395.42 133.68C396.17 133.2 397.11 133.04 398.02 132.75C398.48 132.6 398.94 132.41 399.35 132.1C399.76 131.8 400.06 131.36 400.27 130.9C400.7 129.97 400.79 128.94 401.01 127.95C401.12 127.45 401.26 126.96 401.5 126.53C401.74 126.09 402.13 125.75 402.59 125.55C403.23 125.3 403.95 125.32 404.65 125.23C405 125.19 405.36 125.11 405.69 124.95C406.02 124.79 406.31 124.54 406.5 124.24C406.91 123.64 407.04 122.95 407.25 122.32C407.44 121.68 407.74 121.11 408.16 120.62C408.98 119.64 410.19 119.05 411.39 119.01C412.59 118.96 413.75 119.38 414.58 120.11L414.68 120.2L414.73 120.08C415.62 118.03 417.4 116.7 419.1 116.18C419.96 115.92 420.82 115.85 421.59 115.92C422.37 115.98 423.07 116.18 423.65 116.46C424.83 117.02 425.5 117.85 425.87 118.43C426.06 118.72 426.18 118.96 426.25 119.13C426.29 119.2 426.32 119.26 426.34 119.31C426.36 119.35 426.37 119.37 426.38 119.37C426.38 119.37 426.38 119.35 426.36 119.3C426.34 119.25 426.31 119.19 426.28 119.11C426.21 118.94 426.11 118.69 425.92 118.39C425.57 117.79 424.9 116.94 423.7 116.35C423.11 116.06 422.39 115.85 421.6 115.78C420.81 115.7 419.93 115.76 419.05 116.02C417.3 116.54 415.47 117.89 414.54 120L414.69 119.97C413.82 119.21 412.62 118.77 411.36 118.81C410.11 118.85 408.84 119.46 407.97 120.49C407.54 121 407.21 121.61 407.02 122.27C406.81 122.91 406.67 123.58 406.3 124.13C405.94 124.7 405.28 124.96 404.6 125.02C403.92 125.11 403.18 125.08 402.48 125.35C401.97 125.57 401.54 125.96 401.28 126.43C401.01 126.9 400.87 127.42 400.76 127.92C400.54 128.93 400.44 129.94 400.04 130.83C399.84 131.27 399.57 131.67 399.18 131.94C398.8 132.22 398.36 132.41 397.92 132.55C397.03 132.84 396.07 133 395.27 133.51C394.87 133.76 394.53 134.11 394.31 134.51C394.08 134.91 393.94 135.34 393.87 135.78C393.73 136.65 393.83 137.52 394.03 138.31C394.44 139.89 395.06 141.29 395.08 142.67C395.1 143.35 395.02 144.01 395.01 144.63C394.99 145.25 395.06 145.86 395.25 146.38C395.44 146.91 395.76 147.35 396.17 147.61C396.58 147.87 397.01 147.96 397.38 148.07C397.75 148.18 398.07 148.3 398.29 148.49C398.52 148.67 398.67 148.88 398.74 149.07C398.88 149.45 398.74 149.67 398.76 149.67L398.78 149.65Z" fill="#00B380"/>
<path d="M384.09 138.32C384.09 138.32 384.12 138.27 384.16 138.18C384.21 138.07 384.28 137.93 384.36 137.76C384.54 137.37 384.78 136.83 385.1 136.13C385.43 135.42 385.79 134.54 386.32 133.57C386.85 132.62 387.57 131.53 388.78 130.85C389.38 130.51 390.07 130.28 390.77 129.96C391.12 129.8 391.47 129.61 391.78 129.35C392.1 129.09 392.36 128.75 392.53 128.36C392.87 127.58 392.87 126.7 393.14 125.89C393.28 125.49 393.5 125.11 393.84 124.86C394.18 124.59 394.6 124.43 395.03 124.28C395.46 124.13 395.92 123.99 396.34 123.75C396.77 123.52 397.13 123.12 397.34 122.68C397.77 121.76 397.76 120.74 397.93 119.77C398.01 119.29 398.14 118.8 398.4 118.39C398.66 117.98 399.09 117.7 399.57 117.59C400.55 117.37 401.61 117.69 402.7 117.5C403.24 117.4 403.75 117.11 404.12 116.71C404.49 116.32 404.77 115.86 405.03 115.41C405.29 114.96 405.53 114.51 405.83 114.11C406.12 113.71 406.48 113.36 406.91 113.15C407.79 112.73 408.81 112.93 409.73 113.13C410.66 113.33 411.63 113.55 412.57 113.33C413.5 113.13 414.29 112.63 415.02 112.16C415.75 111.69 416.45 111.19 417.2 110.9C418.72 110.33 420.29 110.38 421.63 110.68C422.98 110.99 424.09 111.63 424.94 112.32C425.8 113.01 426.36 113.79 426.79 114.43C427.18 115.1 427.45 115.64 427.59 116.02C427.67 116.2 427.73 116.34 427.77 116.45C427.81 116.55 427.84 116.6 427.84 116.59C427.84 116.59 427.83 116.54 427.79 116.44C427.75 116.33 427.7 116.19 427.63 116C427.51 115.61 427.24 115.06 426.86 114.38C426.44 113.73 425.88 112.93 425.02 112.21C424.16 111.5 423.04 110.84 421.67 110.52C420.31 110.2 418.7 110.14 417.13 110.72C416.34 111.02 415.65 111.52 414.91 111.98C414.18 112.45 413.41 112.92 412.52 113.11C411.64 113.31 410.71 113.11 409.77 112.9C409.3 112.8 408.82 112.7 408.31 112.67C407.81 112.64 407.28 112.71 406.81 112.93C406.33 113.15 405.95 113.54 405.64 113.96C405.33 114.38 405.08 114.84 404.83 115.28C404.57 115.72 404.3 116.17 403.95 116.54C403.6 116.91 403.15 117.16 402.65 117.26C401.63 117.45 400.57 117.12 399.51 117.35C398.98 117.47 398.49 117.79 398.2 118.25C397.9 118.7 397.78 119.22 397.69 119.72C397.52 120.71 397.53 121.72 397.12 122.57C396.92 122.99 396.61 123.34 396.21 123.55C395.81 123.78 395.37 123.91 394.93 124.07C394.5 124.22 394.05 124.39 393.68 124.68C393.3 124.96 393.06 125.39 392.91 125.81C392.63 126.66 392.64 127.53 392.32 128.27C392.02 129.02 391.33 129.47 390.66 129.79C389.98 130.11 389.28 130.35 388.67 130.7C387.43 131.42 386.7 132.54 386.18 133.5C385.66 134.48 385.31 135.37 384.99 136.08C384.69 136.79 384.45 137.34 384.29 137.73C384.22 137.91 384.16 138.05 384.11 138.16C384.07 138.26 384.05 138.31 384.06 138.31L384.09 138.32Z" fill="#00B380"/>
<path d="M391.91 130.37C391.91 130.37 391.86 130.36 391.77 130.35C391.68 130.35 391.54 130.35 391.37 130.44C391.05 130.6 390.69 131.08 390.65 131.78C390.63 132.13 390.73 132.5 390.83 132.89C390.93 133.28 391.06 133.71 391.04 134.18C391.03 134.65 390.82 135.12 390.54 135.57C390.26 136.03 389.9 136.47 389.61 137.01C389.31 137.54 389.18 138.26 389.45 138.89C389.7 139.52 390.17 140.05 390.41 140.69C390.65 141.33 390.53 142.07 390.24 142.75C389.96 143.44 389.56 144.11 389.28 144.87C389.14 145.25 389.05 145.66 389.06 146.09C389.06 146.51 389.18 146.94 389.36 147.32C389.73 148.09 390.32 148.73 390.82 149.43C391.32 150.11 391.74 150.92 391.65 151.78C391.57 152.64 391.1 153.44 390.79 154.32C390.64 154.76 390.52 155.22 390.53 155.7C390.55 156.17 390.69 156.63 390.9 157.04C391.34 157.85 391.98 158.48 392.55 159.13C393.12 159.77 393.64 160.44 393.89 161.22C394.17 161.99 394.32 162.81 394.7 163.53C394.89 163.89 395.15 164.22 395.47 164.46C395.8 164.7 396.17 164.84 396.53 164.95C396.89 165.06 397.25 165.16 397.57 165.3C397.89 165.45 398.18 165.64 398.44 165.87C398.95 166.34 399.34 166.9 399.69 167.45C400.04 168 400.37 168.54 400.74 169.03C401.47 170.01 402.45 170.63 403.37 170.9C404.29 171.18 405.15 171.2 405.81 171.09C406.48 170.99 406.98 170.79 407.29 170.63C407.6 170.47 407.75 170.35 407.75 170.35C407.74 170.3 407.12 170.81 405.79 171C405.13 171.09 404.3 171.06 403.4 170.77C402.5 170.49 401.56 169.89 400.86 168.92C400.51 168.44 400.18 167.9 399.83 167.35C399.48 166.8 399.09 166.22 398.56 165.73C398.29 165.49 397.98 165.28 397.64 165.12C397.3 164.96 396.93 164.87 396.58 164.75C396.23 164.64 395.87 164.51 395.58 164.28C395.28 164.06 395.05 163.76 394.87 163.41C394.51 162.72 394.36 161.91 394.08 161.12C393.82 160.31 393.27 159.6 392.7 158.95C392.13 158.3 391.5 157.68 391.09 156.91C390.89 156.53 390.76 156.11 390.74 155.67C390.73 155.24 390.83 154.8 390.98 154.38C391.28 153.53 391.76 152.72 391.85 151.79C391.9 151.33 391.81 150.86 391.64 150.44C391.47 150.02 391.23 149.64 390.97 149.29C390.46 148.59 389.88 147.95 389.53 147.22C389.36 146.85 389.25 146.47 389.24 146.08C389.24 145.69 389.31 145.3 389.44 144.94C389.7 144.2 390.1 143.53 390.38 142.83C390.67 142.14 390.81 141.33 390.54 140.63C390.28 139.94 389.8 139.42 389.57 138.83C389.31 138.24 389.42 137.6 389.71 137.09C389.98 136.57 390.34 136.11 390.62 135.65C390.9 135.19 391.12 134.69 391.13 134.19C391.13 133.7 391 133.26 390.89 132.87C390.78 132.48 390.69 132.11 390.7 131.79C390.73 131.13 391.06 130.66 391.36 130.49C391.67 130.32 391.87 130.4 391.87 130.38L391.91 130.37Z" fill="#00B380"/>
<path d="M420.46 154.21C418.64 154.91 416.82 155.61 415 156.32L414.48 156.52C414.72 157.34 415.09 158.53 415.56 159.24C416.03 159.96 416.76 160.55 417.61 160.64C418.25 160.71 419.03 160.47 419.57 160.12C420.51 159.51 421.04 158.51 421.23 157.4C421.42 156.29 421.13 155.11 420.45 154.22L420.46 154.21Z" fill="#FF9A6C"/>
<path d="M417.3 160.66C417.29 160.57 418.23 160.82 419.39 160.1C419.95 159.75 420.5 159.13 420.79 158.3C421.09 157.48 421.1 156.47 420.79 155.5C420.71 155.26 420.62 155.02 420.51 154.8C420.45 154.68 420.4 154.58 420.35 154.54C420.29 154.5 420.32 154.5 420.23 154.51C419.78 154.69 419.33 154.87 418.9 155.04C418.08 155.36 417.31 155.66 416.61 155.93C415.3 156.43 414.48 156.7 414.45 156.64C414.42 156.58 415.2 156.19 416.48 155.62C417.17 155.32 417.93 154.99 418.73 154.63C419.17 154.45 419.58 154.26 420.09 154.06C420.24 153.99 420.55 154.05 420.67 154.2C420.8 154.33 420.86 154.47 420.92 154.59C421.04 154.83 421.15 155.09 421.23 155.35C421.58 156.41 421.55 157.55 421.19 158.45C420.84 159.36 420.2 160.04 419.55 160.39C418.9 160.75 418.29 160.82 417.89 160.8C417.48 160.78 417.28 160.68 417.28 160.66H417.3Z" fill="#470F4C"/>
<path d="M446.25 153.6C446.25 153.6 446.7 153.73 447.38 154.23C448.04 154.72 448.91 155.69 449.24 157.18C449.41 157.91 449.43 158.76 449.22 159.63C449 160.49 448.56 161.36 447.89 162.11C447.23 162.86 446.35 163.5 445.32 163.86C444.29 164.23 443.11 164.28 441.99 163.99C440.87 163.7 439.86 163.1 439.11 162.3C438.35 161.51 437.88 160.51 437.71 159.53C437.35 157.54 438.06 155.68 439.1 154.59C439.63 154.04 440.24 153.71 440.78 153.46C441.33 153.22 441.83 153.1 442.25 153.05C442.67 153 443 153.02 443.21 153.07C443.43 153.12 443.53 153.16 443.53 153.17C443.53 153.2 443.08 153.03 442.26 153.17C441.86 153.24 441.37 153.37 440.84 153.61C440.32 153.86 439.73 154.2 439.24 154.73C438.26 155.79 437.61 157.58 437.96 159.48C438.14 160.42 438.59 161.36 439.31 162.11C440.02 162.87 440.99 163.44 442.06 163.72C443.13 164 444.25 163.95 445.22 163.6C446.2 163.26 447.05 162.66 447.68 161.94C448.32 161.23 448.75 160.4 448.97 159.57C449.18 158.74 449.17 157.93 449.02 157.22C448.73 155.78 447.91 154.82 447.29 154.31C446.65 153.79 446.21 153.63 446.23 153.6H446.25Z" fill="#E1E1E1"/>
<path d="M423.48 143.5C423.43 144.36 424.11 145.11 425 145.18C425.89 145.25 426.66 144.62 426.71 143.76C426.76 142.9 426.08 142.15 425.19 142.08C424.3 142.01 423.53 142.64 423.48 143.5Z" fill="#470F4C"/>
<path d="M407.31 142.68C407.26 143.54 407.94 144.29 408.83 144.36C409.72 144.43 410.49 143.8 410.54 142.94C410.59 142.08 409.91 141.33 409.02 141.26C408.13 141.19 407.36 141.82 407.31 142.68Z" fill="#470F4C"/>
<path d="M405.16 138.59C405.35 138.88 406.81 137.85 408.7 138.03C410.6 138.18 411.87 139.44 412.1 139.19C412.21 139.08 412.04 138.58 411.49 138.01C410.95 137.45 409.98 136.85 408.8 136.75C407.62 136.65 406.57 137.06 405.95 137.53C405.31 138 405.06 138.46 405.16 138.59Z" fill="#470F4C"/>
<path d="M421.56 139.47C421.8 139.73 423.22 138.58 425.25 138.57C427.28 138.52 428.77 139.63 428.99 139.36C429.1 139.24 428.86 138.77 428.21 138.27C427.57 137.77 426.48 137.29 425.22 137.31C423.96 137.33 422.9 137.84 422.29 138.36C421.67 138.88 421.46 139.36 421.57 139.48L421.56 139.47Z" fill="#470F4C"/>
<path d="M364.3 397.2L374.87 422.85L393.97 414.97L383.25 383.33L364.3 397.2Z" fill="#FFBF9D"/>
<path d="M372.74 421.08L378.99 434.3C378.99 434.3 360.88 451.54 362.34 455.62L403.98 437.74L393.84 411.32L372.74 421.08Z" fill="#00B380"/>
<path d="M391.09 426.97C391.99 426.84 392.94 427.51 393.1 428.41C393.26 429.3 392.59 430.27 391.69 430.41C390.79 430.55 389.63 429.79 389.57 428.88C389.51 427.97 390.36 426.88 391.26 426.96" fill="#E1E1E1"/>
<g opacity="0.6">
<path d="M403.98 437.74L402.42 434.42L363.08 452.81C363.08 452.81 361.57 454.41 362.34 455.63L403.98 437.75V437.74Z" fill="white"/>
</g>
<path d="M378.23 434.38C378.32 434.58 379.38 434.24 380.66 434.46C381.95 434.65 382.84 435.31 382.99 435.15C383.16 435.03 382.34 433.94 380.78 433.7C379.23 433.44 378.1 434.21 378.23 434.38Z" fill="#470F4C"/>
<path d="M374.63 438.06C374.67 438.28 375.7 438.24 376.76 438.81C377.84 439.34 378.41 440.2 378.61 440.1C378.81 440.05 378.44 438.8 377.11 438.12C375.79 437.43 374.55 437.86 374.63 438.06Z" fill="#470F4C"/>
<path d="M374.4 444.35C374.6 444.31 374.45 443.18 373.45 442.29C372.46 441.39 371.31 441.37 371.3 441.57C371.26 441.79 372.13 442.12 372.94 442.86C373.77 443.58 374.19 444.42 374.4 444.35Z" fill="#470F4C"/>
<path d="M376.49 429.31C376.65 429.46 377.47 428.78 378.65 428.36C379.82 427.92 380.88 427.92 380.92 427.7C380.97 427.5 379.78 427.12 378.39 427.63C377 428.13 376.32 429.18 376.49 429.3V429.31Z" fill="#470F4C"/>
<path d="M362.81 410.84L337.15 331.01C337.15 331.01 338.38 317.97 340.96 313.94C343.54 309.91 417.45 288.86 417.45 288.86C417.45 288.86 436.21 285.16 448.4 290.14C460.6 295.13 472.95 301.17 471.35 309.8C471.12 311.03 470.74 312.33 470.24 313.66C465.59 326.05 453.43 334.01 440.2 333.86L430.52 334.54L380.98 341.88C378.77 342.21 377.32 344.38 377.88 346.55L391.56 400.11C391.56 400.11 373.86 407.85 362.81 410.85V410.84Z" fill="#470F4C"/>
<path d="M339.53 355.4L337.69 383.08L358.31 384.44L362.66 351.31L339.53 355.4Z" fill="#FFBF9D"/>
<path d="M337.85 379.39L336.34 395.17C336.34 395.17 312.48 402.64 311.99 406.95L357.24 409.29L359.8 381.11L337.84 379.39H337.85Z" fill="#00B380"/>
<path d="M336.49 386.25C336.49 386.25 336.44 385.96 336.55 385.44C336.67 384.93 336.93 384.19 337.55 383.42C337.71 383.23 337.87 383.03 338.12 382.85C338.36 382.67 338.77 382.54 339.15 382.69C339.34 382.75 339.53 382.92 339.58 383.12C339.64 383.32 339.6 383.51 339.54 383.67C339.4 383.99 339.2 384.22 339.03 384.48C338.65 385 338.34 385.52 337.86 386.1C337.62 386.4 337.09 386.63 336.63 386.54C336.17 386.47 335.81 386.25 335.48 386.03C334.85 385.58 334.29 385.07 333.82 384.54C333.58 384.27 333.37 384 333.18 383.72C333 383.45 332.78 383.16 332.71 382.79C332.64 382.43 332.81 381.96 333.27 381.82C333.74 381.69 334.1 381.91 334.35 382.09C334.85 382.5 335.15 382.91 335.45 383.31C336.02 384.1 336.33 384.82 336.49 385.32C336.65 385.82 336.69 386.11 336.65 386.12C336.56 386.15 336.29 385 335.13 383.51C334.84 383.16 334.48 382.73 334.07 382.42C333.86 382.27 333.6 382.17 333.43 382.24C333.26 382.29 333.15 382.52 333.2 382.74C333.24 382.97 333.43 383.23 333.62 383.49C333.81 383.75 334.02 384.01 334.24 384.26C334.69 384.76 335.22 385.24 335.82 385.67C336.11 385.87 336.42 386.04 336.72 386.09C337.02 386.14 337.26 386.04 337.47 385.82C337.87 385.35 338.25 384.75 338.62 384.26C338.8 384 339.01 383.76 339.11 383.54C339.21 383.31 339.17 383.16 338.99 383.09C338.58 382.92 338.16 383.32 337.87 383.67C336.65 385.1 336.61 386.32 336.51 386.29L336.49 386.25Z" fill="#470F4C"/>
<path d="M350.43 393.93C351.29 394.21 351.85 395.23 351.6 396.1C351.35 396.97 350.32 397.55 349.45 397.28C348.58 397.01 347.88 395.81 348.22 394.97C348.57 394.13 349.81 393.52 350.59 393.99" fill="#E1E1E1"/>
<g opacity="0.6">
<path d="M357.24 409.29L357.3 405.62L313.89 404.75C313.89 404.75 311.83 405.52 311.98 406.95L357.23 409.29H357.24Z" fill="white"/>
</g>
<path d="M335.62 394.9C335.62 395.12 336.72 395.28 337.77 396.05C338.84 396.79 339.35 397.78 339.56 397.7C339.77 397.67 339.5 396.33 338.22 395.42C336.94 394.5 335.59 394.7 335.63 394.9H335.62Z" fill="#470F4C"/>
<path d="M330.77 396.62C330.71 396.83 331.65 397.26 332.35 398.23C333.08 399.18 333.22 400.2 333.44 400.2C333.65 400.25 333.87 398.96 332.97 397.77C332.08 396.57 330.79 396.41 330.77 396.62Z" fill="#470F4C"/>
<path d="M327.78 402.16C327.98 402.22 328.34 401.13 327.84 399.89C327.34 398.65 326.33 398.12 326.22 398.29C326.09 398.47 326.72 399.15 327.12 400.17C327.54 401.18 327.56 402.12 327.78 402.15V402.16Z" fill="#470F4C"/>
<path d="M336.29 389.59C336.37 389.8 337.4 389.54 338.65 389.69C339.9 389.81 340.85 390.28 340.97 390.1C341.11 389.95 340.2 389.08 338.73 388.92C337.26 388.75 336.19 389.4 336.29 389.58V389.59Z" fill="#470F4C"/>
<path d="M354.77 278.98C354.77 278.98 342.45 277.48 340.52 290.84C338.59 304.2 329.55 366.1 329.55 366.1L363.43 370.34L370.56 306.55L417.46 288.86C417.46 288.86 363.1 277.6 354.78 278.98H354.77Z" fill="#470F4C"/>
<path d="M406.48 262.99C406.48 262.99 398.1 283.72 399.44 286.12C400.77 288.52 419.67 298.97 419.67 298.97L467.18 319.52C467.18 319.52 472.47 311.84 472.97 299.72C473.47 287.6 457.58 265.11 457.58 265.11L406.49 262.99H406.48Z" fill="#470F4C"/>
<path d="M419.79 287.88C419.79 287.88 419.71 287.93 419.56 287.99C419.38 288.06 419.15 288.16 418.86 288.28C418.21 288.54 417.3 288.9 416.14 289.36C413.73 290.29 410.26 291.64 405.92 293.32C397.16 296.67 384.87 301.36 370.65 306.8L370.82 306.59C370.12 312.89 369.36 319.7 368.58 326.74C366.72 343.2 365.01 358.37 363.65 370.38L363.63 370.6L363.41 370.57C354.66 369.43 347.47 368.5 342.44 367.85C339.97 367.52 338.02 367.25 336.67 367.07C336.03 366.98 335.53 366.9 335.16 366.85C334.82 366.8 334.65 366.76 334.65 366.75C334.65 366.74 334.83 366.75 335.17 366.78C335.54 366.82 336.04 366.87 336.69 366.94C338.05 367.1 340 367.32 342.48 367.61C347.52 368.22 354.71 369.09 363.47 370.15L363.23 370.34C364.56 358.33 366.23 343.15 368.05 326.69C368.84 319.65 369.6 312.85 370.31 306.55L370.33 306.39L370.48 306.33C384.72 300.97 397.03 296.34 405.81 293.03C410.17 291.41 413.65 290.12 416.08 289.22C417.26 288.79 418.18 288.46 418.83 288.22C419.13 288.12 419.36 288.04 419.54 287.97C419.7 287.92 419.79 287.89 419.79 287.9V287.88Z" fill="#00B380"/>
<path d="M458.1 291.58C458.1 291.58 457.61 291.46 456.76 291.15C455.81 290.8 454.61 290.36 453.17 289.83C450.14 288.73 445.94 287.2 441.13 286.25C436.32 285.3 431.83 285.35 428.67 285.89C425.5 286.41 423.65 287.23 423.62 287.13C423.61 287.1 424.06 286.87 424.9 286.55C425.75 286.22 427.01 285.83 428.6 285.52C431.79 284.87 436.36 284.76 441.23 285.72C446.1 286.68 450.3 288.28 453.3 289.47C454.8 290.07 456 290.59 456.83 290.95C457.66 291.32 458.11 291.54 458.09 291.57L458.1 291.58Z" fill="#00B380"/>
<path d="M451.73 280.21C451.71 280.3 450.12 279.92 447.51 280.01C446.21 280.05 444.65 280.18 442.92 280.31C441.19 280.44 439.29 280.6 437.32 280.89C433.37 281.43 429.94 282.65 427.71 284.01C425.47 285.34 424.39 286.59 424.32 286.52C424.3 286.5 424.53 286.16 425.06 285.64C425.58 285.12 426.39 284.4 427.51 283.69C429.73 282.22 433.24 280.9 437.24 280.36C439.23 280.07 441.15 279.93 442.88 279.82C444.61 279.72 446.18 279.62 447.5 279.63C448.82 279.63 449.89 279.76 450.62 279.9C451.35 280.04 451.73 280.18 451.73 280.21Z" fill="#00B380"/>
<path d="M375.39 426.68C375.39 426.68 375.2 426.41 375.05 425.84C374.91 425.28 374.78 424.42 374.96 423.37C375.01 423.11 375.05 422.84 375.19 422.54C375.32 422.25 375.62 421.94 376.03 421.92C376.23 421.9 376.48 421.98 376.63 422.15C376.79 422.32 376.84 422.53 376.86 422.72C376.89 423.1 376.82 423.42 376.8 423.76C376.72 424.45 376.69 425.11 376.55 425.91C376.48 426.32 376.12 426.78 375.66 426.9C375.21 427.03 374.78 426.98 374.38 426.9C373.59 426.73 372.85 426.47 372.17 426.14C371.83 425.98 371.5 425.8 371.19 425.61C370.89 425.42 370.56 425.23 370.31 424.89C370.07 424.56 370 424.02 370.34 423.67C370.69 423.33 371.13 423.39 371.44 423.45C372.09 423.63 372.55 423.91 373.02 424.18C373.92 424.72 374.54 425.3 374.93 425.73C375.32 426.16 375.49 426.43 375.46 426.45C375.39 426.52 374.59 425.49 372.82 424.51C372.39 424.28 371.85 424.01 371.34 423.89C371.08 423.84 370.79 423.85 370.68 424C370.55 424.13 370.56 424.4 370.72 424.61C370.87 424.82 371.16 425 371.46 425.18C371.76 425.36 372.07 425.52 372.39 425.68C373.04 425.98 373.75 426.23 374.49 426.39C374.85 426.47 375.21 426.5 375.5 426.41C375.79 426.32 375.96 426.12 376.04 425.8C376.16 425.15 376.22 424.38 376.31 423.73C376.34 423.39 376.41 423.05 376.39 422.79C376.37 422.52 376.26 422.39 376.06 422.39C375.61 422.4 375.43 422.99 375.34 423.47C374.94 425.45 375.51 426.69 375.4 426.7L375.39 426.68Z" fill="#470F4C"/>
<path d="M459.23 191.68C459.23 191.68 459.36 183.92 458.61 183L442.72 177.46L431.27 180.89C428.58 182.07 423.44 189.73 420.53 189.33C417.28 188.89 416.67 180.35 415.34 177.89L409.48 179.39C409.48 179.39 399.44 206.04 399.32 213.59C399.19 221.14 403.16 231.3 402.5 247.12C402.16 255.39 401.35 262.78 406.5 262.99C411.64 263.2 457.59 265.11 457.59 265.11C457.59 265.11 469.26 262.4 470.05 255.48C470.84 248.57 459.24 191.67 459.24 191.67L459.23 191.68Z" fill="#00B380"/>
<path d="M482.02 244.59L474.01 219.26C474.01 219.26 469.19 187.12 458.01 182.66C453.22 180.75 442.75 181.09 439.58 187.58C436.41 194.07 440.32 198.82 441.09 202.03C441.86 205.24 452.69 227.77 452.69 227.77C456.71 236.26 458.01 240.45 458.01 240.45L414.77 263.34L420.22 277.6L474.28 257.93C477.94 256.6 480.87 253.67 481.93 249.92C482.38 248.3 482.53 246.49 482.03 244.6L482.02 244.59Z" fill="#00B380"/>
<path d="M381.34 272.25L392.46 267.48L413.82 266.68L415.61 265.55L420.21 277.6C420.21 277.6 414.52 280.04 411.59 280.15L393.72 278.86L384.32 279.45L381.34 272.24V272.25Z" fill="#FFBF9D"/>
<path d="M321.73 227.69L383.07 230.73C385.06 230.81 386.92 231.85 387.14 233.83L391.99 278.83L423.6 280.14C424.62 280.18 425.41 281.04 425.37 282.06C425.33 283.08 424.47 283.87 423.45 283.83L392.4 282.54L386.51 282.3L322.51 279.64L317.57 232.15C317.3 229.7 319.28 227.58 321.74 227.69H321.73Z" fill="#E1E1E1"/>
<path d="M321.73 227.69C321.73 227.69 321.4 227.63 320.76 227.74C320.14 227.86 319.16 228.2 318.35 229.2C317.95 229.69 317.63 230.35 317.51 231.13C317.38 231.92 317.57 232.76 317.63 233.66C317.81 235.48 318.02 237.57 318.26 239.92C319.22 249.35 320.61 262.95 322.31 279.66L322.33 279.82H322.49C348.61 280.93 382.93 282.37 420.42 283.95C421.3 283.99 422.18 284.02 423.06 284.06C423.47 284.09 424.03 284.09 424.47 283.85C424.92 283.63 425.27 283.24 425.46 282.78C425.87 281.86 425.47 280.69 424.61 280.19C424.2 279.92 423.64 279.87 423.24 279.87L421.94 279.82C418.48 279.68 415.06 279.54 411.68 279.4C404.92 279.12 398.34 278.85 392 278.59L392.23 278.8C390.48 262.68 388.85 247.65 387.39 234.16C387.36 233.31 387.01 232.37 386.35 231.78C385.71 231.16 384.88 230.81 384.05 230.65C383.2 230.48 382.39 230.52 381.58 230.46C380.77 230.42 379.97 230.38 379.17 230.34C375.98 230.19 372.9 230.04 369.93 229.89C363.99 229.61 358.5 229.34 353.52 229.1C343.56 228.64 335.62 228.27 330.15 228.01C327.43 227.89 325.33 227.8 323.9 227.74C323.2 227.71 322.66 227.69 322.29 227.68C321.93 227.67 321.74 227.68 321.74 227.68C321.74 227.68 321.92 227.7 322.29 227.73C322.67 227.75 323.2 227.79 323.9 227.83C325.34 227.91 327.43 228.03 330.15 228.18C335.62 228.47 343.55 228.89 353.51 229.41C358.49 229.67 363.98 229.95 369.92 230.25C372.89 230.4 375.97 230.56 379.15 230.72C379.95 230.76 380.75 230.8 381.56 230.84C382.37 230.9 383.2 230.87 383.97 231.03C384.74 231.18 385.51 231.51 386.07 232.06C386.65 232.61 386.94 233.36 386.98 234.2C388.42 247.69 390.03 262.73 391.76 278.84L391.78 279.04H391.99C398.33 279.31 404.91 279.59 411.67 279.87C415.05 280.01 418.47 280.15 421.93 280.3L423.23 280.35C423.69 280.35 424.03 280.39 424.37 280.6C425.03 280.98 425.33 281.87 425.02 282.57C424.88 282.92 424.6 283.22 424.26 283.39C423.91 283.57 423.56 283.58 423.1 283.54C422.22 283.5 421.34 283.47 420.46 283.43C382.98 281.9 348.65 280.49 322.53 279.42L322.71 279.59C320.94 262.89 319.49 249.3 318.49 239.87C318.24 237.52 318.01 235.43 317.81 233.61C317.74 232.7 317.54 231.86 317.66 231.11C317.77 230.36 318.07 229.71 318.45 229.23C319.22 228.24 320.17 227.89 320.78 227.76C321.41 227.64 321.74 227.68 321.74 227.65L321.73 227.69Z" fill="#470F4C"/>
<path d="M355.09 254.46C355 256.58 353.21 258.23 351.09 258.14C348.97 258.05 347.32 256.26 347.41 254.14C347.5 252.02 349.29 250.37 351.41 250.46C353.53 250.55 355.18 252.34 355.09 254.46Z" fill="white"/>
<path d="M389.37 282C389.28 282.01 387.8 270.54 386.06 256.39C384.32 242.23 382.98 230.75 383.07 230.74C383.16 230.73 384.64 242.2 386.38 256.36C388.12 270.51 389.46 282 389.37 282.01V282Z" fill="#470F4C"/>
<path d="M469.88 259.52C469.88 259.52 469.8 259.56 469.65 259.63C469.47 259.7 469.24 259.79 468.95 259.91C468.3 260.16 467.39 260.5 466.22 260.95C463.8 261.85 460.32 263.14 455.95 264.76C447.13 267.99 434.73 272.54 420.3 277.83L420.07 277.91L419.98 277.68C418.24 273.15 416.41 268.36 414.52 263.43L414.44 263.22L414.64 263.11C417.38 261.66 420.26 260.13 423.19 258.58C435.91 251.86 447.82 245.57 457.9 240.25L457.8 240.53C453.45 229.83 449.82 220.91 447.27 214.64C446.02 211.53 445.04 209.08 444.35 207.37C444.03 206.55 443.78 205.91 443.6 205.45C443.52 205.25 443.46 205.08 443.42 204.95C443.38 204.84 443.36 204.78 443.37 204.78C443.37 204.78 443.4 204.83 443.45 204.94C443.51 205.07 443.58 205.22 443.67 205.42C443.86 205.87 444.14 206.5 444.48 207.31C445.19 209 446.21 211.44 447.51 214.53C450.1 220.79 453.79 229.68 458.22 240.35L458.3 240.54L458.12 240.64C448.05 245.98 436.15 252.29 423.45 259.04C420.52 260.59 417.63 262.12 414.9 263.56L415.02 263.24C416.9 268.18 418.73 272.97 420.46 277.5L420.15 277.36C434.61 272.14 447.03 267.65 455.87 264.46C460.26 262.89 463.76 261.65 466.19 260.78C467.37 260.37 468.3 260.05 468.95 259.82C469.25 259.72 469.48 259.64 469.66 259.58C469.82 259.53 469.9 259.51 469.91 259.51L469.88 259.52Z" fill="#470F4C"/>
<path d="M441.1 171.39L424.78 178.92L420.56 188.34L419.93 178.71L415 174.8L412.37 178.56L417.12 192.17L424.62 192.48L442.69 177.95L443.3 177.63L441.1 171.39Z" fill="#00B380"/>
<path d="M412.37 178.56C412.44 178.53 412.93 179.63 413.68 181.41C414.45 183.18 415.42 185.71 416.66 188.34C416.69 188.4 416.72 188.46 416.75 188.51L416.29 188.54C417.44 185.9 418.22 183.38 418.85 181.59C419.46 179.79 419.85 178.69 419.92 178.71C419.99 178.73 419.72 179.87 419.2 181.7C418.66 183.52 417.94 186.05 416.77 188.75L416.56 189.24L416.31 188.78C416.28 188.72 416.24 188.65 416.21 188.58C414.93 185.86 414.04 183.36 413.35 181.54C412.68 179.72 412.31 178.58 412.38 178.55L412.37 178.56Z" fill="#470F4C"/>
<path d="M443.3 177.63C443.3 177.63 442.97 177.94 442.31 178.43C441.56 178.97 440.62 179.65 439.49 180.46C437.1 182.16 433.77 184.47 430.08 187C428.54 188.05 427.06 189.06 425.7 189.98L425.34 190.22L425.31 189.79C425.1 186.62 424.93 183.89 424.84 181.97C424.8 181.08 424.77 180.33 424.75 179.71C424.74 179.18 424.75 178.9 424.77 178.9C424.8 178.9 424.85 179.18 424.91 179.7C424.97 180.32 425.05 181.06 425.14 181.95C425.32 183.87 425.55 186.59 425.8 189.76L425.42 189.57C426.78 188.63 428.25 187.62 429.78 186.56C433.47 184.03 436.83 181.76 439.27 180.14C440.43 179.38 441.41 178.75 442.18 178.24C442.87 177.8 443.27 177.57 443.29 177.6L443.3 177.63Z" fill="#470F4C"/>
<path d="M403.24 260.94C403.24 260.94 403.15 260.8 403.02 260.51C402.9 260.21 402.75 259.76 402.64 259.15C402.4 257.94 402.24 256.16 402.18 253.93C402.12 251.7 402.18 249.01 402.31 245.98C402.43 242.95 402.55 239.58 402.69 235.97L402.76 236.15C400.87 234.13 399.25 231.59 398.16 228.73C397.32 226.53 396.83 224.25 396.69 222.03C396.56 219.81 396.75 217.67 397.09 215.66C397.79 211.65 398.97 208.19 399.82 205.26C400.69 202.34 401.28 199.94 401.58 198.26C401.9 196.59 401.97 195.64 402.02 195.65C402.04 195.65 402.02 195.89 402 196.34C401.97 196.79 401.91 197.45 401.78 198.3C401.54 200 401 202.42 400.17 205.36C399.36 208.31 398.23 211.77 397.56 215.73C397.23 217.71 397.06 219.81 397.19 221.98C397.33 224.15 397.81 226.37 398.64 228.52C399.71 231.31 401.29 233.8 403.13 235.79L403.2 235.87V235.97C403.03 239.58 402.88 242.94 402.75 245.98C402.58 249 402.49 251.67 402.51 253.9C402.51 256.12 402.64 257.9 402.82 259.1C402.99 260.31 403.29 260.9 403.25 260.92L403.24 260.94Z" fill="#470F4C"/>
<path d="M418.03 260.73C418.03 260.73 417.98 260.48 417.95 260C417.92 259.47 417.87 258.76 417.81 257.89C417.7 256.06 417.59 253.4 417.49 250.12C417.3 243.55 417.27 234.47 417.69 224.45C418.12 214.43 418.92 205.38 419.66 198.85C420.03 195.59 420.37 192.95 420.63 191.13C420.76 190.26 420.86 189.57 420.94 189.04C421.02 188.56 421.07 188.31 421.08 188.32C421.1 188.32 421.08 188.58 421.04 189.06C420.99 189.59 420.91 190.29 420.82 191.16C420.62 193.04 420.35 195.67 420.01 198.89C419.36 205.42 418.62 214.46 418.19 224.47C417.77 234.48 417.75 243.55 417.84 250.11C417.9 253.35 417.96 255.99 417.99 257.88C418.01 258.76 418.02 259.46 418.03 259.99C418.03 260.47 418.03 260.73 418.01 260.73H418.03Z" fill="#470F4C"/>
<path d="M457.21 183.16C457.21 183.26 455.87 183.08 453.78 183.4C451.7 183.71 448.83 184.67 446.38 186.77C443.93 188.87 442.53 191.55 441.89 193.55C441.24 195.57 441.21 196.91 441.11 196.9C441.08 196.9 441.06 196.56 441.09 195.96C441.12 195.36 441.25 194.49 441.53 193.44C442.09 191.36 443.48 188.55 446.03 186.37C448.58 184.19 451.58 183.26 453.72 183.04C454.8 182.92 455.68 182.94 456.28 183C456.88 183.06 457.21 183.13 457.2 183.16H457.21Z" fill="#470F4C"/>
<path d="M466.62 244.2C466.5 244.32 465.05 242.55 462.53 241.53C460.03 240.47 457.75 240.7 457.75 240.54C457.75 240.48 458.3 240.33 459.22 240.33C460.14 240.33 461.42 240.51 462.73 241.05C464.04 241.59 465.08 242.37 465.72 243.02C466.37 243.67 466.66 244.17 466.61 244.2H466.62Z" fill="#470F4C"/>
<path d="M447.04 233.51C447.04 233.51 446.81 233.67 446.34 233.88C445.88 234.1 445.19 234.35 444.31 234.61C442.57 235.14 440.04 235.57 437.25 235.47C434.45 235.35 431.98 234.71 430.28 234.04C429.43 233.71 428.76 233.4 428.32 233.14C427.87 232.89 427.64 232.74 427.65 232.71C427.69 232.63 428.7 233.12 430.4 233.69C432.1 234.26 434.53 234.83 437.27 234.94C440 235.05 442.47 234.68 444.21 234.25C445.96 233.83 447 233.41 447.03 233.5L447.04 233.51Z" fill="#470F4C"/>
</g>
<defs>
<clipPath id="clip0_111_1335">
<rect width="593.69" height="455.62" fill="white"/>
</clipPath>
</defs>
</svg>
